<?xml version="1.0" encoding="UTF-8"?>
<svg width="1004px" height="359px" viewBox="0 0 1004 359" version="1.1" xmlns="http://www.w3.org/2000/svg" xmlns:xlink="http://www.w3.org/1999/xlink">
    <!-- Generator: Sketch 59 (86127) - https://sketch.com -->
    <title>编组 2</title>
    <desc>Created with Sketch.</desc>
    <defs>
        <rect id="path-1" x="0" y="0" width="1004" height="359"></rect>
    </defs>
    <g id="ERP-账户信息-优化" stroke="none" stroke-width="1" fill="none" fill-rule="evenodd">
        <g id="ERP--账户信息优化" transform="translate(-478.000000, -178.000000)">
            <g id="编组-2" transform="translate(478.000000, 178.000000)">
                <mask id="mask-2" fill="white">
                    <use xlink:href="#path-1"></use>
                </mask>
                <use id="矩形" fill="#FFFFFF" xlink:href="#path-1"></use>
                <g id="编组" opacity="0.0547721354" mask="url(#mask-2)" stroke="#000000">
                    <g transform="translate(849.000000, 632.000000) rotate(-360.000000) translate(-849.000000, -632.000000) translate(-85.000000, -81.000000)">
                        <path d="M83.3719,568.6412 C83.3719,568.6412 358.8179,531.0762 500.3719,351.6412 C713.3719,81.6412 837.9949,-3.5478 1071.3719,0.6412 C1461.3719,7.6412 1423.7879,364.1312 1419.3719,403.6412 C1400.3719,573.6412 1867.3719,539.6412 1867.3719,539.6412" id="Stroke-1"></path>
                        <path d="M82.075,578.8287 C82.746,579.5757 355.771,542.6807 497.341,365.9727 C709.375,100.1097 834.802,15.9897 1066.644,20.2717 C1191.859,22.5877 1272.942,60.9437 1325.002,113.3247 C1433.663,222.7567 1417.273,392.5187 1415.104,419.0927 C1401.381,587.2577 1861.341,553.4697 1861.341,553.4697" id="Stroke-3"></path>
                        <path d="M80.7782,589.0162 C82.1212,590.5112 353.1102,554.5992 494.3102,380.3032 C705.9582,119.0472 831.6092,35.5272 1061.9172,39.9032 C1186.3522,42.2722 1267.1492,80.2462 1318.9922,132.2662 C1426.7762,240.6152 1412.1852,408.1112 1410.8372,434.5432 C1402.3592,600.7582 1855.3092,567.2972 1855.3092,567.2972" id="Stroke-5"></path>
                        <path d="M79.4813,599.2037 C81.4963,601.4457 350.2503,566.3627 491.2783,394.6347 C702.2413,137.7497 828.4163,55.0637 1057.1893,59.5337 C1180.8443,61.9577 1261.3563,99.5487 1312.9823,151.2077 C1419.8903,258.4747 1407.0953,423.6747 1406.5693,449.9947 C1403.2883,614.1427 1849.2783,581.1257 1849.2783,581.1257" id="Stroke-7"></path>
                        <path d="M78.1844,609.3912 C80.8714,612.3802 347.3854,578.1272 488.2474,408.9662 C698.5174,156.4532 825.2234,74.6022 1052.4614,79.1642 C1175.3364,81.6432 1255.5624,118.8512 1306.9714,170.1492 C1413.0034,276.3342 1402.0024,439.2072 1402.3024,465.4452 C1404.1494,627.4112 1843.2474,594.9532 1843.2474,594.9532" id="Stroke-9"></path>
                        <path d="M76.8875,619.5787 C80.2455,623.3157 344.5165,589.8927 485.2165,423.2977 C694.7855,175.1567 822.0305,94.1387 1047.7345,98.7957 C1169.8285,101.3277 1249.7695,138.1537 1300.9615,189.0907 C1406.1165,294.1937 1396.9055,454.7117 1398.0345,480.8957 C1404.9245,640.5647 1837.2155,608.7817 1837.2155,608.7817" id="Stroke-11"></path>
                        <path d="M75.5907,629.7662 C79.6197,634.2502 341.6427,601.6612 482.1857,437.6282 C691.0477,193.8602 818.8377,113.6762 1043.0067,118.4262 C1164.3207,121.0132 1243.9767,157.4562 1294.9517,208.0322 C1399.2307,312.0532 1391.7997,470.1862 1393.7677,496.3472 C1405.5977,653.6102 1831.1847,622.6102 1831.1847,622.6102" id="Stroke-13"></path>
                        <path d="M74.2938,639.9537 C78.9948,645.1847 338.7638,613.4287 479.1548,451.9597 C687.2998,212.5627 815.6448,133.2137 1038.2788,138.0577 C1158.8138,140.6977 1238.1838,176.7587 1288.9418,226.9737 C1392.3448,329.9127 1386.6848,485.6327 1389.4998,511.7987 C1406.1508,666.5527 1825.1528,636.4377 1825.1528,636.4377" id="Stroke-15"></path>
                        <path d="M72.9969,650.1412 C78.3699,656.1202 335.8809,625.1982 476.1239,466.2902 C683.5449,231.2662 812.4519,152.7502 1033.5519,157.6882 C1153.3059,160.3822 1232.3909,196.0602 1282.9319,245.9152 C1385.4579,347.7722 1381.5589,501.0512 1385.2319,527.2492 C1406.5709,679.4002 1819.1219,650.2662 1819.1219,650.2662" id="Stroke-17"></path>
                        <path d="M71.7,660.3287 C77.744,667.0557 332.992,636.9677 473.093,480.6217 C679.782,249.9677 809.259,172.2887 1028.824,177.3187 C1147.798,180.0677 1226.696,215.2627 1276.922,264.8567 C1378.773,365.4277 1376.419,516.4437 1380.965,542.7007 C1406.845,692.1637 1813.091,664.0947 1813.091,664.0947" id="Stroke-19"></path>
                        <path d="M70.4032,670.5162 C77.1192,677.9912 330.0982,648.7382 470.0622,494.9542 C676.0092,268.6682 806.0662,191.8252 1024.0962,196.9502 C1142.2902,199.7522 1220.9132,234.5552 1270.9122,283.7982 C1371.9062,383.2672 1371.2642,531.8142 1376.6982,558.1522 C1406.9612,704.8532 1807.0592,677.9222 1807.0592,677.9222" id="Stroke-21"></path>
                        <path d="M69.1063,680.7037 C76.4933,688.9257 327.1983,660.5097 467.0303,509.2847 C672.2283,287.3687 802.8733,211.3627 1019.3693,216.5807 C1136.7823,219.4377 1215.1293,253.8467 1264.9023,302.7397 C1365.0383,401.1067 1366.0933,547.1617 1372.4303,573.6017 C1406.9133,717.4807 1801.0283,691.7507 1801.0283,691.7507" id="Stroke-23"></path>
                        <path d="M67.8094,690.8912 C75.8684,699.8602 324.2934,672.2812 463.9994,523.6162 C668.4374,306.0672 799.6804,230.9002 1014.6414,236.2112 C1131.2744,239.1232 1209.3454,273.1392 1258.8914,321.6812 C1358.1694,418.9472 1360.9044,562.4902 1368.1634,589.0532 C1406.6954,730.0602 1794.9974,705.5792 1794.9974,705.5792" id="Stroke-25"></path>
                        <path d="M66.5125,701.0787 C75.2425,710.7957 321.3825,684.0527 460.9685,537.9467 C664.6375,324.7647 796.4875,250.4367 1009.9135,255.8417 C1125.7665,258.8077 1203.5615,292.4327 1252.8815,340.6227 C1351.3005,436.7877 1355.6945,577.8017 1363.8955,604.5047 C1406.3065,742.6027 1788.9655,719.4067 1788.9655,719.4067" id="Stroke-27"></path>
                        <path d="M65.2157,711.2662 C74.6177,721.7302 318.4657,695.8252 457.9377,552.2782 C660.8287,343.4592 793.2947,269.9742 1005.1867,275.4732 C1120.2597,278.4932 1197.7777,311.7252 1246.8717,359.5652 C1344.4307,454.6292 1345.7437,595.2062 1359.6277,619.9552 C1380.4597,761.2452 1782.9347,733.2352 1782.9347,733.2352" id="Stroke-29"></path>
                        <path d="M63.9188,721.4537 C73.9928,732.6647 315.5428,707.5977 454.9068,566.6087 C657.0088,362.1527 790.1018,289.5117 1000.4588,295.1037 C1114.7518,298.1777 1191.9928,331.0187 1240.8618,378.5067 C1337.5608,472.4727 1340.2718,610.8007 1355.3598,635.4067 C1379.0368,774.6447 1776.9028,747.0627 1776.9028,747.0627" id="Stroke-31"></path>
                        <path d="M62.6219,731.6412 C73.3669,743.6002 312.6129,719.3692 451.8749,580.9412 C653.1789,380.8432 786.9089,309.0492 995.7309,314.7352 C1109.2439,317.8632 1186.2079,350.3112 1234.8519,397.4482 C1330.6889,490.3152 1334.7989,626.3942 1351.0929,650.8582 C1377.6149,788.0452 1770.8719,760.8912 1770.8719,760.8912" id="Stroke-33"></path>
                        <path d="M61.325,741.8287 C72.742,754.5347 309.676,731.1407 448.845,595.2717 C649.339,399.5317 783.716,328.5867 991.004,334.3657 C1103.736,337.5477 1180.423,369.6047 1228.842,416.3897 C1323.817,508.1577 1329.326,641.9877 1346.826,666.3087 C1376.192,801.4457 1764.841,774.7197 1764.841,774.7197" id="Stroke-35"></path>
                        <path d="M60.0282,752.0162 C72.1162,765.4692 306.7332,742.9112 445.8132,609.6032 C645.4872,418.2162 780.5232,348.1232 986.2762,353.9972 C1098.2282,357.2322 1174.6372,388.8992 1222.8322,435.3302 C1316.9442,526.0022 1323.8532,657.5812 1342.5582,681.7592 C1374.7702,814.8462 1758.8092,788.5472 1758.8092,788.5472" id="Stroke-37"></path>
                        <path d="M58.7313,762.2037 C71.4913,776.4047 303.7823,754.6817 442.7823,623.9337 C641.6243,436.8977 777.3303,367.6607 981.5483,373.6277 C1092.7203,376.9177 1168.8513,408.1927 1216.8223,454.2717 C1310.0713,543.8477 1318.3803,673.1757 1338.2913,697.2107 C1373.3483,828.2457 1752.7783,802.3757 1752.7783,802.3757" id="Stroke-39"></path>
                        <path d="M57.4344,772.3912 C70.8664,787.3392 300.8254,766.4502 439.7514,638.2652 C637.7504,455.5762 774.1374,387.1982 976.8214,393.2582 C1087.2124,396.6022 1163.0664,427.4872 1210.8124,473.2132 C1303.1974,561.6922 1312.9084,688.7692 1334.0234,712.6622 C1371.9254,841.6462 1746.7474,816.2042 1746.7474,816.2042" id="Stroke-41"></path>
                        <path d="M56.1375,782.5787 C70.2405,798.2737 297.8595,778.2177 436.7205,652.5967 C633.8645,474.2497 770.9445,406.7347 972.0935,412.8897 C1081.7045,416.2877 1157.2795,446.7817 1204.8015,492.1547 C1296.3225,579.5387 1307.4355,704.3627 1329.7555,728.1127 C1370.5035,855.0467 1740.7155,830.0317 1740.7155,830.0317" id="Stroke-43"></path>
                        <path d="M54.8407,792.7662 C69.6147,809.2092 294.8867,789.9832 433.6897,666.9272 C629.9657,492.9182 767.7517,426.2732 967.3657,432.5202 C1076.1967,435.9722 1151.4927,466.0772 1198.7917,511.0972 C1289.4467,597.3852 1301.9627,719.9562 1325.4877,743.5642 C1369.0807,868.4472 1734.6847,843.8602 1734.6847,843.8602" id="Stroke-45"></path>
                    </g>
                </g>
            </g>
        </g>
    </g>
</svg>