<?xml version="1.0" encoding="UTF-8"?>
<svg width="46px" height="46px" viewBox="0 0 46 46" version="1.1" xmlns="http://www.w3.org/2000/svg" xmlns:xlink="http://www.w3.org/1999/xlink">
    <!-- Generator: Sketch 59 (86127) - https://sketch.com -->
    <title>编组 16</title>
    <desc>Created with Sketch.</desc>
    <g id="ERP-账户信息-优化" stroke="none" stroke-width="1" fill="none" fill-rule="evenodd">
        <g id="ERP--账户信息优化" transform="translate(-1413.000000, -201.000000)">
            <g id="编组-16" transform="translate(1414.000000, 202.000000)">
                <rect id="矩形" stroke="#979797" fill="#333333" x="0" y="0" width="44" height="44" rx="22"></rect>
                <g id="铅笔" transform="translate(10.000000, 10.000000)" fill-rule="nonzero">
                    <rect id="矩形" fill="#000000" opacity="0" x="0" y="0" width="24" height="24"></rect>
                    <path d="M16.9101562,3.121875 L20.8875,7.09921875 L7.940625,20.0484375 L2.97890625,21.0164062 L3.96328125,16.0734375 L16.9101562,3.121875 M16.9101563,1.79765625 L3.0984375,15.609375 L1.7859375,22.2023438 L8.4,20.9132813 L22.2140625,7.09921875 L16.9101563,1.79765625 Z M14.5078125,4.2 L13.8445312,4.86328125 L19.1484375,10.1671875 L19.8117187,9.50390625 L14.5078125,4.2 Z M13.2796875,5.428125 L12.6164062,6.09140625 L17.9203125,11.3953125 L18.5835938,10.7320312 L13.2796875,5.428125 L13.2796875,5.428125 Z M3.7546875,14.953125 L3.09140625,15.6164062 L8.3953125,20.9203125 L9.05859375,20.2570312 L3.7546875,14.953125 Z M14.3484375,7.59140625 L5.2171875,16.7226562 L5.88046875,17.3859375 L15.0117187,8.2546875 L14.3484375,7.59140625 Z M15.7570313,9 L6.62578125,18.13125 L7.2890625,18.7945312 L16.4203125,9.66328125 L15.7570313,9 Z" id="形状" fill="#FFFFFF"></path>
                </g>
            </g>
        </g>
    </g>
</svg>