<?xml version="1.0" encoding="UTF-8"?>
<svg width="24px" height="24px" viewBox="0 0 24 24" version="1.1" xmlns="http://www.w3.org/2000/svg" xmlns:xlink="http://www.w3.org/1999/xlink">
    <!-- Generator: Sketch 59 (86127) - https://sketch.com -->
    <title>instagram</title>
    <desc>Created with Sketch.</desc>
    <g id="ERP-账户信息-优化" stroke="none" stroke-width="1" fill="none" fill-rule="evenodd">
        <g id="ERP--账户信息优化" transform="translate(-1088.000000, -569.000000)">
            <g id="编组-14" transform="translate(560.000000, 569.000000)">
                <g id="编组-13">
                    <g id="编组-11" transform="translate(507.000000, 0.000000)">
                        <g id="instagram" transform="translate(21.000000, 0.000000)">
                            <g>
                                <rect id="矩形" fill="#000000" fill-rule="nonzero" opacity="0" x="0" y="0" width="24" height="24"></rect>
                                <path d="M12.8695207,24 L11.1304793,24 C5.00871568,24 0,18.9912843 0,12.8695207 L0,11.1304793 C0,5.00871568 5.00871568,0 11.1304793,0 L12.8695207,0 C18.9912843,0 24,5.00871568 24,11.1304793 L24,12.8695207 C24,18.9912843 18.9912569,24 12.8695207,24 Z" id="路径" fill="#333333" fill-rule="nonzero"></path>
                                <path d="M11.946462,9.21232821 C10.4053306,9.21232821 9.15600652,10.4616523 9.15600652,12.0027837 C9.15600652,13.5439151 10.4053306,14.7932392 11.946462,14.7932392 C13.4875934,14.7932392 14.7369175,13.5439151 14.7369175,12.0027837 C14.7369175,10.4616523 13.4875934,9.21232821 11.946462,9.21232821 Z M11.946462,13.8185883 C10.9436383,13.8185883 10.1306574,13.0056314 10.1306574,12.0027837 C10.1306574,10.999936 10.9436143,10.1869791 11.946462,10.1869791 C12.9493097,10.1869791 13.7622666,10.999936 13.7622666,12.0027837 C13.7622666,13.0056314 12.9493097,13.8185883 11.946462,13.8185883 Z M17.3553602,9.63520887 C17.3553602,7.93427937 16.0149903,6.59390948 14.3140608,6.59390948 C14.3140608,6.59390948 13.1110276,6.5554178 11.946486,6.5554178 C10.7819444,6.5554178 9.61740286,6.59390948 9.61740286,6.59390948 C7.91647336,6.59390948 6.53758779,7.97279505 6.53758779,9.67372453 C6.53758779,9.67372453 6.4990961,10.7625306 6.4990961,11.8873326 C6.4990961,13.08907 6.53758779,14.3319148 6.53758779,14.3319148 C6.53758779,16.0328443 7.91647336,17.4117299 9.61740286,17.4117299 C9.61740286,17.4117299 10.7062089,17.4502216 11.8310109,17.4502216 C13.0327483,17.4502216 14.3140848,17.4117299 14.3140848,17.4117299 C16.0150143,17.4117299 17.3553842,16.07136 17.3553842,14.3704305 C17.3553842,14.3704305 17.3938759,13.1415761 17.3938759,11.96434 C17.3938759,10.812709 17.3553602,9.63520887 17.3553602,9.63520887 Z M16.3817652,14.1821236 C16.3817652,15.5768954 15.5205977,16.4380629 14.1258259,16.4380629 C14.1258259,16.4380629 12.8372182,16.4696434 11.8517926,16.4696434 C10.9294559,16.4696434 9.80563777,16.4380629 9.80563777,16.4380629 C8.41088998,16.4380629 7.51120673,15.5383557 7.51120673,14.1436319 C7.51120673,14.1436319 7.47962627,12.8935159 7.47962627,11.9080903 C7.47962627,10.9857536 7.51120673,9.82344377 7.51120673,9.82344377 C7.51120673,8.42867198 8.41091398,7.56750443 9.80563777,7.56750443 C9.80563777,7.56750443 10.9915369,7.53592397 11.946486,7.53592397 C12.9014351,7.53592397 14.1258259,7.56750443 14.1258259,7.56750443 C15.5205977,7.56750443 16.3817652,8.42867198 16.3817652,9.82344377 C16.3817652,9.82344377 16.4133457,11.026933 16.4133457,11.9712032 C16.4133457,12.9365431 16.3817652,14.1821236 16.3817652,14.1821236 Z M14.8704385,8.43795895 C14.4980722,8.43795895 14.196186,8.74133297 14.196186,9.11554706 C14.196186,9.48976116 14.4980722,9.79311117 14.8704385,9.79311117 C15.2428048,9.79311117 15.544667,9.48976116 15.544667,9.11554706 C15.544667,8.74130897 15.2428048,8.43795895 14.8704385,8.43795895 Z" id="形状" fill="#FFFFFF" fill-rule="nonzero"></path>
                            </g>
                        </g>
                    </g>
                </g>
            </g>
        </g>
    </g>
</svg>