<?xml version="1.0" encoding="UTF-8"?>
<svg width="49px" height="49px" viewBox="0 0 49 49" version="1.1" xmlns="http://www.w3.org/2000/svg" xmlns:xlink="http://www.w3.org/1999/xlink">
    <!-- Generator: Sketch 60.1 (88133) - https://sketch.com -->
    <title>line</title>
    <desc>Created with Sketch.</desc>
    <g id="line" stroke="none" stroke-width="1" fill="none" fill-rule="evenodd">
        <g fill-rule="nonzero">
            <rect id="矩形" fill="#000000" opacity="0" x="1" y="1" width="48" height="48"></rect>
            <path d="M25.7390414,48 L22.2609586,48 C10.0174314,48 0,37.9825686 0,25.7390414 L0,22.2609586 C0,10.0174314 10.0174314,0 22.2609586,0 L25.7390414,0 C37.9825686,0 48,10.0174314 48,22.2609586 L48,25.7390414 C48,37.9825686 37.9825138,48 25.7390414,48 Z" id="路径" fill="#333333"></path>
            <path d="M36.9349193,23.6537028 C36.9349193,18.26765 31.5324523,13.8821892 24.892924,13.8821892 C18.2533957,13.8821892 12.8509287,18.2665461 12.8509287,23.6537028 C12.8509287,28.4847457 17.1345929,32.5319404 22.9224087,33.2960628 C23.3143328,33.3803414 23.8474571,33.5544179 23.982082,33.8894204 C24.1047083,34.1937543 24.061993,34.669957 24.0214856,34.9786584 L23.8496169,36.0098709 C23.7970628,36.3164126 23.6087798,37.2009535 24.892876,36.6590462 C26.178076,36.1182428 31.8268514,32.5757115 34.3534804,29.6681492 C36.098469,27.7523957 36.9349193,25.8103412 36.9349193,23.6526469 L36.9349193,23.6537028 L36.9349193,23.6537028 Z M32.285632,23.204857 C32.634169,23.2193994 32.9049546,23.5137025 32.8904603,23.8622394 C32.8767818,24.1904267 32.6138672,24.4533892 32.285632,24.4670677 L30.5231254,24.4670677 L30.5231254,25.5946534 L32.285632,25.5946534 C32.6347929,25.6091957 32.9060585,25.9040267 32.8915162,26.2531397 C32.8778377,26.5819508 32.6143952,26.8453453 32.285632,26.8590238 L29.892572,26.8590238 C29.5439871,26.8583998 29.2615387,26.5759515 29.2609148,26.2273665 L29.2609148,21.4434543 C29.2609148,21.0931416 29.5455229,20.8106932 29.892572,20.8106932 L32.285632,20.8106932 C32.634169,20.8358424 32.8963636,21.1387845 32.8711664,21.4873694 C32.848513,21.8009183 32.5991329,22.0502984 32.285632,22.0729038 L30.5231254,22.0729038 L30.5231254,23.2037532 L32.285632,23.2037532 L32.285632,23.204857 Z M28.4135735,26.2284704 C28.4147695,26.5760955 28.133953,26.8589278 27.78628,26.8601277 C27.7844561,26.8601277 27.7826324,26.8601277 27.7808086,26.8601277 C27.5828787,26.8592638 27.3966596,26.7661542 27.277249,26.6083479 L24.8250596,23.2694098 L24.8250596,26.2284704 C24.8250596,26.5773433 24.5422753,26.8601277 24.1934023,26.8601277 C23.8445294,26.8601277 23.5617451,26.5773434 23.5617451,26.2284704 L23.5617451,26.2284704 L23.5617451,21.4445102 C23.5617451,21.0956373 23.8445294,20.8128529 24.1934023,20.8128529 C24.3918601,20.8128529 24.5787512,20.9061065 24.6980658,21.0646328 L27.1502552,24.4035708 L27.1502552,21.4445102 C27.1707969,21.0956373 27.4702833,20.8295071 27.8191082,20.8500488 C28.1392804,20.8689107 28.3947078,21.1243381 28.4135735,21.4445102 L28.4135735,26.2284704 Z M22.6553186,26.2284704 C22.6553186,26.5773433 22.3725343,26.8601277 22.0236613,26.8601277 C21.6747884,26.8601277 21.3920041,26.5773434 21.3920041,26.2284704 L21.3920041,26.2284704 L21.3920041,21.4445102 C21.4065465,21.0959732 21.7008495,20.8251876 22.0493865,20.8396819 C22.3775737,20.8533604 22.6405363,21.116275 22.6542147,21.4445102 L22.6542147,26.2284704 L22.6553186,26.2284704 Z M20.179036,26.8601277 L17.785976,26.8601277 C17.437535,26.8595037 17.1554226,26.5769114 17.1554226,26.2284704 L17.1554226,21.4445102 C17.1699649,21.0959732 17.464268,20.8251876 17.812805,20.8396819 C18.1409922,20.8533604 18.4039548,21.116275 18.4176332,21.4445102 L18.4176332,25.5957093 L20.1801398,25.5957093 C20.5293007,25.5957093 20.812325,25.8787816 20.812325,26.2278945 C20.812325,26.5770554 20.5293007,26.8601277 20.1801398,26.8601277 L20.179036,26.8601277 L20.179036,26.8601277 Z" id="形状" fill="#FFFFFF"></path>
        </g>
    </g>
</svg>