<?xml version="1.0" encoding="UTF-8"?>
<svg width="24px" height="24px" viewBox="0 0 24 24" version="1.1" xmlns="http://www.w3.org/2000/svg" xmlns:xlink="http://www.w3.org/1999/xlink">
    <!-- Generator: Sketch 59 (86127) - https://sketch.com -->
    <title>wechat</title>
    <desc>Created with Sketch.</desc>
    <g id="ERP-账户信息-优化" stroke="none" stroke-width="1" fill="none" fill-rule="evenodd">
        <g id="ERP--账户信息优化" transform="translate(-713.000000, -569.000000)">
            <g id="编组-14" transform="translate(560.000000, 569.000000)">
                <g id="编组-13">
                    <g id="编组-8" transform="translate(138.000000, 0.000000)">
                        <g id="wechat" transform="translate(15.000000, 0.000000)">
                            <g>
                                <rect id="矩形" fill="#000000" fill-rule="nonzero" opacity="0" x="0" y="0" width="24" height="24"></rect>
                                <path d="M10.8392946,15.2224821 C10.5087456,15.2745422 10.1746235,15.3006042 9.84,15.3004286 C9.15902679,15.3004286 8.506875,15.193875 7.90459821,14.9990089 C7.60173214,14.901 6.49502679,16.0599911 6.22004464,15.9196339 C6.05625,15.8360357 6.71432143,14.4659732 6.5619375,14.3686071 C5.20191964,13.4997589 4.32,12.1040089 4.32,10.5302143 C4.32,7.89570536 6.79138393,5.76 9.84,5.76 C12.7145893,5.76 15.0759643,7.65883929 15.3361875,10.0842321 C17.7542143,10.1788125 19.68,11.8520625 19.68,13.9022946 C19.68,15.1755536 18.9373125,16.3033661 17.79525,16.9980268 C17.5801607,17.128875 18.2609732,18.2320179 18.0198482,18.3301875 C17.8712143,18.3906964 16.8079821,17.4569732 16.6508839,17.503875 C16.1723839,17.6468036 15.6570268,17.7246161 15.12,17.7246161 C13.1551339,17.7246161 11.4805446,16.6829196 10.8392946,15.2224821 L10.8392946,15.2224821 Z M10.5869196,14.3200179 C10.3394096,14.3541223 10.0898486,14.3711803 9.84,14.3710714 C9.20341071,14.3710714 8.59730357,14.2616518 8.04691071,14.0639732 C7.992,14.0442589 7.79625,13.9851964 7.69033929,14.0639732 C7.45226786,14.2410804 7.13303571,14.6087143 7.13303571,14.6087143 C7.13303571,14.6087143 7.24990179,14.3410446 7.2890625,13.9501339 C7.30698214,13.7715268 7.03438393,13.6462768 6.97995536,13.6095 C5.94324107,12.90825 5.28,11.7497679 5.28,10.5455357 C5.28,8.43275893 7.32158036,6.72 9.84,6.72 C12.1914375,6.72 14.1271875,8.21316964 14.3735357,10.1309732 C12.2102143,10.4295536 10.56,12.0043929 10.56,13.9022946 C10.56,14.0434554 10.5691071,14.1828214 10.5869196,14.3200179 L10.5869196,14.3200179 Z M12,24 C18.6274286,24 24,18.6274286 24,12 C24,5.37257143 18.6274286,0 12,0 C5.37257143,0 0,5.37257143 0,12 C0,18.6274286 5.37257143,24 12,24 Z M7.92,9.6 C8.31763393,9.6 8.64,9.27763393 8.64,8.88 C8.64,8.48236607 8.31763393,8.16 7.92,8.16 C7.52236607,8.16 7.2,8.48236607 7.2,8.88 C7.2,9.27763393 7.52236607,9.6 7.92,9.6 Z M11.76,9.6 C12.1576339,9.6 12.48,9.27763393 12.48,8.88 C12.48,8.48236607 12.1576339,8.16 11.76,8.16 C11.3623661,8.16 11.04,8.48236607 11.04,8.88 C11.04,9.27763393 11.3623661,9.6 11.76,9.6 L11.76,9.6 Z M13.44,12.96 C13.7050982,12.96 13.92,12.7450982 13.92,12.48 C13.92,12.2149018 13.7050982,12 13.44,12 C13.1749018,12 12.96,12.2149018 12.96,12.48 C12.96,12.7450982 13.1749018,12.96 13.44,12.96 Z M16.32,12.96 C16.5850982,12.96 16.8,12.7450982 16.8,12.48 C16.8,12.2149018 16.5850982,12 16.32,12 C16.0549018,12 15.84,12.2149018 15.84,12.48 C15.84,12.7450982 16.0549018,12.96 16.32,12.96 Z" id="形状" fill="#333333" fill-rule="nonzero"></path>
                            </g>
                        </g>
                    </g>
                </g>
            </g>
        </g>
    </g>
</svg>