<?xml version="1.0" encoding="UTF-8"?>
<svg width="16px" height="16px" viewBox="0 0 16 16" version="1.1" xmlns="http://www.w3.org/2000/svg" xmlns:xlink="http://www.w3.org/1999/xlink">
    <!-- Generator: Sketch 59 (86127) - https://sketch.com -->
    <title>聊天</title>
    <desc>Created with Sketch.</desc>
    <g id="ERP-账户信息-优化" stroke="none" stroke-width="1" fill="none" fill-rule="evenodd">
        <g id="ERP--账户信息优化" transform="translate(-1241.000000, -780.000000)" fill-rule="nonzero">
            <g id="编组-22" transform="translate(1223.000000, 764.000000)">
                <g id="聊天" transform="translate(18.000000, 16.000000)">
                    <rect id="矩形" fill="#000000" opacity="0" x="0" y="0.0147874307" width="15.142329" height="15.142329"></rect>
                    <path d="M14.6294501,2.26754419 L13.7366847,2.26754419 L13.7366847,1.37477874 C13.735048,0.624361834 13.1271222,0.0164360167 12.3767053,0.0147862784 L1.36593116,0.0147862784 C1.00472721,0.0132177026 0.657731876,0.155393846 0.401483623,0.409967272 C0.145235371,0.664540698 0.0007869285,1.01059628 0,1.37180284 L0,7.88006311 C0.00164106458,8.65136255 0.627364713,9.27575487 1.39866589,9.27575312 L1.48794245,9.27575312 L1.48794245,8.68057615 L1.39866589,8.68057615 C0.956070778,8.68057918 0.596816215,8.32265519 0.595176976,7.88006311 L0.595176976,1.37180284 C0.595176976,0.951057665 0.936258331,0.609976311 1.3570035,0.609976311 L12.3677776,0.609976311 C12.5706158,0.609976307 12.7651463,0.690553472 12.9085746,0.83398175 C13.0520029,0.977410028 13.13258,1.17194052 13.13258,1.37477874 L13.13258,2.26754419 L3.60974838,2.26754419 C2.86097501,2.26918086 2.25438152,2.87577434 2.25274486,3.62454771 L2.25274486,10.3827823 C2.25274486,10.686645 2.37345384,10.9780623 2.58831722,11.1929256 C2.80318059,11.407789 3.09459786,11.528498 3.39846055,11.528498 L3.95197514,11.528498 L3.95197514,15.0549216 C3.95154185,15.0984758 3.97903061,15.1374195 4.02021479,15.1515977 C4.06139896,15.1657758 4.10703495,15.1520062 4.13350412,15.1174152 L6.79394521,11.7397858 C6.89876966,11.6065326 7.05888221,11.5286696 7.22842441,11.528498 L14.8437138,11.528498 C15.1483658,11.528498 15.44054,11.4074755 15.6559615,11.192054 C15.8713829,10.9766326 15.9924054,10.6844584 15.9924054,10.3798064 L15.9924054,3.63049948 C15.9924054,2.87776006 15.3821896,2.26754419 14.6294501,2.26754419 L14.6294501,2.26754419 Z M15.3972284,10.3827823 C15.3972284,10.6868364 15.1507439,10.933321 14.8466897,10.933321 L7.22842441,10.933321 C6.87977596,10.9357033 6.55118397,11.0967134 6.33565894,11.3707761 L4.72868109,13.4062814 C4.70221192,13.4408724 4.65657594,13.454642 4.61539176,13.4404639 C4.57420759,13.4262857 4.54671883,13.387342 4.54715212,13.3437878 L4.54715212,10.933321 L3.39846055,10.933321 C3.09440642,10.933321 2.84792185,10.6868364 2.84792185,10.3827823 L2.84792185,3.62454771 C2.84792185,3.20380254 3.1890032,2.86272118 3.60974838,2.86272118 L14.6205225,2.86272118 C15.0433953,2.86272118 15.3866617,3.20465397 15.3883008,3.62752359 L15.3972284,10.3827823 Z" id="形状" fill="#FA6400"></path>
                    <path d="M5.16911206,4.79407048 L8.90979938,4.79407048 L8.90979938,5.38924745 L5.16911206,5.38924745 L5.16911206,4.79407048 Z M5.16911206,6.71946801 L12.9064128,6.71946801 L12.9064128,7.31464498 L5.16911206,7.31464498 L5.16911206,6.71946801 Z M5.16911206,8.49607128 L9.55556639,8.49607128 L9.55556639,9.09124827 L5.16911206,9.09124827 L5.16911206,8.49607128 Z" id="形状" fill="#FA6400"></path>
                </g>
            </g>
        </g>
    </g>
</svg>