<?xml version="1.0" encoding="UTF-8"?>
<svg width="24px" height="24px" viewBox="0 0 24 24" version="1.1" xmlns="http://www.w3.org/2000/svg" xmlns:xlink="http://www.w3.org/1999/xlink">
    <!-- Generator: Sketch 59 (86127) - https://sketch.com -->
    <title>facebook</title>
    <desc>Created with Sketch.</desc>
    <g id="ERP-账户信息-优化" stroke="none" stroke-width="1" fill="none" fill-rule="evenodd">
        <g id="ERP--账户信息优化" transform="translate(-840.000000, -569.000000)">
            <g id="编组-14" transform="translate(560.000000, 569.000000)">
                <g id="编组-13">
                    <g id="编组-9" transform="translate(259.000000, 0.000000)">
                        <g id="facebook" transform="translate(21.000000, 0.000000)">
                            <g>
                                <rect id="矩形" fill="#000000" fill-rule="nonzero" opacity="0" x="0" y="0" width="24" height="24"></rect>
                                <path d="M12,0 C5.36835938,0 0,5.36835938 0,12 C0,18.6316406 5.36835938,24 12,24 C18.6316406,24 24,18.6328125 24,12 C24,5.3671875 18.6328125,0 12,0 Z M15.2203125,11.9369531 L13.1369531,11.9369531 L13.1369531,19.453125 L10.0432031,19.453125 L10.0432031,11.9369531 L8.46304687,11.9369531 L8.46304687,9.34804688 L10.0422656,9.34804688 L10.0422656,7.76882813 C10.0422656,5.68546875 10.9265625,4.42195313 13.3891406,4.42195313 L15.4725,4.42195313 L15.4725,7.01109375 L14.2089844,7.01109375 C13.2621094,7.01109375 13.1990625,7.3903125 13.1990625,8.02101563 L13.1990625,9.28453125 L15.5353125,9.28453125 L15.2196094,11.9371875 L15.2203125,11.9369531 Z" id="形状" fill="#333333" fill-rule="nonzero"></path>
                            </g>
                        </g>
                    </g>
                </g>
            </g>
        </g>
    </g>
</svg>