<?xml version="1.0" encoding="UTF-8"?>
<svg width="24px" height="24px" viewBox="0 0 24 24" version="1.1" xmlns="http://www.w3.org/2000/svg" xmlns:xlink="http://www.w3.org/1999/xlink">
    <!-- Generator: Sketch 59 (86127) - https://sketch.com -->
    <title>linkedin</title>
    <desc>Created with Sketch.</desc>
    <g id="ERP-账户信息-优化" stroke="none" stroke-width="1" fill="none" fill-rule="evenodd">
        <g id="ERP--账户信息优化" transform="translate(-1217.000000, -569.000000)">
            <g id="编组-14" transform="translate(560.000000, 569.000000)">
                <g id="编组-13">
                    <g id="编组-12" transform="translate(641.000000, 0.000000)">
                        <g id="linkedin" transform="translate(16.000000, 0.000000)">
                            <g>
                                <rect id="矩形" fill="#000000" fill-rule="nonzero" opacity="0" x="0" y="0" width="24" height="24"></rect>
                                <path d="M12.8695207,24 L11.1304793,24 C5.00871568,24 0,18.9912843 0,12.8695207 L0,11.1304793 C0,5.00871568 5.00871568,0 11.1304793,0 L12.8695207,0 C18.9912843,0 24,5.00871568 24,11.1304793 L24,12.8695207 C24,18.9912843 18.9912569,24 12.8695207,24 Z" id="路径" fill="#333333" fill-rule="nonzero"></path>
                                <path d="M7.32957108,16.4741549 L9.43715904,16.4741549 L9.43715904,9.94062265 L7.32957108,9.94062265 L7.32957108,16.4741549 Z M14.4953845,9.94062265 C13.4855776,9.94062265 12.9139376,10.2753851 12.598565,10.7148719 L12.598565,9.94062265 L10.490977,9.94062265 L10.490977,16.4741549 L12.598565,16.4741549 L12.598565,12.8140848 C12.7114243,11.8335547 13.0609452,11.6886349 13.6648135,11.6266978 C14.6095397,11.5298207 14.7061529,12.2206553 14.7061529,12.8912602 C14.7061529,13.5618651 14.7061529,16.4741549 14.7061529,16.4741549 L16.8137409,16.4741549 C16.8137409,16.4741549 16.8137409,13.5682244 16.8137409,12.9295599 C16.8137409,11.9593725 16.6910186,9.94062265 14.4953845,9.94062265 Z M8.38336507,6.77924072 C7.73538963,6.77924072 7.1188027,7.39254002 7.1188027,8.04380309 C7.1188027,8.69506615 7.73538966,9.30836545 8.38336507,9.30836545 C9.03134048,9.30836545 9.64792744,8.69506615 9.64792744,8.04380309 C9.64792744,7.39254002 9.03136448,6.77924072 8.38336507,6.77924072 Z" id="形状" fill="#FFFFFF" fill-rule="nonzero"></path>
                            </g>
                        </g>
                    </g>
                </g>
            </g>
        </g>
    </g>
</svg>