<?xml version="1.0" encoding="UTF-8"?>
<svg width="24px" height="24px" viewBox="0 0 24 24" version="1.1" xmlns="http://www.w3.org/2000/svg" xmlns:xlink="http://www.w3.org/1999/xlink">
    <!-- Generator: Sketch 59 (86127) - https://sketch.com -->
    <title>skype</title>
    <desc>Created with Sketch.</desc>
    <g id="ERP-账户信息-优化" stroke="none" stroke-width="1" fill="none" fill-rule="evenodd">
        <g id="ERP--账户信息优化" transform="translate(-1343.000000, -569.000000)">
            <g id="编组-14" transform="translate(560.000000, 569.000000)">
                <g id="编组-13">
                    <g id="编组-12备份" transform="translate(776.000000, 0.000000)">
                        <g id="skype" transform="translate(7.000000, 0.000000)">
                            <g>
                                <rect id="矩形" fill="#000000" fill-rule="nonzero" opacity="0" x="0" y="0" width="24" height="24"></rect>
                                <path d="M12,0 C15.3009635,0 18.2906269,1.33283373 20.460188,3.48969881 L20.4850654,3.46545919 C22.7602833,5.74067712 23.9309196,8.7023001 23.9968814,11.6838627 C23.998626,11.7883509 24,11.894015 24,12 C24,18.627417 18.627417,24 12,24 C5.372583,24 0,18.627417 0,12 C0,5.372583 5.372583,0 12,0 Z" id="形状结合" fill="#333333" fill-rule="nonzero"></path>
                                <path d="M23.6681549,14.7984774 L16.4744647,7.60493911 L15.0484373,9.03096647 L11.5255522,6.2665699 L6.00683641,11.7852857 L8.44774355,15.6316096 L7.49520185,16.5841513 L14.6205278,23.7094773 C19.0834466,22.7147017 22.6072432,19.2361773 23.6681549,14.7984774 Z" id="路径" fill="#5B5B5B" fill-rule="nonzero"></path>
                                <path d="M22.8160833,17.2028224 L12.5870209,6.9735574 L10.9254661,7.40369505 L8.77806942,8.41421977 L7.87783901,11.3354996 L7.81909641,13.8258822 L16.9320493,22.9388351 C19.5033549,21.7773014 21.5935282,19.739642 22.8160833,17.2028224 Z" id="路径" fill="#6B6B6B" fill-rule="nonzero"></path>
                                <path d="M18.3315919,13.1873096 C18.383352,12.860594 18.4093261,12.5303125 18.4092739,12.1995223 C18.4092739,8.70372963 15.5753484,5.86985475 12.0794038,5.86985475 C11.7438113,5.86985475 11.4135361,5.8975043 11.0918191,5.94753677 C10.5087987,5.5873332 9.82075064,5.37849312 9.08327777,5.37849312 C6.9709241,5.37849312 5.25816955,7.09048556 5.25816955,9.2031937 C5.25735996,9.9128246 5.45455189,10.6086084 5.8275702,11.2122921 C5.77774027,11.5347687 5.75024264,11.8631703 5.75024264,12.1996742 C5.75024264,15.6954669 8.58416817,18.5284302 12.0792012,18.5284302 C12.4149456,18.5284302 12.7454234,18.5026544 13.0671911,18.4518623 C13.6707345,18.8248842 14.3663707,19.0221442 15.0758843,19.0214648 C17.1886431,19.0214648 18.9011926,17.3085084 18.9011926,15.1960028 C18.9011926,14.4585299 18.6923525,13.770887 18.3315919,13.1873096 Z M15.0845944,15.0779606 C14.8168598,15.4635855 14.4236895,15.7648439 13.9094385,15.9814319 C13.3944279,16.1983744 12.7857836,16.3063899 12.0829992,16.3063899 C11.2403467,16.3063899 10.542677,16.159179 9.99221829,15.8614654 C9.60188381,15.6483209 9.28467375,15.3621532 9.04043618,15.0055451 C8.79599604,14.6485825 8.67207954,14.2991653 8.67207954,13.9584582 C8.67207954,13.7574167 8.74864748,13.5825055 8.89793473,13.4402066 C9.04874116,13.296743 9.24299688,13.2245807 9.47209303,13.2245807 C9.6598668,13.2245807 9.82110513,13.2812471 9.95241511,13.3934151 C10.0827629,13.5055831 10.1920951,13.6681887 10.2815256,13.883055 C10.3885789,14.1320527 10.505102,14.3404877 10.6290185,14.5062836 C10.7519729,14.6703578 10.9251623,14.8073901 11.1497008,14.9145953 C11.371758,15.0220538 11.6667877,15.0758337 12.0364609,15.0758337 C12.5422044,15.0758337 12.9509212,14.9667041 13.2637256,14.7504705 C13.5780998,14.5329203 13.7292608,14.2678696 13.7292607,13.9478237 C13.7292607,13.6923947 13.6477807,13.4892769 13.4808707,13.331229 C13.3124414,13.1713073 13.0948913,13.0491125 12.8246753,12.9639864 C12.5536997,12.8781513 12.1896981,12.7867964 11.7336327,12.6909346 C11.1213929,12.5573458 10.6088637,12.4015766 10.1942726,12.222918 C9.77892188,12.0436518 9.44808961,11.7984521 9.20309243,11.4888381 C8.95753821,11.1761856 8.83493836,10.7875729 8.83493834,10.3269499 C8.83493834,9.88789952 8.96417205,9.49513432 9.22319658,9.15366762 C9.48201851,8.81128938 9.85645198,8.54902392 10.3445726,8.36616223 C10.8309715,8.1835031 11.4037626,8.0923508 12.0597554,8.0923508 C12.5844383,8.0923508 13.038073,8.15296709 13.4223306,8.27404774 C13.8054742,8.39548289 14.1247605,8.55601223 14.3801896,8.75781335 C14.6340994,8.95865229 14.8205565,9.17088527 14.9388013,9.39334758 C15.0568436,9.61677204 15.1165484,9.83447416 15.1165484,10.0470616 C15.1165484,10.2448621 15.0399804,10.4241283 14.8906932,10.5816193 C14.7413553,10.7389077 14.5503912,10.819223 14.3271693,10.8184634 C14.1259253,10.8184634 13.9680798,10.7722289 13.8587477,10.6736831 C13.7520488,10.5789354 13.640286,10.4275212 13.5192053,10.2166556 C13.3661201,9.92218294 13.1828532,9.69328934 12.9697087,9.52921516 C12.7622359,9.36833133 12.4200096,9.28442055 11.9434856,9.28553463 C11.5027641,9.28553463 11.149954,9.37552223 10.883688,9.55154747 C10.6159534,9.73061114 10.4876818,9.93828649 10.4871247,10.1817645 C10.4876818,10.3342927 10.531283,10.4625642 10.6195994,10.572656 C10.7092325,10.6837099 10.8337061,10.7797743 10.9940329,10.8608492 C11.1495682,10.9409685 11.3127782,11.0052176 11.4811914,11.0526236 C11.6467848,11.0994151 11.9215584,11.1672729 12.3039423,11.2572605 C12.7831503,11.3605159 13.2182001,11.4759248 13.6089397,11.6017657 C13.9989197,11.7283155 14.3314231,11.8806918 14.6065511,12.0625913 C14.8837555,12.2435286 15.1003435,12.4745491 15.254796,12.7534245 C15.4103627,13.0327051 15.4878421,13.3738174 15.4878421,13.7754952 C15.4875889,14.2586025 15.3528861,14.6930952 15.0845944,15.0779606 L15.0845944,15.0779606 Z" id="形状" fill="#FFFFFF" fill-rule="nonzero"></path>
                            </g>
                        </g>
                    </g>
                </g>
            </g>
        </g>
    </g>
</svg>