<?xml version="1.0" encoding="UTF-8"?>
<svg width="24px" height="24px" viewBox="0 0 24 24" version="1.1" xmlns="http://www.w3.org/2000/svg" xmlns:xlink="http://www.w3.org/1999/xlink">
    <!-- Generator: Sketch 59 (86127) - https://sketch.com -->
    <title>twitter</title>
    <desc>Created with Sketch.</desc>
    <g id="ERP-账户信息-优化" stroke="none" stroke-width="1" fill="none" fill-rule="evenodd">
        <g id="ERP--账户信息优化" transform="translate(-964.000000, -569.000000)" fill-rule="nonzero">
            <g id="编组-14" transform="translate(560.000000, 569.000000)">
                <g id="编组-13">
                    <g id="编组-10" transform="translate(392.000000, 0.000000)">
                        <g id="twitter" transform="translate(12.000000, 0.000000)">
                            <rect id="矩形" fill="#000000" opacity="0" x="0" y="0" width="24" height="24"></rect>
                            <path d="M12,0 C5.37210937,0 0,5.37210937 0,12 C0,18.6278906 5.37210937,24 12,24 C18.6278906,24 24,18.6278906 24,12 C24,5.37210938 18.6278906,0 12,0 Z M18.1033594,9.7003125 C18.035625,14.8223437 14.7597656,18.3309375 9.87070313,18.5514844 C7.85507813,18.6435937 6.39351563,17.9922656 5.12203125,17.1846094 C6.6121875,17.4225 8.46023438,16.8267187 9.44859375,15.9808594 C7.98773438,15.8383594 7.12289063,15.0951562 6.718125,13.8984375 C7.13902444,13.9673807 7.56912364,13.9567276 7.98609375,13.8670312 C6.66773438,13.4259375 5.72648438,12.6114844 5.67773438,10.9040625 C6.0478125,11.0725781 6.43335938,11.2305469 6.94570313,11.2617187 C5.95921875,10.7008594 5.22960938,8.64960937 6.06515625,7.29304687 C7.52929688,8.89804687 9.29039063,10.2075 12.1823438,10.3846875 C11.4557813,7.28085937 15.5692969,5.5978125 17.2917188,7.68398437 C18.0182813,7.54335937 18.6117188,7.26703125 19.1814844,6.9665625 C18.9471094,7.68726562 18.4952344,8.19117187 17.9446875,8.5940625 C18.5491406,8.51226562 19.0842188,8.36484375 19.5410156,8.13890625 C19.2567188,8.72765625 18.6365625,9.25570312 18.1033594,9.7003125 L18.1033594,9.7003125 Z" id="形状" fill="#333333"></path>
                        </g>
                    </g>
                </g>
            </g>
        </g>
    </g>
</svg>