<?xml version="1.0" encoding="UTF-8"?>
<svg width="24px" height="24px" viewBox="0 0 24 24" version="1.1" xmlns="http://www.w3.org/2000/svg" xmlns:xlink="http://www.w3.org/1999/xlink">
    <!-- Generator: Sketch 60.1 (88133) - https://sketch.com -->
    <title>whatsapp</title>
    <desc>Created with Sketch.</desc>
    <g id="个人中心" stroke="none" stroke-width="1" fill="none" fill-rule="evenodd">
        <g id="个人中心-编辑" transform="translate(-749.000000, -860.000000)">
            <g id="编组-15" transform="translate(657.000000, 836.000000)">
                <g id="编组-11">
                    <g id="编组-7" transform="translate(65.000000, 24.000000)">
                        <g id="whatsapp" transform="translate(27.000000, 0.000000)">
                            <g>
                                <rect id="矩形" fill="#000000" fill-rule="nonzero" opacity="0" x="0" y="0" width="24" height="24"></rect>
                                <path d="M12.8695207,24 L11.1304793,24 C5.00871568,24 0,18.9912843 0,12.8695207 L0,11.1304793 C0,5.00871568 5.00871568,0 11.1304793,0 L12.8695207,0 C18.9912843,0 24,5.00871568 24,11.1304793 L24,12.8695207 C24,18.9912843 18.9912569,24 12.8695207,24 Z" id="路径" fill="#333333" fill-rule="nonzero"></path>
                                <path d="M13.5206857,12.6956341 C13.3219159,12.6956341 12.9393268,13.4383749 12.7095525,13.4383749 C12.6496792,13.4358552 12.5915817,13.4174252 12.5412354,13.3849329 C12.1126914,13.1701329 11.7375894,12.9483738 11.3854528,12.6117395 C11.0942455,12.3360104 10.7730894,11.9224407 10.6053002,11.562817 C10.5821428,11.5287648 10.5686563,11.4890492 10.5663046,11.4479418 C10.5663046,11.2716096 11.0953013,10.9429904 11.0953013,10.651759 C11.0953013,10.5753516 10.705225,9.53497209 10.6507271,9.40406674 C10.5743197,9.20529701 10.5363799,9.1438399 10.330123,9.1438399 C10.2301982,9.1438399 10.1377606,9.12087445 10.0469307,9.12087445 C9.88554881,9.12087445 9.76373845,9.18233156 9.64831139,9.28919161 C9.28067257,9.63384101 9.09687715,9.99346474 9.08190284,10.4989441 L9.08190284,10.5598493 C9.07388773,11.088846 9.33411459,11.616235 9.62532197,12.0453309 C10.2825604,13.017846 10.964396,13.8674468 12.0587214,14.3643832 C12.3878685,14.51775 13.1461116,14.838882 13.5131985,14.838882 C13.9497576,14.838882 14.6620459,14.5637049 14.8372982,14.1346089 C14.9067704,13.9582767 14.9676756,13.7445326 14.9676756,13.55325 C14.9676756,13.5222695 14.9676756,13.4763147 14.9516454,13.4383749 C14.8982034,13.3464652 13.6510631,12.6956341 13.5206857,12.6956341 Z M11.9668117,16.7529077 C11.0333163,16.7529077 10.107308,16.4697154 9.32607548,15.9567248 L7.47350698,16.5455709 L8.07838322,14.7624746 C7.48166606,13.9443582 7.15988609,12.9580207 7.15931016,11.9454061 C7.15931016,9.29773465 9.31806037,7.13898443 11.9667877,7.13898443 C14.6155151,7.13898443 16.7748172,9.29720672 16.7748172,11.9448782 C16.7748172,14.5941574 14.616091,16.7529077 11.9668117,16.7529077 Z M11.9668117,6.17398052 C8.78212842,6.17398052 6.19589006,8.76127474 6.19589006,11.9449022 C6.19589006,12.9943526 6.47908235,14.0277729 7.02197353,14.9233286 L5.98106611,18.0235894 L9.17323659,16.9976563 C11.9652759,18.5390276 15.4782184,17.5251412 17.0195658,14.7330779 C17.490801,13.8794935 17.7382133,12.9204649 17.7387653,11.9454301 C17.7387653,8.76180267 15.151471,6.17450845 11.9667877,6.17450845 L11.9668117,6.17398052 Z" id="形状" fill="#FFFFFF" fill-rule="nonzero"></path>
                            </g>
                        </g>
                    </g>
                </g>
            </g>
        </g>
    </g>
</svg>