<?xml version="1.0" standalone="no"?><!DOCTYPE svg PUBLIC "-//W3C//DTD SVG 1.1//EN" "http://www.w3.org/Graphics/SVG/1.1/DTD/svg11.dtd"><svg t="1539758974213" class="icon" style="" viewBox="0 0 1024 1024" version="1.1" xmlns="http://www.w3.org/2000/svg" p-id="1334" xmlns:xlink="http://www.w3.org/1999/xlink" width="48" height="48"><defs><style type="text/css"></style></defs><path d="M469.942857 661.942857a38.4 20.114286 0 1 0 76.8 0 38.4 20.114286 0 1 0-76.8 0Z" fill="#ff8d31" p-id="1335"></path><path d="M373.028571 630.857143a38.4 20.114286 0 1 0 76.8 0 38.4 20.114286 0 1 0-76.8 0Z" fill="#ff8d31" p-id="1336"></path><path d="M577.828571 641.828571a38.4 20.114286 0 1 0 76.8 0 38.4 20.114286 0 1 0-76.8 0Z" fill="#ff8d31" p-id="1337"></path><path d="M650.971429 524.8a38.4 20.114286 0 1 0 76.8 0 38.4 20.114286 0 1 0-76.8 0Z" fill="#ff8d31" p-id="1338"></path><path d="M643.657143 588.8a38.4 20.114286 0 1 0 76.8 0 38.4 20.114286 0 1 0-76.8 0Z" fill="#ff8d31" p-id="1339"></path><path d="M508.342857 96.914286C281.6 96.914286 96.914286 281.6 96.914286 508.342857s184.685714 411.428571 411.428571 411.428572 411.428571-184.685714 411.428572-411.428572S735.085714 96.914286 508.342857 96.914286z m34.742857 155.428571c-14.628571 21.942857 43.885714 82.285714-23.771428 109.714286-7.314286-1.828571-14.628571-5.485714-21.942857-7.314286-34.742857-62.171429 21.942857-95.085714 45.714285-102.4z m-87.771428 192l40.228571-84.114286 23.771429 7.314286-18.285715 91.428572-45.714285-14.628572z m43.885714 20.114286c-1.828571 9.142857-3.657143 18.285714-7.314286 27.428571 0 1.828571-1.828571 3.657143-3.657143 3.657143-5.485714 1.828571-12.8 1.828571-18.285714 1.828572-10.971429 0-21.942857 0-29.257143-3.657143-5.485714-1.828571-3.657143-7.314286-3.657143-9.142857 3.657143-10.971429 9.142857-23.771429 14.628572-34.742858 16.457143 3.657143 31.085714 9.142857 47.542857 14.628572z m91.428571 254.171428c-107.885714 23.771429-217.6-10.971429-266.971428-78.628571-40.228571-54.857143-16.457143-58.514286 38.4-62.171429 40.228571-1.828571 82.285714-5.485714 76.8-20.114285-5.485714-10.971429-27.428571-25.6-49.371429-40.228572-60.342857-38.4-62.171429-58.514286 1.828572-95.085714 21.942857-12.8 47.542857-23.771429 76.8-29.257143L448 438.857143c-23.771429 7.314286-38.4 20.114286-36.571429 36.571428 1.828571 20.114286 32.914286 32.914286 65.828572 31.085715 34.742857-1.828571 60.342857-20.114286 56.685714-40.228572-1.828571-9.142857-7.314286-16.457143-18.285714-21.942857l12.8-60.342857c104.228571-3.657143 201.142857 43.885714 228.571428 120.685714 32.914286 91.428571-42.057143 186.514286-166.4 213.942857z" fill="#ff8d31" p-id="1340"></path></svg>