<?xml version="1.0" encoding="UTF-8"?>
<svg width="14px" height="14px" viewBox="0 0 14 14" version="1.1" xmlns="http://www.w3.org/2000/svg" xmlns:xlink="http://www.w3.org/1999/xlink">
    <!-- Generator: Sketch 50.2 (55047) - http://www.bohemiancoding.com/sketch -->
    <title>fause@1x</title>
    <desc>Created with Sketch.</desc>
    <defs></defs>
    <g stroke="none" stroke-width="1" fill="none" fill-rule="evenodd">
        <g transform="translate(-1476.000000, -573.000000)" fill-rule="nonzero">
            <g transform="translate(1476.000000, 573.000000)">
                <rect fill="#F14014" opacity="0" x="0" y="0" width="14" height="14"></rect>
                <path d="M7,14 C3.13403125,14 0,10.8659688 0,7 C0,3.13403125 3.13403125,0 7,0 C10.8659688,0 14,3.13403125 14,7 C14,10.8659688 10.8659688,14 7,14 Z M7,3.64285714 C7,3.28778571 6.77616667,3 6.5,3 C6.22383333,3 6,3.28778571 6,3.64285714 L6,8.35714286 C6,8.71221429 6.22383333,9 6.5,9 C6.77616667,9 7,8.71221429 7,8.35714286 L7,3.64285714 Z M6.5,10 C6.22383333,10 6,10.2238333 6,10.5 C6,10.7761667 6.22383333,11 6.5,11 C6.77616667,11 7,10.7761667 7,10.5 C7,10.2238333 6.77616667,10 6.5,10 Z" fill="#4A90E2"></path>
            </g>
        </g>
    </g>
</svg>