<?xml version="1.0" encoding="UTF-8"?>
<svg width="24px" height="22px" viewBox="0 0 24 22" version="1.1" xmlns="http://www.w3.org/2000/svg" xmlns:xlink="http://www.w3.org/1999/xlink">
    <!-- Generator: Sketch 55.2 (78181) - https://sketchapp.com -->
    <title>仓库</title>
    <desc>Created with Sketch.</desc>
    <defs>
        <linearGradient x1="50%" y1="0.670396959%" x2="50%" y2="100%" id="linearGradient-1">
            <stop stop-color="#F2D7A1" offset="0%"></stop>
            <stop stop-color="#DFAD65" offset="100%"></stop>
        </linearGradient>
    </defs>
    <g stroke="none" stroke-width="1" fill="none" fill-rule="evenodd">
        <g transform="translate(-420.000000, -170.000000)" fill="url(#linearGradient-1)" fill-rule="nonzero">
            <g transform="translate(167.000000, 170.000000)">
                <g transform="translate(93.000000, 0.000000)">
                    <g transform="translate(160.000000, 0.000000)">
                        <g>
                            <path d="M23.7886214,5.55198274 L23.7886214,5.55198273 C23.7443451,5.52309324 23.6957129,5.50163934 23.6446212,5.48845765 C22.3186197,4.89858197 12.2071079,0.412501748 12.0001077,0.412501748 L11.7676074,0.412501748 L0.355594146,5.48845765 L0.355594115,5.48845766 C0.14707067,5.53826836 9.34852676e-05,5.72612841 9.34852676e-05,5.94220819 L9.34852676e-05,8.21701084 C9.34852676e-05,8.47564864 0.216093953,8.68588638 0.483094264,8.68588638 L1.56009552,8.68588638 L1.56009552,20.0190621 C1.56009552,20.8842131 2.28009635,21.5860139 3.16809739,21.5860139 L3.85809819,21.5860139 L3.85809819,12.4308407 L20.1421171,12.4308407 L20.1421171,21.5875264 L20.8321179,21.5875264 C21.720119,21.5875264 22.4401198,20.8857256 22.4401198,20.0205746 L22.4251198,8.68891139 L23.5171211,8.68891139 C23.7841214,8.68891139 24.0001216,8.47716114 24.0001216,8.21852334 L24.0001216,5.94220819 L24.0001216,5.94220843 C23.9997173,5.78440888 23.9201167,5.63754331 23.7886216,5.55198297 L23.7886214,5.55198274 Z M7.63060263,8.68891139 L4.0845985,8.68891139 L4.08459851,8.68891139 C3.9537175,8.6905925 3.84626699,8.58497109 3.84459775,8.4529994 C3.84459775,8.45298664 3.84459775,8.45297388 3.84459775,8.45296111 L3.84459775,6.56838392 C3.84459775,6.50637135 3.87009778,6.44738378 3.91509783,6.40200873 L3.91509783,6.40200873 C3.96062195,6.35770046 4.02132678,6.33278271 4.08459803,6.33243365 L7.63060215,6.33243365 C7.76560231,6.33243365 7.87210243,6.43830877 7.87210243,6.56838392 L7.87210243,8.45447362 L7.87210243,8.45447363 C7.87045619,8.58644555 7.76302137,8.69208529 7.63213966,8.69044369 C7.632127,8.69044369 7.63211434,8.69044369 7.63210168,8.69044369 L7.63060263,8.68891139 Z M13.7731098,8.68891139 L10.2271057,8.68891139 L10.2271057,8.68891139 C10.0962246,8.6905925 9.98877413,8.58497109 9.9871049,8.4529994 C9.9871049,8.45298664 9.9871049,8.45297388 9.9871049,8.45296111 L9.9871049,6.56838392 C9.9871049,6.50637135 10.0111049,6.44738378 10.056105,6.40200873 L10.056105,6.40200874 C10.1020029,6.35733841 10.1633148,6.3323923 10.2271052,6.3324336 L13.7731093,6.3324336 C13.9066095,6.3324336 14.0131096,6.43830878 14.0131096,6.56838393 L14.0131096,8.45447362 L14.0131096,8.45447363 C14.0114633,8.58644556 13.9040285,8.6920853 13.7731468,8.6904437 C13.7731341,8.6904437 13.7731215,8.6904437 13.7731088,8.6904437 L13.7731098,8.68891139 Z M19.9156169,8.68891139 L16.3696128,8.68891139 L16.3696128,8.68891139 C16.2387449,8.69142765 16.130632,8.58649399 16.1281137,8.45453554 C16.1281137,8.45401072 16.1281137,8.45348587 16.1281137,8.452961 L16.1281137,6.56838381 C16.1281137,6.50637123 16.1536137,6.44738366 16.1986137,6.40200861 L16.1986137,6.40200862 C16.2445117,6.3573383 16.3058235,6.33239218 16.3696139,6.33243349 L19.9156181,6.33243349 C20.0476182,6.33243349 20.1556183,6.43830866 20.1556183,6.56838381 L20.1556183,8.45447351 L20.1556183,8.45447352 C20.1539721,8.58644544 20.0465373,8.69208518 19.9156556,8.69044359 C19.9156429,8.69044359 19.9156302,8.69044359 19.9156176,8.69044359 L19.9156169,8.68891139 Z M7.73710275,13.4532919 C7.73710275,13.3232168 7.84510288,13.2188542 7.97860303,13.2188542 L9.29860457,13.2188542 L9.29860457,14.0053551 L10.0636055,14.0053551 L10.0636055,13.2188542 L11.383607,13.2188542 C11.5156071,13.2188542 11.6236073,13.3247293 11.6236073,13.4532919 L11.6236073,16.7293707 L11.6236073,16.7293705 C11.6211435,16.8607634 11.5139269,16.9654954 11.383607,16.9638286 L7.97860304,16.9638286 L7.97860303,16.9638286 C7.84828358,16.9654955 7.74106603,16.8607637 7.73860275,16.7293707 L7.73860275,13.4532919 L7.73710275,13.4532919 Z M12.3766082,13.4532919 C12.3766082,13.3232168 12.4846083,13.2188542 12.6166084,13.2188542 L13.93661,13.2188542 L13.93661,14.0053551 L14.7016109,14.0053551 L14.7016109,13.2188542 L16.0216124,13.2188542 C16.1551125,13.2188542 16.2616127,13.3247293 16.2616127,13.4532919 L16.2616127,16.7293707 L16.2616127,16.7293705 C16.2591489,16.8607634 16.1519323,16.9654954 16.0216124,16.9638286 L12.6151084,16.9638286 L12.6151084,16.9638286 C12.484789,16.9654955 12.3775714,16.8607637 12.3751081,16.7293707 L12.3751081,13.4532919 L12.3766082,13.4532919 Z M7.73710275,17.7518219 L9.05710429,17.7518219 C9.19060444,17.7518219 9.29710457,17.8576971 9.29710457,17.9877722 L9.29710457,21.2623385 L9.29710457,21.2623385 C9.29545833,21.3943105 9.1880235,21.4999502 9.05714179,21.4983086 C9.05712913,21.4983086 9.05711647,21.4983086 9.05710382,21.4983086 L5.65209986,21.4983086 L5.65209986,21.4983086 C5.52121885,21.4999699 5.41376834,21.3943485 5.4120991,21.2623768 C5.4120991,21.262364 5.4120991,21.2623513 5.4120991,21.2623385 L5.4120991,17.9877722 C5.4120991,17.8576971 5.52009923,17.7518219 5.65209938,17.7518219 L6.97210092,17.7518219 L6.97210092,18.5398353 L7.73710181,18.5398353 L7.73710181,17.7533344 L7.73710275,17.7518219 Z M12.3826082,17.7518219 L13.7026097,17.7518219 C13.8361099,17.7518219 13.94261,17.8576971 13.94261,17.9877722 L13.94261,21.2623385 L13.94261,21.2623385 C13.9409637,21.3943105 13.8335289,21.4999502 13.7026472,21.4983086 C13.7026345,21.4983086 13.7026219,21.4983086 13.7026092,21.4983086 L10.2976053,21.4983086 L10.2976053,21.4983086 C10.1667243,21.4999699 10.0592737,21.3943485 10.0576045,21.2623768 C10.0576045,21.262364 10.0576045,21.2623513 10.0576045,21.2623385 L10.0576045,17.9877722 C10.0576045,17.9242471 10.0816045,17.8652596 10.1281046,17.821397 L10.1281046,17.821397 C10.1736287,17.7770887 10.2343335,17.752171 10.2976048,17.7518219 L11.6176063,17.7518219 L11.6176063,18.5398354 L12.3826072,18.5398354 L12.3826072,17.7533344 L12.3826082,17.7518219 Z M17.0281136,17.7518219 L18.3481151,17.7518219 C18.4801153,17.7518219 18.5881154,17.8576971 18.5881154,17.9877722 L18.5881154,21.2623385 L18.5881154,21.2623385 C18.5864691,21.3943105 18.4790343,21.4999502 18.3481526,21.4983086 C18.3481399,21.4983086 18.3481273,21.4983086 18.3481146,21.4983086 L14.9431107,21.4983086 L14.9431107,21.4983086 C14.8122297,21.4999699 14.7047791,21.3943485 14.7031099,21.2623768 C14.7031099,21.262364 14.7031099,21.2623513 14.7031099,21.2623385 L14.7031099,17.9877722 C14.7031099,17.8576971 14.80961,17.7518219 14.9431102,17.7518219 L16.2631117,17.7518219 L16.2631117,18.5398353 L17.0281126,18.5398353 L17.0281126,17.7533344 L17.0281136,17.7518219 Z"></path>
                        </g>
                    </g>
                </g>
            </g>
        </g>
    </g>
</svg>