<?xml version="1.0" encoding="UTF-8"?>
<svg width="26px" height="26px" viewBox="0 0 26 26" version="1.1" xmlns="http://www.w3.org/2000/svg" xmlns:xlink="http://www.w3.org/1999/xlink">
    <!-- Generator: Sketch 50.2 (55047) - http://www.bohemiancoding.com/sketch -->
    <title>prompt@1x</title>
    <desc>Created with Sketch.</desc>
    <defs>
        <path d="M14.9775,18.8825 L5.315,18.8825 C3.1225,18.8825 1.3425,17.105 1.3425,14.91 L1.3425,5.2475 C1.3425,3.0525 3.1225,1.275 5.315,1.275 L14.9775,1.275 C17.1725,1.275 18.95,3.0525 18.95,5.2475 L18.95,14.91 C18.95,17.1025 17.1725,18.8825 14.9775,18.8825 Z" id="path-1"></path>
        <filter x="-36.9%" y="-31.2%" width="173.8%" height="173.8%" filterUnits="objectBoundingBox" id="filter-2">
            <feOffset dx="0" dy="1" in="SourceAlpha" result="shadowOffsetOuter1"></feOffset>
            <feGaussianBlur stdDeviation="2" in="shadowOffsetOuter1" result="shadowBlurOuter1"></feGaussianBlur>
            <feColorMatrix values="0 0 0 0 0.948341837   0 0 0 0 0.86364949   0 0 0 0 0.687944471  0 0 0 1 0" type="matrix" in="shadowBlurOuter1"></feColorMatrix>
        </filter>
    </defs>
    <g stroke="none" stroke-width="1" fill="none" fill-rule="evenodd">
        <g transform="translate(-283.000000, -376.000000)" fill-rule="nonzero">
            <g transform="translate(286.000000, 378.000000)">
                <rect fill="#000000" opacity="0" x="0" y="0" width="20" height="20"></rect>
                <g>
                    <use fill="black" fill-opacity="1" filter="url(#filter-2)" xlink:href="#path-1"></use>
                    <use fill="#FFBC31" fill-rule="evenodd" xlink:href="#path-1"></use>
                </g>
                <path d="M14.48,7.615 C14.48,5.3 12.54,3.425 10.1475,3.425 C7.755,3.425 5.815,5.3 5.815,7.615 C5.815,8.9725 6.4825,10.1775 7.5175,10.9425 C8.355,11.5625 8.8425,12.545 8.8425,13.585 C8.8425,13.8225 9.035,14.015 9.2725,14.015 L11.0225,14.015 C11.26,14.015 11.4525,13.8225 11.4525,13.585 C11.4525,12.545 11.94,11.56 12.7775,10.9425 C13.8125,10.1775 14.48,8.9725 14.48,7.615 Z M11.285,14.9525 L9.0075,14.9525 C8.84,14.9525 8.705,14.8175 8.705,14.65 C8.705,14.4825 8.84,14.3475 9.0075,14.3475 L11.285,14.3475 C11.4525,14.3475 11.5875,14.4825 11.5875,14.65 C11.5875,14.8175 11.4525,14.9525 11.285,14.9525 Z" fill="#FFFFFF"></path>
                <path d="M11.875,8.49 L8.42,8.49 C8.2525,8.49 8.1175,8.625 8.1175,8.7925 C8.1175,8.96 8.2525,9.095 8.42,9.095 L9.845,9.095 L9.845,12.8525 C9.845,13.02 9.98,13.155 10.1475,13.155 C10.315,13.155 10.45,13.02 10.45,12.8525 L10.45,9.095 L11.875,9.095 C12.0425,9.095 12.1775,8.96 12.1775,8.7925 C12.1775,8.625 12.0425,8.49 11.875,8.49 Z" fill="#FFBC31"></path>
                <path d="M11.0075,15.89 L9.285,15.89 C9.1175,15.89 8.9825,15.755 8.9825,15.5875 C8.9825,15.42 9.1175,15.285 9.285,15.285 L11.0075,15.285 C11.175,15.285 11.31,15.42 11.31,15.5875 C11.31,15.755 11.175,15.89 11.0075,15.89 Z M10.6575,16.7325 L9.6375,16.7325 C9.47,16.7325 9.335,16.5975 9.335,16.43 C9.335,16.2625 9.47,16.1275 9.6375,16.1275 L10.6575,16.1275 C10.825,16.1275 10.96,16.2625 10.96,16.43 C10.96,16.595 10.825,16.7325 10.6575,16.7325 Z" fill="#FFFFFF"></path>
            </g>
        </g>
    </g>
</svg>