<?xml version="1.0" encoding="UTF-8"?>
<svg width="50px" height="30px" viewBox="0 0 50 30" version="1.1" xmlns="http://www.w3.org/2000/svg" xmlns:xlink="http://www.w3.org/1999/xlink">
    <!-- Generator: Sketch 47.1 (45422) - http://www.bohemiancoding.com/sketch -->
    <title>03-text-tab</title>
    <desc>Created with Sketch.</desc>
    <defs></defs>
    <g id="Page-1" stroke="none" stroke-width="1" fill="none" fill-rule="evenodd">
        <g id="03-text-tab" fill-rule="nonzero" fill="#222222">
            <g id="tab-text" transform="translate(13.000000, 5.000000)">
                <path d="M17.1161657,1.37361898 L17.1161657,0.0128610031 C16.9999242,0.00428700104 16.8750513,0 16.7411718,0 L16.1786811,0.0128610031 L16.0849561,0.11711722 C16.022332,0.186621364 15.9285601,0.256034296 15.8036872,0.325310409 C15.6788144,0.394677734 15.5537539,0.425188411 15.4286934,0.416431984 L14.9732499,0.390527552 L11.0491368,0.390527552 L8.16960254,0.37739291 L6.62928508,0.390527552 L6.37484842,0.429521019 L4.63380558,0.429521019 C2.92832007,0.429521019 1.98637907,0.407766769 1.80788876,0.364440695 L1.08459253,0.0128153967 L0,0.0266797405 L0,1.14631671 L0,5.0135565 C0.107094189,5.16113879 0.357074448,5.35209276 0.749893867,5.58650963 C0.812377205,5.58650963 0.903944378,5.53000331 1.02440775,5.41703627 C1.14496494,5.30416044 1.23188808,5.16528897 1.28550554,5.00033065 C1.38373385,4.71392249 1.49096877,4.34943619 1.60702265,3.9065525 C1.72302963,3.46403366 1.82130485,3.13831279 1.90156685,2.930074 C1.98173504,2.72178959 2.07991644,2.57858552 2.19615796,2.50050737 C2.33880949,2.40491637 2.66473608,2.29860786 3.17370321,2.18149064 C3.68267033,2.06409979 4.12910721,2.005678 4.51292002,2.005678 C5.4951093,2.005678 6.15578147,2.03171925 6.49507725,2.08361932 C6.56656719,2.09228454 6.62900362,2.11850821 6.68266799,2.16183429 C6.71845987,2.19649515 6.74515133,2.26171229 6.76302381,2.35707526 C6.78075557,2.45266626 6.78980909,2.70012656 6.78980909,3.09950175 C6.78980909,3.49864891 6.78751053,3.94376732 6.78305413,4.43408166 C6.77864465,4.92462403 6.78070866,5.43888173 6.78980909,5.97699157 L6.856655,11.5499561 C6.87448058,13.6419214 6.84783603,15.5213609 6.77634609,17.1879097 C6.7495139,17.4916027 6.69599026,17.7345936 6.61558753,17.9170648 C6.4370503,18.0210017 5.72726399,18.2382706 4.48613475,18.5679136 C3.96816102,18.7067851 3.61554296,18.9193565 3.42799913,19.2059015 L3.42799913,19.3229731 L3.44146214,19.6613269 C3.44146214,19.696307 3.45051565,19.8089548 3.46829432,20 C3.66470403,20 3.97726144,19.982852 4.40577893,19.9478719 C5.70047871,19.8262852 6.7405542,19.7654007 7.52623995,19.7654007 C9.00834284,19.7654007 10.0709348,19.8000616 10.7138283,19.8695201 C11.4012389,19.9562635 12.2362733,19.9995439 13.2183688,19.9995439 C13.396906,19.9995439 13.5487518,19.9953025 13.6736246,19.9865917 C13.7005975,19.8217702 13.7140605,19.6959878 13.7140605,19.6091988 C13.7140605,19.5658271 13.6915909,19.3488775 13.6469332,18.9580763 C13.468396,18.871333 13.2454355,18.7933004 12.977489,18.7236595 C12.8436095,18.6889986 12.6516562,18.6369161 12.4016759,18.5672751 C12.1518364,18.4976798 11.9551921,18.4411278 11.8123999,18.3977562 C11.6695607,18.3545213 11.5891111,18.3328127 11.5713793,18.3328127 C11.2143518,18.2719737 10.8170291,18.1331935 10.3794111,17.916107 C10.27227,17.5777076 10.2232028,17.2087519 10.2321156,16.8093767 L10.2456255,14.8951395 L10.2053303,10.2204385 L10.2053303,5.89827494 L10.1918204,3.91913986 C10.1740886,3.58064921 10.2097867,2.99045686 10.2990553,2.14819798 C10.5935995,2.1048719 10.8927878,2.08311765 11.1964324,2.08311765 C11.5804328,2.08311765 12.0758431,2.07901308 12.6831324,2.07016544 C13.290234,2.06140901 13.7522448,2.0570308 14.0694932,2.0570308 C14.3863662,2.0570308 14.5759741,2.06583283 14.6387389,2.08307205 C14.7636117,2.11796094 14.8840282,2.2004629 15.0000821,2.33053234 C15.0179077,2.34795398 15.0445522,2.47373642 15.0803441,2.70815328 C15.1161829,2.94257015 15.1675018,3.2267892 15.2346292,3.56094724 C15.3015689,3.89524211 15.3707134,4.16650894 15.442344,4.37493017 C15.7011433,5.11275041 15.9422576,5.66828189 16.1654057,6.04161583 C16.4242049,6.01552898 16.7278965,5.93726841 17.0762458,5.80715336 C17.1118969,5.64219504 17.1295349,5.42086721 17.1295349,5.14307866 L17.1428571,4.38774556 L17.1295349,3.08595665 C17.120669,1.94429179 17.1161657,1.37361898 17.1161657,1.37361898 Z" id="Shape"></path>
                <path d="M23.5254552,16.7103913 L22.6778847,16.7103913 L22.6778847,3.28956278 L23.5254552,3.28956278 C23.7585807,3.28956278 23.9068861,3.20881562 23.9703713,3.04709179 C24.0340049,2.88545977 23.9951198,2.69114329 23.8539013,2.4637751 L22.5190417,0.3407539 C22.3778232,0.113569332 22.204621,0 21.9999544,0 C21.7952878,0 21.6221968,0.113569332 21.4810155,0.3407539 L20.1461188,2.46382101 C20.00516,2.69114329 19.966312,2.88550568 20.0295375,3.0471377 C20.092763,3.20886153 20.2413281,3.28960868 20.4744536,3.28960868 L21.3221354,3.28960868 L21.3221354,16.7104372 L20.4744536,16.7104372 C20.2413281,16.7104372 20.0930227,16.7912303 20.0295375,16.9531836 C19.9660522,17.1146779 20.0049003,17.3091321 20.1461188,17.5362708 L21.4810155,19.6594297 C21.6222339,19.8865684 21.7953249,20 21.9999544,20 C22.2046581,20 22.3778604,19.8865684 22.5190417,19.6594297 L23.8539384,17.5362708 C23.9950456,17.3091321 24.0338936,17.114632 23.9704084,16.9531836 C23.9069232,16.7911844 23.7586178,16.7103913 23.5254552,16.7103913 Z" id="Shape"></path>
            </g>
        </g>
    </g>
</svg>