<?xml version="1.0" standalone="no"?><!DOCTYPE svg PUBLIC "-//W3C//DTD SVG 1.1//EN" "http://www.w3.org/Graphics/SVG/1.1/DTD/svg11.dtd"><svg t="1512031523368" class="icon" style="" viewBox="0 0 1024 1024" version="1.1" xmlns="http://www.w3.org/2000/svg" p-id="9871" xmlns:xlink="http://www.w3.org/1999/xlink" width="64" height="64"><defs><style type="text/css"></style></defs><path d="M511 831.896c-27.198 0-53.708-2.464-79.478-6.72l-186.27 113.022 0-188.154c-97.126-68.2-159.45-172.76-159.45-290.194 0-205.474 190.372-372.046 425.198-372.046 234.814 0 425.198 166.574 425.198 372.046C936.198 665.338 745.814 831.896 511 831.896zM511 140.952c-205.474 0-372.046 142.788-372.046 318.896 0 108.064 62.856 203.41 158.786 261.076l-1.672 123.272 125.1-75.208c28.822 6.124 58.794 9.758 89.834 9.758 205.488 0 372.046-142.79 372.046-318.898S716.488 140.952 511 140.952zM723.598 513c-29.352 0-53.15-23.798-53.15-53.15 0-29.35 23.798-53.148 53.15-53.148 29.354 0 53.15 23.798 53.15 53.148C776.748 489.202 752.952 513 723.598 513zM511 513c-29.35 0-53.148-23.798-53.148-53.15 0-29.35 23.798-53.148 53.148-53.148 29.352 0 53.15 23.798 53.15 53.148C564.15 489.202 540.352 513 511 513zM298.402 513c-29.35 0-53.148-23.798-53.148-53.15 0-29.35 23.798-53.148 53.148-53.148 29.352 0 53.15 23.798 53.15 53.148C351.552 489.202 327.754 513 298.402 513z" p-id="9872"></path></svg>