<?xml version="1.0" encoding="utf-8"?>
<!-- Generator: Adobe Illustrator 21.0.0, SVG Export Plug-In . SVG Version: 6.00 Build 0)  -->
<svg version="1.1" id="图层_1" xmlns="http://www.w3.org/2000/svg" xmlns:xlink="http://www.w3.org/1999/xlink" x="0px" y="0px"
	 viewBox="0 0 64 64" style="enable-background:new 0 0 64 64;" xml:space="preserve">
<style type="text/css">
	.st0{fill:#39569D;}
	.st1{fill:#FFFFFF;}
</style>
<path class="st0" d="M57.1,55.2c0,0.8-0.7,1.4-1.5,1.4H9.3c-0.8,0-1.4-0.6-1.4-1.4V8.9c0-0.8,0.6-1.4,1.4-1.4h46.4
	c0.8,0,1.4,0.6,1.4,1.4C57.1,8.9,57.1,55.2,57.1,55.2z"/>
<path class="st0" d="M8.2,16.7V9.1c0-0.8,0.6-1.4,1.4-1.4h45.8c0.8,0,1.4,0.6,1.4,1.4v45.8c0,0.8-0.7,1.4-1.5,1.4H9.6
	c-0.8,0-1.4-0.6-1.4-1.4L8.2,16.7 M55.4,5H9.6C7.3,5,5.5,6.9,5.5,9.1l0,0v45.8c0,2.3,1.8,4.1,4.1,4.1h45.8c2.3,0,4.2-1.8,4.2-4.1
	V9.1C59.5,6.9,57.7,5,55.4,5L55.4,5z"/>
<path class="st1" d="M43.8,27.6h6v-7.4h-6c-5,0-9.1,4.4-9.1,9.7v3.8h-6v7.2h6v18.2h7.6V40.9h6.9l0.6-7.2h-7.5v-4.1
	C42.3,28.3,43.1,27.6,43.8,27.6"/>
</svg>
