<?xml version="1.0" encoding="utf-8"?>
<!-- Generator: Adobe Illustrator 21.0.0, SVG Export Plug-In . SVG Version: 6.00 Build 0)  -->
<svg version="1.1" id="图层_1" xmlns="http://www.w3.org/2000/svg" xmlns:xlink="http://www.w3.org/1999/xlink" x="0px" y="0px"
	 viewBox="0 0 130 110" style="enable-background:new 0 0 130 110;" xml:space="preserve">
<style type="text/css">
	.st0{fill:#FFFFFF;}
</style>
<path class="st0" d="M107.7,35.1l-35.3-25c0-0.1-0.2-0.1-0.3-0.1L22.6,22.6c-0.2,0-0.3,0.2-0.3,0.4v44.6c0,0.1,0,0.2,0.1,0.3
	l32.8,31.9c0.1,0.1,0.3,0.1,0.4,0.1l52-18.7c0.2-0.1,0.3-0.2,0.3-0.4V35.4C107.9,35.3,107.8,35.2,107.7,35.1L107.7,35.1z M53.5,89.2
	L29.1,67.1C29,67,29,66.9,29,66.8V32.2c0,0.1,0.1,0.2,0.2,0.3l24,20.5c0.3,0.3,0.2,35.8,0.2,35.8C53.3,89,53.4,89.1,53.5,89.2
	l2.3,2.1L53.5,89.2L53.5,89.2z M102.3,76c0,0.2-0.1,0.3-0.3,0.4L58.8,90.5l-2.6,0.9l2.6-0.9c0.2-0.1,0.3-0.2,0.3-0.4V53
	c0-0.2,0.1-0.3,0.3-0.4l42.3-12.5c0.3-0.1,1.8-0.6,1.8-0.6l-5.2-4.1c-0.1-0.1-0.5,0.1-0.6,0.1L80,41.1c0,0-0.1,0.1-0.2,0.1l-4.3,1.3
	l-19,6c-0.1,0-0.3,0-0.4-0.1L33.8,27.3c-0.1-0.1-0.3-0.1-0.4-0.1l-4.1,1.2l4.1-1.2l16.9-4.9c0-0.1,0.1-0.2,0.3-0.3l2.5-0.6l18.3-5.3
	c0.1,0,0.3,0,0.3,0.1l30.5,22.3c0.1,0.1,0.2,0.2,0.2,0.3L102.3,76L102.3,76z"/>
</svg>
