<?xml version="1.0" encoding="utf-8"?>
<!-- Generator: Adobe Illustrator 21.0.0, SVG Export Plug-In . SVG Version: 6.00 Build 0)  -->
<svg version="1.1" id="图层_1" xmlns="http://www.w3.org/2000/svg" xmlns:xlink="http://www.w3.org/1999/xlink" x="0px" y="0px"
	 viewBox="0 0 64 64" style="enable-background:new 0 0 64 64;" xml:space="preserve">
<path d="M17.6,9h25.7c2.7,0,5.2,1.3,7,3.5c1.8,2.2,2.9,5.1,2.9,8.4v1.3h-3.5v-1.3c0-2.1-0.7-4.1-1.9-5.5c-1.2-1.4-2.8-2.3-4.5-2.3
	l-25.7,0c-1.7,0-3.3,0.8-4.4,2.2c0,0-0.1,0.1-0.1,0.1v0c-1.2,1.4-1.9,3.3-1.9,5.5v22.1c0,2.1,0.7,4,1.8,5.4c0,0,0.1,0.1,0.1,0.1l0,0
	l0,0c1.2,1.4,2.8,2.3,4.5,2.3h25.7c1.7,0,3.3-0.9,4.5-2.3l0,0h0l0,0c1.2-1.4,1.9-3.3,1.9-5.5v-1.3h3.5v1.3c0,3.3-1.1,6.3-2.9,8.4
	L49,50l1.2,1.5l0,0C48.4,53.7,46,55,43.3,55H17.6c-2.7,0-5.2-1.3-7-3.5l1.2-1.5l-1.2,1.5c0,0-0.1-0.1-0.1-0.1
	c-1.7-2.2-2.8-5.1-2.8-8.3l0-22.1c0-3.3,1.1-6.3,2.9-8.4v0c0,0,0.1-0.1,0.1-0.1C12.5,10.3,15,9,17.6,9L17.6,9L17.6,9z M17.5,21.7
	c-1,0-1.7,0.8-1.7,1.7c0,1,0.8,1.7,1.7,1.7h20.8c1,0,1.7-0.8,1.7-1.7c0-1-0.8-1.7-1.7-1.7H17.5L17.5,21.7L17.5,21.7z M17.3,29.1
	c-1,0-1.7,0.8-1.7,1.7c0,1,0.8,1.7,1.7,1.7h14.8c1,0,1.7-0.8,1.7-1.7s-0.8-1.7-1.7-1.7L17.3,29.1L17.3,29.1L17.3,29.1z M17.4,36.6
	c-1,0-1.7,0.8-1.7,1.7s0.8,1.7,1.7,1.7H26c1,0,1.7-0.8,1.7-1.7S27,36.6,26,36.6H17.4L17.4,36.6L17.4,36.6z M40.3,33.4l17.4-12.5
	l3.2,4.5L43.6,37.9L40.3,33.4L40.3,33.4z M39.4,34l3.2,4.5l-6.5,1.3L39.4,34L39.4,34z"/>
</svg>
