<?xml version="1.0" encoding="utf-8"?>
<!-- Generator: Adobe Illustrator 21.0.0, SVG Export Plug-In . SVG Version: 6.00 Build 0)  -->
<svg version="1.1" id="图层_1" xmlns="http://www.w3.org/2000/svg" xmlns:xlink="http://www.w3.org/1999/xlink" x="0px" y="0px"
	 viewBox="0 0 64 64" style="enable-background:new 0 0 64 64;" xml:space="preserve">
<path d="M18.4,45.5l19.1-8.7l8.4-18.8L27,26.4L18.4,45.5L18.4,45.5z M23.3,40.6l5.6-12.3l0,0l6.7,6.7v0L23.3,40.6L23.3,40.6z"/>
<path d="M32,5C17.1,5,5,17.1,5,32s12.1,27,27,27s27-12.1,27-27S46.9,5,32,5z M32,56.1C18.7,56.1,7.9,45.3,7.9,32S18.7,7.9,32,7.9
	S56.1,18.7,56.1,32S45.3,56.1,32,56.1z"/>
</svg>
