<?xml version="1.0" encoding="utf-8"?>
<!-- Generator: Adobe Illustrator 21.0.0, SVG Export Plug-In . SVG Version: 6.00 Build 0)  -->
<svg version="1.1" id="图层_1" xmlns="http://www.w3.org/2000/svg" xmlns:xlink="http://www.w3.org/1999/xlink" x="0px" y="0px"
	 viewBox="0 0 64 64" style="enable-background:new 0 0 64 64;" xml:space="preserve">
<path d="M53.6,41.6c-0.7,0-1.3,0.6-1.3,1.4v7.2c0,1.6-1.2,2.8-2.6,2.8h0H13.5c-1.4,0-2.6-1.3-2.6-2.8l0,0V13.7
	c0.1-1.5,1.2-2.7,2.6-2.7h36.2c1.4,0,2.6,1.3,2.6,2.8c0,0,0,0,0,0v7.5c-0.1,0.8,0.4,1.5,1.1,1.6c0.7,0.1,1.4-0.4,1.5-1.2
	c0-0.1,0-0.3,0-0.4v-7.9c0-3-2.2-5.4-4.9-5.4c0,0,0,0-0.1,0H13.2c-2.7,0-5,2.3-5,5.3c0,0,0,0,0,0.1v37.1c0,3,2.2,5.4,4.9,5.4h36.7
	c2.7,0,4.9-2.4,4.9-5.4V43C54.8,42.2,54.3,41.6,53.6,41.6z"/>
<path d="M54.6,24.7H35.6c-2.6,0-4.7,2.1-5,4.9c0,0.1,0,0.2,0,0.2v4.5c0,3,2.2,5.4,4.9,5.4h18.9c2.7,0,5-2.3,5-5.3c0,0,0,0,0-0.1
	v-4.2C59.5,27.1,57.3,24.7,54.6,24.7z M56.9,34c0,1.6-1.2,2.8-2.6,2.8l0,0H35.9c-1.4,0-2.6-1.3-2.6-2.8l0,0v-3.5
	c0-1.6,1.2-2.8,2.6-2.8h18.4c1.4,0,2.6,1.3,2.6,2.8l0,0L56.9,34z"/>
<path d="M52.8,30.4c-0.9,0-1.6,0.8-1.6,1.7c0,0.9,0.7,1.7,1.6,1.7s1.6-0.8,1.6-1.7l0,0C54.4,31.2,53.7,30.4,52.8,30.4z"/>
</svg>
