<?xml version="1.0" encoding="UTF-8"?>
<svg width="32px" height="32px" viewBox="0 0 32 32" version="1.1" xmlns="http://www.w3.org/2000/svg" xmlns:xlink="http://www.w3.org/1999/xlink">
    <!-- Generator: Sketch 54.1 (76490) - https://sketchapp.com -->
    <title>苹果</title>
    <desc>Created with Sketch.</desc>
    <g stroke="none" stroke-width="1" fill="none" fill-rule="evenodd">
        <g transform="translate(-731.000000, -98.000000)" fill="#666666" fill-rule="nonzero">
            <g transform="translate(719.000000, 96.000000)">
                <g>
                    <g transform="translate(12.000000, 2.000000)">
                        <g transform="translate(4.000000, 1.000000)">
                            <path d="M16.4199312,4.72136566 C18.135945,2.57745994 17.7546086,0.238653698 17.5639404,0.043753178 C17.3732722,-0.151147342 14.8945857,0.238653698 13.1785719,2.57745994 C11.6532264,4.72136566 11.6532264,7.06017191 11.8438946,7.25507243 C12.0345628,7.44997295 14.5132493,7.25507243 16.4199312,4.72136566 Z M20.6146315,15.6357948 C20.4239633,12.5173865 23.2839862,10.5683813 23.8559908,10.1785802 C23.8559908,10.1785802 23.8559908,9.98367971 23.8559908,9.98367971 C23.8559908,9.98367971 21.3773043,6.86527139 17.7546086,7.06017191 C15.4665903,7.25507243 14.3225811,8.42447555 12.7972355,8.42447555 C10.8905536,8.42447555 9.17453985,7.06017191 7.07718971,7.06017191 C5.36117596,7.06017191 0.403802896,8.61937607 0.0224665064,15.2459938 C-0.358869883,21.8726114 4.21716679,28.1094281 5.93318054,29.2788312 C7.64919429,30.4482343 8.79320346,30.0584333 10.6998854,29.0839307 C11.6532264,28.4992291 14.7039175,28.3043286 16.4199312,29.4737317 C18.5172814,30.2533338 21.5679725,29.6686322 25,21.8726114 C24.6186636,21.8726114 20.8052997,20.8981088 20.6146315,15.6357948 Z"></path>
                        </g>
                    </g>
                </g>
            </g>
        </g>
    </g>
</svg>