<?xml version="1.0" encoding="UTF-8"?>
<svg width="42px" height="43px" viewBox="0 0 42 43" version="1.1" xmlns="http://www.w3.org/2000/svg" xmlns:xlink="http://www.w3.org/1999/xlink">
    <!-- Generator: Sketch 62 (91390) - https://sketch.com -->
    <title>close-circle</title>
    <desc>Created with Sketch.</desc>
    <g id="页面-1" stroke="none" stroke-width="1" fill="none" fill-rule="evenodd">
        <g id="Apple-TV" transform="translate(-1775.000000, -103.000000)" fill-rule="nonzero">
            <g id="close-circle" transform="translate(1772.000000, 100.000000)">
                <rect id="矩形" fill="#000000" opacity="0" x="0" y="0" width="48" height="48"></rect>
                <path d="M32.128125,16.63125 C32.128125,16.425 31.959375,16.25625 31.753125,16.25625 L28.659375,16.2703125 L24,21.825 L19.3453125,16.275 L16.246875,16.2609375 C16.040625,16.2609375 15.871875,16.425 15.871875,16.6359375 C15.871875,16.725 15.9046875,16.809375 15.9609375,16.8796875 L22.059375,24.1453125 L15.9609375,31.40625 C15.9046875,31.4765625 15.871875,31.5609375 15.871875,31.65 C15.871875,31.85625 16.040625,32.025 16.246875,32.025 L19.3453125,32.0109375 L24,26.45625 L28.6546875,32.00625 L31.7484375,32.0203125 C31.9546875,32.0203125 32.1234375,31.85625 32.1234375,31.6453125 C32.1234375,31.55625 32.090625,31.471875 32.034375,31.4015625 L25.9453125,24.140625 L32.04375,16.875 C32.1,16.809375 32.128125,16.7203125 32.128125,16.63125 Z" id="路径" fill="#FFFFFF"></path>
                <path d="M24,3.046875 C12.403125,3.046875 3,12.45 3,24.046875 C3,35.64375 12.403125,45.046875 24,45.046875 C35.596875,45.046875 45,35.64375 45,24.046875 C45,12.45 35.596875,3.046875 24,3.046875 Z M24,41.484375 C14.371875,41.484375 6.5625,33.675 6.5625,24.046875 C6.5625,14.41875 14.371875,6.609375 24,6.609375 C33.628125,6.609375 41.4375,14.41875 41.4375,24.046875 C41.4375,33.675 33.628125,41.484375 24,41.484375 Z" id="形状" fill="#FFFFFF"></path>
            </g>
        </g>
    </g>
</svg>