<?xml version="1.0" encoding="UTF-8"?>
<svg width="24px" height="24px" viewBox="0 0 24 24" version="1.1" xmlns="http://www.w3.org/2000/svg" xmlns:xlink="http://www.w3.org/1999/xlink">
    <title>DOC备份</title>
    <g id="页面-1" stroke="none" stroke-width="1" fill="none" fill-rule="evenodd">
        <g id="纠纷申请弹框-" transform="translate(-592.000000, -708.000000)" fill-rule="nonzero">
            <g id="编组-4" transform="translate(334.000000, 708.000000)">
                <g id="编组-11备份" transform="translate(178.000000, 0.000000)">
                    <g id="DOC备份" transform="translate(80.000000, 0.000000)">
                        <rect id="矩形" fill="#000000" opacity="0" x="0" y="0" width="24" height="24"></rect>
                        <path d="M3.68015873,0 C2.63571429,0 1.77777778,0.825 1.77777778,1.875 L1.77777778,22.0875 C1.77777778,23.1375 2.63571429,24 3.68015873,24 L20.7642857,24 C21.8087302,24 22.6666667,23.1375 22.6666667,22.0875 L22.6666667,7.6125 L15.6166667,0 L3.68015873,0 Z" id="路径" fill="#14A9DA"></path>
                        <path d="M22.6666667,7.60784314 L22.6666667,8 L17.8763204,8 C17.8763204,8 15.5185718,7.49019608 15.5559964,5.33333333 C15.5559964,5.33333333 15.6682702,7.60784314 17.8388958,7.60784314 L22.6666667,7.60784314 Z" id="路径" fill="#0F93D0"></path>
                        <path d="M6.28889921,18.0984679 C6.69515405,18.0984679 7.04814987,18.0275671 7.34788667,17.8857653 C7.64762347,17.7439635 7.897817,17.5493083 8.09846725,17.3017998 C8.29911751,17.0542912 8.44898591,16.7603748 8.54807246,16.4200506 C8.647159,16.0797263 8.69670228,15.7084635 8.69670228,15.3062621 C8.69670228,14.84734 8.63601177,14.4477168 8.51463075,14.1073925 C8.39324973,13.7670683 8.2248026,13.4834647 8.00928936,13.2565819 C7.79377613,13.029699 7.53862827,12.8595369 7.2438458,12.7460955 C6.94906332,12.6326541 6.63074779,12.5759334 6.28889921,12.5759334 L4,12.5759334 L4,18.0984679 L6.28889921,18.0984679 Z M6.20715281,17.0774952 L5.16674408,17.0774952 L5.16674408,13.5969061 L5.99907106,13.5969061 C6.28642205,13.5969061 6.5279455,13.6394467 6.72364143,13.7245277 C6.91933736,13.8096088 7.07663725,13.932074 7.19554111,14.0919232 C7.31444496,14.2517725 7.39990711,14.4438495 7.45192754,14.6681541 C7.50394798,14.8924587 7.5299582,15.1438346 7.5299582,15.4222817 C7.5299582,15.726511 7.49280074,15.9843324 7.41848583,16.1957459 C7.34417092,16.4071595 7.24508438,16.5786107 7.1212262,16.7100997 C6.99736801,16.8415886 6.85616969,16.9356934 6.69763121,16.9924141 C6.53909274,17.0491348 6.37559994,17.0774952 6.20715281,17.0774952 Z M11.8848119,18.2222222 C12.2960211,18.2222222 12.6626413,18.1487431 12.9846725,18.0017849 C13.3067038,17.8548267 13.5791918,17.6524369 13.8021366,17.3946155 C14.0250813,17.1367941 14.1960056,16.8338539 14.3149094,16.485795 C14.4338133,16.1377361 14.4932652,15.762606 14.4932652,15.3604046 C14.4932652,14.9478903 14.4338133,14.5650255 14.3149094,14.2118102 C14.1960056,13.8585949 14.0250813,13.5504983 13.8021366,13.2875205 C13.5791918,13.0245426 13.3067038,12.8182855 12.9846725,12.6687491 C12.6626413,12.5192127 12.2960211,12.4444444 11.8848119,12.4444444 C11.4785571,12.4444444 11.1131754,12.5192127 10.788667,12.6687491 C10.4641585,12.8182855 10.190432,13.0245426 9.96748723,13.2875205 C9.7445425,13.5504983 9.57361821,13.8585949 9.45471435,14.2118102 C9.3358105,14.5650255 9.27635857,14.9478903 9.27635857,15.3604046 C9.27635857,15.762606 9.3358105,16.1377361 9.45471435,16.485795 C9.57361821,16.8338539 9.7445425,17.1367941 9.96748723,17.3946155 C10.190432,17.6524369 10.4641585,17.8548267 10.788667,18.0017849 C11.1131754,18.1487431 11.4785571,18.2222222 11.8848119,18.2222222 Z M11.8848119,17.2089841 C11.6222325,17.2089841 11.3992878,17.1561307 11.2159777,17.0504239 C11.0326676,16.9447171 10.8840378,16.8042045 10.7700882,16.6288859 C10.6561387,16.4535674 10.5731537,16.256334 10.5211333,16.0371858 C10.4691129,15.8180376 10.4431026,15.5924438 10.4431026,15.3604046 C10.4431026,15.1180525 10.4691129,14.883435 10.5211333,14.6565521 C10.5731537,14.4296693 10.6561387,14.2272795 10.7700882,14.0493827 C10.8840378,13.8714859 11.0326676,13.7296842 11.2159777,13.6239774 C11.3992878,13.5182706 11.6222325,13.4654172 11.8848119,13.4654172 C12.1473912,13.4654172 12.370336,13.5182706 12.5536461,13.6239774 C12.7369562,13.7296842 12.885586,13.8714859 12.9995355,14.0493827 C13.1134851,14.2272795 13.19647,14.4296693 13.2484905,14.6565521 C13.3005109,14.883435 13.3265211,15.1180525 13.3265211,15.3604046 C13.3265211,15.5924438 13.3005109,15.8180376 13.2484905,16.0371858 C13.19647,16.256334 13.1134851,16.4535674 12.9995355,16.6288859 C12.885586,16.8042045 12.7369562,16.9447171 12.5536461,17.0504239 C12.370336,17.1561307 12.1473912,17.2089841 11.8848119,17.2089841 Z M17.6665118,18.2222222 C17.9934974,18.2222222 18.2932342,18.1706579 18.5657222,18.0675294 C18.8382102,17.9644008 19.076018,17.8148644 19.2791454,17.6189201 C19.4822728,17.4229759 19.6457656,17.1857802 19.7696238,16.907333 C19.893482,16.6288859 19.970274,16.316922 20,15.9714413 L18.8704134,15.9714413 C18.8258244,16.3427041 18.7032048,16.641777 18.5025546,16.8686598 C18.3019043,17.0955427 18.0232234,17.2089841 17.6665118,17.2089841 C17.4039325,17.2089841 17.1809878,17.1561307 16.9976777,17.0504239 C16.8143675,16.9447171 16.6657377,16.8042045 16.5517882,16.6288859 C16.4378387,16.4535674 16.3548537,16.256334 16.3028333,16.0371858 C16.2508128,15.8180376 16.2248026,15.5924438 16.2248026,15.3604046 C16.2248026,15.1180525 16.2508128,14.883435 16.3028333,14.6565521 C16.3548537,14.4296693 16.4378387,14.2272795 16.5517882,14.0493827 C16.6657377,13.8714859 16.8143675,13.7296842 16.9976777,13.6239774 C17.1809878,13.5182706 17.4039325,13.4654172 17.6665118,13.4654172 C17.8101873,13.4654172 17.9476699,13.4899103 18.0789596,13.5388963 C18.2102493,13.5878824 18.3279145,13.6562051 18.4319554,13.7438643 C18.5359963,13.8315236 18.622697,13.9333631 18.6920576,14.0493827 C18.7614182,14.1654024 18.8060071,14.2930239 18.8258244,14.4322475 L19.9554111,14.4322475 C19.9207308,14.112549 19.8365072,13.8289454 19.7027404,13.5814369 C19.5689735,13.3339283 19.3992878,13.1263821 19.1936832,12.9587982 C18.9880786,12.7912142 18.7552253,12.6635926 18.4951231,12.5759334 C18.2350209,12.4882741 17.9588172,12.4444444 17.6665118,12.4444444 C17.260257,12.4444444 16.8948754,12.5192127 16.5703669,12.6687491 C16.2458585,12.8182855 15.9721319,13.0245426 15.7491872,13.2875205 C15.5262425,13.5504983 15.3553182,13.8585949 15.2364143,14.2118102 C15.1175105,14.5650255 15.0580585,14.9478903 15.0580585,15.3604046 C15.0580585,15.762606 15.1175105,16.1377361 15.2364143,16.485795 C15.3553182,16.8338539 15.5262425,17.1367941 15.7491872,17.3946155 C15.9721319,17.6524369 16.2458585,17.8548267 16.5703669,18.0017849 C16.8948754,18.1487431 17.260257,18.2222222 17.6665118,18.2222222 Z" id="DOC" fill="#FFFFFF"></path>
                        <path d="M15.5555556,0 L15.5555556,5.40740741 C15.5555556,6 15.9694297,7.55555556 17.8506761,7.55555556 L22.6666667,7.55555556 L15.5555556,0 Z" id="路径" fill="#FFFFFF" opacity="0.5"></path>
                    </g>
                </g>
            </g>
        </g>
    </g>
</svg>