<?xml version="1.0" encoding="UTF-8"?>
<svg width="24px" height="24px" viewBox="0 0 24 24" version="1.1" xmlns="http://www.w3.org/2000/svg" xmlns:xlink="http://www.w3.org/1999/xlink">
    <title>DOC备份 3</title>
    <g id="页面-1" stroke="none" stroke-width="1" fill="none" fill-rule="evenodd">
        <g id="纠纷申请弹框-" transform="translate(-512.000000, -708.000000)" fill-rule="nonzero">
            <g id="编组-4" transform="translate(334.000000, 708.000000)">
                <g id="DOC备份-3" transform="translate(178.000000, 0.000000)">
                    <rect id="矩形" fill="#000000" opacity="0" x="0" y="0" width="24" height="24"></rect>
                    <path d="M3.68015873,0 C2.63571429,0 1.77777778,0.825 1.77777778,1.875 L1.77777778,22.0875 C1.77777778,23.1375 2.63571429,24 3.68015873,24 L20.7642857,24 C21.8087302,24 22.6666667,23.1375 22.6666667,22.0875 L22.6666667,7.6125 L15.6166667,0 L3.68015873,0 Z" id="路径" fill="#E9494A"></path>
                    <path d="M22.6666667,7.60784314 L22.6666667,8 L17.8763204,8 C17.8763204,8 15.5185718,7.49019608 15.5559964,5.33333333 C15.5559964,5.33333333 15.6682702,7.60784314 17.8388958,7.60784314 L22.6666667,7.60784314 Z" id="路径" fill="#BC393A"></path>
                    <path d="M6.23298429,19 L6.23298429,16.8487395 L7.52879581,16.8487395 C7.87958115,16.8487395 8.17801047,16.7941176 8.42408377,16.6848739 C8.67015707,16.5756303 8.87041885,16.4313725 9.02486911,16.2521008 C9.17931937,16.0728291 9.29188482,15.8669468 9.36256545,15.6344538 C9.43324607,15.4019608 9.46858639,15.1652661 9.46858639,14.9243697 C9.46858639,14.6778711 9.43324607,14.4397759 9.36256545,14.210084 C9.29188482,13.9803922 9.17931937,13.7759104 9.02486911,13.5966387 C8.87041885,13.4173669 8.67015707,13.2731092 8.42408377,13.1638655 C8.17801047,13.0546218 7.87958115,13 7.52879581,13 L5,13 L5,19 L6.23298429,19 Z M7.19109948,15.8235294 L6.23298429,15.8235294 L6.23298429,14.0252101 L7.19109948,14.0252101 C7.33246073,14.0252101 7.46858639,14.0364146 7.59947644,14.0588235 C7.73036649,14.0812325 7.84554974,14.1246499 7.94502618,14.1890756 C8.04450262,14.2535014 8.12434555,14.3445378 8.18455497,14.4621849 C8.2447644,14.5798319 8.27486911,14.7338936 8.27486911,14.9243697 C8.27486911,15.1148459 8.2447644,15.2689076 8.18455497,15.3865546 C8.12434555,15.5042017 8.04450262,15.5952381 7.94502618,15.6596639 C7.84554974,15.7240896 7.73036649,15.767507 7.59947644,15.789916 C7.46858639,15.8123249 7.33246073,15.8235294 7.19109948,15.8235294 Z M12.6570681,19 C13.0863874,19 13.4594241,18.9229692 13.776178,18.7689076 C14.0929319,18.6148459 14.3573298,18.4033613 14.5693717,18.1344538 C14.7814136,17.8655462 14.9397906,17.5462185 15.0445026,17.1764706 C15.1492147,16.8067227 15.2015707,16.4033613 15.2015707,15.9663866 C15.2015707,15.4677871 15.1374346,15.0336134 15.0091623,14.6638655 C14.8808901,14.2941176 14.7028796,13.9859944 14.4751309,13.7394958 C14.2473822,13.4929972 13.9777487,13.3081232 13.6662304,13.1848739 C13.354712,13.0616246 13.0183246,13 12.6570681,13 L10.2382199,13 L10.2382199,19 L12.6570681,19 Z M12.5706806,17.8907563 L11.4712042,17.8907563 L11.4712042,14.1092437 L12.3507853,14.1092437 C12.6544503,14.1092437 12.9096859,14.1554622 13.1164921,14.2478992 C13.3232984,14.3403361 13.4895288,14.4733894 13.6151832,14.6470588 C13.7408377,14.8207283 13.8311518,15.0294118 13.8861257,15.2731092 C13.9410995,15.5168067 13.9685864,15.789916 13.9685864,16.092437 C13.9685864,16.4229692 13.9293194,16.7030812 13.8507853,16.9327731 C13.7722513,17.162465 13.6675393,17.3487395 13.5366492,17.4915966 C13.4057592,17.6344538 13.2565445,17.7366947 13.0890052,17.7983193 C12.921466,17.859944 12.7486911,17.8907563 12.5706806,17.8907563 Z M17.2905759,19 L17.2905759,16.5210084 L19.6387435,16.5210084 L19.6387435,15.4957983 L17.2905759,15.4957983 L17.2905759,14.1092437 L20,14.1092437 L20,13 L16.0575916,13 L16.0575916,19 L17.2905759,19 Z" id="PDF备份" fill="#FFFFFF"></path>
                    <path d="M15.5555556,0 L15.5555556,5.40740741 C15.5555556,6 15.9694297,7.55555556 17.8506761,7.55555556 L22.6666667,7.55555556 L15.5555556,0 Z" id="路径" fill="#FFFFFF" opacity="0.5"></path>
                </g>
            </g>
        </g>
    </g>
</svg>