<?xml version="1.0" encoding="UTF-8"?>
<svg width="24px" height="24px" viewBox="0 0 24 24" version="1.1" xmlns="http://www.w3.org/2000/svg" xmlns:xlink="http://www.w3.org/1999/xlink">
    <title>DOC备份 2</title>
    <g id="页面-1" stroke="none" stroke-width="1" fill="none" fill-rule="evenodd">
        <g id="纠纷申请弹框-" transform="translate(-672.000000, -708.000000)" fill-rule="nonzero">
            <g id="编组-4" transform="translate(334.000000, 708.000000)">
                <g id="编组-11备份" transform="translate(178.000000, 0.000000)">
                    <g id="DOC备份-2" transform="translate(160.000000, 0.000000)">
                        <rect id="矩形" fill="#000000" opacity="0" x="0" y="0" width="24" height="24"></rect>
                        <path d="M3.68015873,0 C2.63571429,0 1.77777778,0.825 1.77777778,1.875 L1.77777778,22.0875 C1.77777778,23.1375 2.63571429,24 3.68015873,24 L20.7642857,24 C21.8087302,24 22.6666667,23.1375 22.6666667,22.0875 L22.6666667,7.6125 L15.6166667,0 L3.68015873,0 Z" id="路径" fill="#1ABF74"></path>
                        <path d="M22.6666667,7.60784314 L22.6666667,8 L17.8763204,8 C17.8763204,8 15.5185718,7.49019608 15.5559964,5.33333333 C15.5559964,5.33333333 15.6682702,7.60784314 17.8388958,7.60784314 L22.6666667,7.60784314 Z" id="路径" fill="#129057"></path>
                        <path d="M15.5555556,0 L15.5555556,5.40740741 C15.5555556,6 15.9694297,7.55555556 17.8506761,7.55555556 L22.6666667,7.55555556 L15.5555556,0 Z" id="路径" fill="#FFFFFF" opacity="0.5"></path>
                        <path d="M6.82783883,18.3429101 L7.99267399,16.5115848 L9.13553114,18.3429101 L10.5054945,18.3429101 L8.68131868,15.5773865 L10.3589744,13.0491196 L9.0989011,13.0491196 L8.03663004,14.7395737 L7.01098901,13.0491196 L5.67765568,13.0491196 L7.36263736,15.5699722 L5.53846154,18.3429101 L6.82783883,18.3429101 Z M14.6666667,18.3429101 L14.6666667,17.3642261 L12.1172161,17.3642261 L12.1172161,13.0491196 L10.967033,13.0491196 L10.967033,18.3429101 L14.6666667,18.3429101 Z M17.2087912,18.4615385 C17.5653236,18.4615385 17.8791209,18.4195243 18.1501832,18.3354958 C18.4212454,18.2514674 18.6483516,18.1340748 18.8315018,17.9833179 C19.014652,17.832561 19.1526252,17.6533828 19.2454212,17.4457831 C19.3382173,17.2381835 19.3846154,17.0132839 19.3846154,16.7710843 C19.3846154,16.4745134 19.3223443,16.2310782 19.1978022,16.0407785 C19.0732601,15.8504788 18.9255189,15.6984863 18.7545788,15.5848007 C18.5836386,15.4711152 18.4114774,15.3883225 18.2380952,15.3364226 C18.0647131,15.2845227 17.9291819,15.2486871 17.8315018,15.2289157 C17.5042735,15.1448872 17.2393162,15.0756874 17.03663,15.021316 C16.8339438,14.9669447 16.6752137,14.9125734 16.5604396,14.858202 C16.4456654,14.8038307 16.3687424,14.7445165 16.3296703,14.6802595 C16.2905983,14.6160025 16.2710623,14.5319741 16.2710623,14.4281742 C16.2710623,14.3144887 16.2954823,14.2205746 16.3443223,14.1464319 C16.3931624,14.0722892 16.4554335,14.0105036 16.5311355,13.9610751 C16.6068376,13.9116466 16.6910867,13.8770466 16.7838828,13.8572753 C16.8766789,13.8375039 16.969475,13.8276182 17.0622711,13.8276182 C17.2039072,13.8276182 17.3345543,13.8399753 17.4542125,13.8646895 C17.5738706,13.8894038 17.6800977,13.931418 17.7728938,13.9907322 C17.8656899,14.0500463 17.9401709,14.1316033 17.996337,14.2354032 C18.0525031,14.339203 18.0854701,14.4701884 18.0952381,14.6283596 L19.2087912,14.6283596 C19.2087912,14.321903 19.1514042,14.0611677 19.03663,13.8461538 C18.9218559,13.6311399 18.7667888,13.4544331 18.5714286,13.3160334 C18.3760684,13.1776336 18.1526252,13.0775409 17.9010989,13.0157553 C17.6495726,12.9539697 17.3870574,12.9230769 17.1135531,12.9230769 C16.8791209,12.9230769 16.6446886,12.9552054 16.4102564,13.0194625 C16.1758242,13.0837195 15.965812,13.1825765 15.7802198,13.3160334 C15.5946276,13.4494903 15.4444444,13.6163114 15.3296703,13.8164968 C15.2148962,14.0166821 15.1575092,14.2527031 15.1575092,14.5245598 C15.1575092,14.7667593 15.2026862,14.9731233 15.2930403,15.1436515 C15.3833944,15.3141798 15.5018315,15.4562867 15.6483516,15.5699722 C15.7948718,15.6836577 15.960928,15.7763361 16.1465201,15.8480074 C16.3321123,15.9196787 16.5225885,15.9802286 16.7179487,16.0296571 C16.9084249,16.0840284 17.0964591,16.1334569 17.2820513,16.1779425 C17.4676435,16.2224282 17.6336996,16.2743281 17.7802198,16.3336423 C17.9267399,16.3929564 18.045177,16.4670992 18.1355311,16.5560704 C18.2258852,16.6450417 18.2710623,16.7611986 18.2710623,16.9045412 C18.2710623,17.0379981 18.2368742,17.1479765 18.1684982,17.2344764 C18.1001221,17.3209762 18.014652,17.3889404 17.9120879,17.4383689 C17.8095238,17.4877973 17.6996337,17.5211616 17.5824176,17.5384615 C17.4652015,17.5557615 17.3553114,17.5644115 17.2527473,17.5644115 C17.1013431,17.5644115 16.954823,17.5458758 16.8131868,17.5088044 C16.6715507,17.4717331 16.5482295,17.4148903 16.4432234,17.3382762 C16.3382173,17.261662 16.2539683,17.1615694 16.1904762,17.0379981 C16.1269841,16.9144269 16.0952381,16.7636701 16.0952381,16.5857275 L14.981685,16.5857275 C14.976801,16.9119555 15.035409,17.1936979 15.1575092,17.4309546 C15.2796093,17.6682113 15.4444444,17.8634538 15.6520147,18.0166821 C15.8595849,18.1699104 16.0989011,18.2823602 16.3699634,18.3540315 C16.6410256,18.4257028 16.9206349,18.4615385 17.2087912,18.4615385 Z" id="XLS" fill="#FFFFFF"></path>
                    </g>
                </g>
            </g>
        </g>
    </g>
</svg>