<?xml version="1.0" encoding="UTF-8"?>
<svg width="37px" height="32px" viewBox="0 0 37 32" version="1.1" xmlns="http://www.w3.org/2000/svg" xmlns:xlink="http://www.w3.org/1999/xlink">
    <!-- Generator: Sketch 63.1 (92452) - https://sketch.com -->
    <title>图片 </title>
    <desc>Created with Sketch.</desc>
    <g id="页面-1" stroke="none" stroke-width="1" fill="none" fill-rule="evenodd">
        <g id="自定义上传" transform="translate(-474.000000, -438.000000)" fill="#C7C7C7" fill-rule="nonzero">
            <g id="编组-9" transform="translate(229.000000, 134.000000)">
                <g id="编组-13" transform="translate(211.000000, 268.000000)">
                    <g id="编组" transform="translate(34.000000, 36.000000)">
                        <g id="图片-">
                            <path d="M27.7690134,13.4631965 L27.7690134,13.4631965 C29.9440256,13.5031397 31.7394279,11.7633087 31.7791616,9.57716202 C31.8189016,7.39102853 30.0879215,5.58644595 27.9128961,5.54650906 C27.864934,5.54562825 27.8169601,5.54562817 27.7689979,5.54650882 L27.7689979,5.54650882 C25.5939857,5.58645199 23.8629987,7.39104151 23.9027325,9.57716179 C23.9414497,11.7070302 25.6499646,13.4242834 27.7689979,13.4631963 L27.7690134,13.4631965 Z M34.6582297,0.272527205 L2.50069893,0.272527205 C1.22044485,0.272527205 0.202453059,1.31970617 0.202453059,2.60650647 L0.202453059,29.5966763 C0.202453059,30.8834435 1.22044485,31.9306555 2.50069893,31.9306555 L34.6582297,31.9306555 C35.938451,31.9306555 36.9564756,30.8834435 36.9564756,29.5966763 L36.9564756,2.60650647 C36.9564756,1.31970617 35.938451,0.272527205 34.6582297,0.272527205 Z M26.2027357,16.5723281 L26.2027358,16.5723282 C25.9427691,16.257088 25.5596936,16.0704843 25.1524378,16.0607131 C24.7345928,16.0607131 24.4401229,16.2580192 24.1021726,16.5300459 L22.5681354,17.8337591 C22.2484251,18.064891 21.993196,18.2213352 21.6258316,18.2213352 L21.6258316,18.2213352 C21.2937806,18.2234042 20.9724928,18.1030603 20.7227685,17.8830774 L20.7227675,17.8830765 C20.6025301,17.7729375 20.4847139,17.6601576 20.3694036,17.5448186 L15.9565612,12.7472056 L15.9565612,12.7472056 C15.6109567,12.3506213 15.1111038,12.1243453 14.5865858,12.1270441 C14.0369195,12.1270441 13.5279072,12.4004913 13.208197,12.7711545 L2.82740852,25.3515393 L2.82740852,3.87636004 C2.90874926,3.31539372 3.34345394,2.9109047 3.90153364,2.9109047 L33.2475667,2.9109047 C33.8140598,2.9109047 34.2726244,3.33230661 34.3062453,3.90030896 L34.3301052,25.3684191 L26.1998756,16.5723272 L26.2027357,16.5723281 Z" id="形状"></path>
                        </g>
                    </g>
                </g>
            </g>
        </g>
    </g>
</svg>