<?xml version="1.0" encoding="UTF-8"?>
<svg width="32px" height="32px" viewBox="0 0 32 32" version="1.1" xmlns="http://www.w3.org/2000/svg" xmlns:xlink="http://www.w3.org/1999/xlink">
    <!-- Generator: Sketch 54.1 (76490) - https://sketchapp.com -->
    <title>形状</title>
    <desc>Created with Sketch.</desc>
    <g stroke="none" stroke-width="1" fill="none" fill-rule="evenodd">
        <g transform="translate(-1068.000000, -98.000000)" fill="#666666" fill-rule="nonzero">
            <g transform="translate(719.000000, 96.000000)">
                <g transform="translate(333.000000, 0.000000)">
                    <g transform="translate(16.000000, 2.000000)">
                        <path d="M19.8119434,2.81279442 L21.4800349,0.387032224 C21.5512916,0.283552103 21.5251735,0.140431937 21.4218572,0.069191229 L21.3802676,0.0402311953 C21.2767918,-0.0312488879 21.1344778,-0.00488885719 21.0632609,0.0987512634 L19.3472383,2.59403542 C18.2266311,2.10663485 16.9761497,1.83455328 15.6568339,1.83455328 C14.4050378,1.83455328 13.2145278,2.07979357 12.1386087,2.52127283 L10.4990652,0.137188808 C10.4278085,0.0333486873 10.2851755,0.00734865705 10.1820586,0.0787887402 L10.1404689,0.107388773 C10.0371527,0.178868857 10.0109149,0.322069023 10.0819722,0.425589144 L11.6674041,2.73087308 C9.17457504,3.92563384 7.38307955,6.20375212 7.01828518,8.89375525 L24.2952705,8.89375525 C23.9391459,6.26391156 22.2183787,4.02749959 19.8119134,2.81277942 L19.8119434,2.81279442 Z M12.0191755,6.28764222 C11.5437466,6.28764222 11.1582327,5.90096052 11.1582327,5.42400059 C11.1582327,4.94704066 11.5437434,4.56048083 12.0191755,4.56048083 C12.4944456,4.56048083 12.8799594,4.94700003 12.8799594,5.42400059 C12.8799594,5.90096052 12.494486,6.28764222 12.0191755,6.28764222 Z M19.4506069,6.28764222 C18.9751375,6.28764222 18.5896641,5.90096052 18.5896641,5.42400059 C18.5896641,4.94704066 18.9751749,4.56048083 19.4506069,4.56048083 C19.9260763,4.56048083 20.3113908,4.94700003 20.3113908,5.42400059 C20.3113908,5.90096052 19.9260794,6.28764222 19.4506069,6.28764222 Z M3.71765812,10.1501155 L4.09922182,10.1501155 C5.04394266,10.1501155 5.81668056,11.1424354 5.81668056,12.3553587 L5.81668056,19.4306169 C5.81668056,20.644137 5.04394266,21.6361382 4.09922182,21.6361382 L3.71765812,21.6361382 C2.7727784,21.6361382 2,20.644137 2,19.4306169 L2,12.3553274 C2,11.1424447 2.7727784,10.1501248 3.71765812,10.1501248 L3.71765812,10.1501248 L3.71765812,10.1501155 Z M27.3338413,10.1921155 L27.7156043,10.1921155 C28.6601632,10.1921155 29.4329042,11.184276 29.4329042,12.3973587 L29.4329042,19.4727732 C29.4329042,20.6858152 28.6601663,21.6782945 27.7156043,21.6782945 L27.3338413,21.6782945 C26.3891204,21.6782945 25.6161831,20.6858121 25.6161831,19.4727732 L25.6161831,12.3973587 C25.6161831,11.184276 26.3891204,10.1921155 27.3338413,10.1921155 L27.3338413,10.1921155 Z M14.1773501,25.7649774 L14.1773501,29.7530758 C14.1773501,30.9654772 13.4047711,31.957919 12.4598913,31.957919 L12.0781283,31.957919 C11.1334479,31.957919 10.3608284,30.9654772 10.3608284,29.7530758 L10.3608284,25.7649774 L8.78109743,25.7649774 C7.81488456,25.7649774 7.02448326,24.9721358 7.02448326,24.0025347 L7.02448326,10.0415497 L24.4271373,10.0415497 L24.4271373,24.0025347 C24.4271373,24.9721358 23.6367734,25.7649774 22.6705231,25.7649774 L21.2216228,25.7649774 L21.2216228,29.7994508 C21.2216228,31.0123335 20.448726,31.9648533 19.5041641,31.9648533 L19.1224415,31.9648533 C18.1777207,31.9648533 17.4051042,31.012371 17.4051042,29.7994508 L17.4051042,25.7649774 L14.1773438,25.7649774 L14.1773438,25.7649774 L14.1773501,25.7649774 Z"></path>
                    </g>
                </g>
            </g>
        </g>
    </g>
</svg>