<?xml version="1.0" standalone="no"?><!DOCTYPE svg PUBLIC "-//W3C//DTD SVG 1.1//EN" "http://www.w3.org/Graphics/SVG/1.1/DTD/svg11.dtd"><svg t="1571187309379" class="icon" viewBox="0 0 1024 1024" version="1.1" xmlns="http://www.w3.org/2000/svg" p-id="29596" xmlns:xlink="http://www.w3.org/1999/xlink" width="200" height="200"><defs><style type="text/css"></style></defs><path d="M96 1024h832v-76.8H96V1024zM564.032 0c-26.048 0-45.504 12.8-58.56 32L128.512 556.8c-6.528 12.8-12.992 25.6-12.992 44.8L96 787.2c0 38.4 32.512 70.4 71.488 70.4 6.528 0 12.992 0 19.52-6.4l182.016-76.8c12.992-6.4 25.984-12.8 32.448-25.6l377.024-524.8c19.52-32 12.992-76.8-19.52-96L603.008 19.2C596.48 6.4 583.488 0 563.968 0z m6.464 76.8L720 179.2l-370.56 518.4h-6.4L180.48 768l19.52-166.4v-6.4l370.56-518.4z" p-id="29597"></path></svg>