<?xml version="1.0" encoding="UTF-8"?>
<svg width="196px" height="38px" viewBox="0 0 196 38" version="1.1" xmlns="http://www.w3.org/2000/svg" xmlns:xlink="http://www.w3.org/1999/xlink">
    <!-- Generator: Sketch 53 (72520) - https://sketchapp.com -->
    <title>logo</title>
    <desc>Created with Sketch.</desc>
    <g id="页面-1" stroke="none" stroke-width="1" fill="none" fill-rule="evenodd">
        <g id="首页汇合-copy" transform="translate(-408.000000, -60.000000)">
            <g id="logo" transform="translate(408.000000, 60.000000)">
                <g id="Dropshipping.com" transform="translate(57.000000, 6.000000)" fill="#08ACEB" fill-rule="nonzero">
                    <path d="M3.99108911,0.816 C5.09207921,0.68 6.12425743,0.544 7.22524752,0.544 C12.5237624,0.544 12.730198,3.808 12.0420792,6.596 L12.0420792,6.596 C11.560396,8.568 10.4594059,10.268 8.87673267,11.56 C7.29405941,12.716 5.29851485,13.26 3.3029703,13.192 C2.40841584,13.192 1.51386139,13.124 0.619306931,13.056 L3.99108911,0.816 Z M2.95891089,11.628 C3.37178218,11.696 3.78465347,11.696 4.19752475,11.696 C7.01881188,11.696 9.1519802,10.064 10.0465347,6.664 C10.8722772,3.604 9.70247525,2.04 7.01881188,2.04 C6.53712871,2.04 5.98663366,2.108 5.5049505,2.176 L2.95891089,11.628 Z" id="形状"></path>
                    <path d="M18.5792079,5.848 C18.3727723,5.78 18.2351485,5.78 18.0287129,5.78 C16.790099,5.78 15.6891089,6.8 15.2762376,8.364 L13.9688119,13.124 L12.0420792,13.124 L13.7623762,6.868 C14.0376238,5.848 14.2440594,4.964 14.450495,4.148 L16.1019802,4.148 L15.6891089,5.78 L15.8267327,5.78 C16.3772277,4.76 17.4782178,4.08 18.6480198,4.012 C18.7856436,4.012 18.9232673,4.012 19.129703,4.08 L18.5792079,5.848 Z" id="路径"></path>
                    <path d="M27.0430693,8.568 C26.1485149,11.9 23.6024752,13.328 21.5381188,13.328 C19.1985149,13.328 17.8910891,11.628 18.6480198,8.704 C19.4737624,5.644 21.8133663,3.944 24.1529703,3.944 C26.4925743,3.944 27.8,5.848 27.0430693,8.568 Z M23.8089109,5.372 C22.1574257,5.372 21.1252475,7.072 20.7123762,8.636 C20.2306931,10.404 20.6435644,11.9 22.0886139,11.9 C23.5336634,11.9 24.7034653,10.404 25.1851485,8.636 C25.5292079,7.14 25.3915842,5.372 23.8089109,5.372 Z" id="形状_1_"></path>
                    <path d="M31.5158416,5.508 C32.3415842,4.556 33.5113861,3.944 34.8188119,3.944 C36.8143564,3.944 37.8465347,5.712 37.089604,8.5 C36.1950495,11.764 33.8554455,13.26 31.9975248,13.26 C31.1029703,13.328 30.2772277,12.852 29.9331683,12.036 L29.8643564,12.036 L28.6257426,16.728 L26.6990099,16.728 L29.3138614,7.004 C29.6579208,5.848 29.8643564,4.896 30.0019802,4.08 L31.6534653,4.08 L31.5158416,5.508 L31.5158416,5.508 Z M30.6212871,9.52 C30.2084158,11.152 31.1029703,11.832 32.0663366,11.832 C33.5113861,11.832 34.6811881,10.472 35.2316832,8.636 C35.7133663,6.936 35.300495,5.508 33.8554455,5.508 C32.5480198,5.644 31.4470297,6.596 31.1029703,7.888 L30.6212871,9.52 Z" id="形状_2_"></path>
                    <path d="M44.1772277,5.848 C43.6955446,5.508 43.1450495,5.372 42.5945545,5.372 C41.8376238,5.304 41.2183168,5.78 41.0118812,6.46 C40.8742574,7.072 41.149505,7.412 42.1128713,7.888 C43.420297,8.5 43.9707921,9.316 43.6267327,10.608 C43.1450495,12.308 41.5623762,13.328 39.4980198,13.328 C38.6722772,13.328 37.9153465,13.124 37.2272277,12.716 L38.0529703,11.288 C38.6034653,11.696 39.2915842,11.9 39.979703,11.9 C40.8054455,11.968 41.5623762,11.492 41.8376238,10.744 C42.0440594,10.064 41.7688119,9.656 40.8054455,9.248 C39.360396,8.636 38.9475248,7.752 39.2227723,6.664 C39.7044554,5.032 41.2871287,3.876 43.0762376,3.944 C43.7643564,3.944 44.4524752,4.08 45.0717822,4.488 L44.1772277,5.848 Z" id="路径_1_"></path>
                    <path d="M52.1594059,13.124 L50.2326733,13.124 L51.6777228,7.888 C52.0217822,6.596 51.8841584,5.508 50.5767327,5.508 C49.4069307,5.644 48.3747525,6.46 48.099505,7.616 L46.5856436,13.124 L44.6589109,13.124 L48.1683168,0.068 L50.2326733,0.068 L48.7876238,5.372 L48.7876238,5.372 C49.5445545,4.488 50.5767327,4.012 51.7465347,3.944 C53.1227723,3.944 54.430198,4.828 53.6732673,7.684 L52.1594059,13.124 Z" id="路径_2_"></path>
                    <path d="M56.4945545,13.124 L54.5678218,13.124 L56.9762376,4.148 L58.9029703,4.148 L56.4945545,13.124 Z M58.3524752,2.788 C58.0772277,2.788 57.8019802,2.72 57.6643564,2.448 C57.5267327,2.244 57.4579208,1.904 57.5955446,1.7 C57.7331683,1.088 58.2836634,0.612 58.9717822,0.612 C59.659901,0.612 59.9351485,1.088 59.7975248,1.7 C59.5222772,2.312 58.9717822,2.72 58.3524752,2.788 L58.3524752,2.788 Z" id="形状_3_"></path>
                    <path d="M62.6876238,5.508 C63.5133663,4.556 64.6831683,3.944 65.9905941,3.944 C67.9861386,3.944 69.0183168,5.712 68.2613861,8.5 C67.3668317,11.764 65.0272277,13.26 63.1693069,13.26 C62.2747525,13.328 61.4490099,12.852 61.1049505,12.036 L61.0361386,12.036 L59.7975248,16.728 L57.8707921,16.728 L60.5544554,7.072 C60.8985149,5.916 61.1049505,4.964 61.2425743,4.148 L62.8940594,4.148 L62.6876238,5.508 L62.6876238,5.508 Z M61.7930693,9.52 C61.380198,11.152 62.2747525,11.832 63.2381188,11.832 C64.6831683,11.832 65.8529703,10.472 66.4034653,8.636 C66.8851485,6.936 66.4722772,5.508 65.0272277,5.508 C63.719802,5.644 62.6188119,6.596 62.2747525,7.888 L61.7930693,9.52 Z" id="形状_4_"></path>
                    <path d="M72.6653465,5.508 C73.4910891,4.556 74.6608911,3.944 75.9683168,3.944 C77.9638614,3.944 78.9960396,5.712 78.2391089,8.5 C77.3445545,11.764 75.0049505,13.26 73.1470297,13.26 C72.2524752,13.328 71.4267327,12.852 71.0826733,12.036 L71.0826733,12.036 L69.8440594,16.728 L67.9173267,16.728 L70.5321782,7.004 C70.8762376,5.848 71.0826733,4.896 71.220297,4.08 L72.8717822,4.08 L72.6653465,5.508 L72.6653465,5.508 Z M71.7707921,9.52 C71.3579208,11.152 72.2524752,11.832 73.2158416,11.832 C74.6608911,11.832 75.8306931,10.472 76.3811881,8.636 C76.8628713,6.936 76.45,5.508 75.0049505,5.508 C73.6975248,5.644 72.5965347,6.596 72.2524752,7.888 L71.7707921,9.52 Z" id="形状_5_"></path>
                    <path d="M80.7851485,13.124 L78.8584158,13.124 L81.3356436,4.148 L83.2623762,4.148 L80.7851485,13.124 Z M82.6430693,2.788 C82.3678218,2.788 82.0925743,2.72 81.9549505,2.448 C81.8173267,2.244 81.7485149,1.904 81.8861386,1.7 C82.0237624,1.02 82.6430693,0.612 83.3311881,0.612 C83.950495,0.612 84.2945545,1.088 84.1569307,1.7 C83.8816832,2.312 83.3311881,2.788 82.6430693,2.788 L82.6430693,2.788 Z" id="形状_6_"></path>
                    <path d="M90.6252475,13.124 L88.6985149,13.124 L90.1435644,7.888 C90.4876238,6.596 90.35,5.576 89.0425743,5.576 C87.8039604,5.712 86.7717822,6.596 86.4965347,7.752 L85.0514851,13.192 L83.1935644,13.192 L84.9138614,6.732 C85.1891089,5.712 85.3267327,4.964 85.5331683,4.216 L87.1846535,4.216 L86.9094059,5.576 L86.9782178,5.576 C87.7351485,4.624 88.9049505,4.012 90.1435644,4.012 C91.519802,4.012 92.8960396,4.896 92.1391089,7.684 L90.6252475,13.124 Z" id="路径_3_"></path>
                    <path d="M102.942574,4.148 C102.736139,4.76 102.460891,5.508 102.185644,6.732 L100.809406,11.832 C100.327723,13.6 99.2955446,16.932 95.0292079,16.932 C94.0658416,16.932 93.1712871,16.728 92.3455446,16.252 L93.1712871,14.756 C93.8594059,15.164 94.6163366,15.436 95.4420792,15.368 C96.8871287,15.368 98.1945545,14.552 98.7450495,12.512 L98.9514851,11.628 L98.9514851,11.628 C98.2633663,12.444 97.1623762,12.92 96.0613861,12.92 C93.9282178,12.92 93.0336634,11.016 93.6529703,8.568 C94.4787129,5.508 96.749505,3.808 98.7450495,3.808 C100.052475,3.808 100.671782,4.488 100.809406,5.236 L100.809406,5.236 L101.222277,4.012 L102.942574,4.148 Z M100.052475,7.616 C100.396535,6.46 99.8460396,5.44 98.6762376,5.44 C97.3688119,5.44 96.130198,6.664 95.579703,8.636 C95.0980198,10.404 95.579703,11.628 96.9559406,11.628 C98.1945545,11.56 99.2955446,10.608 99.5019802,9.384 L100.052475,7.616 Z" id="形状_7_"></path>
                    <path d="M102.873762,12.036 C103.080198,11.288 103.699505,10.744 104.456436,10.744 C105.144554,10.744 105.557426,11.288 105.282178,12.036 C105.144554,12.784 104.456436,13.328 103.699505,13.328 C103.011386,13.328 102.667327,12.716 102.873762,12.036 Z" id="路径_4_"></path>
                    <path d="M112.989109,12.852 C112.232178,13.124 111.406436,13.328 110.511881,13.328 C107.89703,13.328 106.727228,11.56 107.484158,8.772 C108.103465,6.052 110.580693,4.08 113.40198,4.012 C114.090099,4.012 114.709406,4.148 115.328713,4.42 L114.571782,5.848 C114.090099,5.576 113.539604,5.44 112.989109,5.44 C111.2,5.44 109.823762,6.868 109.410891,8.636 C108.860396,10.608 109.75495,11.764 111.268812,11.764 C111.888119,11.764 112.507426,11.628 113.057921,11.424 L112.989109,12.852 Z" id="路径_5_"></path>
                    <path d="M123.586139,8.568 C122.691584,11.9 120.076733,13.328 118.081188,13.328 C115.741584,13.328 114.434158,11.628 115.191089,8.704 C116.016832,5.644 118.356436,3.944 120.69604,3.944 C123.104455,3.944 124.343069,5.848 123.586139,8.568 Z M120.283168,5.372 C118.700495,5.372 117.599505,7.072 117.186634,8.636 C116.70495,10.404 117.117822,11.9 118.562871,11.9 C120.007921,11.9 121.177723,10.404 121.659406,8.636 C122.003465,7.14 121.865842,5.372 120.283168,5.372 Z" id="形状_8_"></path>
                    <path d="M136.522772,13.124 L134.664851,13.124 L136.041089,8.024 C136.45396,6.528 136.247525,5.508 135.077723,5.508 C133.907921,5.644 133.013366,6.46 132.806931,7.616 L131.293069,13.124 L129.435149,13.124 L130.880198,7.752 C131.224257,6.528 131.017822,5.508 129.916832,5.508 C128.74703,5.644 127.783663,6.528 127.508416,7.684 L126.063366,13.124 L124.205446,13.124 L125.994554,6.664 C126.269802,5.644 126.407426,4.896 126.613861,4.148 L128.265347,4.148 L127.990099,5.44 L128.058911,5.44 C128.815842,4.488 129.916832,3.944 131.086634,3.944 C131.568317,3.876 132.05,4.08 132.394059,4.352 C132.738119,4.692 133.013366,5.1 133.013366,5.576 L133.082178,5.576 C133.839109,4.556 135.077723,3.944 136.316337,3.944 C137.623762,3.944 138.862376,4.828 138.105446,7.684 L136.522772,13.124 Z" id="路径_6_"></path>
                </g>
                <g id="You_sell_-_We_source_and_ship_for_you_" transform="translate(58.000000, 24.000000)" fill="#FFFFFF" fill-rule="nonzero">
                    <path d="M5.02562814,0.428571429 L2.06532663,4.35714286 L1.3080402,7.21428571 L0.344221106,7.21428571 L1.10150754,4.35714286 L0.275376884,0.428571429 L1.37688442,0.428571429 L1.65226131,2.21428571 C1.72110553,2.71428571 1.78994975,3.14285714 1.85879397,3.64285714 L1.85879397,3.64285714 C2.13417085,3.21428571 2.40954774,2.71428571 2.75376884,2.21428571 L3.9241206,0.428571429 L5.02562814,0.428571429 Z" id="路径_7_"></path>
                    <path d="M8.39899497,4.78571429 C7.91708543,6.64285714 6.60904523,7.35714286 5.64522613,7.35714286 C4.47487437,7.35714286 3.85527638,6.42857143 4.26834171,4.85714286 C4.68140704,3.28571429 5.85175879,2.28571429 7.09095477,2.28571429 C8.33015075,2.28571429 8.8120603,3.28571429 8.39899497,4.78571429 Z M6.74673367,3 C5.92060302,3 5.36984925,3.92857143 5.16331658,4.78571429 C4.8879397,5.71428571 5.09447236,6.57142857 5.85175879,6.57142857 C6.60904523,6.57142857 7.15979899,5.78571429 7.43517588,4.78571429 C7.64170854,4 7.57286432,3 6.74673367,3 Z" id="形状_9_"></path>
                    <path d="M12.7361809,5.85714286 C12.5984925,6.42857143 12.5296482,6.85714286 12.3919598,7.28571429 L11.5658291,7.28571429 L11.7035176,6.57142857 L11.7035176,6.57142857 C11.2904523,7.07142857 10.7396985,7.35714286 10.1201005,7.35714286 C9.36281407,7.35714286 8.8120603,6.85714286 9.22512563,5.28571429 L9.98241206,2.35714286 L10.9462312,2.35714286 L10.2577889,5.07142857 C10.0512563,5.92857143 10.1201005,6.5 10.7396985,6.5 C11.3592965,6.42857143 11.841206,6 11.9788945,5.35714286 L12.7361809,2.35714286 L13.7,2.35714286 L12.7361809,5.85714286 Z" id="路径_8_"></path>
                    <path d="M18.6567839,3.28571429 C18.4502513,3.14285714 18.1748744,3 17.8994975,3 C17.5552764,3 17.2110553,3.21428571 17.0733668,3.57142857 C17.0045226,3.92857143 17.1422111,4.07142857 17.6241206,4.35714286 C17.8994975,4.42857143 18.1748744,4.64285714 18.3125628,4.92857143 C18.4502513,5.21428571 18.4502513,5.57142857 18.381407,5.85714286 C18.1060302,6.78571429 17.2798995,7.42857143 16.3160804,7.35714286 C15.9030151,7.35714286 15.4899497,7.28571429 15.2145729,7 L15.6276382,6.21428571 C15.9030151,6.42857143 16.2472362,6.57142857 16.5914573,6.57142857 C17.0045226,6.64285714 17.4175879,6.35714286 17.4864322,5.92857143 C17.5552764,5.57142857 17.4175879,5.35714286 16.9356784,5.07142857 C16.2472362,4.71428571 15.9718593,4.21428571 16.178392,3.64285714 C16.4537688,2.78571429 17.2110553,2.14285714 18.1060302,2.14285714 C18.4502513,2.14285714 18.7944724,2.21428571 19.0698492,2.42857143 L18.6567839,3.28571429 Z" id="路径_9_"></path>
                    <path d="M22.2366834,7.07142857 C21.7547739,7.28571429 21.2728643,7.35714286 20.7221106,7.35714286 C19.3452261,7.35714286 18.8633166,6.35714286 19.2075377,4.85714286 C19.620603,3.35714286 20.6532663,2.21428571 21.8924623,2.21428571 C23.1316583,2.21428571 23.338191,3.35714286 23.0628141,4.57142857 C22.9939698,4.71428571 22.9939698,4.85714286 22.9251256,5 L20.1025126,5 C19.8271357,6.07142857 20.3778894,6.5 21.0663317,6.5 C21.479397,6.5 21.8924623,6.42857143 22.2366834,6.28571429 L22.2366834,7.07142857 Z M22.3055276,4.28571429 C22.4432161,3.71428571 22.4432161,3 21.6859296,3 C20.9286432,3 20.5155779,3.71428571 20.3090452,4.28571429 L22.3055276,4.28571429 Z" id="形状_10_"></path>
                    <polygon id="路径_10_" points="24.3020101 7.28571429 23.338191 7.28571429 25.1969849 0.142857143 26.160804 0.142857143"></polygon>
                    <polygon id="路径_11_" points="26.4361809 7.28571429 25.4723618 7.28571429 27.3311558 0.142857143 28.2949749 0.142857143"></polygon>
                    <polygon id="路径_12_" points="29.9472362 4.21428571 32.2190955 4.21428571 32.0125628 4.92857143 29.7407035 4.92857143"></polygon>
                    <path d="M42.6834171,0.428571429 L39.3100503,7.21428571 L38.3462312,7.21428571 L38.4839196,3.92857143 C38.4839196,3.21428571 38.5527638,2.42857143 38.6904523,1.71428571 L38.6904523,1.71428571 C38.4150754,2.42857143 38.0708543,3.14285714 37.6577889,3.92857143 L36.0743719,7.21428571 L35.1105528,7.21428571 L35.3859296,0.428571429 L36.418593,0.428571429 L36.2120603,3.64285714 C36.1432161,4.5 36.0743719,5.28571429 36.0055276,6 L36.0055276,6 C36.2809045,5.28571429 36.6939698,4.5 37.1070352,3.57142857 L38.621608,0.357142857 L39.5854271,0.357142857 L39.3788945,3.57142857 C39.3100503,4.35714286 39.241206,5.14285714 39.1723618,5.92857143 L39.1723618,5.92857143 C39.5165829,5.14285714 39.860804,4.35714286 40.2050251,3.5 L41.719598,0.285714286 L42.6834171,0.285714286 L42.6834171,0.428571429 Z" id="路径_13_"></path>
                    <path d="M44.9552764,7.07142857 C44.4733668,7.28571429 43.9914573,7.35714286 43.4407035,7.35714286 C42.0638191,7.35714286 41.5819095,6.35714286 41.9261307,4.85714286 C42.2703518,3.35714286 43.3718593,2.21428571 44.6110553,2.21428571 C45.9190955,2.21428571 46.0567839,3.35714286 45.781407,4.57142857 C45.7125628,4.71428571 45.7125628,4.85714286 45.6437186,5 L42.8211055,5 C42.5457286,6.07142857 43.0964824,6.5 43.7849246,6.5 C44.1979899,6.5 44.6110553,6.42857143 44.9552764,6.28571429 L44.9552764,7.07142857 Z M45.0241206,4.28571429 C45.161809,3.71428571 45.161809,3 44.4045226,3 C43.6472362,3 43.2341709,3.71428571 43.0276382,4.28571429 L45.0241206,4.28571429 Z" id="形状_11_"></path>
                    <path d="M51.1512563,3.28571429 C50.9447236,3.07142857 50.6693467,3 50.3939698,3 C50.0497487,3 49.7055276,3.21428571 49.5678392,3.57142857 C49.498995,3.92857143 49.6366834,4.07142857 50.118593,4.35714286 C50.3939698,4.42857143 50.6693467,4.64285714 50.8070352,4.92857143 C50.9447236,5.21428571 50.9447236,5.5 50.8758794,5.85714286 C50.6005025,6.78571429 49.7743719,7.42857143 48.8105528,7.35714286 C48.3974874,7.35714286 47.9844221,7.28571429 47.640201,7 L48.0532663,6.21428571 C48.3286432,6.42857143 48.6728643,6.57142857 49.0170854,6.57142857 C49.4301508,6.64285714 49.8432161,6.35714286 49.9120603,5.92857143 C49.9809045,5.57142857 49.8432161,5.35714286 49.4301508,5.07142857 C48.7417085,4.71428571 48.4663317,4.21428571 48.6728643,3.64285714 C48.879397,2.78571429 49.7055276,2.14285714 50.6005025,2.21428571 C50.9447236,2.21428571 51.2889447,2.28571429 51.5643216,2.5 L51.1512563,3.28571429 Z" id="路径_14_"></path>
                    <path d="M55.9015075,4.78571429 C55.419598,6.64285714 54.1115578,7.35714286 53.1477387,7.35714286 C51.9773869,7.35714286 51.3577889,6.42857143 51.7708543,4.85714286 C52.1839196,3.28571429 53.3542714,2.28571429 54.5934673,2.28571429 C55.7638191,2.21428571 56.3145729,3.28571429 55.9015075,4.78571429 Z M54.3180905,3 C53.4919598,3 52.941206,3.92857143 52.7346734,4.78571429 C52.4592965,5.71428571 52.6658291,6.57142857 53.4231156,6.57142857 C54.180402,6.57142857 54.7311558,5.78571429 55.0065327,4.78571429 C55.1442211,4 55.0753769,3 54.3180905,3 Z" id="形状_12_"></path>
                    <path d="M60.2386935,5.85714286 C60.101005,6.42857143 60.0321608,6.85714286 59.8944724,7.28571429 L59.0683417,7.28571429 L59.2060302,6.57142857 L59.2060302,6.57142857 C58.7929648,7.07142857 58.2422111,7.35714286 57.6226131,7.35714286 C56.8653266,7.35714286 56.3145729,6.85714286 56.7276382,5.28571429 L57.4849246,2.35714286 L58.4487437,2.35714286 L57.7603015,5.07142857 C57.5537688,5.92857143 57.6226131,6.5 58.2422111,6.5 C58.861809,6.42857143 59.3437186,6 59.481407,5.35714286 L60.2386935,2.35714286 L61.2025126,2.35714286 L60.2386935,5.85714286 Z" id="路径_15_"></path>
                    <path d="M64.3693467,3.28571429 C64.3005025,3.28571429 64.1628141,3.28571429 64.0939698,3.28571429 C63.4743719,3.28571429 62.9236181,3.85714286 62.7170854,4.71428571 L62.0286432,7.28571429 L61.0648241,7.28571429 L61.959799,3.85714286 C62.0974874,3.28571429 62.2351759,2.78571429 62.3040201,2.35714286 L63.1301508,2.35714286 L62.9236181,3.28571429 L62.9924623,3.28571429 C63.2678392,2.71428571 63.818593,2.35714286 64.438191,2.28571429 C64.5070352,2.28571429 64.5758794,2.28571429 64.6447236,2.28571429 L64.3693467,3.28571429 Z" id="路径_16_"></path>
                    <path d="M67.1231156,7.14285714 C66.7100503,7.28571429 66.2969849,7.35714286 65.8839196,7.42857143 C64.5758794,7.42857143 63.9562814,6.42857143 64.3693467,4.92857143 C64.6447236,3.42857143 65.8839196,2.35714286 67.3984925,2.28571429 C67.7427136,2.28571429 68.0180905,2.35714286 68.3623116,2.5 L67.9492462,3.28571429 C67.7427136,3.14285714 67.4673367,3.07142857 67.1919598,3.07142857 C66.2969849,3.14285714 65.5396985,3.85714286 65.4020101,4.78571429 C65.1266332,5.85714286 65.5396985,6.5 66.2969849,6.5 C66.641206,6.5 66.9165829,6.42857143 67.1919598,6.28571429 L67.1231156,7.14285714 Z" id="路径_17_"></path>
                    <path d="M71.3226131,7.07142857 C70.8407035,7.28571429 70.358794,7.35714286 69.8080402,7.35714286 C68.4311558,7.35714286 67.9492462,6.35714286 68.2934673,4.85714286 C68.6376884,3.35714286 69.739196,2.21428571 70.978392,2.21428571 C72.2864322,2.21428571 72.4241206,3.35714286 72.1487437,4.57142857 C72.0798995,4.71428571 72.0798995,4.85714286 72.0110553,5 L69.1884422,5 C68.9130653,6.07142857 69.4638191,6.5 70.1522613,6.5 C70.5653266,6.5 70.978392,6.42857143 71.3226131,6.28571429 L71.3226131,7.07142857 Z M71.3226131,4.28571429 C71.4603015,3.71428571 71.4603015,3 70.7030151,3 C69.9457286,3 69.5326633,3.71428571 69.3261307,4.28571429 L71.3226131,4.28571429 Z" id="形状_13_"></path>
                    <path d="M77.6562814,6.07142857 C77.518593,6.42857143 77.4497487,6.85714286 77.4497487,7.21428571 L76.6236181,7.21428571 L76.6924623,6.64285714 L76.6924623,6.64285714 C76.3482412,7.07142857 75.7974874,7.28571429 75.2467337,7.28571429 C74.420603,7.28571429 74.0763819,6.64285714 74.2829146,5.85714286 C74.6271357,4.64285714 75.7286432,4 77.2432161,4 C77.3120603,3.64285714 77.518593,2.92857143 76.6236181,2.92857143 C76.2105528,2.92857143 75.7974874,3.07142857 75.4532663,3.28571429 L75.4532663,2.57142857 C75.9351759,2.28571429 76.4859296,2.14285714 77.0366834,2.14285714 C78.3447236,2.14285714 78.4824121,3.07142857 78.2070352,4.14285714 L77.6562814,6.07142857 Z M77.1055276,4.78571429 C76.3482412,4.78571429 75.4532663,4.92857143 75.2467337,5.78571429 C75.1090452,6.35714286 75.3844221,6.57142857 75.7286432,6.57142857 C76.279397,6.57142857 76.7613065,6.14285714 76.898995,5.57142857 L77.1055276,4.78571429 Z" id="形状_14_"></path>
                    <path d="M82.2688442,7.28571429 L81.3050251,7.28571429 L82.0623116,4.42857143 C82.2688442,3.71428571 82.2,3.14285714 81.5115578,3.14285714 C80.8919598,3.21428571 80.4100503,3.64285714 80.2723618,4.28571429 L79.5150754,7.21428571 L78.5512563,7.21428571 L79.4462312,3.71428571 C79.5839196,3.14285714 79.6527638,2.78571429 79.7904523,2.35714286 L80.6165829,2.35714286 L80.4788945,3.07142857 L80.4788945,3.07142857 C80.8919598,2.57142857 81.4427136,2.28571429 82.0623116,2.21428571 C82.7507538,2.21428571 83.439196,2.71428571 83.0261307,4.21428571 L82.2688442,7.28571429 Z" id="路径_18_"></path>
                    <path d="M87.5698492,5.92857143 C87.4321608,6.35714286 87.3633166,6.92857143 87.2944724,7.21428571 L86.4683417,7.21428571 L86.6060302,6.42857143 L86.6060302,6.42857143 C86.261809,6.92857143 85.6422111,7.28571429 85.0226131,7.28571429 C83.9899497,7.28571429 83.5080402,6.28571429 83.8522613,4.78571429 C84.2653266,3.14285714 85.3668342,2.21428571 86.3994975,2.21428571 C86.881407,2.14285714 87.2944724,2.42857143 87.4321608,2.85714286 L87.4321608,2.85714286 L88.120603,0.0714285714 L89.0844221,0.0714285714 L87.5698492,5.92857143 Z M87.0190955,4.35714286 C87.2256281,3.57142857 86.881407,3.07142857 86.3306533,3.07142857 C85.6422111,3.07142857 85.0226131,3.85714286 84.7472362,4.78571429 C84.4718593,5.78571429 84.678392,6.5 85.4356784,6.5 C86.1241206,6.42857143 86.6748744,5.92857143 86.8125628,5.21428571 L87.0190955,4.35714286 Z" id="形状_15_"></path>
                    <path d="M93.4904523,3.28571429 C93.2839196,3.07142857 93.0085427,3 92.7331658,3 C92.3889447,3 92.0447236,3.21428571 91.9070352,3.57142857 C91.838191,3.92857143 91.9758794,4.07142857 92.4577889,4.35714286 C92.7331658,4.42857143 93.0085427,4.64285714 93.1462312,4.92857143 C93.2839196,5.21428571 93.2839196,5.57142857 93.2150754,5.85714286 C92.9396985,6.78571429 92.1135678,7.42857143 91.1497487,7.35714286 C90.7366834,7.35714286 90.3236181,7.28571429 90.0482412,7 L90.4613065,6.21428571 C90.7366834,6.42857143 91.0809045,6.57142857 91.4251256,6.57142857 C91.838191,6.64285714 92.2512563,6.35714286 92.3201005,5.92857143 C92.3889447,5.57142857 92.2512563,5.35714286 91.838191,5.07142857 C91.1497487,4.71428571 90.8743719,4.21428571 91.0809045,3.64285714 C91.3562814,2.78571429 92.1824121,2.14285714 93.0773869,2.21428571 C93.421608,2.21428571 93.7658291,2.28571429 94.041206,2.5 L93.4904523,3.28571429 Z" id="路径_19_"></path>
                    <path d="M97.4834171,7.28571429 L96.519598,7.28571429 L97.2768844,4.42857143 C97.4834171,3.71428571 97.4145729,3.14285714 96.7261307,3.14285714 C96.1065327,3.21428571 95.6246231,3.71428571 95.4869347,4.35714286 L94.7296482,7.35714286 L93.7658291,7.35714286 L95.6246231,0.214285714 L96.5884422,0.214285714 L95.8311558,3.14285714 L95.8311558,3.14285714 C96.1753769,2.71428571 96.7261307,2.42857143 97.3457286,2.35714286 C98.0341709,2.35714286 98.6537688,2.85714286 98.3095477,4.42857143 L97.4834171,7.28571429 Z" id="路径_20_"></path>
                    <path d="M99.6175879,7.28571429 L98.6537688,7.28571429 L99.8929648,2.35714286 L100.856784,2.35714286 L99.6175879,7.28571429 Z M100.581407,1.57142857 C100.237186,1.57142857 100.099497,1.28571429 100.168342,1 C100.237186,0.642857143 100.512563,0.428571429 100.856784,0.428571429 C101.201005,0.428571429 101.338693,0.714285714 101.269849,1 C101.201005,1.35714286 100.925628,1.57142857 100.581407,1.57142857 L100.581407,1.57142857 Z" id="形状_16_"></path>
                    <path d="M102.784422,3.07142857 C103.197487,2.57142857 103.817085,2.21428571 104.436683,2.21428571 C105.469347,2.21428571 105.951256,3.21428571 105.538191,4.71428571 C105.056281,6.5 103.88593,7.35714286 102.990955,7.35714286 C102.509045,7.42857143 102.09598,7.14285714 101.958291,6.71428571 L101.958291,6.71428571 L101.269849,9.28571429 L100.30603,9.28571429 L101.682915,4 C101.820603,3.35714286 101.958291,2.85714286 102.09598,2.42857143 L102.922111,2.42857143 L102.784422,3.07142857 L102.784422,3.07142857 Z M102.302513,5.21428571 C102.09598,6.07142857 102.509045,6.5 102.990955,6.5 C103.748241,6.5 104.298995,5.78571429 104.574372,4.71428571 C104.849749,3.64285714 104.643216,3 103.88593,3 C103.197487,3.07142857 102.646734,3.64285714 102.509045,4.28571429 L102.302513,5.21428571 Z" id="形状_17_"></path>
                    <path d="M109.049246,2.35714286 C109.186935,1.64285714 109.531156,1 110.013065,0.5 C110.357286,0.214285714 110.770352,0.0714285714 111.252261,0.0714285714 C111.458794,0.0714285714 111.665327,0.142857143 111.871859,0.214285714 L111.596482,1 C111.458794,0.928571429 111.321106,0.928571429 111.114573,0.928571429 C110.563819,0.928571429 110.219598,1.5 110.013065,2.14285714 L109.944221,2.42857143 L110.90804,2.42857143 L110.701508,3.21428571 L109.737688,3.21428571 L108.636181,7.35714286 L107.672362,7.35714286 L108.773869,3.21428571 L108.154271,3.21428571 L108.360804,2.42857143 L109.049246,2.42857143 L109.049246,2.35714286 L109.049246,2.35714286 Z" id="路径_21_"></path>
                    <path d="M114.901005,4.78571429 C114.419095,6.64285714 113.111055,7.35714286 112.147236,7.35714286 C110.976884,7.35714286 110.357286,6.42857143 110.770352,4.85714286 C111.183417,3.28571429 112.353769,2.28571429 113.592965,2.28571429 C114.694472,2.21428571 115.245226,3.28571429 114.901005,4.78571429 Z M113.248744,3 C112.422613,3 111.871859,3.92857143 111.665327,4.78571429 C111.38995,5.71428571 111.596482,6.57142857 112.284925,6.57142857 C112.973367,6.57142857 113.592965,5.78571429 113.868342,4.78571429 C114.143719,4 114.074874,3 113.248744,3 Z" id="形状_18_"></path>
                    <path d="M118.480905,3.28571429 C118.41206,3.28571429 118.274372,3.28571429 118.205528,3.28571429 C117.58593,3.28571429 117.035176,3.85714286 116.828643,4.71428571 L116.140201,7.28571429 L115.176382,7.28571429 L116.071357,3.85714286 C116.209045,3.28571429 116.346734,2.78571429 116.415578,2.35714286 L117.241709,2.35714286 L117.035176,3.28571429 L117.035176,3.28571429 C117.310553,2.71428571 117.861307,2.35714286 118.480905,2.28571429 C118.549749,2.28571429 118.618593,2.28571429 118.687437,2.28571429 L118.480905,3.28571429 Z" id="路径_22_"></path>
                    <path d="M124.814573,2.35714286 L122.81809,5.78571429 C122.267337,6.92857143 121.51005,8 120.546231,8.85714286 C120.20201,9.14285714 119.788945,9.35714286 119.307035,9.5 L119.307035,8.57142857 C120.064322,8.28571429 120.68392,7.78571429 121.028141,7.07142857 C121.028141,7 121.028141,6.92857143 121.028141,6.85714286 L120.68392,2.35714286 L121.716583,2.35714286 L121.854271,5.14285714 C121.854271,5.42857143 121.854271,5.85714286 121.854271,6.14285714 L121.854271,6.14285714 C121.99196,5.85714286 122.198492,5.5 122.336181,5.14285714 L123.78191,2.35714286 C123.78191,2.35714286 124.814573,2.35714286 124.814573,2.35714286 Z" id="路径_23_"></path>
                    <path d="M128.738693,4.78571429 C128.256784,6.64285714 126.948744,7.35714286 125.984925,7.35714286 C124.814573,7.35714286 124.194975,6.42857143 124.60804,4.85714286 C125.021106,3.28571429 126.191457,2.28571429 127.430653,2.28571429 C128.669849,2.28571429 129.151759,3.28571429 128.738693,4.78571429 Z M127.086432,3 C126.260302,3 125.709548,3.92857143 125.503015,4.78571429 C125.227638,5.71428571 125.434171,6.57142857 126.191457,6.57142857 C126.948744,6.57142857 127.499497,5.78571429 127.774874,4.78571429 C127.981407,4 127.912563,3 127.086432,3 L127.086432,3 Z" id="形状_19_"></path>
                    <path d="M133.007035,5.85714286 C132.869347,6.42857143 132.800503,6.85714286 132.662814,7.28571429 L131.836683,7.28571429 L131.974372,6.57142857 L131.974372,6.57142857 C131.561307,7.07142857 131.010553,7.35714286 130.390955,7.35714286 C129.633668,7.35714286 129.082915,6.85714286 129.49598,5.28571429 L130.253266,2.35714286 L131.217085,2.35714286 L130.528643,5.07142857 C130.322111,5.92857143 130.390955,6.5 131.010553,6.5 C131.630151,6.42857143 132.11206,6 132.249749,5.35714286 L133.007035,2.35714286 L133.970854,2.35714286 L133.007035,5.85714286 Z" id="路径_24_"></path>
                    <path d="M133.90201,6.64285714 C133.970854,6.21428571 134.315075,5.92857143 134.659296,5.92857143 C135.003518,5.92857143 135.21005,6.21428571 135.072362,6.64285714 C135.003518,7.07142857 134.659296,7.35714286 134.315075,7.35714286 C133.970854,7.35714286 133.833166,7.07142857 133.90201,6.64285714 Z M135.278894,5.21428571 L134.521608,5.21428571 L135.554271,0.428571429 L136.586935,0.428571429 L135.278894,5.21428571 Z" id="形状_20_"></path>
                </g>
                <g id="页面-1" fill="#FF7700">
                    <g id="iPhone-8">
                        <path d="M51.76875,10.6 C52.31875,10.6 53.2125,10.6666667 54.45,10.6666667 C53.55625,16.4666667 52.25,20.8666667 50.53125,23.8666667 C48.125,28.4 46.8875,30.4666667 44.275,32.9333333 C41.73125,35.2666667 37.88125,39.1333333 29.7,37 C23.58125,35.4666667 22.48125,29.4666667 23.375,26.6666667 C24.26875,23.8666667 27.225,21.2666667 32.79375,21.2666667 C36.50625,21.2666667 40.8375,22.8666667 45.85625,26 L45.925,26.6 L44.34375,27.5333333 L43.51875,27.6 C38.98125,24.5333333 34.58125,22.9333333 30.31875,22.9333333 C25.91875,23.0666667 24.3375,26.9333333 24.54375,28.0666667 C24.475,29.0666667 25.025,34.1333333 31.35,35.4 C35.75,36.4666667 38.98125,35.4 42.41875,32.8666667 C45.5125,30.8 48.5375,24.4666667 48.675,24.1333333 C48.8125,23.7333333 48.675,23.6666667 48.5375,23.8 C47.7125,24.6666667 46.26875,24.6666667 45.375,23.8666667 L45.30625,23.8 C44.9625,23.2666667 44.89375,22.5333333 45.16875,21.9333333 L45.7875,21.9333333 C46.75,23.3333333 47.50625,23.6 48.05625,22.6666667 C48.675,21.6666667 47.4375,20.6666667 46.95625,20.3333333 C45.58125,19.0666667 44.9625,17.2666667 45.16875,15.4666667 C45.375,13.4 46.75,11.6 48.675,10.8666667 C49.6375,10.6 50.7375,10.5333333 51.76875,10.6 L51.76875,10.6 Z M34.03125,0.933333333 C34.65,1.53333333 34.925,2.33333333 34.925,3.2 C35.2,3.06666667 35.54375,3 35.81875,3 C35.95625,3 36.1625,3.06666667 36.23125,3.2 C36.36875,3.33333333 36.4375,3.53333333 36.4375,3.66666667 L36.4375,3.66666667 L36.4375,3.8 C36.3,4.33333333 34.925,4.86666667 34.925,4.86666667 C34.925,4.86666667 33.61875,7.93333333 33.20625,8.66666667 C32.725,9.8 29.425,13.8 26.95,15.4666667 C24.40625,17.1333333 22.61875,18 21.24375,16.8 C19.86875,15.6 21.65625,12.8666667 22.34375,11.7333333 C23.71875,9.93333333 25.4375,8.4 27.29375,7.13333333 C31.00625,4.33333333 32.10625,4.06666667 32.38125,3.93333333 C32.65625,3.8 32.5875,2.66666667 32.51875,2.53333333 C32.45,2.4 32.24375,1.46666667 29.76875,1.93333333 C27.29375,2.4 20.55625,6 18.08125,7.86666667 C15.60625,9.73333333 7.90625,15.2 5.6375,18.8666667 L5.3625,19.2666667 C3.23125,22.8 1.5125,26.3333333 4.05625,28.2 C5.29375,29.2 8.525,28.7333333 9.41875,28.4666667 C12.30625,27.4666667 15.05625,26.0666667 17.53125,24.3333333 C18.08125,23.8666667 18.7,23.4 19.25,22.9333333 C19.3875,22.8666667 20.41875,22.8 20.2125,24 C20.00625,25.2 19.1125,26.5333333 16.0875,28.2 C13.0625,29.8666667 7.90625,32.0666667 4.46875,30.6 C1.03125,29.1333333 0.34375,26.7333333 0.34375,24.8 C0.55,21.8666667 1.65,19 3.50625,16.6666667 C5.225,14.3333333 7.21875,12.2 9.41875,10.3333333 C10.45,9.46666667 11.89375,8.4 13.68125,7.2 C19.3875,3.53333333 23.925,1.33333333 27.3625,0.533333333 C32.51875,-0.6 33.34375,0.333333333 34.03125,0.933333333 Z M47.50625,13.2666667 C46.6125,14.0666667 46.3375,15.3333333 46.95625,16.4 C47.50625,17.2 48.125,17.9333333 48.88125,18.6 C49.5,19.1333333 49.9125,19.8666667 49.9125,20.6 C50.39375,19.5333333 50.7375,18.4 50.94375,17.2666667 C51.08125,16.3333333 51.425,14.7333333 51.90625,12.6 C49.84375,12.2666667 48.33125,12.4666667 47.50625,13.2666667 Z M31.41875,5.8 L31.41875,5.8 C29.0125,7.46666667 26.8125,9.46666667 24.8875,11.7333333 C21.725,15.4 22.75625,14.9333333 23.2375,14.8 C23.71875,14.6666667 26.8125,11.8 28.7375,9.6 C30.73125,7.2 31.55625,6.4 31.69375,6.06666667 C31.83125,5.73333333 31.41875,5.8 31.41875,5.8 Z" id="形状结合"></path>
                    </g>
                </g>
            </g>
        </g>
    </g>
</svg>