<?xml version="1.0" encoding="UTF-8"?>
<svg width="284px" height="57px" viewBox="0 0 284 57" version="1.1" xmlns="http://www.w3.org/2000/svg" xmlns:xlink="http://www.w3.org/1999/xlink">
    <!-- Generator: Sketch 64 (93537) - https://sketch.com -->
    <title>新的</title>
    <desc>Created with Sketch.</desc>
    <g id="供应商系统" stroke="none" stroke-width="1" fill="none" fill-rule="evenodd">
        <g id="查看详情弹窗" transform="translate(-2014.000000, -1278.000000)">
            <g id="新的" transform="translate(2014.000000, 1278.000000)">
                <g id="Dropshipping.com" transform="translate(84.000000, 8.000000)" fill="#08ACEB" fill-rule="nonzero">
                    <path d="M4.79,1.23 C6.35401462,0.976283823 7.93555087,0.845882314 9.52,0.84 C17.25,0.84 17.52,5.66 16.52,9.73 L16.52,9.73 C15.8433529,12.6010423 14.2409859,15.1697491 11.96,17.04 C9.61153321,18.7166904 6.773571,19.5677274 3.89,19.46 C2.59304688,19.4806591 1.29630514,19.4071325 0.01,19.24 L4.79,1.23 Z M3.27,17.15 C3.85322514,17.2285124 4.44163524,17.2619448 5.03,17.25 C9.1,17.25 12.21,14.85 13.57,9.8 C14.76,5.35 13.1,3.05 9.19,3.05 C8.45558154,3.04257684 7.72216678,3.10620643 7,3.24 L3.27,17.15 Z" id="形状"></path>
                    <path d="M26,8.56 C25.7404738,8.50395729 25.4754927,8.47712375 25.21,8.48 C23.36,8.48 21.79,10.02 21.21,12.32 L19.33,19.32 L16.58,19.32 L19.04,10.15 C19.45,8.61 19.77,7.34 20.04,6.15 L22.44,6.15 L21.88,8.57 L21.98,8.57 C22.8249616,7.04649441 24.3658587,6.03668322 26.1,5.87 C26.3220281,5.86640441 26.5436656,5.88991142 26.76,5.94 L26,8.56 Z" id="路径"></path>
                    <path d="M38.35,12.6 C37.03,17.54 33.35,19.6 30.35,19.6 C26.96,19.6 25.05,17.09 26.19,12.83 C27.38,8.37 30.76,5.83 34.19,5.83 C37.62,5.83 39.44,8.56 38.35,12.6 Z M33.59,7.91 C31.24,7.91 29.66,10.45 29.05,12.72 C28.36,15.31 28.98,17.49 31,17.49 C33.02,17.49 34.81,15.31 35.51,12.68 C36.1,10.5 35.89,7.91 33.59,7.91 Z" id="形状"></path>
                    <path d="M44.79,8.13 C45.9597101,6.69322096 47.7073979,5.85052035 49.56,5.83 C52.5,5.83 54,8.46 52.9,12.56 C51.6,17.39 48.25,19.56 45.49,19.56 C44.1947805,19.6957638 42.9679043,18.951459 42.49,17.74 L42.44,17.74 L40.59,24.64 L37.84,24.64 L41.67,10.37 C42.13,8.64 42.45,7.28 42.67,6.1 L45.09,6.1 L44.7,8.1 L44.79,8.13 Z M43.46,14 C42.82,16.37 44.17,17.38 45.52,17.38 C47.65,17.38 49.35,15.38 50.08,12.66 C50.75,10.15 50.19,8.06 48.08,8.06 C46.1468153,8.27737775 44.5520715,9.67277855 44.08,11.56 L43.46,14 Z" id="形状"></path>
                    <path d="M63.16,8.6 C62.4966643,8.11239943 61.6932353,7.85277606 60.87,7.86 C59.8148033,7.79447671 58.8519046,8.45982733 58.54,9.47 C58.3,10.38 58.77,10.83 60.17,11.53 C62.09,12.41 62.91,13.61 62.39,15.53 C61.71,18.06 59.39,19.53 56.39,19.53 C55.2208224,19.5699977 54.0658648,19.2638643 53.07,18.65 L54.23,16.59 C55.04326,17.1410836 55.9978922,17.4465659 56.98,17.47 C58.161486,17.606257 59.2733629,16.8845859 59.63,15.75 C59.9,14.75 59.5,14.19 58.11,13.52 C56.04,12.59 55.37,11.27 55.79,9.74 C56.5396271,7.30411534 58.8224031,5.66771682 61.37,5.74 C62.389858,5.7072403 63.3972942,5.97125806 64.27,6.5 L63.16,8.6 Z" id="路径"></path>
                    <path d="M74.85,19.31 L72.1,19.31 L74.16,11.6 C74.67,9.71 74.46,8.13 72.61,8.13 C70.8634381,8.28333031 69.4101161,9.53536121 69,11.24 L66.84,19.31 L64.09,19.31 L69.21,0.1 L72,0.1 L69.9,7.91 L69.9,7.91 C70.9860207,6.64892723 72.5470374,5.89558274 74.21,5.83 C76.21,5.83 78.09,7.17 76.98,11.33 L74.85,19.31 Z" id="路径"></path>
                    <path d="M81.06,19.31 L78.31,19.31 L81.85,6.09 L84.6,6.09 L81.06,19.31 Z M83.77,4.08 C83.3655568,4.11231881 82.9736208,3.93097565 82.7364416,3.60178739 C82.4992625,3.27259913 82.4513145,2.84341368 82.61,2.47 C82.8490563,1.54813291 83.6588591,0.888143633 84.61,0.84 C85.61,0.84 86.01,1.54 85.76,2.47 C85.5232088,3.38609132 84.7153405,4.03969328 83.77,4.08 L83.77,4.08 Z" id="形状"></path>
                    <path d="M90.1,8.13 C91.2697101,6.69322096 93.0173979,5.85052035 94.87,5.83 C97.81,5.83 99.31,8.46 98.21,12.56 C96.91,17.39 93.56,19.56 90.8,19.56 C89.5047805,19.6957638 88.2779043,18.951459 87.8,17.74 L87.75,17.74 L85.9,24.64 L83.15,24.64 L87,10.38 C87.46,8.65 87.78,7.29 88,6.11 L90.42,6.11 L90.03,8.11 L90.1,8.13 Z M88.77,14 C88.13,16.37 89.48,17.38 90.83,17.38 C92.96,17.38 94.66,15.38 95.39,12.66 C96.06,10.15 95.5,8.06 93.39,8.06 C91.4568153,8.27737775 89.8620715,9.67277855 89.39,11.56 L88.77,14 Z" id="形状"></path>
                    <path d="M104.61,8.13 C105.77971,6.69322096 107.527398,5.85052035 109.38,5.83 C112.32,5.83 113.82,8.46 112.72,12.56 C111.43,17.39 108.07,19.56 105.32,19.56 C104.025566,19.6922689 102.800641,18.9491478 102.32,17.74 L102.32,17.74 L100.47,24.64 L97.72,24.64 L101.55,10.37 C102.01,8.64 102.33,7.28 102.55,6.1 L105,6.1 L104.61,8.1 L104.61,8.13 Z M103.28,14 C102.64,16.37 103.99,17.38 105.34,17.38 C107.47,17.38 109.17,15.38 109.9,12.66 C110.57,10.15 110.02,8.06 107.9,8.06 C105.966815,8.27737775 104.372071,9.67277855 103.9,11.56 L103.28,14 Z" id="形状"></path>
                    <path d="M116.36,19.31 L113.61,19.31 L117.16,6.09 L119.91,6.09 L116.36,19.31 Z M119.07,4.08 C118.665557,4.11231881 118.273621,3.93097565 118.036442,3.60178739 C117.799263,3.27259913 117.751315,2.84341368 117.91,2.47 C118.158453,1.51691713 119.015105,0.848810804 120,0.84 C120.95,0.84 121.4,1.54 121.15,2.47 C120.910411,3.42179257 120.051462,4.0866524 119.07,4.08 L119.07,4.08 Z" id="形状"></path>
                    <path d="M130.69,19.31 L127.94,19.31 L130,11.57 C130.5,9.71 130.31,8.13 128.43,8.13 C126.63484,8.29023735 125.152194,9.5986927 124.77,11.36 L122.64,19.36 L119.9,19.36 L122.44,9.87 C122.83,8.41 123.08,7.29 123.34,6.16 L125.73,6.16 L125.35,8.16 L125.42,8.16 C126.5291,6.74682477 128.204722,5.8943791 130,5.83 C132,5.83 134,7.17 132.87,11.24 L130.69,19.31 Z" id="路径"></path>
                    <path d="M148.59,6.11 C148.27,7.05 147.93,8.11 147.45,9.92 L145.45,17.44 C144.74,20.08 143.22,24.94 137.04,24.94 C135.680226,24.9898847 134.33539,24.6423819 133.17,23.94 L134.36,21.78 C135.332778,22.418558 136.476661,22.7463781 137.64,22.72 C139.78,22.72 141.64,21.52 142.42,18.53 L142.76,17.26 L142.71,17.26 C141.672153,18.4761794 140.158735,19.1836569 138.56,19.2 C135.48,19.2 134.11,16.44 135.1,12.76 C136.3,8.28 139.64,5.76 142.49,5.76 C144.43,5.76 145.26,6.76 145.49,7.82 L145.49,7.82 L146.09,6.04 L148.59,6.11 Z M144.35,11.21 C144.82,9.47 144.07,8.03 142.35,8.03 C140.45,8.03 138.63,9.85 137.88,12.68 C137.18,15.26 137.88,17.11 139.88,17.11 C141.722923,16.9632619 143.245188,15.6124044 143.61,13.8 L144.35,11.21 Z" id="形状"></path>
                    <path d="M148.5,17.68 C148.760568,16.6076086 149.688598,15.8295225 150.79,15.76 C151.79,15.76 152.34,16.56 152.04,17.68 C151.795077,18.7573293 150.854227,19.533838 149.75,19.57 C148.66,19.57 148.22,18.73 148.5,17.68 Z" id="路径"></path>
                    <path d="M163.16,18.9 C162.028736,19.342528 160.824738,19.5697614 159.61,19.57 C155.84,19.57 154.08,16.96 155.18,12.84 C156.127384,8.80981369 159.680954,5.93076411 163.82,5.84 C164.770681,5.81368151 165.713783,6.01601987 166.57,6.43 L165.46,8.57 C164.785849,8.19407858 164.021324,8.01073092 163.25,8.04 C160.69,8.04 158.7,10.15 158.01,12.73 C157.23,15.63 158.46,17.36 160.73,17.36 C161.62572,17.3502727 162.511432,17.1704155 163.34,16.83 L163.16,18.9 Z" id="路径"></path>
                    <path d="M178.58,12.6 C177.25,17.54 173.53,19.6 170.58,19.6 C167.19,19.6 165.28,17.09 166.42,12.83 C167.61,8.37 170.99,5.83 174.42,5.83 C177.85,5.83 179.66,8.56 178.58,12.6 Z M173.81,7.91 C171.46,7.91 169.88,10.45 169.27,12.72 C168.58,15.31 169.21,17.49 171.27,17.49 C173.33,17.49 175.08,15.31 175.79,12.68 C176.32,10.5 176.11,7.91 173.81,7.91 Z" id="形状"></path>
                    <path d="M197.43,19.31 L194.73,19.31 L196.73,11.77 C197.32,9.56 197,8.1 195.34,8.1 C193.686124,8.30684337 192.345192,9.53937698 192,11.17 L189.82,19.31 L187.12,19.31 L189.25,11.36 C189.74,9.51 189.43,8.1 187.84,8.1 C186.110477,8.3147863 184.708342,9.60442842 184.35,11.31 L182.21,19.31 L179.5,19.31 L182.05,9.82 C182.44,8.34 182.69,7.24 182.95,6.11 L185.32,6.11 L184.94,8.05 L185,8.05 C186.071754,6.69181058 187.690561,5.8787448 189.42,5.83 C190.11513,5.76362537 190.807342,5.98296697 191.337391,6.43756427 C191.867441,6.89216157 192.189688,7.54287321 192.23,8.24 L192.28,8.24 C193.408744,6.76520275 195.143486,5.87945512 197,5.83 C198.94,5.83 200.71,7.17 199.6,11.33 L197.43,19.31 Z" id="路径"></path>
                </g>
                <g id="You_sell_-_We_source_and_ship_for_you_" transform="translate(85.000000, 38.000000)" fill="#515050" fill-rule="nonzero">
                    <path d="M7.29,0.62 L3,6.13 L1.92,10.13 L0.54,10.13 L1.61,6.13 L0.44,0.58 L2,0.58 L2.39,3.07 C2.5,3.77 2.6,4.37 2.66,5.07 L2.66,5.07 C3.06,4.43 3.5,3.79 3.99,3.07 L5.73,0.59 L7.29,0.62 Z" id="路径"></path>
                    <path d="M12.2,6.67 C11.51,9.24 9.64,10.3 8.2,10.3 C6.51,10.3 5.57,8.99 6.2,6.77 C6.83,4.55 8.52,3.14 10.25,3.14 C11.98,3.14 12.76,4.56 12.2,6.67 Z M9.84,4.22 C8.67,4.22 7.84,5.55 7.55,6.73 C7.19,8.08 7.49,9.21 8.55,9.21 C9.61,9.21 10.46,8.08 10.83,6.71 C11.08,5.57 11,4.22 9.84,4.22 Z" id="形状"></path>
                    <path d="M18.46,8.19 C18.25,8.96 18.11,9.61 17.99,10.19 L16.78,10.19 L16.98,9.19 L16.98,9.19 C16.4234004,9.87990013 15.595764,10.2955413 14.71,10.33 C13.59,10.33 12.8,9.59 13.39,7.4 L14.49,3.31 L15.86,3.31 L14.86,7.16 C14.54,8.34 14.65,9.16 15.55,9.16 C16.4203668,9.08457576 17.1410636,8.45295379 17.33,7.6 L18.47,3.35 L19.84,3.35 L18.46,8.19 Z" id="路径"></path>
                    <path d="M27.09,4.59 C26.7802716,4.34217925 26.3966392,4.20491629 26,4.2 C25.4612366,4.17086324 24.9746568,4.52020254 24.83,5.04 C24.7,5.51 24.93,5.75 25.63,6.11 C26.0552602,6.23404432 26.411718,6.52582856 26.6173353,6.91819927 C26.8229527,7.31056998 26.8600177,7.76972829 26.72,8.19 C26.338292,9.50964644 25.0909899,10.3869156 23.72,10.3 C23.1361524,10.3169291 22.5608778,10.1565496 22.07,9.84 L22.67,8.76 C23.0657938,9.05699814 23.5452395,9.2214795 24.04,9.23 C24.6418498,9.28797196 25.2000326,8.91025428 25.37,8.33 C25.51,7.8 25.31,7.52 24.62,7.17 C23.62,6.68 23.27,6 23.48,5.17 C23.8509137,3.93242612 24.9981722,3.09137543 26.29,3.11 C26.8023346,3.09635263 27.3071253,3.23560523 27.74,3.51 L27.09,4.59 Z" id="路径"></path>
                    <path d="M32.33,9.89 C31.6332861,10.1666697 30.8896143,10.3058959 30.14,10.3 C28.14,10.3 27.41,8.91 27.97,6.82 C28.53,4.73 30.05,3.14 31.9,3.14 C33.75,3.14 34.04,4.75 33.58,6.44 C33.526882,6.65079461 33.4600736,6.85790076 33.38,7.06 L29.24,7.06 C28.86,8.6 29.61,9.19 30.64,9.19 C31.2361569,9.19661174 31.8276613,9.08442988 32.38,8.86 L32.33,9.89 Z M32.39,6.02 C32.62,5.2 32.58,4.17 31.52,4.17 C30.46,4.17 29.81,5.17 29.52,6.02 L32.39,6.02 Z" id="形状"></path>
                    <polygon id="路径" points="35.29 10.16 33.91 10.16 36.59 0.16 38 0.16"></polygon>
                    <polygon id="路径" points="38.42 10.16 37 10.16 39.68 0.16 41.06 0.16"></polygon>
                    <polygon id="路径" points="43.5 5.86 46.76 5.86 46.48 6.86 43.22 6.86"></polygon>
                    <path d="M62,0.62 L57.13,10.16 L55.69,10.16 L55.94,5.56 C55.9843148,4.52493054 56.0878172,3.49324451 56.25,2.47 L56.25,2.47 C55.83,3.47 55.38,4.47 54.8,5.56 L52.49,10.16 L51,10.16 L51.43,0.62 L52.89,0.62 L52.57,5.16 C52.48,6.33 52.37,7.5 52.26,8.49 L52.26,8.49 C52.68,7.49 53.26,6.34 53.83,5.13 L56.06,0.62 L57.44,0.62 L57.17,5.16 C57.09,6.28 57.01,7.38 56.85,8.48 L56.85,8.48 C57.3,7.35 57.85,6.28 58.35,5.12 L60.52,0.62 L62,0.62 Z" id="路径"></path>
                    <path d="M65.31,9.89 C64.6132861,10.1666697 63.8696143,10.3058959 63.12,10.3 C61.12,10.3 60.39,8.91 60.96,6.82 C61.53,4.73 63.03,3.14 64.88,3.14 C66.73,3.14 67.02,4.75 66.56,6.44 C66.506882,6.65079461 66.4400736,6.85790076 66.36,7.06 L62.22,7.06 C61.84,8.6 62.59,9.19 63.62,9.19 C64.2161569,9.19661174 64.8076613,9.08442988 65.36,8.86 L65.31,9.89 Z M65.37,6.02 C65.61,5.2 65.56,4.17 64.5,4.17 C63.44,4.17 62.79,5.17 62.5,6.02 L65.37,6.02 Z" id="形状"></path>
                    <path d="M74.29,4.59 C73.9660835,4.33290351 73.5635182,4.19518384 73.15,4.2 C72.6317377,4.18235144 72.1636895,4.50795022 72,5 C71.88,5.47 72.11,5.71 72.81,6.07 C73.2336305,6.19647566 73.5882535,6.4886319 73.7934647,6.88022764 C73.9986759,7.27182338 74.037091,7.72968472 73.9,8.15 C73.518292,9.46964644 72.2709899,10.3469156 70.9,10.26 C70.3157652,10.2801379 69.739549,10.1194958 69.25,9.8 L69.84,8.72 C70.2373683,9.01401352 70.7158288,9.1781569 71.21,9.19 C71.8118498,9.24797196 72.3700326,8.87025428 72.54,8.29 C72.68,7.76 72.49,7.48 71.8,7.13 C70.8,6.64 70.44,5.96 70.66,5.13 C71.0279873,3.89036314 72.1770852,3.0479639 73.47,3.07 C73.9823346,3.05635263 74.4871253,3.19560523 74.92,3.47 L74.29,4.59 Z" id="路径"></path>
                    <path d="M81.24,6.67 C80.55,9.24 78.68,10.3 77.24,10.3 C75.55,10.3 74.61,8.99 75.24,6.77 C75.87,4.55 77.56,3.14 79.29,3.14 C81.02,3.14 81.8,4.56 81.24,6.67 Z M78.88,4.22 C77.71,4.22 76.88,5.55 76.59,6.73 C76.23,8.08 76.53,9.21 77.54,9.21 C78.55,9.21 79.45,8.08 79.82,6.71 C80.12,5.57 80,4.22 78.88,4.22 Z" id="形状"></path>
                    <path d="M87.5,8.19 C87.29,8.96 87.15,9.61 87.03,10.19 L85.82,10.19 L86.02,9.19 L86.02,9.19 C85.4634004,9.87990013 84.635764,10.2955413 83.75,10.33 C82.63,10.33 81.84,9.59 82.43,7.4 L83.53,3.31 L84.9,3.31 L83.9,7.16 C83.58,8.34 83.69,9.16 84.59,9.16 C85.4603668,9.08457576 86.1810636,8.45295379 86.37,7.6 L87.51,3.35 L88.88,3.35 L87.5,8.19 Z" id="路径"></path>
                    <path d="M93.52,4.56 C93.3902735,4.54807355 93.2597265,4.54807355 93.13,4.56 C92.2,4.56 91.41,5.36 91.13,6.56 L90.13,10.2 L88.76,10.2 L90,5.38 C90.21,4.59 90.38,3.93 90.51,3.29 L91.71,3.29 L91.42,4.55 L91.47,4.55 C91.8844316,3.76665739 92.6593128,3.23883977 93.54,3.14 C93.649428,3.12413532 93.760572,3.12413532 93.87,3.14 L93.52,4.56 Z" id="路径"></path>
                    <path d="M97.54,10 C96.9744476,10.2292189 96.3702351,10.3480247 95.76,10.35 C93.88,10.35 93.01,8.99 93.59,6.84 C94.0361408,4.77259577 95.8265309,3.27031434 97.94,3.19 C98.4156737,3.17435905 98.8873977,3.28109953 99.31,3.5 L98.74,4.61 C98.4057647,4.41898546 98.0246922,4.32544949 97.64,4.34 C96.3311926,4.47172614 95.2608565,5.44070468 95,6.73 C94.6,8.24 95.2,9.14 96.33,9.14 C96.7810645,9.13581555 97.2266381,9.04057845 97.64,8.86 L97.54,10 Z" id="路径"></path>
                    <path d="M103.56,9.89 C102.866549,10.1658878 102.126299,10.3051089 101.38,10.3 C99.38,10.3 98.65,8.91 99.21,6.82 C99.77,4.73 101.28,3.14 103.13,3.14 C104.98,3.14 105.27,4.75 104.81,6.44 C104.756882,6.65079461 104.690074,6.85790076 104.61,7.06 L100.47,7.06 C100.09,8.6 100.85,9.19 101.88,9.19 C102.472821,9.19555066 103.060848,9.08338358 103.61,8.86 L103.56,9.89 Z M103.62,6.02 C103.86,5.2 103.81,4.17 102.76,4.17 C101.71,4.17 101.04,5.17 100.76,6.02 L103.62,6.02 Z" id="形状"></path>
                    <path d="M112.81,8.53 C112.64931,9.06293944 112.532257,9.60807194 112.46,10.16 L111.22,10.16 L111.34,9.36 L111.34,9.36 C110.801557,9.94067327 110.051634,10.2795808 109.26,10.3 C108.04,10.3 107.6,9.35 107.88,8.3 C108.34,6.59 109.98,5.74 112.21,5.74 C112.35,5.23 112.62,4.21 111.31,4.21 C110.709848,4.22246423 110.122215,4.38397733 109.6,4.68 L109.6,3.68 C110.294457,3.30564807 111.071071,3.10977631 111.86,3.10999981 C113.78,3.10999981 113.95,4.44 113.56,5.9 L112.81,8.53 Z M112,6.71 C110.92,6.71 109.62,6.92 109.29,8.14 C109.09,8.9 109.45,9.24 109.96,9.24 C110.777063,9.19219837 111.472855,8.62912936 111.69,7.84 L112,6.71 Z" id="形状"></path>
                    <path d="M119.49,10.16 L118.12,10.16 L119.2,6.16 C119.46,5.16 119.37,4.37 118.43,4.37 C117.530823,4.46308251 116.79084,5.11861086 116.59,6 L115.48,10.14 L114.1,10.14 L115.43,5.2 C115.63,4.44 115.76,3.86 115.9,3.27 L117.09,3.27 L116.89,4.27 L116.89,4.27 C117.448461,3.56215388 118.289039,3.13455575 119.19,3.1 C120.19,3.1 121.19,3.8 120.59,5.92 L119.49,10.16 Z" id="路径"></path>
                    <path d="M127.16,8.33 C126.99,8.95 126.82,9.69 126.72,10.16 L125.51,10.16 L125.72,9.09 L125.72,9.09 C125.17689,9.82171248 124.330646,10.2669104 123.42,10.3 C121.94,10.3 121.18,8.91 121.75,6.79 C122.38,4.46 124,3.14 125.45,3.14 C126.100835,3.05986962 126.720086,3.44222622 126.94,4.06 L126.94,4.06 L127.94,0.16 L129.32,0.16 L127.16,8.33 Z M126.39,6.07 C126.69,4.95 126.19,4.29 125.39,4.29 C124.39,4.29 123.47,5.38 123.1,6.74 C122.73,8.1 123.03,9.13 124.1,9.13 C125.085796,9.03357859 125.895259,8.30910875 126.1,7.34 L126.39,6.07 Z" id="形状"></path>
                    <path d="M135.82,4.59 C135.496083,4.33290351 135.093518,4.19518384 134.68,4.2 C134.139794,4.17360745 133.651903,4.52091954 133.5,5.04 C133.38,5.51 133.61,5.75 134.31,6.11 C134.735079,6.23372265 135.091005,6.5260225 135.295017,6.91893364 C135.499028,7.31184477 135.533349,7.77113153 135.39,8.19 C135.014861,9.51431936 133.763167,10.3946775 132.39,10.3 C131.805765,10.3201379 131.229549,10.1594958 130.74,9.84 L131.33,8.76 C131.727368,9.05401352 132.205829,9.2181569 132.7,9.23 C133.30185,9.28797196 133.860033,8.91025428 134.03,8.33 C134.17,7.8 133.98,7.52 133.29,7.17 C132.29,6.68 131.93,6 132.15,5.17 C132.53588,3.92976848 133.701761,3.09933358 135,3.14 C135.509404,3.12465575 136.01149,3.26412401 136.44,3.54 L135.82,4.59 Z" id="路径"></path>
                    <path d="M141.59,10.16 L140.22,10.16 L141.3,6.16 C141.56,5.16 141.46,4.35 140.54,4.35 C139.633434,4.43751618 138.890582,5.10730105 138.71,6 L137.58,10.2 L136.21,10.2 L138.89,0.2 L140.26,0.2 L139.17,4.26 L139.17,4.26 C139.709227,3.61080256 140.496957,3.21875252 141.34,3.18 C142.34,3.18 143.27,3.88 142.69,6.05 L141.59,10.16 Z" id="路径"></path>
                    <path d="M144.7,10.16 L143.33,10.16 L145.17,3.28 L146.54,3.28 L144.7,10.16 Z M146.14,2.23 C145.67,2.23 145.45,1.86 145.57,1.39 C145.685924,0.922782688 146.089786,0.583538273 146.57,0.55 C147.05,0.55 147.27,0.91 147.14,1.39 C147.026931,1.85899144 146.621469,2.19958013 146.14,2.23 L146.14,2.23 Z" id="形状"></path>
                    <path d="M149.28,4.34 C149.853345,3.59811089 150.732532,3.15667796 151.67,3.14 C153.14,3.14 153.88,4.51 153.31,6.64 C152.63,9.16 150.94,10.3 149.57,10.3 C148.914577,10.361117 148.30115,9.97000573 148.08,9.35 L148.08,9.35 L147.08,12.94 L145.7,12.94 L147.7,5.51 C147.94,4.61 148.11,3.9 148.25,3.29 L149.46,3.29 L149.25,4.34 L149.28,4.34 Z M148.58,7.34 C148.25,8.58 148.92,9.1 149.58,9.1 C150.65,9.1 151.5,8.1 151.89,6.64 C152.28,5.18 151.97,4.25 150.89,4.25 C149.911225,4.38494304 149.116381,5.10825049 148.89,6.07 L148.58,7.34 Z" id="形状"></path>
                    <path d="M158.39,3.29 C158.574823,2.28133814 159.07978,1.3590905 159.83,0.66 C160.327034,0.253110361 160.947702,0.0274127355 161.59,0.02 C161.913552,0.0127741272 162.234654,0.0776777409 162.53,0.21 L162.09,1.32 C161.883713,1.22314142 161.657845,1.17522994 161.43,1.18 C160.58,1.18 160.1,1.99 159.85,2.92 L159.75,3.29 L161.18,3.29 L160.89,4.38 L159.47,4.38 L157.92,10.16 L156.55,10.16 L158.1,4.38 L157.22,4.38 L157.51,3.29 L158.39,3.29 Z" id="路径"></path>
                    <path d="M166.86,6.67 C166.17,9.24 164.3,10.3 162.86,10.3 C161.17,10.3 160.23,8.99 160.86,6.77 C161.49,4.55 163.18,3.14 164.91,3.14 C166.64,3.14 167.43,4.56 166.86,6.67 Z M164.51,4.22 C163.34,4.22 162.51,5.55 162.22,6.73 C161.86,8.08 162.16,9.21 163.16,9.21 C164.16,9.21 165.08,8.08 165.44,6.71 C165.75,5.57 165.66,4.22 164.51,4.22 Z" id="形状"></path>
                    <path d="M172.07,4.56 C171.940274,4.54807355 171.809726,4.54807355 171.68,4.56 C170.76,4.56 169.96,5.36 169.68,6.56 L168.68,10.2 L167.3,10.2 L168.58,5.42 C168.8,4.63 168.96,3.97 169.1,3.33 L170.29,3.33 L170,4.55 L170,4.55 C170.414432,3.76665739 171.189313,3.23883977 172.07,3.14 C172.179428,3.12413532 172.290572,3.12413532 172.4,3.14 L172.07,4.56 Z" id="路径"></path>
                    <path d="M181.3,3.29 L178.45,8.05 C177.609129,9.66296695 176.507641,11.1259864 175.19,12.38 C174.67644,12.7953073 174.079637,13.0954143 173.44,13.26 L173.44,12.04 C174.502572,11.6594085 175.390903,10.9061045 175.94,9.92 C175.96168,9.8211751 175.96168,9.7188249 175.94,9.62 L175.4,3.29 L176.9,3.29 L177.05,7.15 C177.05,7.6 177.05,8.15 177.05,8.53 L177.05,8.53 C177.25,8.13 177.52,7.62 177.76,7.15 L179.85,3.29 L181.3,3.29 Z" id="路径"></path>
                    <path d="M187,6.67 C186.31,9.24 184.44,10.3 183,10.3 C181.31,10.3 180.37,8.99 181,6.77 C181.63,4.55 183.33,3.14 185.05,3.14 C186.77,3.14 187.55,4.56 187,6.67 Z M184.65,4.22 C183.47,4.22 182.65,5.55 182.35,6.73 C181.99,8.08 182.29,9.21 183.35,9.21 C184.41,9.21 185.26,8.08 185.63,6.71 C185.88,5.57 185.79,4.22 184.64,4.22 L184.65,4.22 Z" id="形状"></path>
                    <path d="M193.25,8.19 C193.04,8.96 192.91,9.61 192.78,10.19 L191.58,10.19 L191.77,9.19 L191.77,9.19 C191.211729,9.87782475 190.385097,10.2929615 189.5,10.33 C188.37,10.33 187.59,9.59 188.17,7.4 L189.27,3.31 L190.64,3.31 L189.64,7.16 C189.32,8.34 189.43,9.16 190.33,9.16 C191.200367,9.08457576 191.921064,8.45295379 192.11,7.6 L193.25,3.35 L194.62,3.35 L193.25,8.19 Z" id="路径"></path>
                    <path d="M194.53,9.34 C194.641326,8.78791 195.108112,8.3784494 195.67,8.34 C196.19,8.34 196.43,8.75 196.28,9.34 C196.171854,9.89392521 195.703294,10.3049434 195.14,10.34 C194.6,10.3 194.39,9.86 194.53,9.34 Z M196.53,7.34 L195.47,7.34 L197,0.61 L198.5,0.61 L196.53,7.34 Z" id="形状"></path>
                </g>
                <g id="页面-1" fill="#FF7700">
                    <g id="iPhone-8">
                        <path d="M75.31,15.89 C76.14,15.89 77.43,15.96 79.18,15.99 C77.9,24.6566667 75.9933333,31.2666667 73.46,35.82 C69.97,42.65 68.14,45.74 64.35,49.38 C60.65,52.83 55.04,58.66 43.15,55.53 C34.31,53.21 32.66,44.21 34,40 C35.34,35.79 39.59,31.89 47.66,31.89 C53.0333333,31.89 59.3666667,34.2633333 66.66,39.01 L66.77,39.91 L64.5,41.31 L63.28,41.41 C56.68,36.79 50.27,34.4566667 44.05,34.41 C37.64,34.64 35.35,40.41 35.69,42.09 C35.62,43.55 36.35,51.22 45.54,53.09 C51.92,54.72 56.63,53.09 61.61,49.33 C66.15,46.21 70.5,36.77 70.72,36.19 C70.94,35.61 70.72,35.5 70.48,35.69 C69.236462,36.9802932 67.1831624,37.020554 65.89,35.78 L65.75,35.63 C65.2704937,34.786115 65.1793374,33.7761024 65.5,32.86 L66.41,32.86 C67.77,34.9533333 68.8633333,35.3333333 69.69,34 C70.56,32.49 68.81,31 68.14,30.51 C66.1876425,28.6128011 65.2333453,25.912658 65.56,23.21 C65.8308163,20.1207785 67.8191485,17.4477481 70.7,16.3 C72.2032783,15.9085209 73.7612288,15.7699613 75.31,15.89 L75.31,15.89 Z M49.45,1.41 C50.3133261,2.33211525 50.7956376,3.54682564 50.8,4.81 C51.2194143,4.62251892 51.6709152,4.51728186 52.13,4.5 C52.3743614,4.52031827 52.6005013,4.63734496 52.758215,4.82509939 C52.9159287,5.01285383 52.9921654,5.25579918 52.97,5.5 L52.97,5.5 L52.97,5.69 C52.74,6.52 50.75,7.27 50.75,7.27 C50.75,7.27 48.89,11.9 48.25,12.92 C47.52,14.6 42.76,20.66 39.11,23.15 C35.46,25.64 32.84,26.91 30.77,25.15 C28.7,23.39 31.37,19.28 32.36,17.59 C34.3714617,14.9063297 36.8106949,12.5718281 39.58,10.68 C45,6.46 46.58,6.09 47,5.85 C47.42,5.61 47.3,3.91 47.22,3.76 C47.14,3.61 46.79,2.15 43.22,2.88 C39.65,3.61 29.85,8.93 26.22,11.77 C22.59,14.61 11.43,22.77 8.15,28.25 L7.79,28.85 C4.67,34.15 2.17,39.46 5.86,42.25 C7.68,43.75 12.35,43 13.64,42.63 C17.851306,41.1306827 21.8278322,39.0397235 25.45,36.42 C26.2640839,35.6837635 27.1151895,34.9895283 28,34.34 C28.16,34.27 29.72,34.09 29.41,35.92 C29.1,37.75 27.81,39.68 23.41,42.25 C19.01,44.82 11.48,48.1 6.48,45.82 C1.48,43.54 0.48,40.01 0.48,37.12 C0.769682838,32.6871719 2.37085925,28.4405735 5.08,24.92 C7.60027457,21.428775 10.5014856,18.2290579 13.73,15.38 C15.24,14.09 17.32,12.53 19.98,10.68 C28.2,5.29333333 34.8066667,2.00666667 39.8,0.82 C47.31,-0.93 48.45,0.53 49.45,1.41 Z M69.07,19.89 C67.7482768,21.0712255 67.3980678,22.9994353 68.22,24.57 C69.0345821,25.7505309 69.9659449,26.8460548 71,27.84 C71.9226801,28.5911033 72.4796094,29.7013219 72.53,30.89 C73.1919679,29.2779594 73.6878651,27.6026312 74.01,25.89 C74.23,24.46 74.68,22.13 75.38,18.89 C72.47,18.37 70.31,18.7 69.07,19.89 Z M45.67,8.74 L45.67,8.74 C42.1423247,11.2770027 38.950248,14.2506742 36.17,17.59 C31.61,23.09 33.04,22.41 33.75,22.19 C34.46,21.97 38.93,17.68 41.75,14.38 C44.69,10.78 45.85,9.63 46.06,9.09 C46.27,8.55 45.67,8.74 45.67,8.74 Z" id="形状结合"></path>
                    </g>
                </g>
            </g>
        </g>
    </g>
</svg>