<?xml version="1.0" encoding="UTF-8"?>
<svg width="42px" height="44px" viewBox="0 0 42 44" version="1.1" xmlns="http://www.w3.org/2000/svg" xmlns:xlink="http://www.w3.org/1999/xlink">
    <!-- Generator: Sketch 63.1 (92452) - https://sketch.com -->
    <title>编组 14</title>
    <desc>Created with Sketch.</desc>
    <defs>
        <linearGradient x1="50%" y1="0%" x2="50%" y2="100%" id="linearGradient-1">
            <stop stop-color="#F0D39C" offset="0%"></stop>
            <stop stop-color="#DDA863" offset="100%"></stop>
        </linearGradient>
    </defs>
    <g id="最新" stroke="none" stroke-width="1" fill="none" fill-rule="evenodd">
        <g id="等级说明修改" transform="translate(-749.000000, -800.000000)" fill="url(#linearGradient-1)" fill-rule="nonzero">
            <g id="编组-18" transform="translate(220.000000, 511.000000)">
                <g id="编组-17">
                    <g id="编组-14" transform="translate(525.000000, 286.000000)">
                        <g id="客服" transform="translate(4.000000, 3.000000)">
                            <path d="M29.3957736,24.8299612 C35.8360501,24.8299612 41.1666667,30.3346213 41.1666667,35.8682623 C41.1666667,41.4018738 30.9216317,43.3333333 20.6666667,43.3333333 C10.4117016,43.3333333 0.166666667,41.498479 0.166666667,35.8682623 C0.166666667,30.2380456 5.49728319,24.8203167 11.8682222,24.8299612 C14.8704178,24.8396527 17.6843269,32.4399297 20.6567798,32.4399297 C23.8075805,32.4399297 26.5124967,24.8299612 29.3957736,24.8299612 Z M20.6667098,4.58695522 C26.6860391,4.58695522 31.5657025,9.34306705 31.5657025,15.2099889 L31.5657025,15.2099889 C31.5657025,21.0789587 26.6860392,25.8350284 20.6667098,25.8350284 C14.6473373,25.8350284 9.76771708,21.0789166 9.76771708,15.2119947 L9.76771708,15.2119947 C9.76771708,9.34306705 14.6473804,4.58695522 20.6667098,4.58695522 Z M15.7587552,1.12454587 C23.7890897,-1.52011371 32.4985395,2.68099287 35.2119134,10.5079598 L35.2119134,10.5079598 L35.4210718,10.5477357 C37.3541766,10.9644177 38.7440241,12.641766 38.7361475,14.5900325 C38.7268703,16.8674519 36.8251992,18.7063603 34.4886183,18.6973492 L34.4886183,18.6973492 L34.2394112,18.6885507 C33.659585,18.6512189 33.0930919,18.4966919 32.5763436,18.2337984 L32.5763436,18.2337984 L32.6871733,17.8014165 C32.8923028,16.9331775 32.9981293,16.0449906 33.0024032,15.1531216 L33.0024032,15.1531216 L32.9869906,14.776457 C32.9693761,14.5253678 32.9429544,14.274278 32.9429544,14.0231882 C32.9231379,13.8203851 32.8835053,13.5982672 32.8636889,13.4340931 C32.8438729,13.2699182 32.8438729,13.2216316 32.7943319,12.9608848 C32.7447914,12.7001388 32.685342,12.4393898 32.615985,12.1883001 L32.615985,12.1883001 L32.556536,11.9661823 C32.477271,11.6893403 32.3880976,11.4124988 32.2890157,11.1356564 C31.0139126,7.59404204 28.1187887,4.83360101 24.4580158,3.6689863 C17.9658872,1.60361266 10.9851576,5.05900325 8.86613088,11.3867533 L8.86613088,11.3867533 L8.74723247,11.7440747 C8.65805901,12.0337934 8.58870159,12.3138542 8.5193446,12.6035733 L8.5193446,12.6035733 L8.5193446,12.7967192 C8.35377721,13.5913417 8.27077051,14.4001959 8.27158284,15.2110363 L8.27158284,15.2110363 L8.27158313,15.307894 C8.28216337,16.3156142 8.42196145,17.3180869 8.68772594,18.2919993 L8.68772594,18.2919993 L8.46332322,18.3980087 C7.93310521,18.6297602 7.35834415,18.7518831 6.77545152,18.7555512 L6.79266667,18.7543333 L6.60277918,18.7502511 C4.70299553,18.6566932 3.0981122,17.3341435 2.68760799,15.5237906 L2.64695725,15.3206705 C2.25663341,13.0752537 3.80778289,10.9465571 6.11155146,10.5661157 L6.11155146,10.5661157 L6.23584177,10.2170772 C7.82080894,5.93712303 11.3229566,2.58542012 15.7587552,1.12454587 Z" id="形状结合"></path>
                        </g>
                    </g>
                </g>
            </g>
        </g>
    </g>
</svg>