<?xml version="1.0" encoding="UTF-8"?>
<svg width="34px" height="50px" viewBox="0 0 34 50" version="1.1" xmlns="http://www.w3.org/2000/svg" xmlns:xlink="http://www.w3.org/1999/xlink">
    <!-- Generator: Sketch 63.1 (92452) - https://sketch.com -->
    <title>编组 9</title>
    <desc>Created with Sketch.</desc>
    <defs>
        <linearGradient x1="50%" y1="0%" x2="50%" y2="100%" id="linearGradient-1">
            <stop stop-color="#F0D39C" offset="0%"></stop>
            <stop stop-color="#DDA863" offset="100%"></stop>
        </linearGradient>
    </defs>
    <g id="最新" stroke="none" stroke-width="1" fill="none" fill-rule="evenodd">
        <g id="等级说明修改" transform="translate(-933.000000, -618.000000)" fill="url(#linearGradient-1)" fill-rule="nonzero">
            <g id="编组-18" transform="translate(220.000000, 511.000000)">
                <g id="编组-17">
                    <g id="编组-9" transform="translate(705.000000, 107.000000)">
                        <g id="优先级-" transform="translate(8.000000, 0.000000)">
                            <path d="M32.2812992,18.125024 L21.6250368,18.125024 L28.5000448,3.3437568 C28.8437952,2.3125056 27.812544,0.937504 26.7812928,0.937504 L13.0312768,0.937504 C12.343776,0.937504 11.6562752,1.2812544 11.3125248,1.9687552 L1.0000128,29.4687872 C0.6562624,30.8437888 1.6875136,31.87504 2.7187648,31.87504 L14.7500288,31.87504 L11.3125248,47.343808 L11.3125248,47.6875584 C11.3125248,48.3750592 12.0000256,49.06256 12.6875264,49.06256 C13.0312768,49.06256 13.7187776,48.7188096 13.7187776,48.3750592 L33.6563008,20.8750272 C34.3438016,19.5000256 34.0000512,18.125024 32.2812992,18.125024 Z M32.2812992,18.125024 L21.6250368,18.125024 L28.5000448,3.3437568 C28.8437952,2.3125056 27.812544,0.937504 26.7812928,0.937504 L13.0312768,0.937504 C12.343776,0.937504 11.6562752,1.2812544 11.3125248,1.9687552 L1.0000128,29.4687872 C0.6562624,30.8437888 1.6875136,31.87504 2.7187648,31.87504 L14.7500288,31.87504 L11.3125248,47.343808 L11.3125248,47.6875584 C11.3125248,48.3750592 12.0000256,49.06256 12.6875264,49.06256 C13.0312768,49.06256 13.7187776,48.7188096 13.7187776,48.3750592 L33.6563008,20.8750272 C34.3438016,19.5000256 34.0000512,18.125024 32.2812992,18.125024 Z" id="形状"></path>
                        </g>
                    </g>
                </g>
            </g>
        </g>
    </g>
</svg>