<?xml version="1.0" encoding="UTF-8"?>
<svg width="49px" height="49px" viewBox="0 0 49 49" version="1.1" xmlns="http://www.w3.org/2000/svg" xmlns:xlink="http://www.w3.org/1999/xlink">
    <!-- Generator: Sketch 63.1 (92452) - https://sketch.com -->
    <title>编组 17</title>
    <desc>Created with Sketch.</desc>
    <defs>
        <linearGradient x1="50%" y1="0%" x2="50%" y2="100%" id="linearGradient-1">
            <stop stop-color="#F0D39C" offset="0%"></stop>
            <stop stop-color="#DDA863" offset="100%"></stop>
        </linearGradient>
    </defs>
    <g id="最新" stroke="none" stroke-width="1" fill="none" fill-rule="evenodd">
        <g id="等级说明其他" transform="translate(-565.000000, -812.000000)" fill="url(#linearGradient-1)" fill-rule="nonzero">
            <g id="编组-25" transform="translate(220.000000, 704.000000)">
                <g id="编组-17" transform="translate(345.000000, 107.000000)">
                    <g id="产品服务-商业合作" transform="translate(0.000000, 1.000000)">
                        <path d="M8.69490599,41.8183828 C6.66234031,42.3549177 4.4892665,41.9376914 2.79643811,40.6738234 C-0.262314507,38.390179 -0.890647823,34.0592806 1.39302011,31.000528 C3.67666456,27.9417753 8.00756296,27.313442 11.0663156,29.59711 C14.1250682,31.8807544 14.7534015,36.2116528 12.4697336,39.2704054 L12.4697338,39.2703582 L12.7848475,39.5586136 C15.967474,42.3992096 20.0861547,43.9776427 24.3619581,43.9850654 L24.3619581,43.9850654 L24.851624,43.9794676 C27.1345765,43.9209127 29.3850304,43.4103863 31.4722356,42.4756397 L31.4722356,42.4756397 L33.1925114,46.3225891 C24.9537613,50.0024661 15.2957289,48.1749307 8.97111489,41.7392481 L8.97111489,41.7392481 Z M36.9203119,8.95310636 C43.8790311,13.903523 47.2653161,22.4908358 45.5583922,30.8584235 L45.5583922,30.8584235 L45.2844658,30.7001642 C45.0728394,30.5842873 44.8557685,30.4798713 44.6342043,30.3871823 C44.9524378,30.5203336 45.2614605,30.6776868 45.5583922,30.8584539 L45.5583922,30.8584539 L45.7845392,31.0016551 C47.5672668,32.1794153 48.7104028,34.1195406 48.8696012,36.2602756 C49.1529317,40.0703448 46.2939569,43.3887066 42.4838877,43.6720464 C38.6738186,43.9553769 35.3554568,41.0964021 35.0721169,37.286333 C34.7887865,33.4762639 37.6477613,30.157902 41.4578304,29.8745622 L41.4578304,29.8745622 C42.7659925,23.1790004 40.0342698,16.3389485 34.4758644,12.3844997 L34.4758644,12.3844997 Z M17.9922736,10.3831939 C11.886807,12.8105629 7.64004705,18.4578376 7.0186054,25.019229 L7.0186054,25.019229 L2.82026598,24.6525619 C3.58736688,16.0406403 9.40712388,8.71182568 17.621406,6.01366299 L17.621406,6.01366299 L17.6250741,5.99023954 C17.9560258,3.83194533 19.2932402,1.93050393 21.2649114,0.899955923 C24.6568461,-0.872956372 28.8437969,0.439559188 30.6166951,3.83151275 C32.3896074,7.22344752 31.0770918,11.4103983 27.6851383,13.1832965 C24.2932035,14.9562088 20.1062527,13.6436932 18.3333545,10.2517397 L18.3333545,10.2517397 Z" id="形状结合"></path>
                    </g>
                </g>
            </g>
        </g>
    </g>
</svg>