<?xml version="1.0" encoding="UTF-8"?>
<svg width="43px" height="43px" viewBox="0 0 43 43" version="1.1" xmlns="http://www.w3.org/2000/svg" xmlns:xlink="http://www.w3.org/1999/xlink">
    <!-- Generator: Sketch 63.1 (92452) - https://sketch.com -->
    <title>编组 15</title>
    <desc>Created with Sketch.</desc>
    <defs>
        <linearGradient x1="50%" y1="0%" x2="50%" y2="100%" id="linearGradient-1">
            <stop stop-color="#F0D39C" offset="0%"></stop>
            <stop stop-color="#DDA863" offset="100%"></stop>
        </linearGradient>
    </defs>
    <g id="最新" stroke="none" stroke-width="1" fill="none" fill-rule="evenodd">
        <g id="等级说明修改" transform="translate(-929.000000, -802.000000)" fill="url(#linearGradient-1)" fill-rule="nonzero">
            <g id="编组-18" transform="translate(220.000000, 511.000000)">
                <g id="编组-17">
                    <g id="编组-15" transform="translate(705.000000, 287.000000)">
                        <path d="M45.0463059,47 L5.95369425,47 L5.95369416,47 C4.87469692,47 4,46.1252986 4,45.0463056 C4,45.0463056 4,45.0463056 4,45.0463056 L4,5.95369386 L4,5.95369416 C4,4.87469692 4.87469692,4 5.95369416,4 L45.0463059,4 L45.0463058,4 C46.1253031,4 47,4.87469692 47,5.95369416 C47,5.95369426 47,5.95369436 47,5.95369445 L47,45.0463062 L47,45.0463062 C47,46.1253034 46.1253031,47 45.0463058,47 C45.0463058,47 45.0463058,47 45.0463058,47 L45.0463059,47 Z M43.0898069,9.86388726 L43.0898069,9.86390643 C43.0903336,8.78490919 42.216063,7.90978395 41.1370658,7.90925858 C41.1367541,7.90925858 41.1364424,7.90925858 41.1361307,7.90925858 L9.86296518,7.90925858 L9.86296516,7.90925858 C8.78396792,7.90874255 7.90885108,8.78302351 7.90833435,9.86202074 C7.90833435,9.86233242 7.90833435,9.86264409 7.90833435,9.86295576 L7.90833435,15.7268265 L43.0898069,15.7268265 L43.0898069,9.86387958 L43.0898069,9.86388726 Z M43.0898067,19.6360954 L7.90926943,19.6360954 L7.90926943,41.1360954 L7.90926943,41.136068 C7.90874291,42.2150652 8.78301337,43.0901905 9.8620106,43.0907158 C9.86232227,43.0907158 9.86263394,43.0907158 9.86294561,43.0907158 L41.1360692,43.0907158 L41.1360692,43.0907158 C42.2150665,43.0912318 43.0901833,42.2169509 43.0907,41.1379537 C43.0907,41.137642 43.0907,41.1373303 43.0907,41.1370187 L43.0907,19.637027 L43.0898067,19.6360954 Z M39.1805455,41.136087 L35.2722208,41.136087 L35.2722207,41.136087 C34.192707,41.136087 33.3175901,40.2609701 33.3175901,39.1814564 C33.3175901,38.1019427 34.192707,37.2268258 35.2722207,37.2268258 L39.1805455,37.2268258 L39.1805454,37.2268258 C40.2600591,37.2268258 41.135176,38.1019427 41.135176,39.1814564 C41.135176,40.2609701 40.2600591,41.136087 39.1805454,41.136087 L39.1805455,41.136087 Z M39.1805455,33.3184885 L35.2722208,33.3184885 L35.2722207,33.3184885 C34.192707,33.3184885 33.3175901,32.4433716 33.3175901,31.3638579 C33.3175901,30.2843441 34.192707,29.4092273 35.2722207,29.4092273 L39.1805455,29.4092273 L39.1805454,29.4092273 C40.2600591,29.4092273 41.135176,30.2843441 41.135176,31.3638579 C41.135176,32.4433716 40.2600591,33.3184885 39.1805454,33.3184885 L39.1805455,33.3184885 Z M39.1805455,25.4999661 L35.2722208,25.4999661 L35.2722207,25.4999661 C34.192707,25.4999661 33.3175901,24.6248493 33.3175901,23.5453355 C33.3175901,22.4658218 34.192707,21.590705 35.2722207,21.590705 L39.1805455,21.590705 L39.1805454,21.590705 C40.2600591,21.590705 41.135176,22.4658218 41.135176,23.5453355 C41.135176,24.6248493 40.2600591,25.4999661 39.1805454,25.4999661 L39.1805455,25.4999661 Z M29.4092613,39.1814354 L11.8185308,39.1814354 L11.8185307,39.1814354 C10.7392774,39.1814354 9.86437047,38.3065285 9.86437047,37.2272709 C9.86437047,36.1480175 10.7392774,35.2731107 11.8185349,35.2731107 L29.4092654,35.2731107 L29.4092653,35.2731107 C30.4885187,35.2731107 31.3634298,36.1480175 31.3634298,37.2272709 C31.3634298,38.3065243 30.4885229,39.1814354 29.4092695,39.1814354 L29.4092613,39.1814354 Z M29.4092613,33.3184885 L11.8185308,33.3184885 L11.8185307,33.3184885 C10.739017,33.3184885 9.86390015,32.4433716 9.86390015,31.3638579 C9.86390015,30.2843441 10.739017,29.4092273 11.8185307,29.4092273 L29.4092612,29.4092273 L29.4092611,29.4092273 C30.4887748,29.4092273 31.3639002,30.2843441 31.3639002,31.3638579 C31.3639002,32.4433716 30.4887748,33.3184885 29.4092611,33.3184885 L29.4092613,33.3184885 Z M29.4092613,27.4546177 L11.8185308,27.4546177 L11.8185307,27.4546177 C10.739017,27.4546177 9.86390015,26.5795009 9.86390015,25.4999871 C9.86390015,24.4204734 10.739017,23.5453565 11.8185307,23.5453565 L29.4092612,23.5453565 L29.4092611,23.5453565 C30.4887749,23.5453565 31.3639002,24.4204734 31.3639002,25.4999871 C31.3639002,26.5795009 30.4887749,27.4546177 29.4092611,27.4546177 C29.4092611,27.4546177 29.4092611,27.4546177 29.4092611,27.4546177 L29.4092613,27.4546177 Z M27.4536985,9.8638872 L27.4536984,9.8638872 C28.5326956,9.86362906 29.4076025,10.7381181 29.4078629,11.8171153 C29.408121,12.8961125 28.533632,13.7710194 27.4546348,13.7712798 C27.4546348,13.7712798 27.4546348,13.7712798 27.4546347,13.7712798 L27.4546347,13.7712798 C26.3756375,13.7715379 25.5007306,12.897049 25.5004744,11.8180517 C25.5002163,10.7390545 26.3747052,9.86414761 27.4537025,9.8638872 L27.4536985,9.8638872 Z M33.3175692,9.86388726 L33.3175691,9.86388726 C34.3965664,9.86388726 35.2712633,10.7385842 35.2712633,11.8175814 C35.2712633,12.8965787 34.3965664,13.7712756 33.3175691,13.7712756 L33.317569,13.7712756 C32.2385718,13.7712756 31.3638749,12.8965745 31.3638749,11.8175814 C31.3638749,10.7385842 32.238576,9.86388726 33.317569,9.86388726 L33.3175692,9.86388726 Z M39.1805161,9.86388703 L39.1805162,9.86388703 C40.2595135,9.86337103 41.1346303,10.737652 41.135147,11.8166492 C41.135663,12.8956464 40.2613821,13.7707633 39.1823849,13.77128 L39.1823849,13.77128 C38.1033876,13.771796 37.2282708,12.8975151 37.227754,11.8185178 C37.227238,10.7395206 38.101519,9.86440377 39.1805162,9.86388703 L39.1805161,9.86388703 Z" id="形状"></path>
                    </g>
                </g>
            </g>
        </g>
    </g>
</svg>