<?xml version="1.0" encoding="UTF-8"?>
<svg width="38px" height="38px" viewBox="0 0 38 38" version="1.1" xmlns="http://www.w3.org/2000/svg" xmlns:xlink="http://www.w3.org/1999/xlink">
    <!-- Generator: Sketch 64 (93537) - https://sketch.com -->
    <title>矩形</title>
    <desc>Created with Sketch.</desc>
    <g id="页面-1" stroke="none" stroke-width="1" fill="none" fill-rule="evenodd">
        <g id="滑出首屏出现类目icon" transform="translate(-360.000000, -61.000000)" fill="#FFFFFF" fill-rule="nonzero">
            <g id="编组-5" transform="translate(360.000000, 61.000000)">
                <g id="编组-3">
                    <g id="编组-6">
                        <path d="M9.70675824,22.9349556 C10.6498468,22.9349556 11.4134415,23.6985481 11.4134415,24.6416388 C11.4134415,25.5848774 10.6499239,26.348472 9.70675824,26.348472 C8.76359464,26.348472 8,25.5848795 8,24.6416388 C8,23.6985502 8.76351756,22.9349556 9.70675824,22.9349556 Z M28.4564196,23.7884295 C28.9259702,23.7884295 29.3097248,24.1681174 29.3097248,24.6416575 C29.3097248,25.1154227 28.9259702,25.4951127 28.4564196,25.4951127 L28.4564196,25.4951127 L14.8188204,25.4951127 C14.3491949,25.4951127 13.9654403,25.1154227 13.9654403,24.6416575 C13.9654403,24.1681195 14.3491949,23.7884295 14.8188204,23.7884295 L14.8188204,23.7884295 Z M9.70675824,16.9654486 C10.6498468,16.9654486 11.4134415,17.7290412 11.4134415,18.6721318 C11.4134415,19.6153704 10.6499239,20.3789651 9.70675824,20.3789651 C8.76359464,20.3789651 8,19.6154475 8,18.6721318 C8,17.7331058 8.76351756,16.9654486 9.70675824,16.9654486 Z M28.4564196,17.8229017 C28.9259702,17.8229017 29.3097248,18.2066563 29.3097248,18.6762818 C29.3097248,19.1457574 28.9259702,19.529587 28.4564196,19.529587 L28.4564196,19.529587 L14.8188204,19.529587 C14.3491949,19.529587 13.9654403,19.1458324 13.9654403,18.6762818 C13.9654403,18.2066563 14.3491949,17.8229017 14.8188204,17.8229017 L14.8188204,17.8229017 Z M9.70675824,11 C10.6498468,11 11.4134415,11.7635926 11.4134415,12.7068332 C11.4134415,13.6499218 10.6499239,14.4135165 9.70675824,14.4135165 C8.76359464,14.4135165 8,13.6499239 8,12.7068332 C8,11.7676571 8.76351756,11.0000753 9.70675824,11 Z M28.4564196,11.8535385 C28.9300348,11.8535385 29.3097248,12.2372181 29.3097248,12.7069187 C29.3097248,13.1763921 28.9259702,13.5601467 28.4564196,13.5601467 L28.4564196,13.5601467 L14.8188204,13.5601467 C14.3491178,13.5601467 13.9654403,13.1763942 13.9654403,12.7069187 C13.9654403,12.2372931 14.3491949,11.8535385 14.8188204,11.8535385 L14.8188204,11.8535385 Z" id="形状结合"></path>
                    </g>
                </g>
            </g>
        </g>
    </g>
</svg>