<?xml version="1.0" encoding="UTF-8"?>
<svg width="22px" height="22px" viewBox="0 0 22 22" version="1.1" xmlns="http://www.w3.org/2000/svg" xmlns:xlink="http://www.w3.org/1999/xlink">
    <!-- Generator: Sketch 60.1 (88133) - https://sketch.com -->
    <title>编组 15</title>
    <desc>Created with Sketch.</desc>
    <g id="搜索" stroke="none" stroke-width="1" fill="none" fill-rule="evenodd">
        <g id="入驻商户产品列表页面备份" transform="translate(-919.000000, -727.000000)">
            <g id="编组-15" transform="translate(919.000000, 727.000000)">
                <g id="编组-20">
                    <rect id="矩形" fill="#F7F7F7" fill-rule="nonzero" x="0" y="0" width="22" height="22" rx="2"></rect>
                    <g id="目录" transform="translate(4.000000, 6.000000)"></g>
                </g>
                <path d="M4.33333334,6 C4.14923842,6 4,6.14923842 4,6.33333334 C4,6.51742825 4.14923842,6.66666667 4.33333334,6.66666667 L5.66666666,6.66666667 C5.85076158,6.66666667 6,6.51742825 6,6.33333334 C6,6.14923842 5.85076158,6 5.66666666,6 L4.33333334,6 Z M4.33333334,10.6666667 C4.14923842,10.6666667 4.00000001,10.8159051 4.00000001,11 C4.00000001,11.1840949 4.14923842,11.3333333 4.33333334,11.3333333 L5.66666666,11.3333333 C5.85076158,11.3333333 6.00000001,11.1840949 6.00000001,11 C6.00000001,10.8159051 5.85076158,10.6666667 5.66666666,10.6666667 L4.33333334,10.6666667 Z M4.33333334,15.3333333 C4.14923842,15.3333333 4,15.4825717 4,15.6666667 C4,15.8507616 4.14923842,16 4.33333334,16 L5.66666666,16 C5.85076158,16 6,15.8507616 6,15.6666667 C6,15.4825717 5.85076158,15.3333333 5.66666666,15.3333333 L4.33333334,15.3333333 Z M7.66666666,6 C7.48257175,6 7.33333333,6.14923842 7.33333333,6.33333334 C7.33333333,6.51742825 7.48257175,6.66666667 7.66666666,6.66666667 L17,6.66666667 C17.1840949,6.66666667 17.3333333,6.51742825 17.3333333,6.33333334 C17.3333333,6.14923842 17.1840949,6 17,6 L7.66666666,6 Z M7.66666666,10.6666667 C7.48257175,10.6666667 7.33333334,10.8159051 7.33333334,11 C7.33333334,11.1840949 7.48257175,11.3333333 7.66666666,11.3333333 L17,11.3333333 C17.1840949,11.3333333 17.3333333,11.1840949 17.3333333,11 C17.3333333,10.8159051 17.1840949,10.6666667 17,10.6666667 L7.66666666,10.6666667 Z M7.66666666,15.3333333 C7.48257175,15.3333333 7.33333333,15.4825717 7.33333333,15.6666667 C7.33333333,15.8507616 7.48257175,16 7.66666666,16 L17,16 C17.1840949,16 17.3333333,15.8507616 17.3333333,15.6666667 C17.3333333,15.4825717 17.1840949,15.3333333 17,15.3333333 L7.66666666,15.3333333 Z" id="形状" fill="#999999" fill-rule="nonzero"></path>
            </g>
        </g>
    </g>
</svg>