<?xml version="1.0" encoding="utf-8"?>
<!-- Generator: Adobe Illustrator 19.0.0, SVG Export Plug-In . SVG Version: 6.00 Build 0)  -->
<svg version="1.1" id="图层_1" xmlns="http://www.w3.org/2000/svg" xmlns:xlink="http://www.w3.org/1999/xlink" x="0px" y="0px"
	 viewBox="33 -78 200 200" style="enable-background:new 33 -78 200 200;" xml:space="preserve">
<style type="text/css">
	.st0{fill:#435996;}
</style>
<path class="st0" d="M199.7-78H66.3C47.9-78,33-63.1,33-44.7V88.7c0,18.4,14.9,33.3,33.3,33.3H133V34.5h-25v-25h25V-9.3
	c0-17.3,14-31.3,31.3-31.3h31.3v25h-31.3c-3.5,0-6.3,2.8-6.3,6.3V9.5h34.4l-6.3,25H158V122h41.7c18.4,0,33.3-14.9,33.3-33.3V-44.7
	C233-63.1,218.1-78,199.7-78L199.7-78z"/>
</svg>
