<?xml version="1.0" encoding="UTF-8"?>
<svg width="25px" height="25px" viewBox="0 0 25 25" version="1.1" xmlns="http://www.w3.org/2000/svg" xmlns:xlink="http://www.w3.org/1999/xlink">
    <title>飞机2</title>
    <defs>
        <rect id="path-1" x="0" y="0" width="25" height="25"></rect>
    </defs>
    <g id="web" stroke="none" stroke-width="1" fill="none" fill-rule="evenodd">
        <g id="商品详情-普通商品" transform="translate(-1254.000000, -306.000000)">
            <g id="编组-20" transform="translate(360.000000, 212.000000)">
                <g id="编组-26" transform="translate(549.000000, 30.000000)">
                    <g id="飞机2" transform="translate(345.000000, 64.000000)">
                        <mask id="mask-2" fill="white">
                            <use xlink:href="#path-1"></use>
                        </mask>
                        <use id="矩形" fill="#FF6010" xlink:href="#path-1"></use>
                        <path d="M10.7067224,7.33814735 L11.1065614,7.33814735 C11.4449433,7.33814735 11.6147782,7.19733724 11.6147782,6.91030125 C11.6147782,6.58535485 11.2997648,6.42107638 10.6704738,6.42107638 L10.0113743,6.42107638 L9.01462897,5.1194855 L9.48567717,5.1194855 C9.80013865,5.1194855 9.95782939,4.97687013 9.95782939,4.69344466 C9.95782939,4.36488774 9.73886558,4.20241453 9.29909793,4.20241453 L8.33768119,4.20241453 C7.22716052,2.73473993 6.52653766,2.00060175 6.23581259,2 C6.0757075,2.00862145 5.92217841,2.06534314 5.79604494,2.1624732 C5.66395761,2.2318404 5.57562571,2.36105621 5.56033683,2.50727745 C5.56033683,2.63003498 5.72765708,2.94595509 6.06229757,3.4550378 C6.61092145,4.37597808 7.0987352,5.33051432 7.522731,6.31276092 C8.16159012,7.70822521 8.48052901,8.5512806 8.47954766,8.84192711 C8.47954766,9.02786867 8.19507871,9.13076836 7.62393276,9.14882094 C5.74955346,9.15965249 4.40541006,9.24690662 3.59150256,9.41058332 C3.3370093,9.13200372 3.10333206,8.83577432 2.89229038,8.52420174 C2.52072658,8.01331378 2.26539147,7.71003046 2.12628505,7.6143518 C1.89738603,7.49843669 1.63974916,7.44837126 1.38309611,7.46993117 C1.25007813,7.45653835 1.11612243,7.4843129 1,7.54936252 C1,7.77501975 1.28177168,8.59340329 1.84531216,10.0045131 C1.28103566,11.2862462 0.999265425,12.1046297 1,12.4596638 C1.11612243,12.5247134 1.25007813,12.5524879 1.38309611,12.5390951 C1.63782486,12.5611162 1.89372603,12.5123171 2.12150096,12.398285 C2.25876735,12.3062169 2.51410247,12.0035353 2.8875063,11.4902403 C3.09998047,11.1769226 3.33499881,10.8788982 3.59076654,10.598443 C4.52467434,10.7547637 5.47038983,10.8332716 6.41779176,10.8331265 C7.4885064,10.8475685 8.10160508,10.8764527 8.25138369,10.9269999 C8.37477866,10.9442623 8.46935635,11.0433588 8.47881165,11.1652939 C8.47881165,11.4523299 8.15987276,12.2941818 7.52199499,13.6908496 C6.88411721,15.0899244 6.39730607,16.0437023 6.06156156,16.5521832 C5.72667573,17.0630712 5.55935548,17.3795931 5.55960082,17.5017488 C5.57437395,17.6467923 5.66312571,17.7745831 5.79530893,17.8411373 C5.92250991,17.9358626 6.07563651,17.9911784 6.23507658,18 C6.52690566,18 7.22752853,17.2688706 8.33694518,15.8066118 L9.29836191,15.8066118 C9.73812957,15.8066118 9.95709338,15.6423333 9.95709338,15.3173869 C9.95709338,15.0303509 9.79940264,14.8877355 9.48494116,14.8877355 L9.01389296,14.8877355 L10.0106383,13.5879499 L10.6697378,13.5879499 C11.2990287,13.5879499 11.6140422,13.4236714 11.6140422,13.098725 C11.6140422,12.811689 11.4442073,12.6690737 11.1058254,12.6690737 L10.7059864,12.6690737 L12.290622,10.8259054 L14.356794,10.8259054 C16.1184407,10.8259054 16.9995093,10.537666 17,9.96118696 C17,9.73372447 16.6456098,9.54597766 15.9351735,9.40155703 C15.4170051,9.28132091 14.8886436,9.20819954 14.356794,9.18312084 L12.291358,9.18312084 L10.7067224,7.33814735 Z" id="路径" fill="#FFFFFF" fill-rule="nonzero" mask="url(#mask-2)" transform="translate(9.000000, 10.000000) rotate(-135.000000) translate(-9.000000, -10.000000) "></path>
                        <rect id="矩形" fill-opacity="0.807938156" fill="#FFFFFF" mask="url(#mask-2)" transform="translate(23.000000, 12.500000) rotate(45.000000) translate(-23.000000, -12.500000) " x="16" y="12" width="14" height="1" rx="0.5"></rect>
                        <rect id="矩形" fill-opacity="0.807938156" fill="#FFFFFF" mask="url(#mask-2)" transform="translate(21.000000, 21.500000) rotate(45.000000) translate(-21.000000, -21.500000) " x="14" y="21" width="14" height="1" rx="0.5"></rect>
                        <rect id="矩形" fill-opacity="0.807938156" fill="#FFFFFF" mask="url(#mask-2)" transform="translate(12.000000, 23.500000) rotate(45.000000) translate(-12.000000, -23.500000) " x="5" y="23" width="14" height="1" rx="0.5"></rect>
                    </g>
                </g>
            </g>
        </g>
    </g>
</svg>