<?xml version="1.0" encoding="utf-8"?>
<!-- Generator: Adobe Illustrator 19.0.0, SVG Export Plug-In . SVG Version: 6.00 Build 0)  -->
<svg version="1.1" id="图层_1" xmlns="http://www.w3.org/2000/svg" xmlns:xlink="http://www.w3.org/1999/xlink" x="0px" y="0px"
	 viewBox="33 -78 200 200" style="enable-background:new 33 -78 200 200;" xml:space="preserve">
<style type="text/css">
	.st0{fill:#6BC839;}
	.st1{fill:#1296DB;}
	.st2{fill:#FFFFFF;}
</style>
<path class="st0" d="M133,9.5"/>
<path class="st1" d="M158,122h41.7c18.4,0,33.3-14.9,33.3-33.3V-44.7c0-18.4-14.9-33.3-33.3-33.3h0H66.3C47.9-78,33-63.1,33-44.7
	V88.7c0,18.4,14.9,33.3,33.3,33.3H133"/>
<path class="st0" d="M186.1,34.5"/>
<path class="st0" d="M158,9.5"/>
<path class="st2" d="M184.6-3.7c0.1,1.1,0.1,2.2,0.1,3.3c0,34.1-26,73.5-73.5,73.5c-14.6,0-28.1-4.3-39.6-11.6
	c2,0.2,4.2,0.4,6.3,0.4c12.1,0,23.4-4.1,32.3-11.1c-11.3-0.2-20.4-7.7-23.7-17.9c1.6,0.3,4,0.5,5.7,0.5c2.4,0,3.7-0.3,5.9-0.9
	C86.2,30.1,78,19.7,78,7.1c0-0.1,0-0.2,0-0.3c0,1.9,6.8,3.1,11,3.2C82.1,5.4,75.6-2.5,75.6-11.5c0-4.7,1.9-9.2,4.1-13
	c12.7,15.6,32.1,25.9,53.6,27c-0.4-1.9-0.5-3.9-0.5-5.9c0-14.3,11.6-25.8,25.9-25.8c7.4,0,14.2,3.1,18.9,8.2
	c5.9-1.2,11.4-3.3,16.4-6.3c-1.9,6-6,11.1-11.3,14.3c5.2-0.6,7.1-2,11.7-4.1c0,0-3.1,0-3.1,0v0c0,0,3.1,0,3.1,0
	C190.9-11.9,189.6-7.3,184.6-3.7z"/>
</svg>
