<?xml version="1.0" encoding="UTF-8"?>
<svg width="23px" height="20px" viewBox="0 0 23 20" version="1.1" xmlns="http://www.w3.org/2000/svg" xmlns:xlink="http://www.w3.org/1999/xlink">
    <title>编组 7</title>
    <g id="搜品模块" stroke="none" stroke-width="1" fill="none" fill-rule="evenodd">
        <g id="My-CJ_VIP-英文版-店铺搜品" transform="translate(-874.000000, -396.000000)">
            <g id="编组-8" transform="translate(874.000000, 396.000000)">
                <g id="编组-85" transform="translate(0.920000, 0.920000)">
                    <path d="M18.0400905,11.7758174 C18.5334727,11.7758174 18.933438,12.1757827 18.933438,12.6691649 C18.933438,12.677918 18.9333094,12.6866706 18.9330521,12.69542 L18.7869479,17.66458 C18.7718882,18.1767766 18.3523275,18.5841826 17.8399095,18.5841826 C17.3465273,18.5841826 16.946562,18.1842173 16.946562,17.6908351 C16.946562,17.682082 16.9466906,17.6733294 16.9469479,17.66458 L17.0930521,12.69542 C17.1081118,12.1832234 17.5276725,11.7758174 18.0400905,11.7758174 Z" id="Rectangle" fill="#333333" transform="translate(17.940000, 15.180000) rotate(-50.000000) translate(-17.940000, -15.180000) "></path>
                    <circle id="Oval-2" stroke="#333333" stroke-width="2" cx="8.28" cy="8.28" r="8.28"></circle>
                    <path d="M5.5415625,4.3628125 C3.46182943,5.28790365 2.66671224,6.85807292 3.15621094,9.07332031" id="Path-2" stroke="#333333" stroke-width="2" stroke-linecap="round" stroke-linejoin="round"></path>
                </g>
            </g>
        </g>
    </g>
</svg>