<?xml version="1.0" encoding="UTF-8"?>
<svg width="16px" height="16px" viewBox="0 0 16 16" version="1.1" xmlns="http://www.w3.org/2000/svg" xmlns:xlink="http://www.w3.org/1999/xlink">
    <!-- Generator: Sketch 56.2 (81672) - https://sketch.com -->
    <title>编组</title>
    <desc>Created with Sketch.</desc>
    <g id="页面1" stroke="none" stroke-width="1" fill="none" fill-rule="evenodd">
        <g id="1点击添加服务商品备份-2" transform="translate(-1007.000000, -478.000000)" fill="#F78E29" fill-rule="nonzero">
            <g id="编组" transform="translate(1007.000000, 478.000000)">
                <g id="下载">
                    <path d="M7.736009,13.5630158 L3.6060042,8.57100997 C3.6060042,8.57100997 2.98100347,7.98000929 3.65900426,7.98000929 L5.98800697,7.98000929 L5.98800697,6.96700811 L5.98800697,0.716000833 C5.98800697,0.716000833 5.89400686,0.362000421 6.43100748,0.362000421 L9.70401129,0.362000421 C10.0880117,0.362000421 10.0770117,0.658000766 10.0770117,0.658000766 L10.0770117,7.83000911 L12.2280142,7.83000911 C13.0550152,7.83000911 12.4310145,8.44900983 12.4310145,8.44900983 C12.4310145,8.44900983 8.91801038,13.1120153 8.43000981,13.6020158 C8.0740094,13.9590162 7.736009,13.5630158 7.736009,13.5630158 L7.736009,13.5630158 Z M15.8790185,11.8660138 L14.4290168,11.8660138 L14.4290168,14.1870165 L1.57100183,14.1870165 L1.57100183,11.9150139 L0.121000141,11.9150139 L0.121000141,15.6370182 L15.8790185,15.6370182 L15.8790185,11.8660138 Z" id="形状"></path>
                </g>
            </g>
        </g>
    </g>
</svg>