<?xml version="1.0" encoding="UTF-8"?>
<svg width="252px" height="211px" viewBox="0 0 252 211" version="1.1" xmlns="http://www.w3.org/2000/svg" xmlns:xlink="http://www.w3.org/1999/xlink">
    <title>编组 29</title>
    <defs>
        <linearGradient x1="84.671659%" y1="73.3230473%" x2="3.11162716%" y2="16.2960241%" id="linearGradient-1">
            <stop stop-color="#F6AC54" offset="0%"></stop>
            <stop stop-color="#F7C96A" offset="60.17%"></stop>
        </linearGradient>
        <linearGradient x1="69.822464%" y1="88.4549356%" x2="27.1515252%" y2="25.2255365%" id="linearGradient-2">
            <stop stop-color="#F6AC54" offset="0%"></stop>
            <stop stop-color="#F7C96A" offset="60.17%"></stop>
        </linearGradient>
        <linearGradient x1="98.2720777%" y1="90.4814815%" x2="47.7841913%" y2="39.1405229%" id="linearGradient-3">
            <stop stop-color="#F6AC54" offset="0%"></stop>
            <stop stop-color="#F7C96A" offset="100%"></stop>
        </linearGradient>
        <linearGradient x1="76.1619565%" y1="80.5538233%" x2="-10.078913%" y2="4.35166257%" id="linearGradient-4">
            <stop stop-color="#F6AC54" offset="0%"></stop>
            <stop stop-color="#F6B158" offset="24.04%"></stop>
            <stop stop-color="#F7BF62" offset="51.75%"></stop>
            <stop stop-color="#F7C96A" offset="66.19%"></stop>
        </linearGradient>
        <linearGradient x1="0.0604166667%" y1="49.8803738%" x2="99.8052083%" y2="49.8803738%" id="linearGradient-5">
            <stop stop-color="#F6AC54" offset="0%"></stop>
            <stop stop-color="#F7C96A" offset="60.17%"></stop>
        </linearGradient>
        <linearGradient x1="-0.480689655%" y1="49.8893805%" x2="99.3027586%" y2="49.8893805%" id="linearGradient-6">
            <stop stop-color="#F6AC54" offset="0%"></stop>
            <stop stop-color="#F7C96A" offset="60.17%"></stop>
        </linearGradient>
    </defs>
    <g id="页面-1" stroke="none" stroke-width="1" fill="none" fill-rule="evenodd">
        <g id="编组-29">
            <rect id="矩形备份-15" x="0" y="0" width="252" height="211" rx="1"></rect>
            <g id="模块占位图备份-7" transform="translate(15.000000, 38.000000)">
                <g id="画板" transform="translate(0.000000, 4.090909)" fill="#FDFAEA">
                    <path d="M63.6818182,122.454545 C117.136364,122.454545 185.181818,108.954545 198.681818,79.2272727 C199.909091,76.6363636 202.636364,71.4545455 205.636364,65.0454545 C206.045455,64.0909091 139.363636,61.2272727 5.45454545,56.3181818 C140.863636,57.2727273 208.909091,57.2727273 209.181818,56.3181818 C216.136364,37.9090909 219.681818,14.3181818 195.409091,5.18181818 C157.5,-9.27272727 128.590909,16.5 109.636364,19.0909091 C90.6818182,21.6818182 36,2.86363636 19.6363636,15.1363636 C12.8181818,20.1818182 8.59090909,25.0909091 7.09090909,30 L205.227273,30 L5.59090909,34.6363636 C1.90909091,43.3636364 0.136363636,53.4545455 0.136363636,65.1818182 C0.136363636,70.0909091 0.409090909,75 1.09090909,79.6363636 C1.09090909,80.0454545 54.6818182,81.8181818 161.863636,84.9545455 C55.0909091,83.5909091 1.63636364,83.0454545 1.77272727,83.5909091 C6.13636364,105.681818 21.2727273,122.454545 63.6818182,122.454545 Z" id="椭圆形"></path>
                </g>
                <g id="编组" transform="translate(42.272727, 0.000000)" fill-rule="nonzero">
                    <path d="M125.454545,102.681818 C123.954545,107.045455 126.272727,111.681818 130.636364,113.181818 C131.454545,113.454545 132.136364,113.590909 132.954545,113.590909 L127.090909,130.636364 L109.363636,124.636364 C109.636364,125.863636 109.5,127.227273 108.954545,128.590909 C107.454545,132.954545 102.681818,135.272727 98.4545455,133.772727 C94.0909091,132.272727 91.7727273,127.636364 93.2727273,123.272727 C93.6818182,121.909091 94.5,120.818182 95.4545455,120 L77.7272727,114 L83.7272727,96.6818182 C82.0909091,97.2272727 80.4545455,97.0909091 78.8181818,96.5454545 C74.4545455,95.0454545 72.1363636,90.4090909 73.6363636,86.0454545 C75.1363636,81.6818182 79.9090909,79.3636364 84.1363636,80.8636364 C85.7727273,81.4090909 87.1363636,82.5 88.0909091,83.8636364 L94.6363636,64.7727273 L112.090909,70.7727273 C111.409091,71.5909091 110.727273,72.5454545 110.318182,73.6363636 C108.818182,78 111.136364,82.6363636 115.5,84.1363636 C119.863636,85.6363636 124.5,83.3181818 126,78.9545455 C126.409091,77.8636364 126.545455,76.7727273 126.409091,75.6818182 L143.863636,81.6818182 L138,98.7272727 C137.318182,98.3181818 136.636364,97.9090909 135.818182,97.6363636 C131.727273,96.1363636 126.954545,98.4545455 125.454545,102.681818 Z" id="路径" fill="url(#linearGradient-1)"></path>
                    <path d="M41.7272727,77.8636364 C41.7272727,82.5 45.4090909,86.1818182 50.0454545,86.1818182 C50.8636364,86.1818182 51.6818182,86.0454545 52.3636364,85.7727273 L52.3636364,104.727273 L33.9545455,104.727273 C34.3636364,103.772727 34.6363636,102.681818 34.6363636,101.454545 C34.6363636,97.7727273 32.1818182,94.5 28.7727273,93.5454545 C27.9545455,93.2727273 27.2727273,93.1363636 26.4545455,93.1363636 C21.8181818,93.1363636 18.1363636,96.8181818 18.1363636,101.454545 C18.1363636,102.545455 18.4090909,103.772727 18.8181818,104.727273 L0.272727273,104.727273 L0.272727273,52.7727273 L18.6818182,52.7727273 C18.2727273,51.8181818 18,50.7272727 18,49.5 C18,45 21.6818182,41.1818182 26.3181818,41.1818182 C27.1363636,41.1818182 27.9545455,41.3181818 28.6363636,41.5909091 C32.0454545,42.5454545 34.5,45.8181818 34.5,49.5 C34.5,50.5909091 34.2272727,51.8181818 33.8181818,52.7727273 L52.2272727,52.7727273 L52.2272727,69.9545455 C51.4090909,69.6818182 50.7272727,69.5454545 49.9090909,69.5454545 C45.4090909,69.5454545 41.7272727,73.2272727 41.7272727,77.8636364 Z" id="路径" fill="url(#linearGradient-2)"></path>
                    <path d="M104.590909,52.7727273 L86.4545455,52.7727273 C86.7272727,53.5909091 86.7272727,54.2727273 86.7272727,55.0909091 C86.7272727,59.5909091 83.0454545,63.4090909 78.4090909,63.4090909 C73.7727273,63.4090909 70.0909091,59.7272727 70.0909091,55.0909091 C70.0909091,54.2727273 70.2272727,53.4545455 70.3636364,52.7727273 L52.2272727,52.7727273 L52.2272727,34.6363636 C53.0454545,34.9090909 53.7272727,35.0454545 54.5454545,35.0454545 C59.1818182,35.0454545 62.8636364,31.3636364 62.8636364,26.7272727 C62.8636364,25.6363636 62.5909091,24.4090909 62.1818182,23.4545455 C60.9545455,20.4545455 57.9545455,18.4090909 54.5454545,18.4090909 C53.7272727,18.4090909 52.9090909,18.5454545 52.2272727,18.8181818 L52.2272727,0.818181818 L104.318182,0.818181818 L104.318182,52.7727273 L104.590909,52.7727273 Z" id="路径" fill="url(#linearGradient-3)"></path>
                    <path d="M63,26.7272727 C63,31.2272727 59.3181818,35.0454545 54.6818182,35.0454545 C53.8636364,35.0454545 53.0454545,34.9090909 52.3636364,34.6363636 L52.3636364,52.7727273 L33.9545455,52.7727273 C34.3636364,51.8181818 34.6363636,50.7272727 34.6363636,49.5 C34.6363636,45.8181818 32.1818182,42.5454545 28.7727273,41.5909091 C27.9545455,41.3181818 27.2727273,41.1818182 26.4545455,41.1818182 C21.8181818,41.1818182 18.1363636,44.8636364 18.1363636,49.5 C18.1363636,50.5909091 18.4090909,51.8181818 18.8181818,52.7727273 L0.272727273,52.7727273 L0.272727273,0.818181818 L52.3636364,0.818181818 L52.3636364,18.9545455 C53.1818182,18.6818182 53.8636364,18.5454545 54.6818182,18.5454545 C58.0909091,18.5454545 61.0909091,20.5909091 62.3181818,23.5909091 C62.8636364,24.5454545 63,25.6363636 63,26.7272727 Z" id="路径" fill="url(#linearGradient-4)"></path>
                    <path d="M139.363636,72.4090909 L139.363636,72.4090909 L139.363636,72.4090909 C139.363636,72.4090909 153.545455,64.6363636 153.545455,64.6363636 C152.727273,63.4090909 151.909091,62.1818182 151.090909,60.9545455 C160.227273,59.8636364 169.363636,58.9090909 178.636364,57.8181818 C171.954545,60.4090909 165.136364,63.1363636 158.454545,65.7272727 C160.090909,66.5454545 161.727273,67.2272727 163.363636,68.0454545 L139.363636,72.4090909 Z" id="路径" fill="url(#linearGradient-5)"></path>
                    <path d="M144,18.2727273 C140.045455,27.6818182 136.090909,37.0909091 132.136364,46.5 C134.318182,45.9545455 136.636364,45.4090909 138.818182,44.8636364 C135.818182,51.4090909 132.681818,57.9545455 129.681818,64.5 C136.227273,56.5909091 142.772727,48.5454545 149.454545,40.6363636 C146.454545,40.3636364 143.454545,40.0909091 140.454545,39.6818182 C141.545455,32.4545455 142.772727,25.3636364 144,18.2727273 Z" id="路径" fill="url(#linearGradient-6)"></path>
                </g>
            </g>
        </g>
    </g>
</svg>