<?xml version="1.0" encoding="UTF-8"?>
<svg width="42px" height="44px" viewBox="0 0 42 44" version="1.1" xmlns="http://www.w3.org/2000/svg" xmlns:xlink="http://www.w3.org/1999/xlink">
    <!-- Generator: Sketch 63.1 (92452) - https://sketch.com -->
    <title>编组 10</title>
    <desc>Created with Sketch.</desc>
    <defs>
        <linearGradient x1="50%" y1="0%" x2="50%" y2="100%" id="linearGradient-1">
            <stop stop-color="#F0D39C" offset="0%"></stop>
            <stop stop-color="#DDA863" offset="100%"></stop>
        </linearGradient>
    </defs>
    <g id="最新" stroke="none" stroke-width="1" fill="none" fill-rule="evenodd">
        <g id="等级说明修改" transform="translate(-1109.000000, -621.000000)" fill="url(#linearGradient-1)" fill-rule="nonzero">
            <g id="编组-18" transform="translate(220.000000, 511.000000)">
                <g id="编组-17">
                    <g id="编组-21" transform="translate(820.000000, 57.000000)">
                        <g id="编组-10" transform="translate(65.000000, 50.000000)">
                            <g id="建议" transform="translate(4.000000, 3.000000)">
                                <path d="M4.98951145,1.38777596 L5.19300966,1.38886822 L34.9157238,1.38886822 L26.708686,8.60729373 C25.1560064,9.91972075 25.0081322,12.1071276 26.3390004,13.6383124 C27.522055,15.1695314 29.8880429,15.3153585 31.2189111,14.1487415 L31.2189111,14.1487415 L40.3870968,6.20118038 L40.3870968,38.6477153 C40.3870968,41.1996899 38.1689831,43.3870968 35.5811839,43.3870968 L35.5811839,43.3870968 L5.19300966,43.3870968 C2.60521042,43.3870968 0.387096774,41.1996899 0.387096774,38.6477153 L0.387096774,38.6477153 L0.387096774,6.20118038 C0.387096774,3.50336151 2.60521042,1.31595466 5.19300966,1.38886822 Z M33.6587754,27.4189755 L7.18927728,27.4189755 C6.52384319,27.4189755 6.00628334,27.9293705 6.00628334,28.5855925 C6.00628334,29.2418146 6.52384319,29.7522095 7.18927728,29.7522095 L7.18927728,29.7522095 L33.6587754,29.7522095 C34.3242095,29.7522095 34.8417693,29.2418146 34.8417693,28.5855925 C34.8417693,27.9293705 34.3242095,27.4189755 33.6587754,27.4189755 L33.6587754,27.4189755 Z M22.1985476,18.1589447 L7.18930328,18.1589447 C6.52386918,18.1589447 6.00630933,18.6693396 6.00630933,19.3255616 C6.00630933,19.9817837 6.52386918,20.4921786 7.18930328,20.4921786 L7.18930328,20.4921786 L22.1985476,20.4921786 C22.8639817,20.4921786 23.3815415,19.9817837 23.3815415,19.3255616 C23.3815415,18.6693396 22.8639817,18.1589447 22.1985476,18.1589447 L22.1985476,18.1589447 Z M38.9957317,0.745386272 C39.5210173,0.246127382 40.5715885,0.246127382 41.0968741,0.888031669 C41.6221596,1.52993596 41.3970373,2.52845374 40.7216701,2.88506723 L40.7216701,2.88506723 L28.6400841,12.9415844 C28.1147985,13.6548114 27.1392681,13.4408433 26.7640641,12.7989391 C26.2387786,12.2996802 26.2387786,11.3011624 26.9141457,10.8019035 L26.9141457,10.8019035 Z" id="形状结合"></path>
                            </g>
                        </g>
                    </g>
                </g>
            </g>
        </g>
    </g>
</svg>