<?xml version="1.0" encoding="UTF-8"?>
<svg width="44px" height="44px" viewBox="0 0 44 44" version="1.1" xmlns="http://www.w3.org/2000/svg" xmlns:xlink="http://www.w3.org/1999/xlink">
    <!-- Generator: Sketch 63.1 (92452) - https://sketch.com -->
    <title>编组 8</title>
    <desc>Created with Sketch.</desc>
    <defs>
        <linearGradient x1="50%" y1="0%" x2="50%" y2="100%" id="linearGradient-1">
            <stop stop-color="#F0D39C" offset="0%"></stop>
            <stop stop-color="#DDA863" offset="100%"></stop>
        </linearGradient>
    </defs>
    <g id="最新" stroke="none" stroke-width="1" fill="none" fill-rule="evenodd">
        <g id="等级说明修改" transform="translate(-748.000000, -621.000000)" fill="url(#linearGradient-1)" fill-rule="nonzero">
            <g id="编组-18" transform="translate(220.000000, 511.000000)">
                <g id="编组-17">
                    <g id="编组-8" transform="translate(525.000000, 107.000000)">
                        <g id="库存" transform="translate(3.000000, 3.000000)">
                            <path d="M23.0246629,0.0311060452 L43.5484378,16.3306824 L40.8266604,19.0524598 L40.8266604,35.3831239 C40.8266604,41.3928083 35.9523399,43.548456 29.939551,43.548456 L13.6088868,43.548456 C7.59609786,43.548456 2.72177736,41.3959171 2.72177736,35.3831239 L2.72177736,19.0524598 C2.64712284,19.1146719 0,16.3306824 0,16.3306824 L20.5237748,0.0311060452 L23.0247012,0.0311060452 L23.0246629,0.0311060452 Z M32.6613283,29.9426737 L27.2177736,29.9426737 L27.2177736,35.3862285 L32.6613283,35.3862285 L32.6613283,29.9426737 Z M24.4959962,29.9426737 L19.0524415,29.9426737 L19.0524415,35.3862285 L24.4959962,35.3862285 L24.4959962,29.9426737 Z M16.3306642,29.9426737 L10.8871094,29.9426737 L10.8871094,35.3862285 L16.3306642,35.3862285 L16.3306642,29.9426737 Z M24.4959962,21.7742371 L19.0524415,21.7742371 L19.0524415,27.2177919 L24.4959962,27.2177919 L24.4959962,21.7742371 Z M16.3306642,21.7742371 L10.8871094,21.7742371 L10.8871094,27.2177919 L16.3306642,27.2177919 L16.3306642,21.7742371 Z" id="形状"></path>
                        </g>
                    </g>
                </g>
            </g>
        </g>
    </g>
</svg>