<?xml version="1.0" encoding="UTF-8"?>
<svg width="55px" height="28px" viewBox="0 0 55 28" version="1.1" xmlns="http://www.w3.org/2000/svg" xmlns:xlink="http://www.w3.org/1999/xlink">
    <!-- Generator: Sketch 63.1 (92452) - https://sketch.com -->
    <title>编组 13</title>
    <desc>Created with Sketch.</desc>
    <defs>
        <linearGradient x1="50%" y1="0%" x2="50%" y2="100%" id="linearGradient-1">
            <stop stop-color="#F0D39C" offset="0%"></stop>
            <stop stop-color="#DDA863" offset="100%"></stop>
        </linearGradient>
    </defs>
    <g id="最新" stroke="none" stroke-width="1" fill="none" fill-rule="evenodd">
        <g id="等级说明修改" transform="translate(-563.000000, -809.000000)" fill="url(#linearGradient-1)" fill-rule="nonzero">
            <g id="编组-18" transform="translate(220.000000, 511.000000)">
                <g id="编组-17">
                    <g id="编组-13" transform="translate(338.000000, 287.000000)">
                        <g id="编组-11" transform="translate(5.000000, 11.000000)">
                            <g id="COD">
                                <path d="M11.9125875,5.37147353 L11.9125876,5.37147368 C11.4204275,4.47830156 10.4425435,3.96332449 9.42582916,4.06188136 L9.42582918,4.06188136 C8.83527298,4.03858304 8.25570715,4.22592001 7.79101575,4.59031335 L7.79101561,4.59031348 C7.29443167,5.05566246 6.9427043,5.65389773 6.77789179,6.31346127 L6.77789151,6.31346229 C6.49650212,7.33370937 6.32665853,8.38136169 6.27133032,9.43809643 C6.17922815,10.7247134 6.13317707,12.3031168 6.13317707,14.171009 L6.13317695,14.1710207 C6.11745123,15.7817977 6.18662298,17.3922803 6.34040539,18.9958058 C6.41638967,19.9699587 6.6259221,20.9280288 6.962095,21.8447434 C7.15090444,22.4053409 7.52391821,22.8832272 8.02126991,23.2002864 C8.48178073,23.4415271 8.99755286,23.5609986 9.51793009,23.5449159 C9.9646256,23.5541061 10.4113211,23.47599 10.830386,23.3151629 L10.830386,23.3151629 C11.2894045,23.1123678 11.6694295,22.765445 11.9125864,22.3272248 L11.9125863,22.327225 C12.257424,21.6978345 12.4910923,21.0139064 12.6033526,20.3053982 L12.6033529,20.3053963 C12.7952463,19.1670202 12.8800422,18.0132292 12.8566331,16.8591007 L18.1525076,16.8591007 L18.1525073,16.8590534 C18.1619289,18.2136845 18.0540789,19.5665924 17.8301591,20.9026997 L17.8301592,20.9026989 C17.6398474,22.0912904 17.2173898,23.2309947 16.58678,24.2570933 L16.5867801,24.2570931 C15.9775135,25.2467471 15.0991934,26.0434732 14.0539705,26.5546235 L14.0539699,26.5546238 C12.7138258,27.1424232 11.2569638,27.4174469 9.79424472,27.3587594 L9.79424442,27.3587594 C8.15786957,27.4289183 6.52921546,27.0975877 5.05098291,26.3937967 L5.05098334,26.3937969 C3.88429355,25.7733452 2.93608017,24.8111646 2.33396946,23.6367604 L2.33396986,23.6367613 C1.66424249,22.2923255 1.25044545,20.8355189 1.11361617,19.3403794 L1.11361647,19.3403824 C0.745823019,15.6811704 0.745823019,11.994388 1.11361588,8.33521185 L1.11361592,8.33521138 C1.24816999,6.83232496 1.66200804,5.36757036 2.33396961,4.01585426 L2.33396923,4.015855 C2.95035361,2.84003639 3.89379135,1.86675226 5.05098311,1.21286793 L5.05098164,1.21286867 C6.51862245,0.474449584 8.15233498,0.126266035 9.79424316,0.201955301 L9.79424296,0.201955311 C11.3368967,0.129760444 12.8729809,0.445787184 14.261198,1.12096746 C15.2697167,1.65169698 16.1124515,2.44664249 16.7019054,3.41849784 C17.240703,4.3604853 17.5837836,5.39896903 17.7150292,6.47421325 C17.8462748,7.49661427 17.9153514,8.52361035 17.9222591,9.55290396 L12.6263845,9.55290396 L12.6263848,9.5528992 C12.7061295,8.1232681 12.4621616,6.69406778 11.9125909,5.3713939 L11.9125875,5.37147353 Z M18.6820967,8.31231241 L18.6820967,8.31231194 C18.8166508,6.80942552 19.2304889,5.34467092 19.9024504,3.99295482 L19.90245,3.99295556 C20.5188344,2.81713695 21.4622722,1.84385282 22.6194639,1.18996849 L22.6194641,1.18996843 C25.6450418,-0.159579378 29.1034349,-0.159579378 32.1290127,1.18996856 L32.1290126,1.18996855 C33.2862044,1.84384929 34.22964,2.817137 34.8460265,3.99295561 L34.8460268,3.99295612 C35.516986,5.34505993 35.9307672,6.80962067 36.0663805,8.31231323 L36.0663802,8.31231082 C36.4341737,11.9715228 36.4341737,15.6583052 36.0663807,19.3174813 L36.0663812,19.3174764 C35.9284999,20.812422 35.5147604,22.2690347 34.8460275,23.6138582 L34.8460274,23.6138582 C34.2451299,24.7891383 33.2966028,25.7516384 32.1290136,26.3708947 L32.1290127,26.370895 C29.0879791,27.6461034 25.6604977,27.6461034 22.6194641,26.3708949 L22.6194646,26.3708951 C21.4527748,25.7504434 20.5045614,24.7882628 19.9024507,23.6138586 L19.9024511,23.6138595 C19.2327237,22.2694237 18.8189267,20.8126171 18.6820974,19.3174777 L18.6820977,19.3174806 C18.3143042,15.6582686 18.3143042,11.9714862 18.6820971,8.31231006 L18.6820967,8.31231241 Z M23.839818,18.3065696 C23.885869,19.3289706 24.056258,20.3375864 24.3463799,21.3163344 C24.5305842,21.9826182 24.9151107,22.5799761 25.4516059,23.0165068 L25.4516061,23.016507 C26.6174396,23.7287198 28.0849869,23.7287198 29.2508204,23.0165067 C29.7850129,22.579976 30.171842,21.9826181 30.3560464,21.3163342 C30.6484707,20.3398838 30.8165572,19.3289705 30.8626083,18.3065694 C30.9547104,17.065903 31.0007615,15.5357478 31.0007615,13.7115087 C31.0007615,11.8895671 30.9547104,10.3571143 30.8626083,9.11644792 L30.8626083,9.1164479 C30.7974874,8.14199347 30.6197802,7.17830153 30.3330208,6.24453493 L30.3330208,6.24453501 C30.1490907,5.57766677 29.7630603,4.98383701 29.2277949,4.54436253 L29.2277948,4.54436247 C28.0619612,3.83214959 26.594414,3.83214959 25.4285804,4.54436259 C24.8920853,4.98548843 24.5075588,5.57825127 24.3233545,6.24453508 L24.3233545,6.24453497 C24.0347854,7.22403679 23.8647224,8.23446911 23.8167926,9.25429977 C23.7246904,10.481181 23.6786393,12.0113362 23.6786393,13.8493605 C23.6786393,15.6873848 23.7315981,17.173887 23.8398181,18.3065695 L23.839818,18.3065696 Z M46.1745931,0.684511552 L46.1745929,0.684511559 C47.7144188,0.616661969 49.2476248,0.92421075 50.6415479,1.58054841 L50.6415479,1.58054841 C51.7492635,2.16454689 52.6616722,3.05899485 53.2664596,4.15378243 L53.2664593,4.1537819 C53.9334783,5.4046077 54.3628349,6.76777555 54.5328641,8.17446007 C54.7631195,9.92058316 54.869037,11.6781939 54.8552217,13.4358046 C54.8782472,15.4507388 54.740094,17.4633754 54.4407619,19.4553342 L54.4407619,19.4553344 C54.2362743,20.9377225 53.7435075,22.3659679 52.9901528,23.659815 L52.9901527,23.6598152 C52.3329606,24.7338173 51.3714284,25.5893099 50.2270877,26.1181727 L50.2270877,26.1181727 C48.8443464,26.6990975 47.3516653,26.9734643 45.8522348,26.9223084 L37.4709378,26.9223084 L37.4709378,0.684511408 L46.1745924,0.684511408 L46.1745931,0.684511552 Z M45.1384437,23.0394822 L45.1384437,23.0394822 C45.9348828,23.0803052 46.7282926,22.9140521 47.4409979,22.5570008 L47.4409977,22.5570009 C48.0457923,22.186043 48.5142326,21.6299761 48.7764791,20.9717049 L48.7764795,20.971704 C49.1549172,20.04926 49.3804423,19.0715244 49.4442194,18.0768158 C49.5501369,16.8821 49.6053982,15.3519447 49.6053982,13.481755 C49.6053982,11.9515998 49.5593472,10.6420075 49.467245,9.55297805 L49.4672452,9.55298128 C49.4079487,8.59422185 49.206191,7.6495707 48.8685818,6.74999422 L48.8685819,6.7499944 C48.6072046,6.05425051 48.1316063,5.4590408 47.510075,5.04982192 L47.5100751,5.049822 C46.8060361,4.66090683 46.0121485,4.46286832 45.207521,4.4754394 L42.9049668,4.4754394 L42.9049668,22.8556824 L45.207521,22.8556824 L45.1384443,23.0394849 L45.1384437,23.0394822 Z" id="形状"></path>
                            </g>
                        </g>
                    </g>
                </g>
            </g>
        </g>
    </g>
</svg>