<?xml version="1.0" encoding="UTF-8"?>
<svg width="43px" height="48px" viewBox="0 0 43 48" version="1.1" xmlns="http://www.w3.org/2000/svg" xmlns:xlink="http://www.w3.org/1999/xlink">
    <!-- Generator: Sketch 63.1 (92452) - https://sketch.com -->
    <title>编组 16</title>
    <desc>Created with Sketch.</desc>
    <defs>
        <linearGradient x1="50%" y1="0%" x2="50%" y2="100%" id="linearGradient-1">
            <stop stop-color="#F0D39C" offset="0%"></stop>
            <stop stop-color="#DDA863" offset="100%"></stop>
        </linearGradient>
    </defs>
    <g id="最新" stroke="none" stroke-width="1" fill="none" fill-rule="evenodd">
        <g id="等级说明修改" transform="translate(-1108.000000, -799.000000)" fill="url(#linearGradient-1)" fill-rule="nonzero">
            <g id="编组-18" transform="translate(220.000000, 511.000000)">
                <g id="编组-17">
                    <g id="编组-16" transform="translate(885.000000, 287.000000)">
                        <g id="礼品" transform="translate(3.333333, 1.000000)">
                            <path d="M19.2577836,6.75310763 L12.180124,6.75310763 C11.6908168,6.75310763 11.3150707,6.63950887 11.0528912,6.41231134 C10.7907101,6.18511381 10.6072151,5.89677544 10.5024072,5.54729568 C10.3975993,5.19781593 10.3450876,4.80461757 10.3450876,4.3676947 C10.3450876,3.93077344 10.379964,3.52009752 10.4499315,3.13567178 C10.4848795,2.75120845 10.5547754,2.33177925 10.6596193,1.87738419 C10.7644632,1.42298913 10.9130101,1.03852579 11.1052595,0.723994173 C11.2975088,0.409462557 11.5508996,0.199757088 11.8654312,0.09487723 C12.1799629,-0.0100026284 12.5644262,0.077367444 13.0188213,0.35698691 C13.543112,0.671554512 14.137283,1.01233093 14.8013282,1.37932208 C15.4653734,1.74631162 16.111984,2.11329901 16.7411547,2.48029016 C17.3703253,2.8472797 17.9557591,3.17932271 18.4974507,3.47641437 C19.0391422,3.77350763 19.4498165,4.00944233 19.7294736,4.18421793 C20.0789888,4.42888926 20.3411345,4.69975383 20.5159101,4.99681165 C20.6906856,5.29386946 20.7605814,5.57349054 20.7255978,5.83567004 C20.690614,6.09785116 20.5508045,6.3162938 20.3061686,6.49099795 C20.0615327,6.66570211 19.7120175,6.75310763 19.2576225,6.75310763 L19.2577836,6.75310763 Z M23.3471243,6.70073941 L30.372362,6.70073941 C30.8616692,6.70073941 31.2374152,6.58708693 31.4995947,6.3598894 C31.7617758,6.13269187 31.9452709,5.8443535 32.0500787,5.49487375 C32.1548866,5.145394 32.2073985,4.75219564 32.2073985,4.31527277 C32.2073985,3.87835151 32.1899959,3.46767559 32.1549763,3.08324985 C32.0850806,2.69878651 32.0064294,2.2881122 31.9190239,1.85122693 C31.8316184,1.41434166 31.6918087,1.0386171 31.4995947,0.724047884 C31.3073808,0.409480282 31.0539905,0.199774813 30.7394229,0.094930941 C30.4248553,-0.009912931 30.0403904,0.0599829658 29.5860329,0.304618685 C29.0617421,0.619186287 28.4675712,0.959962709 27.803526,1.32695386 C27.1394807,1.6939434 26.4841528,2.06093079 25.8375422,2.42792194 C25.1909316,2.79491148 24.5967644,3.12695449 24.0550353,3.42404614 C23.5133061,3.72113941 23.120104,3.95707411 22.8754343,4.1318497 C22.4909709,4.37652103 22.2113515,4.6473856 22.0365759,4.94444342 C21.8618003,5.24150124 21.7919046,5.52112231 21.8268881,5.78330182 C21.8618719,6.04548293 22.0016815,6.26392557 22.2463173,6.43862973 C22.4909532,6.61333389 22.8579406,6.70073941 23.3472854,6.70073941 L23.3471243,6.70073941 Z M18.5238228,10.1608557 L3.31990371,10.1608557 C2.20142585,10.1608557 1.47618233,10.3443502 1.14417853,10.7113398 C0.81217311,11.0783293 0.646116423,11.6637593 0.646116423,12.4676358 L0.646116423,17.0812495 C0.646116423,17.9550577 0.829610924,18.6016629 1.19660046,19.021076 C1.56359,19.4404875 2.28882976,19.650193 3.37232565,19.650193 L18.5238228,19.650193 L18.5238228,10.1608557 Z M24.2383509,10.1608557 L39.2325822,10.1608557 C40.3510601,10.1608557 41.111248,10.3792984 41.5131513,10.8161837 C41.915053,11.2530689 42.1160573,11.8734686 42.1160573,12.6773772 L42.1160573,17.1860934 C42.1160573,18.0249518 41.9325628,18.6453515 41.5655732,19.047287 C41.1985837,19.4492241 40.4733439,19.650193 39.389848,19.650193 L24.2383509,19.650193 L24.2383509,10.1608557 L24.2383509,10.1608557 Z M18.5238228,22.4288241 L2.42867709,22.4288241 L2.42867709,42.2463032 C2.42867709,44.0288263 2.93547636,45.4094138 3.94907437,46.3880659 C4.96267076,47.3667179 6.53547386,47.8560412 8.6674783,47.8560412 L18.5238228,47.8560412 L18.5238228,22.4288241 L18.5238228,22.4288241 Z M24.2383509,22.4288241 L40.2811284,22.4288241 L40.2811284,42.0890374 C40.2461804,43.8715605 39.7393831,45.278359 38.7607311,46.309433 C37.7820791,47.3405069 36.2267374,47.8560412 34.0946954,47.8560412 L24.2383509,47.8560412 L24.2383509,22.4288241 L24.2383509,22.4288241 Z" id="形状"></path>
                        </g>
                    </g>
                </g>
            </g>
        </g>
    </g>
</svg>