<?xml version="1.0" encoding="UTF-8"?>
<svg width="49px" height="44px" viewBox="0 0 49 44" version="1.1" xmlns="http://www.w3.org/2000/svg" xmlns:xlink="http://www.w3.org/1999/xlink">
    <!-- Generator: Sketch 63.1 (92452) - https://sketch.com -->
    <title>编组 7</title>
    <desc>Created with Sketch.</desc>
    <defs>
        <linearGradient x1="50%" y1="0%" x2="50%" y2="100%" id="linearGradient-1">
            <stop stop-color="#F0D39C" offset="0%"></stop>
            <stop stop-color="#DDA863" offset="100%"></stop>
        </linearGradient>
    </defs>
    <g id="最新" stroke="none" stroke-width="1" fill="none" fill-rule="evenodd">
        <g id="等级说明修改" transform="translate(-565.000000, -622.000000)" fill="url(#linearGradient-1)" fill-rule="nonzero">
            <g id="编组-18" transform="translate(220.000000, 511.000000)">
                <g id="编组-17">
                    <g id="编组-7" transform="translate(345.000000, 107.000000)">
                        <g id="编组-4" transform="translate(0.000000, 3.718505)">
                            <g id="编组-12" transform="translate(0.000000, 0.432869)">
                                <g id="编组-109">
                                    <g id="编组-108">
                                        <g id="采购备份">
                                            <path d="M11.776485,1.48542582 L25.9117554,15.6176694 C26.9757709,16.6846576 26.9757709,18.4248106 25.9117554,19.4875288 C24.8533074,20.5571116 23.1115869,20.5571116 22.041896,19.4875288 L7.90673361,5.36214989 C6.84828556,4.29526973 6.84828556,2.55635989 7.90673361,1.48537175 C8.97361378,0.421410397 10.7209017,0.421410397 11.776485,1.48542582 Z M27.8606576,15.43573 C28.7678679,17.1143717 28.5213904,19.2607803 27.104631,20.6803504 C25.3797207,22.4038553 22.5766874,22.4038553 20.8547499,20.6803504 L15.6128322,15.43573 L3.24733526,15.43573 C1.51674946,15.43573 0.0943146314,16.8567595 0.0943146314,18.5887506 C0.0943146314,20.321931 1.51674946,21.7430685 3.24733526,21.7430685 L4.0033078,21.7430685 L10.4461126,40.6298354 C10.7968287,41.5615659 11.2402862,42.1919172 11.776485,42.5208892 C12.3126838,42.8498617 13.3193911,43.0326247 14.7966068,43.0691786 L34.5401122,43.0691786 C35.7464317,42.9714272 36.5664848,42.7886642 37.0002717,42.5208892 C37.4340585,42.2531146 37.8727255,41.6588627 38.3162728,40.7381334 L44.7958805,21.7430685 L45.1263549,21.7430685 C46.8624001,21.7430685 48.2792134,20.321985 48.2792134,18.5887506 C48.2792134,16.8568135 46.8624001,15.43573 45.1263549,15.43573 L27.8606576,15.43573 Z M11.5525471,23.7312125 L37.0002717,23.7312125 C37.8908338,23.7312125 38.6131861,24.4592942 38.6131861,25.3496402 C38.6131861,26.2402566 37.8907798,26.9681761 37.0002717,26.9681761 L11.5525471,26.9681761 C10.6621471,26.9681761 9.93411945,26.2402566 9.93411945,25.3496402 C9.93411945,24.4592402 10.6621471,23.7312125 11.5525471,23.7312125 Z M15.1087964,36.5671249 L33.6066111,36.5671249 C34.4913898,36.5671249 35.2194174,37.3007199 35.2194174,38.1911197 C35.2194174,39.0815738 34.4913357,39.8096016 33.6066111,39.8096016 L15.1087964,39.8096016 C14.2210989,39.8096016 13.4902606,39.0815738 13.4902606,38.1911197 C13.4902606,37.3007199 14.2210449,36.5671249 15.1087964,36.5671249 Z M13.3306447,30.2499488 L35.5441624,30.2499488 C36.4346706,30.2499488 37.1627522,30.9835438 37.1627522,31.8796193 C37.1627522,32.7700735 36.4346706,33.4925337 35.5441624,33.4925337 L13.3306447,33.4925337 C12.4401365,33.4925337 11.7205411,32.7700196 11.7205411,31.8796193 C11.7205411,30.9835438 12.4401365,30.2499488 13.3306447,30.2499488 Z" id="形状"></path>
                                        </g>
                                    </g>
                                </g>
                            </g>
                        </g>
                    </g>
                </g>
            </g>
        </g>
    </g>
</svg>