<?xml version="1.0" encoding="UTF-8"?>
<svg width="24px" height="24px" viewBox="0 0 24 24" version="1.1" xmlns="http://www.w3.org/2000/svg" xmlns:xlink="http://www.w3.org/1999/xlink">
    <!-- Generator: Sketch 63.1 (92452) - https://sketch.com -->
    <title>右滑</title>
    <desc>Created with Sketch.</desc>
    <g id="最新" stroke="none" stroke-width="1" fill="none" fill-rule="evenodd">
        <g id="等级说明其他" transform="translate(-1234.000000, -412.000000)" fill="#DDA863">
            <g id="编组-18备份" transform="translate(220.000000, 187.000000)">
                <g id="编组-20" transform="translate(1014.000000, 225.000000)">
                    <g id="右滑" transform="translate(12.000000, 12.000000) scale(-1, 1) translate(-12.000000, -12.000000) ">
                        <path d="M12.000014,0 L12.0000134,0 C5.37258385,0 -5.24536548e-07,5.37258438 -5.24536548e-07,12.000014 C-5.24536548e-07,18.6274436 5.37258385,24.0000279 12.0000134,24.0000279 C18.627443,24.0000279 24.0000274,18.6274436 24.0000274,12.000014 L24.0000274,12.000014 C24.0000274,5.37258438 18.627443,0 12.0000134,0 L12.000014,0 Z M15.1800177,16.7700195 L15.1800177,16.7700196 C15.4741095,17.0641113 15.4741095,17.5409291 15.1800176,17.8350208 C14.8859259,18.1291126 14.4091081,18.1291126 14.1150164,17.8350207 L8.82001021,12.5250145 L8.82001023,12.5250145 C8.52591848,12.2333251 8.52397082,11.7584551 8.81566144,11.464361 C8.81710507,11.4629054 8.81855466,11.4614559 8.82001018,11.4600122 L14.1150163,6.16500606 L14.1150163,6.16500606 C14.4091081,5.87091432 14.8859258,5.87091432 15.1800176,6.16500606 C15.4741093,6.45909781 15.4741093,6.93591555 15.1800176,7.2300073 L10.410012,12.0000128 L15.1800177,16.7700195 Z" id="形状"></path>
                    </g>
                </g>
            </g>
        </g>
    </g>
</svg>