<?xml version="1.0" encoding="UTF-8"?>
<svg width="273px" height="80px" viewBox="0 0 273 80" version="1.1" xmlns="http://www.w3.org/2000/svg" xmlns:xlink="http://www.w3.org/1999/xlink">
    <title>cj(273*80)</title>
    <defs>
        <filter id="filter-1">
            <feColorMatrix in="SourceGraphic" type="matrix" values="0 0 0 0 0.200000 0 0 0 0 0.200000 0 0 0 0 0.200000 0 0 0 1.000000 0"></feColorMatrix>
        </filter>
    </defs>
    <g id="页面-1" stroke="none" stroke-width="1" fill="none" fill-rule="evenodd">
        <g id="合作商切图" transform="translate(-913.000000, -702.000000)">
            <g id="编组-7" transform="translate(913.000000, 702.000000)">
                <rect id="矩形备份-24" fill="#FFFFFF" x="0" y="0" width="273" height="80" rx="15"></rect>
                <g id="公司官网新logo备份" transform="translate(9.000000, 15.000000)">
                    <g id="Dropshipping.com" transform="translate(76.095238, 6.850746)" fill="#08ACEB" fill-rule="nonzero">
                        <path d="M4.42007197,1.0961194 C5.84938673,0.913432836 7.18936932,0.730746269 8.61868407,0.730746269 C15.4972614,0.730746269 15.7652579,5.11522388 14.8719361,8.86029851 L14.8719361,8.86029851 C14.2466109,11.5092537 12.8172962,13.7928358 10.7626562,15.5283582 C8.70801625,17.081194 6.11738325,17.8119403 3.52675025,17.720597 C2.36543201,17.720597 1.20411376,17.6292537 0.042795522,17.5379104 L4.42007197,1.0961194 Z M3.08008938,15.6197015 C3.61608242,15.7110448 4.15207545,15.7110448 4.68806849,15.7110448 C8.35068756,15.7110448 11.1199849,13.518806 12.2813031,8.95164179 C13.3532892,4.84119403 11.8346423,2.74029851 8.35068756,2.74029851 C7.72536235,2.74029851 7.01070497,2.83164179 6.38537976,2.92298507 L3.08008938,15.6197015 Z" id="形状"></path>
                        <path d="M23.3584925,7.85552239 C23.090496,7.7641791 22.9118317,7.7641791 22.6438351,7.7641791 C21.035856,7.7641791 19.6065413,9.13432836 19.0705482,11.2352239 L17.373237,17.6292537 L14.8719361,17.6292537 L17.1052405,9.22567164 C17.4625691,7.85552239 17.7305657,6.6680597 17.9985622,5.5719403 L20.1425343,5.5719403 L19.6065413,7.7641791 L19.7852056,7.7641791 C20.499863,6.39402985 21.9291778,5.48059701 23.4478247,5.38925373 C23.626489,5.38925373 23.8051534,5.38925373 24.0731499,5.48059701 L23.3584925,7.85552239 Z" id="路径"></path>
                        <path d="M34.3463497,11.5092537 C33.1850315,15.9850746 29.8797411,17.9032836 27.1997759,17.9032836 C24.1624821,17.9032836 22.4651708,15.6197015 23.4478247,11.6919403 C24.5198108,7.58149254 27.5571046,5.29791045 30.5943985,5.29791045 C33.6316924,5.29791045 35.3290036,7.85552239 34.3463497,11.5092537 Z M30.1477376,7.2161194 C28.0037655,7.2161194 26.6637829,9.49970149 26.1277899,11.600597 C25.5024647,13.9755224 26.0384577,15.9850746 27.9144333,15.9850746 C29.7904089,15.9850746 31.3090559,13.9755224 31.9343811,11.600597 C32.3810419,9.59104478 32.2023776,7.2161194 30.1477376,7.2161194 Z" id="形状_1_"></path>
                        <path d="M40.1529409,7.39880597 C41.224927,6.12 42.7435739,5.29791045 44.4408852,5.29791045 C47.0315182,5.29791045 48.3715008,7.67283582 47.3888469,11.4179104 C46.2275287,15.8023881 43.1902348,17.8119403 40.7782661,17.8119403 C39.6169479,17.9032836 38.5449618,17.2638806 38.098301,16.1677612 L38.0089688,16.1677612 L36.4009897,22.4704478 L33.8996889,22.4704478 L37.2943114,9.40835821 C37.7409723,7.85552239 38.0089688,6.57671642 38.1876331,5.48059701 L40.3316053,5.48059701 L40.1529409,7.39880597 L40.1529409,7.39880597 Z M38.9916227,12.7880597 C38.4556297,14.9802985 39.6169479,15.8937313 40.8675983,15.8937313 C42.7435739,15.8937313 44.2622209,14.0668657 44.9768783,11.600597 C45.6022035,9.31701493 45.0662104,7.39880597 43.1902348,7.39880597 C41.4929235,7.58149254 40.0636088,8.86029851 39.6169479,10.5958209 L38.9916227,12.7880597 Z" id="形状_2_"></path>
                        <path d="M56.5900607,7.85552239 C55.9647355,7.39880597 55.2500781,7.2161194 54.5354207,7.2161194 C53.5527668,7.12477612 52.7487773,7.7641791 52.4807807,8.67761194 C52.3021164,9.49970149 52.6594451,9.95641791 53.9100955,10.5958209 C55.6074068,11.4179104 56.3220642,12.5140299 55.8754033,14.2495522 C55.2500781,16.5331343 53.1954381,17.9032836 50.5154729,17.9032836 C49.4434869,17.9032836 48.460833,17.6292537 47.5675113,17.081194 L48.6394973,15.1629851 C49.3541547,15.7110448 50.2474764,15.9850746 51.1407982,15.9850746 C52.2127842,16.0764179 53.1954381,15.4370149 53.5527668,14.4322388 C53.8207633,13.518806 53.4634346,12.9707463 52.2127842,12.4226866 C50.3368086,11.600597 49.8008156,10.4131343 50.1581443,8.95164179 C50.7834695,6.75940299 52.8381094,5.20656716 55.1607459,5.29791045 C56.0540676,5.29791045 56.9473894,5.48059701 57.7513789,6.02865672 L56.5900607,7.85552239 Z" id="路径_1_"></path>
                        <path d="M66.9525927,17.6292537 L64.4512918,17.6292537 L66.3272675,10.5958209 C66.7739283,8.86029851 66.595264,7.39880597 64.8979527,7.39880597 C63.3793058,7.58149254 62.0393232,8.67761194 61.6819945,10.2304478 L59.7166867,17.6292537 L57.2153859,17.6292537 L61.7713267,0.0913432836 L64.4512918,0.0913432836 L62.5753162,7.2161194 L62.5753162,7.2161194 C63.5579701,6.02865672 64.8979527,5.38925373 66.4165996,5.29791045 C68.2032431,5.29791045 69.9005544,6.48537313 68.9179005,10.321791 L66.9525927,17.6292537 Z" id="路径_2_"></path>
                        <path d="M72.5805195,17.6292537 L70.0792187,17.6292537 L73.2058447,5.5719403 L75.7071456,5.5719403 L72.5805195,17.6292537 Z M74.9924882,3.74507463 C74.6351595,3.74507463 74.2778308,3.65373134 74.0991665,3.28835821 C73.9205021,3.01432836 73.8311699,2.55761194 74.0098343,2.28358209 C74.1884986,1.46149254 74.903156,0.822089552 75.7964777,0.822089552 C76.6897995,0.822089552 77.0471282,1.46149254 76.8684638,2.28358209 C76.5111351,3.10567164 75.7964777,3.65373134 74.9924882,3.74507463 L74.9924882,3.74507463 Z" id="形状_3_"></path>
                        <path d="M80.6204151,7.39880597 C81.6924011,6.12 83.2110481,5.29791045 84.9083593,5.29791045 C87.4989923,5.29791045 88.8389749,7.67283582 87.856321,11.4179104 C86.6950028,15.8023881 83.6577089,17.8119403 81.2457403,17.8119403 C80.084422,17.9032836 79.0124359,17.2638806 78.5657751,16.1677612 L78.4764429,16.1677612 L76.8684638,22.4704478 L74.367163,22.4704478 L77.8511177,9.49970149 C78.2977786,7.94686567 78.5657751,6.6680597 78.7444394,5.5719403 L80.8884116,5.5719403 L80.6204151,7.39880597 L80.6204151,7.39880597 Z M79.4590968,12.7880597 C78.9231038,14.9802985 80.084422,15.8937313 81.3350724,15.8937313 C83.2110481,15.8937313 84.729695,14.0668657 85.4443524,11.600597 C86.0696776,9.31701493 85.5336845,7.39880597 83.6577089,7.39880597 C81.9603976,7.58149254 80.5310829,8.86029851 80.084422,10.5958209 L79.4590968,12.7880597 Z" id="形状_4_"></path>
                        <path d="M93.5735801,7.39880597 C94.6455661,6.12 96.1642131,5.29791045 97.8615243,5.29791045 C100.452157,5.29791045 101.79214,7.67283582 100.809486,11.4179104 C99.6481678,15.8023881 96.6108739,17.8119403 94.1989053,17.8119403 C93.037587,17.9032836 91.9656009,17.2638806 91.5189401,16.1677612 L91.5189401,16.1677612 L89.910961,22.4704478 L87.4096602,22.4704478 L90.8042827,9.40835821 C91.2509436,7.85552239 91.5189401,6.57671642 91.6976044,5.48059701 L93.8415766,5.48059701 L93.5735801,7.39880597 L93.5735801,7.39880597 Z M92.4122618,12.7880597 C91.8762688,14.9802985 93.037587,15.8937313 94.2882374,15.8937313 C96.1642131,15.8937313 97.68286,14.0668657 98.3975174,11.600597 C99.0228426,9.31701493 98.4868495,7.39880597 96.6108739,7.39880597 C94.9135626,7.58149254 93.4842479,8.86029851 93.037587,10.5958209 L92.4122618,12.7880597 Z" id="形状_5_"></path>
                        <path d="M104.114776,17.6292537 L101.613476,17.6292537 L104.829434,5.5719403 L107.330735,5.5719403 L104.114776,17.6292537 Z M106.526745,3.74507463 C106.169416,3.74507463 105.812088,3.65373134 105.633423,3.28835821 C105.454759,3.01432836 105.365427,2.55761194 105.544091,2.28358209 C105.722756,1.37014925 106.526745,0.822089552 107.420067,0.822089552 C108.224056,0.822089552 108.670717,1.46149254 108.492053,2.28358209 C108.134724,3.10567164 107.420067,3.74507463 106.526745,3.74507463 L106.526745,3.74507463 Z" id="形状_6_"></path>
                        <path d="M116.889277,17.6292537 L114.387976,17.6292537 L116.263952,10.5958209 C116.710613,8.86029851 116.531948,7.49014925 114.834637,7.49014925 C113.226658,7.67283582 111.886675,8.86029851 111.529347,10.4131343 L109.653371,17.720597 L107.241402,17.720597 L109.474707,9.04298507 C109.832035,7.67283582 110.0107,6.6680597 110.278696,5.66328358 L112.422668,5.66328358 L112.06534,7.49014925 L112.154672,7.49014925 C113.137326,6.21134328 114.655973,5.38925373 116.263952,5.38925373 C118.050595,5.38925373 119.837239,6.57671642 118.854585,10.321791 L116.889277,17.6292537 Z" id="路径_3_"></path>
                        <path d="M132.879736,5.5719403 C132.611739,6.39402985 132.254411,7.39880597 131.897082,9.04298507 L130.110439,15.8937313 C129.485113,18.2686567 128.145131,22.7444776 122.606536,22.7444776 C121.355886,22.7444776 120.194567,22.4704478 119.122581,21.8310448 L120.194567,19.8214925 C121.087889,20.3695522 122.070543,20.7349254 123.142529,20.6435821 C125.018505,20.6435821 126.715816,19.5474627 127.430473,16.8071642 L127.69847,15.6197015 L127.69847,15.6197015 C126.805148,16.7158209 125.375833,17.3552239 123.946519,17.3552239 C121.177221,17.3552239 120.015903,14.7976119 120.819893,11.5092537 C121.891879,7.39880597 124.83984,5.11522388 127.430473,5.11522388 C129.127785,5.11522388 129.931774,6.02865672 130.110439,7.03343284 L130.110439,7.03343284 L130.646432,5.38925373 L132.879736,5.5719403 Z M129.127785,10.2304478 C129.574446,8.67761194 128.859788,7.30746269 127.341141,7.30746269 C125.64383,7.30746269 124.035851,8.95164179 123.321193,11.600597 C122.695868,13.9755224 123.321193,15.6197015 125.107837,15.6197015 C126.715816,15.5283582 128.145131,14.2495522 128.413127,12.6053731 L129.127785,10.2304478 Z" id="形状_7_"></path>
                        <path d="M132.790404,16.1677612 C133.0584,15.1629851 133.86239,14.4322388 134.845044,14.4322388 C135.738365,14.4322388 136.274358,15.1629851 135.91703,16.1677612 C135.738365,17.1725373 134.845044,17.9032836 133.86239,17.9032836 C132.969068,17.9032836 132.522407,17.081194 132.790404,16.1677612 Z" id="路径_4_"></path>
                        <path d="M145.922233,17.2638806 C144.939579,17.6292537 143.867593,17.9032836 142.706275,17.9032836 C139.311652,17.9032836 137.793005,15.5283582 138.775659,11.7832836 C139.579649,8.12955224 142.795607,5.48059701 146.458226,5.38925373 C147.351548,5.38925373 148.155537,5.5719403 148.959527,5.93731343 L147.976873,7.85552239 C147.351548,7.49014925 146.63689,7.30746269 145.922233,7.30746269 C143.599597,7.30746269 141.812953,9.22567164 141.27696,11.600597 C140.562303,14.2495522 141.723621,15.8023881 143.688929,15.8023881 C144.492918,15.8023881 145.296908,15.6197015 146.011565,15.3456716 L145.922233,17.2638806 Z" id="路径_5_"></path>
                        <path d="M159.679388,11.5092537 C158.518069,15.9850746 155.123447,17.9032836 152.532814,17.9032836 C149.49552,17.9032836 147.798209,15.6197015 148.780863,11.6919403 C149.852849,7.58149254 152.890143,5.29791045 155.927436,5.29791045 C159.054062,5.29791045 160.662042,7.85552239 159.679388,11.5092537 Z M155.391443,7.2161194 C153.336803,7.2161194 151.907489,9.49970149 151.371496,11.600597 C150.74617,13.9755224 151.282163,15.9850746 153.158139,15.9850746 C155.034115,15.9850746 156.552762,13.9755224 157.178087,11.600597 C157.624748,9.59104478 157.446083,7.2161194 155.391443,7.2161194 Z" id="形状_8_"></path>
                        <path d="M176.473836,17.6292537 L174.061867,17.6292537 L175.848511,10.7785075 C176.384504,8.76895522 176.116507,7.39880597 174.59786,7.39880597 C173.079214,7.58149254 171.917895,8.67761194 171.649899,10.2304478 L169.684591,17.6292537 L167.272622,17.6292537 L169.148598,10.4131343 C169.595259,8.76895522 169.327262,7.39880597 167.897948,7.39880597 C166.379301,7.58149254 165.12865,8.76895522 164.771321,10.321791 L162.895346,17.6292537 L160.483377,17.6292537 L162.806014,8.95164179 C163.163342,7.58149254 163.342007,6.57671642 163.610003,5.5719403 L165.753975,5.5719403 L165.396647,7.30746269 L165.485979,7.30746269 C166.468633,6.02865672 167.897948,5.29791045 169.416594,5.29791045 C170.04192,5.20656716 170.667245,5.48059701 171.113906,5.84597015 C171.560567,6.30268657 171.917895,6.85074627 171.917895,7.49014925 L172.007227,7.49014925 C172.989881,6.12 174.59786,5.29791045 176.20584,5.29791045 C177.903151,5.29791045 179.51113,6.48537313 178.528476,10.321791 L176.473836,17.6292537 Z" id="路径_6_"></path>
                    </g>
                    <g filter="url(#filter-1)" id="You_sell_-_We_source_and_ship_for_you_">
                        <g transform="translate(76.856432, 34.253731)">
                            <path d="M6.53402835,0.52196162 L2.68521713,5.30660981 L1.70063752,8.78635394 L0.447536188,8.78635394 L1.4321158,5.30660981 L0.358028951,0.52196162 L1.79014475,0.52196162 L2.1481737,2.69680171 C2.23768094,3.30575693 2.32718818,3.82771855 2.41669542,4.43667377 L2.41669542,4.43667377 C2.77472437,3.91471215 3.13275332,3.30575693 3.58028951,2.69680171 L5.10191255,0.52196162 L6.53402835,0.52196162 Z" id="路径_7_" fill="#FFFFFF" fill-rule="nonzero"></path>
                            <path d="M10.919883,5.82857143 C10.2933323,8.09040512 8.59269482,8.96034115 7.33959349,8.96034115 C5.81797045,8.96034115 5.01240531,7.82942431 5.54944874,5.91556503 C6.08649216,4.00170576 7.6081152,2.78379531 9.21924548,2.78379531 C10.8303758,2.78379531 11.4569264,4.00170576 10.919883,5.82857143 Z M8.77170929,3.65373134 C7.69762244,3.65373134 6.98156454,4.78464819 6.71304283,5.82857143 C6.35501388,6.95948827 6.62353559,8.00341151 7.6081152,8.00341151 C8.59269482,8.00341151 9.30875272,7.04648188 9.66678167,5.82857143 C9.93530338,4.87164179 9.84579614,3.65373134 8.77170929,3.65373134 Z" id="形状_9_" fill="#FFFFFF" fill-rule="nonzero"></path>
                            <path d="M16.558839,7.13347548 C16.3798245,7.82942431 16.2903173,8.35138593 16.1113028,8.87334755 L15.0372159,8.87334755 L15.2162304,8.00341151 L15.2162304,8.00341151 C14.679187,8.61236674 13.9631291,8.96034115 13.1575639,8.96034115 C12.1729843,8.96034115 11.4569264,8.35138593 11.9939698,6.43752665 L12.9785495,2.87078891 L14.2316508,2.87078891 L13.3365784,6.17654584 C13.0680567,7.22046908 13.1575639,7.91641791 13.9631291,7.91641791 C14.7686942,7.82942431 15.3952449,7.30746269 15.5742594,6.52452026 L16.558839,2.87078891 L17.8119403,2.87078891 L16.558839,7.13347548 Z" id="路径_8_" fill="#FFFFFF" fill-rule="nonzero"></path>
                            <path d="M24.2564614,4.00170576 C23.9879397,3.82771855 23.6299107,3.65373134 23.2718818,3.65373134 C22.8243456,3.65373134 22.3768094,3.91471215 22.1977949,4.34968017 C22.1082877,4.78464819 22.2873022,4.95863539 22.9138528,5.30660981 C23.2718818,5.39360341 23.6299107,5.65458422 23.8089252,6.00255864 C23.9879397,6.35053305 23.9879397,6.78550107 23.8984325,7.13347548 C23.5404035,8.26439232 22.4663167,9.04733475 21.2132153,8.96034115 C20.6761719,8.96034115 20.1391285,8.87334755 19.7810995,8.52537313 L20.318143,7.5684435 C20.6761719,7.82942431 21.1237081,8.00341151 21.5712443,8.00341151 C22.1082877,8.09040512 22.6453311,7.7424307 22.7348384,7.22046908 C22.8243456,6.78550107 22.6453311,6.52452026 22.0187805,6.17654584 C21.1237081,5.74157783 20.7656791,5.1326226 21.0342009,4.43667377 C21.3922298,3.39275053 22.3768094,2.6098081 23.5404035,2.6098081 C23.9879397,2.6098081 24.4354759,2.69680171 24.7935048,2.95778252 L24.2564614,4.00170576 Z" id="路径_9_" fill="#FFFFFF" fill-rule="nonzero"></path>
                            <path d="M28.9108378,8.61236674 C28.2842871,8.87334755 27.6577364,8.96034115 26.9416785,8.96034115 C25.1515338,8.96034115 24.5249831,7.7424307 24.9725193,5.91556503 C25.5095627,4.08869936 26.8521713,2.69680171 28.4633016,2.69680171 C30.0744319,2.69680171 30.3429536,4.08869936 29.9849246,5.56759062 C29.8954174,5.74157783 29.8954174,5.91556503 29.8059101,6.08955224 L26.1361134,6.08955224 C25.7780845,7.39445629 26.4941424,7.91641791 27.3892147,7.91641791 C27.9262582,7.91641791 28.4633016,7.82942431 28.9108378,7.6554371 L28.9108378,8.61236674 Z M29.000345,5.2196162 C29.1793595,4.52366738 29.1793595,3.65373134 28.1947799,3.65373134 C27.2102003,3.65373134 26.6731568,4.52366738 26.4046351,5.2196162 L29.000345,5.2196162 Z" id="形状_10_" fill="#FFFFFF" fill-rule="nonzero"></path>
                            <polygon id="路径_10_" fill="#FFFFFF" fill-rule="nonzero" points="31.5960549 8.87334755 30.3429536 8.87334755 32.759649 0.173987207 34.0127503 0.173987207"></polygon>
                            <polygon id="路径_11_" fill="#FFFFFF" fill-rule="nonzero" points="34.3707793 8.87334755 33.1176779 8.87334755 35.5343734 0.173987207 36.7874747 0.173987207"></polygon>
                            <polygon id="路径_12_" fill="#FFFFFF" fill-rule="nonzero" points="38.9356484 5.1326226 41.8893872 5.1326226 41.6208655 6.00255864 38.6671267 6.00255864"></polygon>
                            <path d="M55.4944874,0.52196162 L51.1086327,8.78635394 L49.8555314,8.78635394 L50.0345459,4.78464819 C50.0345459,3.91471215 50.1240531,2.95778252 50.3030676,2.08784648 L50.3030676,2.08784648 C49.9450386,2.95778252 49.4975024,3.82771855 48.960459,4.78464819 L46.9017925,8.78635394 L45.6486912,8.78635394 L46.0067202,0.52196162 L47.3493287,0.52196162 L47.080807,4.43667377 C46.9912998,5.48059701 46.9017925,6.43752665 46.8122853,7.30746269 L46.8122853,7.30746269 C47.1703143,6.43752665 47.7073577,5.48059701 48.2444011,4.34968017 L50.2135603,0.434968017 L51.4666617,0.434968017 L51.19814,4.34968017 C51.1086327,5.30660981 51.0191255,6.26353945 50.9296182,7.22046908 L50.9296182,7.22046908 C51.3771544,6.26353945 51.8246906,5.30660981 52.2722268,4.26268657 L54.241386,0.347974414 L55.4944874,0.347974414 L55.4944874,0.52196162 Z" id="路径_13_" fill="#FFFFFF" fill-rule="nonzero"></path>
                            <path d="M58.4482262,8.61236674 C57.8216755,8.87334755 57.1951249,8.96034115 56.479067,8.96034115 C54.6889222,8.96034115 54.0623716,7.7424307 54.5099077,5.91556503 C54.9574439,4.08869936 56.3895597,2.69680171 58.00069,2.69680171 C59.7013275,2.69680171 59.880342,4.08869936 59.5223131,5.56759062 C59.4328058,5.74157783 59.4328058,5.91556503 59.3432986,6.08955224 L55.6735018,6.08955224 C55.3154729,7.39445629 56.0315308,7.91641791 56.9266032,7.91641791 C57.4636466,7.91641791 58.00069,7.82942431 58.4482262,7.6554371 L58.4482262,8.61236674 Z M58.5377334,5.2196162 C58.7167479,4.52366738 58.7167479,3.65373134 57.7321683,3.65373134 C56.7475887,3.65373134 56.2105453,4.52366738 55.9420236,5.2196162 L58.5377334,5.2196162 Z" id="形状_11_" fill="#FFFFFF" fill-rule="nonzero"></path>
                            <path d="M66.5038776,4.00170576 C66.2353559,3.74072495 65.8773269,3.65373134 65.519298,3.65373134 C65.0717618,3.65373134 64.6242256,3.91471215 64.4452111,4.34968017 C64.3557039,4.78464819 64.5347184,4.95863539 65.161269,5.30660981 C65.519298,5.39360341 65.8773269,5.65458422 66.0563414,6.00255864 C66.2353559,6.35053305 66.2353559,6.69850746 66.1458486,7.13347548 C65.7878197,8.26439232 64.7137328,9.04733475 63.4606315,8.96034115 C62.9235881,8.96034115 62.3865447,8.87334755 61.9390085,8.52537313 L62.4760519,7.5684435 C62.8340809,7.82942431 63.281617,8.00341151 63.7291532,8.00341151 C64.2661967,8.09040512 64.8032401,7.7424307 64.8927473,7.22046908 C64.9822546,6.78550107 64.8032401,6.52452026 64.2661967,6.17654584 C63.3711243,5.74157783 63.0130953,5.1326226 63.281617,4.43667377 C63.5501388,3.39275053 64.6242256,2.6098081 65.7878197,2.69680171 C66.2353559,2.69680171 66.6828921,2.78379531 67.040921,3.04477612 L66.5038776,4.00170576 Z" id="路径_14_" fill="#FFFFFF" fill-rule="nonzero"></path>
                            <path d="M72.679877,5.82857143 C72.0533263,8.09040512 70.3526888,8.96034115 69.0995875,8.96034115 C67.5779644,8.96034115 66.7723993,7.82942431 67.3094427,5.91556503 C67.8464862,4.00170576 69.3681092,2.78379531 70.9792395,2.78379531 C72.5008625,2.69680171 73.2169204,4.00170576 72.679877,5.82857143 Z M70.6212105,3.65373134 C69.5471237,3.65373134 68.8310658,4.78464819 68.5625441,5.82857143 C68.2045151,6.95948827 68.4730368,8.00341151 69.4576164,8.00341151 C70.4421961,8.00341151 71.158254,7.04648188 71.5162829,5.82857143 C71.6952974,4.87164179 71.6057901,3.65373134 70.6212105,3.65373134 Z" id="形状_12_" fill="#FFFFFF" fill-rule="nonzero"></path>
                            <path d="M78.318833,7.13347548 C78.1398185,7.82942431 78.0503113,8.35138593 77.8712968,8.87334755 L76.7972099,8.87334755 L76.9762244,8.00341151 L76.9762244,8.00341151 C76.439181,8.61236674 75.7231231,8.96034115 74.9175579,8.96034115 C73.9329783,8.96034115 73.2169204,8.35138593 73.7539638,6.43752665 L74.7385435,2.87078891 L75.9916448,2.87078891 L75.0965724,6.17654584 C74.8280507,7.22046908 74.9175579,7.91641791 75.7231231,7.91641791 C76.5286882,7.82942431 77.1552389,7.30746269 77.3342534,6.52452026 L78.318833,2.87078891 L79.5719343,2.87078891 L78.318833,7.13347548 Z" id="路径_15_" fill="#FFFFFF" fill-rule="nonzero"></path>
                            <path d="M83.6892672,4.00170576 C83.59976,4.00170576 83.4207455,4.00170576 83.3312383,4.00170576 C82.5256731,4.00170576 81.8096152,4.69765458 81.5410935,5.74157783 L80.6460212,8.87334755 L79.3929198,8.87334755 L80.5565139,4.69765458 C80.7355284,4.00170576 80.9145429,3.39275053 81.0040501,2.87078891 L82.078137,2.87078891 L81.8096152,4.00170576 L81.8991225,4.00170576 C82.2571514,3.30575693 82.9732093,2.87078891 83.7787745,2.78379531 C83.8682817,2.78379531 83.9577889,2.78379531 84.0472962,2.78379531 L83.6892672,4.00170576 Z" id="路径_16_" fill="#FFFFFF" fill-rule="nonzero"></path>
                            <path d="M87.2695567,8.69936034 C86.7325133,8.87334755 86.1954699,8.96034115 85.6584265,9.04733475 C83.9577889,9.04733475 83.1522238,7.82942431 83.6892672,6.00255864 C84.0472962,4.17569296 85.6584265,2.87078891 87.6275857,2.78379531 C88.0751219,2.78379531 88.4331508,2.87078891 88.880687,3.04477612 L88.3436436,4.00170576 C88.0751219,3.82771855 87.7170929,3.74072495 87.359064,3.74072495 C86.1954699,3.82771855 85.2108903,4.69765458 85.0318758,5.82857143 C84.6738468,7.13347548 85.2108903,7.91641791 86.1954699,7.91641791 C86.6430061,7.91641791 87.001035,7.82942431 87.359064,7.6554371 L87.2695567,8.69936034 Z" id="路径_17_" fill="#FFFFFF" fill-rule="nonzero"></path>
                            <path d="M92.7294982,8.61236674 C92.1029476,8.87334755 91.4763969,8.96034115 90.760339,8.96034115 C88.9701943,8.96034115 88.3436436,7.7424307 88.7911798,5.91556503 C89.238716,4.08869936 90.6708318,2.69680171 92.281962,2.69680171 C93.9825996,2.69680171 94.161614,4.08869936 93.8035851,5.56759062 C93.7140779,5.74157783 93.7140779,5.91556503 93.6245706,6.08955224 L89.9547739,6.08955224 C89.5967449,7.39445629 90.3128028,7.91641791 91.2078752,7.91641791 C91.7449186,7.91641791 92.281962,7.82942431 92.7294982,7.6554371 L92.7294982,8.61236674 Z M92.7294982,5.2196162 C92.9085127,4.52366738 92.9085127,3.65373134 91.9239331,3.65373134 C90.9393535,3.65373134 90.4023101,4.52366738 90.1337883,5.2196162 L92.7294982,5.2196162 Z" id="形状_13_" fill="#FFFFFF" fill-rule="nonzero"></path>
                            <path d="M100.964164,7.39445629 C100.78515,7.82942431 100.695642,8.35138593 100.695642,8.78635394 L99.6215555,8.78635394 L99.7110628,8.09040512 L99.7110628,8.09040512 C99.2635266,8.61236674 98.5474687,8.87334755 97.8314108,8.87334755 C96.7573239,8.87334755 96.3097877,8.09040512 96.5783095,7.13347548 C97.0258456,5.65458422 98.4579614,4.87164179 100.427121,4.87164179 C100.516628,4.43667377 100.78515,3.56673774 99.6215555,3.56673774 C99.0845121,3.56673774 98.5474687,3.74072495 98.0999325,4.00170576 L98.0999325,3.13176972 C98.7264832,2.78379531 99.4425411,2.6098081 100.158599,2.6098081 C101.859236,2.6098081 102.038251,3.74072495 101.680222,5.045629 L100.964164,7.39445629 Z M100.248106,5.82857143 C99.2635266,5.82857143 98.0999325,6.00255864 97.8314108,7.04648188 C97.6523963,7.7424307 98.0104253,8.00341151 98.4579614,8.00341151 C99.1740194,8.00341151 99.80057,7.48144989 99.9795845,6.78550107 L100.248106,5.82857143 Z" id="形状_14_" fill="#FFFFFF" fill-rule="nonzero"></path>
                            <path d="M106.961149,8.87334755 L105.708048,8.87334755 L106.692627,5.39360341 C106.961149,4.52366738 106.871642,3.82771855 105.976569,3.82771855 C105.171004,3.91471215 104.544454,4.43667377 104.365439,5.2196162 L103.38086,8.78635394 L102.127758,8.78635394 L103.291352,4.52366738 C103.470367,3.82771855 103.559874,3.39275053 103.738888,2.87078891 L104.812975,2.87078891 L104.633961,3.74072495 L104.633961,3.74072495 C105.171004,3.13176972 105.887062,2.78379531 106.692627,2.69680171 C107.5877,2.69680171 108.482772,3.30575693 107.945729,5.1326226 L106.961149,8.87334755 Z" id="路径_18_" fill="#FFFFFF" fill-rule="nonzero"></path>
                            <path d="M113.853206,7.22046908 C113.674192,7.7424307 113.584685,8.43837953 113.495177,8.78635394 L112.421091,8.78635394 L112.600105,7.82942431 L112.600105,7.82942431 C112.152569,8.43837953 111.347004,8.87334755 110.541439,8.87334755 C109.19883,8.87334755 108.572279,7.6554371 109.019815,5.82857143 C109.556859,3.82771855 110.988975,2.69680171 112.331583,2.69680171 C112.958134,2.6098081 113.495177,2.95778252 113.674192,3.47974414 L113.674192,3.47974414 L114.569264,0.0869936034 L115.822366,0.0869936034 L113.853206,7.22046908 Z M113.137148,5.30660981 C113.40567,4.34968017 112.958134,3.74072495 112.242076,3.74072495 C111.347004,3.74072495 110.541439,4.69765458 110.18341,5.82857143 C109.825381,7.04648188 110.093902,7.91641791 111.078482,7.91641791 C111.973554,7.82942431 112.689612,7.22046908 112.868627,6.35053305 L113.137148,5.30660981 Z" id="形状_15_" fill="#FFFFFF" fill-rule="nonzero"></path>
                            <path d="M121.550829,4.00170576 C121.282307,3.74072495 120.924278,3.65373134 120.566249,3.65373134 C120.118713,3.65373134 119.671177,3.91471215 119.492162,4.34968017 C119.402655,4.78464819 119.58167,4.95863539 120.20822,5.30660981 C120.566249,5.39360341 120.924278,5.65458422 121.103293,6.00255864 C121.282307,6.35053305 121.282307,6.78550107 121.1928,7.13347548 C120.834771,8.26439232 119.760684,9.04733475 118.507583,8.96034115 C117.970539,8.96034115 117.433496,8.87334755 117.075467,8.52537313 L117.61251,7.5684435 C117.970539,7.82942431 118.418075,8.00341151 118.865612,8.00341151 C119.402655,8.09040512 119.939698,7.7424307 120.029206,7.22046908 C120.118713,6.78550107 119.939698,6.52452026 119.402655,6.17654584 C118.507583,5.74157783 118.149554,5.1326226 118.418075,4.43667377 C118.776104,3.39275053 119.850191,2.6098081 121.013785,2.69680171 C121.461322,2.69680171 121.908858,2.78379531 122.266887,3.04477612 L121.550829,4.00170576 Z" id="路径_19_" fill="#FFFFFF" fill-rule="nonzero"></path>
                            <path d="M126.742249,8.87334755 L125.489147,8.87334755 L126.473727,5.39360341 C126.742249,4.52366738 126.652741,3.82771855 125.757669,3.82771855 C124.952104,3.91471215 124.325553,4.52366738 124.146539,5.30660981 L123.161959,8.96034115 L121.908858,8.96034115 L124.325553,0.26098081 L125.578654,0.26098081 L124.594075,3.82771855 L124.594075,3.82771855 C125.041611,3.30575693 125.757669,2.95778252 126.563234,2.87078891 C127.458306,2.87078891 128.263872,3.47974414 127.816335,5.39360341 L126.742249,8.87334755 Z" id="路径_20_" fill="#FFFFFF" fill-rule="nonzero"></path>
                            <path d="M129.516973,8.87334755 L128.263872,8.87334755 L129.875002,2.87078891 L131.128103,2.87078891 L129.516973,8.87334755 Z M130.770074,1.91385928 C130.322538,1.91385928 130.143524,1.56588486 130.233031,1.21791045 C130.322538,0.782942431 130.680567,0.52196162 131.128103,0.52196162 C131.575639,0.52196162 131.754654,0.869936034 131.665147,1.21791045 C131.575639,1.65287846 131.21761,1.91385928 130.770074,1.91385928 L130.770074,1.91385928 Z" id="形状_16_" fill="#FFFFFF" fill-rule="nonzero"></path>
                            <path d="M133.634306,3.74072495 C134.171349,3.13176972 134.976914,2.69680171 135.78248,2.69680171 C137.125088,2.69680171 137.751639,3.91471215 137.214595,5.74157783 C136.588045,7.91641791 135.066422,8.96034115 133.902828,8.96034115 C133.276277,9.04733475 132.739233,8.69936034 132.560219,8.17739872 L132.560219,8.17739872 L131.665147,11.3091684 L130.412045,11.3091684 L132.20219,4.87164179 C132.381205,4.08869936 132.560219,3.47974414 132.739233,2.95778252 L133.81332,2.95778252 L133.634306,3.74072495 L133.634306,3.74072495 Z M133.007755,6.35053305 C132.739233,7.39445629 133.276277,7.91641791 133.902828,7.91641791 C134.887407,7.91641791 135.603465,7.04648188 135.961494,5.74157783 C136.319523,4.43667377 136.051001,3.65373134 135.066422,3.65373134 C134.171349,3.74072495 133.455291,4.43667377 133.276277,5.2196162 L133.007755,6.35053305 Z" id="形状_17_" fill="#FFFFFF" fill-rule="nonzero"></path>
                            <path d="M141.779464,2.87078891 C141.958479,2.00085288 142.406015,1.21791045 143.032566,0.608955224 C143.480102,0.26098081 144.017145,0.0869936034 144.643696,0.0869936034 C144.912218,0.0869936034 145.18074,0.173987207 145.449261,0.26098081 L145.091232,1.21791045 C144.912218,1.13091684 144.733203,1.13091684 144.464682,1.13091684 C143.748624,1.13091684 143.301088,1.82686567 143.032566,2.6098081 L142.943059,2.95778252 L144.19616,2.95778252 L143.927638,3.91471215 L142.674537,3.91471215 L141.242421,8.96034115 L139.98932,8.96034115 L141.421436,3.91471215 L140.61587,3.91471215 L140.884392,2.95778252 L141.779464,2.95778252 L141.779464,2.87078891 Z" id="路径_21_" fill="#FFFFFF" fill-rule="nonzero"></path>
                            <path d="M149.38758,5.82857143 C148.761029,8.09040512 147.060392,8.96034115 145.80729,8.96034115 C144.285667,8.96034115 143.480102,7.82942431 144.017145,5.91556503 C144.554189,4.00170576 146.075812,2.78379531 147.686942,2.78379531 C149.119058,2.69680171 149.835116,4.00170576 149.38758,5.82857143 Z M147.239406,3.65373134 C146.165319,3.65373134 145.449261,4.78464819 145.18074,5.82857143 C144.822711,6.95948827 145.091232,8.00341151 145.986305,8.00341151 C146.881377,8.00341151 147.686942,7.04648188 148.044971,5.82857143 C148.403,4.87164179 148.313493,3.65373134 147.239406,3.65373134 Z" id="形状_18_" fill="#FFFFFF" fill-rule="nonzero"></path>
                            <path d="M154.041956,4.00170576 C153.952449,4.00170576 153.773434,4.00170576 153.683927,4.00170576 C152.878362,4.00170576 152.162304,4.69765458 151.893782,5.74157783 L150.99871,8.87334755 L149.745609,8.87334755 L150.909203,4.69765458 C151.088217,4.00170576 151.267232,3.39275053 151.356739,2.87078891 L152.430826,2.87078891 L152.162304,4.00170576 L152.162304,4.00170576 C152.520333,3.30575693 153.236391,2.87078891 154.041956,2.78379531 C154.131463,2.78379531 154.220971,2.78379531 154.310478,2.78379531 L154.041956,4.00170576 Z" id="路径_22_" fill="#FFFFFF" fill-rule="nonzero"></path>
                            <path d="M162.276622,2.87078891 L159.680912,7.04648188 C158.964854,8.43837953 157.980275,9.74328358 156.727173,10.7872068 C156.279637,11.1351812 155.742594,11.396162 155.116043,11.5701493 L155.116043,10.4392324 C156.100623,10.091258 156.906188,9.48230277 157.353724,8.61236674 C157.353724,8.52537313 157.353724,8.43837953 157.353724,8.35138593 L156.906188,2.87078891 L158.248796,2.87078891 L158.427811,6.26353945 C158.427811,6.61151386 158.427811,7.13347548 158.427811,7.48144989 L158.427811,7.48144989 C158.606825,7.13347548 158.875347,6.69850746 159.054361,6.26353945 L160.934013,2.87078891 L162.276622,2.87078891 Z" id="路径_23_" fill="#FFFFFF" fill-rule="nonzero"></path>
                            <path d="M167.378534,5.82857143 C166.751984,8.09040512 165.051346,8.96034115 163.798245,8.96034115 C162.276622,8.96034115 161.471057,7.82942431 162.0081,5.91556503 C162.545144,4.00170576 164.066767,2.78379531 165.677897,2.78379531 C167.289027,2.78379531 167.915578,4.00170576 167.378534,5.82857143 Z M165.230361,3.65373134 C164.156274,3.65373134 163.440216,4.78464819 163.171694,5.82857143 C162.813665,6.95948827 163.082187,8.00341151 164.066767,8.00341151 C165.051346,8.00341151 165.767404,7.04648188 166.125433,5.82857143 C166.393955,4.87164179 166.304448,3.65373134 165.230361,3.65373134 L165.230361,3.65373134 Z" id="形状_19_" fill="#FFFFFF" fill-rule="nonzero"></path>
                            <path d="M172.927983,7.13347548 C172.748969,7.82942431 172.659461,8.35138593 172.480447,8.87334755 L171.40636,8.87334755 L171.585375,8.00341151 L171.585375,8.00341151 C171.048331,8.61236674 170.332273,8.96034115 169.526708,8.96034115 C168.542129,8.96034115 167.826071,8.35138593 168.363114,6.43752665 L169.347694,2.87078891 L170.600795,2.87078891 L169.705723,6.17654584 C169.437201,7.22046908 169.526708,7.91641791 170.332273,7.91641791 C171.137838,7.82942431 171.764389,7.30746269 171.943404,6.52452026 L172.927983,2.87078891 L174.181085,2.87078891 L172.927983,7.13347548 Z" id="路径_24_" fill="#FFFFFF" fill-rule="nonzero"></path>
                            <path d="M174.091577,8.09040512 C174.181085,7.5684435 174.628621,7.22046908 175.076157,7.22046908 C175.523693,7.22046908 175.792215,7.5684435 175.6132,8.09040512 C175.523693,8.61236674 175.076157,8.96034115 174.628621,8.96034115 C174.181085,8.96034115 174.00207,8.61236674 174.091577,8.09040512 Z M175.881722,6.35053305 L174.897142,6.35053305 L176.239751,0.52196162 L177.58236,0.52196162 L175.881722,6.35053305 Z" id="形状_20_" fill="#FFFFFF" fill-rule="nonzero"></path>
                        </g>
                    </g>
                    <g id="iPhone-8" transform="translate(0.737029, 0.000000)" fill="#FF7700">
                        <path d="M67.3485448,14.2263158 C68.0640672,14.2263158 69.226791,14.3157895 70.8367164,14.3157895 C69.6739925,22.1 67.9746269,28.0052632 65.7386194,32.0315789 C62.608209,38.1157895 60.9982836,40.8894737 57.5995522,44.2 C54.2902612,47.3315789 49.2816045,52.5210526 38.638209,49.6578947 C30.6780224,47.6 29.2469776,39.5473684 30.4097015,35.7894737 C31.5724254,32.0315789 35.4183582,28.5421053 42.6630224,28.5421053 C47.4927985,28.5421053 53.1275373,30.6894737 59.6566791,34.8947368 L59.7461194,35.7 L57.6889925,36.9526316 L56.615709,37.0421053 C50.7126493,32.9263158 44.9884701,30.7789474 39.4431716,30.7789474 C33.7189925,30.9578947 31.6618657,36.1473684 31.9301866,37.6684211 C31.8407463,39.0105263 32.5562687,45.8105263 40.7847761,47.5105263 C46.5089552,48.9421053 50.7126493,47.5105263 55.1846642,44.1105263 C59.2094776,41.3368421 63.1448507,32.8368421 63.3237313,32.3894737 C63.5026119,31.8526316 63.3237313,31.7631579 63.1448507,31.9421053 C62.0715672,33.1052632 60.1933209,33.1052632 59.030597,32.0315789 L58.9411567,31.9421053 C58.4939552,31.2263158 58.4045149,30.2421053 58.7622761,29.4368421 L59.5672388,29.4368421 C60.819403,31.3157895 61.8032463,31.6736842 62.5187687,30.4210526 C63.3237313,29.0789474 61.713806,27.7368421 61.0877239,27.2894737 C59.2989179,25.5894737 58.4939552,23.1736842 58.7622761,20.7578947 C59.030597,17.9842105 60.819403,15.5684211 63.3237313,14.5842105 C64.5758955,14.2263158 66.0069403,14.1368421 67.3485448,14.2263158 L67.3485448,14.2263158 Z M44.2729478,1.25263158 C45.0779104,2.05789474 45.4356716,3.13157895 45.4356716,4.29473684 C45.7934328,4.11578947 46.2406343,4.02631579 46.5983955,4.02631579 C46.7772761,4.02631579 47.045597,4.11578947 47.1350373,4.29473684 C47.3139179,4.47368421 47.4033582,4.74210526 47.4033582,4.92105263 L47.4033582,4.92105263 L47.4033582,5.1 C47.2244776,5.81578947 45.4356716,6.53157895 45.4356716,6.53157895 C45.4356716,6.53157895 43.736306,10.6473684 43.1996642,11.6315789 C42.5735821,13.1526316 38.2804478,18.5210526 35.060597,20.7578947 C31.751306,22.9947368 29.4258582,24.1578947 27.6370522,22.5473684 C25.8482463,20.9368421 28.173694,17.2684211 29.068097,15.7473684 C30.856903,13.3315789 33.0929104,11.2736842 35.5077985,9.57368421 C40.3375746,5.81578947 41.7686194,5.45789474 42.1263806,5.27894737 C42.4841418,5.1 42.3947015,3.57894737 42.3052612,3.4 C42.2158209,3.22105263 41.9475,1.96842105 38.7276493,2.59473684 C35.5077985,3.22105263 26.7426493,8.05263158 23.5227985,10.5578947 C20.3029478,13.0631579 10.2856343,20.4 7.33410448,25.3210526 L6.97634328,25.8578947 C4.20369403,30.6 1.96768657,35.3421053 5.27697761,37.8473684 C6.88690299,39.1894737 11.090597,38.5631579 12.2533209,38.2052632 C16.0098134,36.8631579 19.5874254,34.9842105 22.8072761,32.6578947 C23.5227985,32.0315789 24.3277612,31.4052632 25.0432836,30.7789474 C25.2221642,30.6894737 26.5637687,30.6 26.2954478,32.2105263 C26.0271269,33.8210526 24.864403,35.6105263 20.9290299,37.8473684 C16.9936567,40.0842105 10.2856343,43.0368421 5.8136194,41.0684211 C1.34160448,39.1 0.447201493,35.8789474 0.447201493,33.2842105 C0.715522388,29.3473684 2.14656716,25.5 4.56145522,22.3684211 C6.79746269,19.2368421 9.39123134,16.3736842 12.2533209,13.8684211 C13.5949254,12.7052632 15.4731716,11.2736842 17.7986194,9.66315789 C25.2221642,4.74210526 31.1252239,1.78947368 35.5972388,0.715789474 C42.3052612,-0.805263158 43.3785448,0.447368421 44.2729478,1.25263158 Z M61.8032463,17.8052632 C60.6405224,18.8789474 60.2827612,20.5789474 61.0877239,22.0105263 C61.8032463,23.0842105 62.608209,24.0684211 63.5920522,24.9631579 C64.3970149,25.6789474 64.9336567,26.6631579 64.9336567,27.6473684 C65.5597388,26.2157895 66.0069403,24.6947368 66.2752612,23.1736842 C66.4541418,21.9210526 66.9013433,19.7736842 67.5274254,16.9105263 C64.8442164,16.4631579 62.8765299,16.7315789 61.8032463,17.8052632 Z M40.8742164,7.78421053 L40.8742164,7.78421053 C37.743806,10.0210526 34.8817164,12.7052632 32.3773881,15.7473684 C28.2631343,20.6684211 29.6047388,20.0421053 30.2308209,19.8631579 C30.856903,19.6842105 34.8817164,15.8368421 37.3860448,12.8842105 C39.9798134,9.66315789 41.053097,8.58947368 41.2319776,8.14210526 C41.4108582,7.69473684 40.8742164,7.78421053 40.8742164,7.78421053 Z" id="形状结合"></path>
                    </g>
                </g>
            </g>
        </g>
    </g>
</svg>