<?xml version="1.0" encoding="UTF-8"?>
<svg width="273px" height="80px" viewBox="0 0 273 80" version="1.1" xmlns="http://www.w3.org/2000/svg" xmlns:xlink="http://www.w3.org/1999/xlink">
    <title>cj(273*80)</title>
    <defs>
        <filter id="filter-1">
            <feColorMatrix in="SourceGraphic" type="matrix" values="0 0 0 0 1.000000 0 0 0 0 1.000000 0 0 0 0 1.000000 0 0 0 1.000000 0"></feColorMatrix>
        </filter>
    </defs>
    <g id="页面-1" stroke="none" stroke-width="1" fill="none" fill-rule="evenodd">
        <g id="合作商切图" transform="translate(-305.000000, -702.000000)">
            <g id="编组-45" transform="translate(305.000000, 702.000000)">
                <rect id="矩形备份-24" fill="#FF7700" x="0" y="0" width="273" height="80" rx="15"></rect>
                <g id="公司官网新logo备份-7" transform="translate(13.000000, 15.000000)">
                    <g id="Dropshipping.com" transform="translate(73.000000, 6.961404)" fill="#08ACEB" fill-rule="nonzero">
                        <path d="M4.3206834,1.04421053 C5.7315188,0.870175439 7.05417698,0.696140351 8.46501238,0.696140351 C15.2546577,0.696140351 15.5191894,4.87298246 14.6374172,8.44070175 L14.6374172,8.44070175 C14.0201768,10.9642105 12.6093414,13.1396491 10.5812655,14.7929825 C8.55318959,16.2722807 5.99605043,16.9684211 3.43891128,16.8814035 C2.29260752,16.8814035 1.14630376,16.794386 1.77635684e-15,16.7073684 L4.3206834,1.04421053 Z M3,14.88 C3.50567206,14.9670175 4.01134411,14.9670175 4.51701617,14.9670175 C7.97244189,14.9670175 10.5850808,12.8785965 11.6807036,8.5277193 C12.6920477,4.61192982 11.2593103,2.61052632 7.97244189,2.61052632 C7.38249115,2.61052632 6.70826175,2.69754386 6.11831101,2.7845614 L3,14.88 Z" id="形状"></path>
                        <path d="M22.3009709,7.48350877 C22.038835,7.39649123 21.8640777,7.39649123 21.6019417,7.39649123 C20.0291262,7.39649123 18.631068,8.70175439 18.1067961,10.7031579 L16.4466019,16.794386 L14,16.794386 L16.184466,8.78877193 C16.5339806,7.48350877 16.7961165,6.3522807 17.0582524,5.30807018 L19.1553398,5.30807018 L18.631068,7.39649123 L18.8058252,7.39649123 C19.5048544,6.09122807 20.9029126,5.22105263 22.3883495,5.13403509 C22.5631068,5.13403509 22.7378641,5.13403509 23,5.22105263 L22.3009709,7.48350877 Z" id="路径"></path>
                        <path d="M33.7320146,10.9642105 C32.6169951,15.2280702 29.443478,17.0554386 26.8703561,17.0554386 C23.9541512,17.0554386 22.3245073,14.88 23.2679854,11.1382456 C24.2972341,7.22245614 27.213439,5.04701754 30.1296439,5.04701754 C33.0458488,5.04701754 34.6754927,7.48350877 33.7320146,10.9642105 Z M29.0941373,6.87438596 C27.0380328,6.87438596 25.7529675,9.04982456 25.2389414,11.0512281 C24.6392442,13.3136842 25.1532704,15.2280702 26.9523618,15.2280702 C28.7514532,15.2280702 30.2078606,13.3136842 30.8075578,11.0512281 C31.2359129,9.13684211 31.0645708,6.87438596 29.0941373,6.87438596 Z" id="形状_1_"></path>
                        <path d="M38.8856548,7.04842105 C39.8946242,5.83017544 41.3239975,5.04701754 42.9215324,5.04701754 C45.3598751,5.04701754 46.6210868,7.30947368 45.6961982,10.877193 C44.6031481,15.0540351 41.7444014,16.9684211 39.4742203,16.9684211 C38.3811701,17.0554386 37.3722007,16.4463158 36.9517968,15.4021053 L36.867716,15.4021053 L35.3542619,21.4063158 L33,21.4063158 L36.1950698,8.96280702 C36.6154737,7.48350877 36.867716,6.26526316 37.0358776,5.22105263 L39.0538164,5.22105263 L38.8856548,7.04842105 L38.8856548,7.04842105 Z M38.1263541,12.1824561 C37.621377,14.2708772 38.715494,15.1410526 39.8937739,15.1410526 C41.6611938,15.1410526 43.0919622,13.4007018 43.765265,11.0512281 C44.3544049,8.87578947 43.8494279,7.04842105 42.082008,7.04842105 C40.4829139,7.22245614 39.1363083,8.44070175 38.715494,10.0940351 L38.1263541,12.1824561 Z" id="形状_2_"></path>
                        <path d="M54.8596491,7.48350877 C54.245614,7.04842105 53.5438596,6.87438596 52.8421053,6.87438596 C51.877193,6.78736842 51.0877193,7.39649123 50.8245614,8.26666667 C50.6491228,9.04982456 51,9.48491228 52.2280702,10.0940351 C53.8947368,10.877193 54.5964912,11.9214035 54.1578947,13.5747368 C53.5438596,15.7501754 51.5263158,17.0554386 48.8947368,17.0554386 C47.8421053,17.0554386 46.877193,16.794386 46,16.2722807 L47.0526316,14.4449123 C47.754386,14.9670175 48.6315789,15.2280702 49.5087719,15.2280702 C50.5614035,15.3150877 51.5263158,14.7059649 51.877193,13.7487719 C52.1403509,12.8785965 51.7894737,12.3564912 50.5614035,11.834386 C48.7192982,11.0512281 48.1929825,9.92 48.5438596,8.5277193 C49.1578947,6.43929825 51.1754386,4.96 53.4561404,5.04701754 C54.3333333,5.04701754 55.2105263,5.22105263 56,5.74315789 L54.8596491,7.48350877 Z" id="路径_1_"></path>
                        <path d="M64.9322435,16.794386 L62.6377222,16.794386 L64.3586131,10.0940351 C64.7683491,8.44070175 64.6044547,7.04842105 63.0474581,7.04842105 C61.654356,7.22245614 60.4251481,8.26666667 60.0973594,9.74596491 L58.2945213,16.794386 L56,16.794386 L60.1793066,0.0870175439 L62.6377222,0.0870175439 L60.9168313,6.87438596 L60.9168313,6.87438596 C61.8182503,5.74315789 63.0474581,5.13403509 64.4405603,5.04701754 C66.0795041,5.04701754 67.6365007,6.17824561 66.7350816,9.83298246 L64.9322435,16.794386 Z" id="路径_2_"></path>
                        <path d="M70.6666667,16.794386 L68,16.794386 L71.3333333,5.30807018 L74,5.30807018 L70.6666667,16.794386 Z M73.0797954,3.5677193 C72.722548,3.5677193 72.3653006,3.48070175 72.1866769,3.13263158 C72.0080532,2.87157895 71.9187414,2.43649123 72.0973651,2.1754386 C72.2759888,1.3922807 72.9904835,0.783157895 73.883602,0.783157895 C74.7767204,0.783157895 75.1339678,1.3922807 74.9553441,2.1754386 C74.5980967,2.95859649 73.883602,3.48070175 73.0797954,3.5677193 L73.0797954,3.5677193 Z" id="形状_3_"></path>
                        <path d="M78.3383975,7.04842105 C79.4249799,5.83017544 80.964305,5.04701754 82.6847272,5.04701754 C85.3106347,5.04701754 86.6688628,7.30947368 85.6728289,10.877193 C84.4956979,15.0540351 81.4170477,16.9684211 78.9722372,16.9684211 C77.7951063,17.0554386 76.7085238,16.4463158 76.2557812,15.4021053 L76.1652326,15.4021053 L74.535359,21.4063158 L72,21.4063158 L75.5313929,9.04982456 C75.9841356,7.57052632 76.2557812,6.3522807 76.4368782,5.30807018 L78.6100431,5.30807018 L78.3383975,7.04842105 L78.3383975,7.04842105 Z M77.1263541,12.1824561 C76.621377,14.2708772 77.715494,15.1410526 78.8937739,15.1410526 C80.6611938,15.1410526 82.0919622,13.4007018 82.765265,11.0512281 C83.3544049,8.87578947 82.8494279,7.04842105 81.082008,7.04842105 C79.4829139,7.22245614 78.1363083,8.44070175 77.715494,10.0940351 L77.1263541,12.1824561 Z" id="形状_4_"></path>
                        <path d="M90.8393414,7.04842105 C91.8548791,5.83017544 93.2935574,5.04701754 94.901492,5.04701754 C97.355708,5.04701754 98.62513,7.30947368 97.6942205,10.877193 C96.5940548,15.0540351 93.7166981,16.9684211 91.4317384,16.9684211 C90.3315726,17.0554386 89.316035,16.4463158 88.8928943,15.4021053 L88.8928943,15.4021053 L87.3695878,21.4063158 L85,21.4063158 L88.2158692,8.96280702 C88.6390099,7.48350877 88.8928943,6.26526316 89.0621506,5.22105263 L91.0932259,5.22105263 L90.8393414,7.04842105 L90.8393414,7.04842105 Z M90.1263541,12.1824561 C89.621377,14.2708772 90.715494,15.1410526 91.8937739,15.1410526 C93.6611938,15.1410526 95.0919622,13.4007018 95.765265,11.0512281 C96.3544049,8.87578947 95.8494279,7.04842105 94.082008,7.04842105 C92.4829139,7.22245614 91.1363083,8.44070175 90.715494,10.0940351 L90.1263541,12.1824561 Z" id="形状_5_"></path>
                        <path d="M101.625,16.794386 L99,16.794386 L102.375,5.30807018 L105,5.30807018 L101.625,16.794386 Z M104.050469,3.5677193 C103.702924,3.5677193 103.355379,3.48070175 103.181607,3.13263158 C103.007835,2.87157895 102.920948,2.43649123 103.094721,2.1754386 C103.268493,1.30526316 104.050469,0.783157895 104.919331,0.783157895 C105.701307,0.783157895 106.135738,1.3922807 105.961966,2.1754386 C105.614421,2.95859649 104.919331,3.5677193 104.050469,3.5677193 L104.050469,3.5677193 Z" id="形状_6_"></path>
                        <path d="M113.734935,16.794386 L111.211063,16.794386 L113.103967,10.0940351 C113.554659,8.44070175 113.374382,7.1354386 111.661755,7.1354386 C110.039265,7.30947368 108.687191,8.44070175 108.326638,9.92 L106.433734,16.8814035 L104,16.8814035 L106.253457,8.61473684 C106.61401,7.30947368 106.794287,6.3522807 107.064702,5.39508772 L109.228021,5.39508772 L108.867468,7.1354386 L108.957606,7.1354386 C109.949127,5.91719298 111.481478,5.13403509 113.103967,5.13403509 C114.906733,5.13403509 116.709499,6.26526316 115.717978,9.83298246 L113.734935,16.794386 Z" id="路径_3_"></path>
                        <path d="M129,5.30807018 C128.746753,6.09122807 128.409091,7.04842105 128.071429,8.61473684 L126.383117,15.1410526 C125.792208,17.4035088 124.525974,21.6673684 119.292208,21.6673684 C118.11039,21.6673684 117.012987,21.4063158 116,20.797193 L117.012987,18.882807 C117.857143,19.4049123 118.785714,19.7529825 119.798701,19.6659649 C121.571429,19.6659649 123.175325,18.6217544 123.850649,16.0112281 L124.103896,14.88 L124.103896,14.88 C123.25974,15.9242105 121.909091,16.5333333 120.558442,16.5333333 C117.941558,16.5333333 116.844156,14.0968421 117.603896,10.9642105 C118.616883,7.04842105 121.402597,4.87298246 123.850649,4.87298246 C125.454545,4.87298246 126.214286,5.74315789 126.383117,6.70035088 L126.383117,6.70035088 L126.88961,5.13403509 L129,5.30807018 Z M125.872201,9.74596491 C126.306273,8.26666667 125.611757,6.96140351 124.135912,6.96140351 C122.486438,6.96140351 120.923778,8.5277193 120.229263,11.0512281 C119.621562,13.3136842 120.229263,14.88 121.965551,14.88 C123.528211,14.7929825 124.917242,13.5747368 125.177685,12.0084211 L125.872201,9.74596491 Z" id="形状_7_"></path>
                        <path d="M129.069885,15.4021053 C129.312357,14.4449123 130.039776,13.7487719 130.928842,13.7487719 C131.737085,13.7487719 132.22203,14.4449123 131.898733,15.4021053 C131.737085,16.3592982 130.928842,17.0554386 130.039776,17.0554386 C129.231533,17.0554386 128.827412,16.2722807 129.069885,15.4021053 Z" id="路径_4_"></path>
                        <path d="M142.101355,16.4463158 C141.163558,16.794386 140.140507,17.0554386 139.032201,17.0554386 C135.792539,17.0554386 134.343217,14.7929825 135.281013,11.2252632 C136.048302,7.7445614 139.117456,5.22105263 142.61288,5.13403509 C143.465423,5.13403509 144.232712,5.30807018 145,5.65614035 L144.062203,7.48350877 C143.465423,7.1354386 142.783389,6.96140351 142.101355,6.96140351 C139.884744,6.96140351 138.179659,8.78877193 137.668133,11.0512281 C136.986099,13.5747368 138.094404,15.0540351 139.969998,15.0540351 C140.737287,15.0540351 141.504575,14.88 142.186609,14.6189474 L142.101355,16.4463158 Z" id="路径_5_"></path>
                        <path d="M155.724324,10.9642105 C154.610104,15.2280702 151.353151,17.0554386 148.867583,17.0554386 C145.953467,17.0554386 144.324991,14.88 145.267793,11.1382456 C146.296305,7.22245614 149.21042,5.04701754 152.124535,5.04701754 C155.124359,5.04701754 156.667126,7.48350877 155.724324,10.9642105 Z M151.094137,6.87438596 C149.123704,6.87438596 147.752968,9.04982456 147.238941,11.0512281 C146.639244,13.3136842 147.15327,15.2280702 148.952362,15.2280702 C150.751453,15.2280702 152.207861,13.3136842 152.807558,11.0512281 C153.235913,9.13684211 153.064571,6.87438596 151.094137,6.87438596 Z" id="形状_8_"></path>
                        <path d="M171.690078,16.794386 L169.323418,16.794386 L171.0765,10.2680702 C171.602424,8.35368421 171.339462,7.04842105 169.849343,7.04842105 C168.359224,7.22245614 167.219721,8.26666667 166.956758,9.74596491 L165.028369,16.794386 L162.661709,16.794386 L164.502445,9.92 C164.940715,8.35368421 164.677753,7.04842105 163.275288,7.04842105 C161.785168,7.22245614 160.558012,8.35368421 160.207395,9.83298246 L158.36666,16.794386 L156,16.794386 L158.279006,8.5277193 C158.629622,7.22245614 158.80493,6.26526316 159.067892,5.30807018 L161.17159,5.30807018 L160.820974,6.96140351 L160.908628,6.96140351 C161.872823,5.74315789 163.275288,5.04701754 164.765407,5.04701754 C165.378985,4.96 165.992564,5.22105263 166.430834,5.56912281 C166.869104,6.00421053 167.219721,6.52631579 167.219721,7.1354386 L167.307375,7.1354386 C168.27157,5.83017544 169.849343,5.04701754 171.427116,5.04701754 C173.092543,5.04701754 174.670316,6.17824561 173.706122,9.83298246 L171.690078,16.794386 Z" id="路径_6_"></path>
                    </g>
                    <g id="You_sell_-_We_source_and_ship_for_you_" transform="translate(74.000000, 33.066667)" fill="#FFFFFF" fill-rule="nonzero">
                        <path d="M6,0.522105263 L2.26086957,5.30807018 L1.30434783,8.78877193 L0.0869565217,8.78877193 L1.04347826,5.30807018 L0,0.522105263 L1.39130435,0.522105263 L1.73913043,2.69754386 C1.82608696,3.30666667 1.91304348,3.82877193 2,4.43789474 L2,4.43789474 C2.34782609,3.91578947 2.69565217,3.30666667 3.13043478,2.69754386 L4.60869565,0.522105263 L6,0.522105263 Z" id="路径_7_"></path>
                        <path d="M10.802805,5.83017544 C10.1461704,8.09263158 8.36387644,8.96280702 7.05060719,8.96280702 C5.45592311,8.96280702 4.61167859,7.83157895 5.17450827,5.91719298 C5.73733795,4.00280702 7.33202203,2.7845614 9.02051107,2.7845614 C10.7090001,2.7845614 11.3656347,4.00280702 10.802805,5.83017544 Z M8.05064471,3.65473684 C7.0540431,3.65473684 6.38964202,4.78596491 6.14049162,5.83017544 C5.80829108,6.96140351 6.05744148,8.00561404 6.97099296,8.00561404 C7.88454444,8.00561404 8.54894552,7.04842105 8.88114606,5.83017544 C9.13029646,4.87298246 9.04724633,3.65473684 8.05064471,3.65473684 Z" id="形状_9_"></path>
                        <path d="M15.7472663,7.1354386 C15.5683043,7.83157895 15.4788233,8.35368421 15.2998614,8.87578947 L14.2260896,8.87578947 L14.4050516,8.00561404 L14.4050516,8.00561404 C13.8681657,8.61473684 13.1523179,8.96280702 12.3469891,8.96280702 C11.3626983,8.96280702 10.6468505,8.35368421 11.1837363,6.43929825 L12.1680271,2.87157895 L13.4207608,2.87157895 L12.525951,6.17824561 C12.2575081,7.22245614 12.3469891,7.91859649 13.1523179,7.91859649 C13.9576467,7.83157895 14.5840136,7.30947368 14.7629755,6.52631579 L15.7472663,2.87157895 L17,2.87157895 L15.7472663,7.1354386 Z" id="路径_8_"></path>
                        <path d="M23.4642857,4.00280702 C23.1964286,3.82877193 22.8392857,3.65473684 22.4821429,3.65473684 C22.0357143,3.65473684 21.5892857,3.91578947 21.4107143,4.35087719 C21.3214286,4.78596491 21.5,4.96 22.125,5.30807018 C22.4821429,5.39508772 22.8392857,5.65614035 23.0178571,6.00421053 C23.1964286,6.3522807 23.1964286,6.78736842 23.1071429,7.1354386 C22.75,8.26666667 21.6785714,9.04982456 20.4285714,8.96280702 C19.8928571,8.96280702 19.3571429,8.87578947 19,8.5277193 L19.5357143,7.57052632 C19.8928571,7.83157895 20.3392857,8.00561404 20.7857143,8.00561404 C21.3214286,8.09263158 21.8571429,7.7445614 21.9464286,7.22245614 C22.0357143,6.78736842 21.8571429,6.52631579 21.2321429,6.17824561 C20.3392857,5.74315789 19.9821429,5.13403509 20.25,4.43789474 C20.6071429,3.39368421 21.5892857,2.61052632 22.75,2.61052632 C23.1964286,2.61052632 23.6428571,2.69754386 24,2.95859649 L23.4642857,4.00280702 Z" id="路径_9_"></path>
                        <path d="M27.8528924,8.61473684 C27.2608368,8.87578947 26.6687812,8.96280702 25.9921463,8.96280702 C24.300559,8.96280702 23.7085034,7.7445614 24.1314003,5.91719298 C24.6388765,4.08982456 25.9075669,2.69754386 27.4299955,2.69754386 C28.9524241,2.69754386 29.2061622,4.08982456 28.8678447,5.56912281 C28.7832654,5.74315789 28.7832654,5.91719298 28.698686,6.09122807 L25.230932,6.09122807 C24.8926146,7.39649123 25.5692495,7.91859649 26.4150431,7.91859649 C26.9225193,7.91859649 27.4299955,7.83157895 27.8528924,7.65754386 L27.8528924,8.61473684 Z M27.9322374,5.22105263 C28.0654951,4.52491228 28.0654951,3.65473684 27.3325775,3.65473684 C26.5996599,3.65473684 26.1998866,4.52491228 26,5.22105263 L27.9322374,5.22105263 Z" id="形状_10_"></path>
                        <polygon id="路径_10_" points="30.3658537 8.87578947 29 8.87578947 31.6341463 0.174035088 33 0.174035088"></polygon>
                        <polygon id="路径_11_" points="33.3658537 8.87578947 32 8.87578947 34.6341463 0.174035088 36 0.174035088"></polygon>
                        <polygon id="路径_12_" points="38.25 5.13403509 41 5.13403509 40.75 6.00421053 38 6.00421053"></polygon>
                        <path d="M54,0.522105263 L49.5454545,8.78877193 L48.2727273,8.78877193 L48.4545455,4.78596491 C48.4545455,3.91578947 48.5454545,2.95859649 48.7272727,2.08842105 L48.7272727,2.08842105 C48.3636364,2.95859649 47.9090909,3.82877193 47.3636364,4.78596491 L45.2727273,8.78877193 L44,8.78877193 L44.3636364,0.522105263 L45.7272727,0.522105263 L45.4545455,4.43789474 C45.3636364,5.48210526 45.2727273,6.43929825 45.1818182,7.30947368 L45.1818182,7.30947368 C45.5454545,6.43929825 46.0909091,5.48210526 46.6363636,4.35087719 L48.6363636,0.435087719 L49.9090909,0.435087719 L49.6363636,4.35087719 C49.5454545,5.30807018 49.4545455,6.26526316 49.3636364,7.22245614 L49.3636364,7.22245614 C49.8181818,6.26526316 50.2727273,5.30807018 50.7272727,4.26385965 L52.7272727,0.348070175 L54,0.348070175 L54,0.522105263 Z" id="路径_13_"></path>
                        <path d="M56.84321,8.61473684 C56.2526423,8.87578947 55.6620745,8.96280702 54.98714,8.96280702 C53.2998037,8.96280702 52.709236,7.7445614 53.13107,5.91719298 C53.5529041,4.08982456 54.9027732,2.69754386 56.4213759,2.69754386 C58.0243454,2.69754386 58.193079,4.08982456 57.8556118,5.56912281 C57.771245,5.74315789 57.771245,5.91719298 57.6868781,6.09122807 L54.2278387,6.09122807 C53.8903714,7.39649123 54.5653059,7.91859649 55.4089741,7.91859649 C55.915175,7.91859649 56.4213759,7.83157895 56.84321,7.65754386 L56.84321,8.61473684 Z M56.8983561,5.22105263 C57.0982427,4.52491228 57.0982427,3.65473684 55.9988662,3.65473684 C54.8994898,3.65473684 54.2998299,4.52491228 54,5.22105263 L56.8983561,5.22105263 Z" id="形状_11_"></path>
                        <path d="M64.4736842,4.00280702 C64.2105263,3.74175439 63.8596491,3.65473684 63.5087719,3.65473684 C63.0701754,3.65473684 62.6315789,3.91578947 62.4561404,4.35087719 C62.3684211,4.78596491 62.5438596,4.96 63.1578947,5.30807018 C63.5087719,5.39508772 63.8596491,5.65614035 64.0350877,6.00421053 C64.2105263,6.3522807 64.2105263,6.70035088 64.122807,7.1354386 C63.7719298,8.26666667 62.7192982,9.04982456 61.4912281,8.96280702 C60.9649123,8.96280702 60.4385965,8.87578947 60,8.5277193 L60.5263158,7.57052632 C60.877193,7.83157895 61.3157895,8.00561404 61.754386,8.00561404 C62.2807018,8.09263158 62.8070175,7.7445614 62.8947368,7.22245614 C62.9824561,6.78736842 62.8070175,6.52631579 62.2807018,6.17824561 C61.4035088,5.74315789 61.0526316,5.13403509 61.3157895,4.43789474 C61.5789474,3.39368421 62.6315789,2.61052632 63.7719298,2.69754386 C64.2105263,2.69754386 64.6491228,2.7845614 65,3.04561404 L64.4736842,4.00280702 Z" id="路径_14_"></path>
                        <path d="M70.8138351,5.83017544 C70.1559523,8.09263158 68.3702705,8.96280702 67.054505,8.96280702 C65.4567897,8.96280702 64.6109405,7.83157895 65.17484,5.91719298 C65.7387395,4.00280702 67.3364548,2.7845614 69.0281533,2.7845614 C70.6258686,2.69754386 71.3777346,4.00280702 70.8138351,5.83017544 Z M68.7805606,3.65473684 C67.4292241,3.65473684 66.528333,4.78596491 66.1904988,5.83017544 C65.7400533,6.96140351 66.0778875,8.00561404 67.3166127,8.00561404 C68.5553379,8.00561404 69.4562289,7.04842105 69.9066745,5.83017544 C70.1318972,4.87298246 70.0192858,3.65473684 68.7805606,3.65473684 Z" id="形状_12_"></path>
                        <path d="M75.7472663,7.1354386 C75.5683043,7.83157895 75.4788233,8.35368421 75.2998614,8.87578947 L74.2260896,8.87578947 L74.4050516,8.00561404 L74.4050516,8.00561404 C73.8681657,8.61473684 73.1523179,8.96280702 72.3469891,8.96280702 C71.3626983,8.96280702 70.6468505,8.35368421 71.1837363,6.43929825 L72.1680271,2.87157895 L73.4207608,2.87157895 L72.525951,6.17824561 C72.2575081,7.22245614 72.3469891,7.91859649 73.1523179,7.91859649 C73.9576467,7.83157895 74.5840136,7.30947368 74.7629755,6.52631579 L75.7472663,2.87157895 L77,2.87157895 L75.7472663,7.1354386 Z" id="路径_15_"></path>
                        <path d="M81.6153846,4.00280702 C81.5192308,4.00280702 81.3269231,4.00280702 81.2307692,4.00280702 C80.3653846,4.00280702 79.5961538,4.69894737 79.3076923,5.74315789 L78.3461538,8.87578947 L77,8.87578947 L78.25,4.69894737 C78.4423077,4.00280702 78.6346154,3.39368421 78.7307692,2.87157895 L79.8846154,2.87157895 L79.5961538,4.00280702 L79.6923077,4.00280702 C80.0769231,3.30666667 80.8461538,2.87157895 81.7115385,2.7845614 C81.8076923,2.7845614 81.9038462,2.7845614 82,2.7845614 L81.6153846,4.00280702 Z" id="路径_16_"></path>
                        <path d="M84.4960432,8.70175439 C83.9947243,8.87578947 83.4934053,8.96280702 82.9920864,9.04982456 C81.4045765,9.04982456 80.6525981,7.83157895 81.153917,6.00421053 C81.4881296,4.17684211 82.9920864,2.87157895 84.8302558,2.7845614 C85.2480216,2.7845614 85.5822342,2.87157895 86,3.04561404 L85.4986811,4.00280702 C85.2480216,3.82877193 84.913809,3.74175439 84.5795964,3.74175439 C83.4934053,3.82877193 82.5743206,4.69894737 82.4072143,5.83017544 C82.0730017,7.1354386 82.5743206,7.91859649 83.4934053,7.91859649 C83.9111711,7.91859649 84.2453837,7.83157895 84.5795964,7.65754386 L84.4960432,8.70175439 Z" id="路径_17_"></path>
                        <path d="M89.84321,8.61473684 C89.2526423,8.87578947 88.6620745,8.96280702 87.98714,8.96280702 C86.2998037,8.96280702 85.709236,7.7445614 86.13107,5.91719298 C86.5529041,4.08982456 87.9027732,2.69754386 89.4213759,2.69754386 C91.0243454,2.69754386 91.193079,4.08982456 90.8556118,5.56912281 C90.771245,5.74315789 90.771245,5.91719298 90.6868781,6.09122807 L87.2278387,6.09122807 C86.8903714,7.39649123 87.5653059,7.91859649 88.4089741,7.91859649 C88.915175,7.91859649 89.4213759,7.83157895 89.84321,7.65754386 L89.84321,8.61473684 Z M89.9322374,5.22105263 C90.0654951,4.52491228 90.0654951,3.65473684 89.3325775,3.65473684 C88.5996599,3.65473684 88.1998866,4.52491228 88,5.22105263 L89.9322374,5.22105263 Z" id="形状_13_"></path>
                        <path d="M98.1847612,7.39649123 C98.0168686,7.83157895 97.9329223,8.35368421 97.9329223,8.78877193 L96.9255668,8.78877193 L97.0095131,8.09263158 L97.0095131,8.09263158 C96.5897817,8.61473684 95.9182114,8.87578947 95.246641,8.87578947 C94.2392856,8.87578947 93.8195541,8.09263158 94.071393,7.1354386 C94.4911244,5.65614035 95.8342651,4.87298246 97.6810834,4.87298246 C97.7650297,4.43789474 98.0168686,3.5677193 96.9255668,3.5677193 C96.4218891,3.5677193 95.9182114,3.74175439 95.4984799,4.00280702 L95.4984799,3.13263158 C96.0861039,2.7845614 96.7576742,2.61052632 97.4292446,2.61052632 C99.0242241,2.61052632 99.1921166,3.74175439 98.8563315,5.04701754 L98.1847612,7.39649123 Z M97,5.83017544 C96.2007545,5.83017544 95.2561916,6.00421053 95.0382156,7.04842105 C94.8928982,7.7445614 95.183533,8.00561404 95.5468264,8.00561404 C96.1280958,8.00561404 96.6367066,7.48350877 96.782024,6.78736842 L97,5.83017544 Z" id="形状_14_"></path>
                        <path d="M103.849473,8.87578947 L102.592202,8.87578947 L103.580057,5.39508772 C103.849473,4.52491228 103.759668,3.82877193 102.861617,3.82877193 C102.053372,3.91578947 101.424736,4.43789474 101.245126,5.22105263 L100.257271,8.78877193 L99,8.78877193 L100.167466,4.52491228 C100.347076,3.82877193 100.436881,3.39368421 100.616491,2.87157895 L101.694151,2.87157895 L101.514541,3.74175439 L101.514541,3.74175439 C102.053372,3.13263158 102.771812,2.7845614 103.580057,2.69754386 C104.478108,2.69754386 105.376158,3.30666667 104.837328,5.13403509 L103.849473,8.87578947 Z" id="路径_18_"></path>
                        <path d="M111.015482,7.22245614 C110.835071,7.7445614 110.744866,8.44070175 110.65466,8.78877193 L109.572196,8.78877193 L109.752606,7.83157895 L109.752606,7.83157895 C109.30158,8.44070175 108.489731,8.87578947 107.677883,8.87578947 C106.324802,8.87578947 105.693364,7.65754386 106.144391,5.83017544 C106.685624,3.82877193 108.12891,2.69754386 109.48199,2.69754386 C110.113428,2.61052632 110.65466,2.95859649 110.835071,3.48070175 L110.835071,3.48070175 L111.737125,0.0870175439 L113,0.0870175439 L111.015482,7.22245614 Z M109.925784,5.30807018 C110.178794,4.35087719 109.75711,3.74175439 109.082415,3.74175439 C108.239047,3.74175439 107.480016,4.69894737 107.142668,5.83017544 C106.805321,7.04842105 107.058331,7.91859649 107.986037,7.91859649 C108.829405,7.83157895 109.504099,7.22245614 109.672773,6.3522807 L109.925784,5.30807018 Z" id="形状_15_"></path>
                        <path d="M118.310345,4.00280702 C118.051724,3.74175439 117.706897,3.65473684 117.362069,3.65473684 C116.931034,3.65473684 116.5,3.91578947 116.327586,4.35087719 C116.241379,4.78596491 116.413793,4.96 117.017241,5.30807018 C117.362069,5.39508772 117.706897,5.65614035 117.87931,6.00421053 C118.051724,6.3522807 118.051724,6.78736842 117.965517,7.1354386 C117.62069,8.26666667 116.586207,9.04982456 115.37931,8.96280702 C114.862069,8.96280702 114.344828,8.87578947 114,8.5277193 L114.517241,7.57052632 C114.862069,7.83157895 115.293103,8.00561404 115.724138,8.00561404 C116.241379,8.09263158 116.758621,7.7445614 116.844828,7.22245614 C116.931034,6.78736842 116.758621,6.52631579 116.241379,6.17824561 C115.37931,5.74315789 115.034483,5.13403509 115.293103,4.43789474 C115.637931,3.39368421 116.672414,2.61052632 117.793103,2.69754386 C118.224138,2.69754386 118.655172,2.7845614 119,3.04561404 L118.310345,4.00280702 Z" id="路径_19_"></path>
                        <path d="M122.805381,8.87578947 L121.559541,8.87578947 L122.538415,5.39508772 C122.805381,4.52491228 122.716392,3.82877193 121.826507,3.82877193 C121.02561,3.91578947 120.40269,4.52491228 120.224713,5.30807018 L119.245839,8.96280702 L118,8.96280702 L120.40269,0.261052632 L121.64853,0.261052632 L120.669656,3.82877193 L120.669656,3.82877193 C121.114599,3.30666667 121.826507,2.95859649 122.627404,2.87157895 C123.517289,2.87157895 124.318186,3.48070175 123.873243,5.39508772 L122.805381,8.87578947 Z" id="路径_20_"></path>
                        <path d="M125.875,8.87578947 L125,8.87578947 L126.125,2.87157895 L127,2.87157895 L125.875,8.87578947 Z M127.378788,1.91438596 C127.075758,1.91438596 126.954545,1.56631579 127.015152,1.21824561 C127.075758,0.783157895 127.318182,0.522105263 127.621212,0.522105263 C127.924242,0.522105263 128.045455,0.870175439 127.984848,1.21824561 C127.924242,1.65333333 127.681818,1.91438596 127.378788,1.91438596 L127.378788,1.91438596 Z" id="形状_16_"></path>
                        <path d="M130.224863,3.74175439 C130.76234,3.13263158 131.568555,2.69754386 132.374771,2.69754386 C133.718464,2.69754386 134.34552,3.91578947 133.808043,5.74315789 C133.180986,7.91859649 131.658135,8.96280702 130.493601,8.96280702 C129.866544,9.04982456 129.329067,8.70175439 129.149908,8.17964912 L129.149908,8.17964912 L128.254113,11.3122807 L127,11.3122807 L128.79159,4.87298246 C128.970749,4.08982456 129.149908,3.48070175 129.329067,2.95859649 L130.404022,2.95859649 L130.224863,3.74175439 L130.224863,3.74175439 Z M129.066952,6.3522807 C128.813313,7.39649123 129.32059,7.91859649 129.912414,7.91859649 C130.842423,7.91859649 131.518793,7.04842105 131.856977,5.74315789 C132.195162,4.43789474 131.941524,3.65473684 131.011515,3.65473684 C130.166053,3.74175439 129.489683,4.43789474 129.32059,5.22105263 L129.066952,6.3522807 Z" id="形状_17_"></path>
                        <path d="M137.639344,2.87157895 C137.803279,2.00140351 138.213115,1.21824561 138.786885,0.609122807 C139.196721,0.261052632 139.688525,0.0870175439 140.262295,0.0870175439 C140.508197,0.0870175439 140.754098,0.174035088 141,0.261052632 L140.672131,1.21824561 C140.508197,1.13122807 140.344262,1.13122807 140.098361,1.13122807 C139.442623,1.13122807 139.032787,1.82736842 138.786885,2.61052632 L138.704918,2.95859649 L139.852459,2.95859649 L139.606557,3.91578947 L138.459016,3.91578947 L137.147541,8.96280702 L136,8.96280702 L137.311475,3.91578947 L136.57377,3.91578947 L136.819672,2.95859649 L137.639344,2.95859649 L137.639344,2.87157895 Z" id="路径_21_"></path>
                        <path d="M144.883171,5.83017544 C144.3306,8.09263158 142.830766,8.96280702 141.725625,8.96280702 C140.383668,8.96280702 139.67322,7.83157895 140.146852,5.91719298 C140.620484,4.00280702 141.962441,2.7845614 143.383337,2.7845614 C144.646355,2.69754386 145.277864,4.00280702 144.883171,5.83017544 Z M143.069561,3.65473684 C142.064688,3.65473684 141.394772,4.78596491 141.143553,5.83017544 C140.808595,6.96140351 141.059814,8.00561404 141.897209,8.00561404 C142.734603,8.00561404 143.488259,7.04842105 143.823217,5.83017544 C144.158175,4.87298246 144.074435,3.65473684 143.069561,3.65473684 Z" id="形状_18_"></path>
                        <path d="M149.764706,4.00280702 C149.686275,4.00280702 149.529412,4.00280702 149.45098,4.00280702 C148.745098,4.00280702 148.117647,4.69894737 147.882353,5.74315789 L147.098039,8.87578947 L146,8.87578947 L147.019608,4.69894737 C147.176471,4.00280702 147.333333,3.39368421 147.411765,2.87157895 L148.352941,2.87157895 L148.117647,4.00280702 L148.117647,4.00280702 C148.431373,3.30666667 149.058824,2.87157895 149.764706,2.7845614 C149.843137,2.7845614 149.921569,2.7845614 150,2.7845614 L149.764706,4.00280702 Z" id="路径_22_"></path>
                        <path d="M158,2.87157895 L155.4625,7.04842105 C154.7625,8.44070175 153.8,9.74596491 152.575,10.7901754 C152.1375,11.1382456 151.6125,11.3992982 151,11.5733333 L151,10.4421053 C151.9625,10.0940351 152.75,9.48491228 153.1875,8.61473684 C153.1875,8.5277193 153.1875,8.44070175 153.1875,8.35368421 L152.75,2.87157895 L154.0625,2.87157895 L154.2375,6.26526316 C154.2375,6.61333333 154.2375,7.1354386 154.2375,7.48350877 L154.2375,7.48350877 C154.4125,7.1354386 154.675,6.70035088 154.85,6.26526316 L156.6875,2.87157895 L158,2.87157895 Z" id="路径_23_"></path>
                        <path d="M162.802805,5.83017544 C162.14617,8.09263158 160.363876,8.96280702 159.050607,8.96280702 C157.455923,8.96280702 156.611679,7.83157895 157.174508,5.91719298 C157.737338,4.00280702 159.332022,2.7845614 161.020511,2.7845614 C162.709,2.7845614 163.365635,4.00280702 162.802805,5.83017544 Z M160.734193,3.65473684 C159.405391,3.65473684 158.519523,4.78596491 158.187322,5.83017544 C157.744388,6.96140351 158.076589,8.00561404 159.294657,8.00561404 C160.512726,8.00561404 161.398594,7.04842105 161.841528,5.83017544 C162.173729,4.87298246 162.062995,3.65473684 160.734193,3.65473684 L160.734193,3.65473684 Z" id="形状_19_"></path>
                        <path d="M167.747266,7.1354386 C167.568304,7.83157895 167.478823,8.35368421 167.299861,8.87578947 L166.22609,8.87578947 L166.405052,8.00561404 L166.405052,8.00561404 C165.868166,8.61473684 165.152318,8.96280702 164.346989,8.96280702 C163.362698,8.96280702 162.64685,8.35368421 163.183736,6.43929825 L164.168027,2.87157895 L165.420761,2.87157895 L164.525951,6.17824561 C164.257508,7.22245614 164.346989,7.91859649 165.152318,7.91859649 C165.957647,7.83157895 166.584014,7.30947368 166.762976,6.52631579 L167.747266,2.87157895 L169,2.87157895 L167.747266,7.1354386 Z" id="路径_24_"></path>
                        <path d="M169.02797,8.09263158 C169.139849,7.57052632 169.699243,7.22245614 170.258638,7.22245614 C170.818033,7.22245614 171.15367,7.57052632 170.929912,8.09263158 C170.818033,8.61473684 170.258638,8.96280702 169.699243,8.96280702 C169.139849,8.96280702 168.916091,8.61473684 169.02797,8.09263158 Z M171.1,6.3522807 L170,6.3522807 L171.5,0.522105263 L173,0.522105263 L171.1,6.3522807 Z" id="形状_20_"></path>
                    </g>
                    <g id="iPhone-8" filter="url(#filter-1)">
                        <g>
                            <path d="M65.5787266,13.8357895 C66.2805263,13.8357895 67.4209507,13.922807 69,13.922807 C67.8595755,21.4933333 66.1928013,27.2364912 63.9996773,31.1522807 C60.9293038,37.0694737 59.3502545,39.7670175 56.0167061,42.9866667 C52.7708826,46.0322807 47.8582849,51.0792982 37.4190148,48.2947368 C29.6114935,46.2933333 28.2078942,38.4617544 29.3483186,34.8070175 C30.4887431,31.1522807 34.2609163,27.7585965 41.366638,27.7585965 C46.1037858,27.7585965 51.6304582,29.8470175 58.0343802,33.9368421 L58.1221051,34.72 L56.1044311,35.9382456 L55.0517316,36.0252632 C49.2618843,32.0224561 43.6474869,29.9340351 38.2085395,29.9340351 C32.5941421,30.1080702 30.5764681,35.1550877 30.8396429,36.634386 C30.751918,37.9396491 31.4537176,44.5529825 39.5244139,46.2063158 C45.1388112,47.5985965 49.2618843,46.2063158 53.6481322,42.8996491 C57.5957554,40.2021053 61.4556535,31.9354386 61.6311035,31.5003509 C61.8065534,30.9782456 61.6311035,30.8912281 61.4556535,31.0652632 C60.402954,32.1964912 58.5607299,32.1964912 57.4203054,31.1522807 L57.3325805,31.0652632 C56.8939557,30.3691228 56.8062307,29.4119298 57.1571306,28.6287719 L57.9466552,28.6287719 C59.1748046,30.4561404 60.1397792,30.8042105 60.8415788,29.5859649 C61.6311035,28.2807018 60.0520542,26.9754386 59.4379795,26.5403509 C57.6834803,24.8870175 56.8939557,22.5375439 57.1571306,20.1880702 C57.4203054,17.4905263 59.1748046,15.1410526 61.6311035,14.1838596 C62.8592529,13.8357895 64.2628522,13.7487719 65.5787266,13.8357895 L65.5787266,13.8357895 Z M42.9333333,1.21824561 C43.7219048,2.00140351 44.072381,3.04561404 44.072381,4.17684211 C44.4228571,4.00280702 44.8609524,3.91578947 45.2114286,3.91578947 C45.3866667,3.91578947 45.6495238,4.00280702 45.7371429,4.17684211 C45.912381,4.35087719 46,4.61192982 46,4.78596491 L46,4.78596491 L46,4.96 C45.8247619,5.65614035 44.072381,6.3522807 44.072381,6.3522807 C44.072381,6.3522807 42.407619,10.3550877 41.8819048,11.3122807 C41.2685714,12.7915789 37.0628571,18.0126316 33.9085714,20.1880702 C30.6666667,22.3635088 28.3885714,23.4947368 26.6361905,21.9284211 C24.8838095,20.3621053 27.1619048,16.794386 28.0380952,15.3150877 C29.7904762,12.965614 31.9809524,10.9642105 34.3466667,9.31087719 C39.0780952,5.65614035 40.48,5.30807018 40.8304762,5.13403509 C41.1809524,4.96 41.0933333,3.48070175 41.0057143,3.30666667 C40.9180952,3.13263158 40.6552381,1.91438597 37.5009524,2.52350877 C34.3466667,3.13263158 25.76,7.83157895 22.6057143,10.2680702 C19.4514286,12.7045614 9.63809524,19.84 6.74666667,24.6259649 L6.39619048,25.1480702 C3.68,29.76 1.48952381,34.3719298 4.73142857,36.8084211 C6.30857143,38.1136842 10.4266667,37.5045614 11.5657143,37.1564912 C15.2457143,35.8512281 18.7504762,34.0238596 21.9047619,31.7614035 C22.6057143,31.1522807 23.3942857,30.5431579 24.0952381,29.9340351 C24.2704762,29.8470175 25.5847619,29.76 25.3219048,31.3263158 C25.0590476,32.8926316 23.92,34.6329825 20.0647619,36.8084211 C16.2095238,38.9838596 9.63809524,41.8554386 5.25714286,39.9410526 C0.876190476,38.0266667 0,34.8940351 0,32.3705263 C0.262857143,28.5417544 1.6647619,24.8 4.03047619,21.754386 C6.22095238,18.7087719 8.76190476,15.9242105 11.5657143,13.4877193 C12.88,12.3564912 14.72,10.9642105 16.9980952,9.39789474 C24.2704762,4.61192982 30.0533333,1.74035088 34.4342857,0.696140351 C41.0057143,-0.783157894 42.0571429,0.43508772 42.9333333,1.21824561 Z M60.1707542,17.3164912 C58.9866887,18.3607018 58.6223608,20.0140351 59.4420985,21.4063158 C60.1707542,22.4505263 60.9904919,23.4077193 61.9923935,24.2778947 C62.8121312,24.9740351 63.358623,25.9312281 63.358623,26.8884211 C63.9961968,25.4961404 64.4516066,24.0168421 64.7248525,22.5375439 C64.9070164,21.3192982 65.3624262,19.2308772 66,16.4463158 C63.267541,16.0112281 61.2637378,16.2722807 60.1707542,17.3164912 Z M39.6310661,7.57052632 L39.6310661,7.57052632 C36.7017995,9.74596491 34.0236128,12.3564912 31.6801995,15.3150877 C27.8303062,20.1010526 29.0857062,19.4919298 29.6715596,19.3178947 C30.2574129,19.1438596 34.0236128,15.4021053 36.3670262,12.5305263 C38.7941328,9.39789474 39.7984528,8.35368421 39.9658395,7.91859649 C40.1332261,7.48350877 39.6310661,7.57052632 39.6310661,7.57052632 Z" id="形状结合" fill="#FF7700"></path>
                        </g>
                    </g>
                </g>
            </g>
        </g>
    </g>
</svg>