<?xml version="1.0" standalone="no"?><!DOCTYPE svg PUBLIC "-//W3C//DTD SVG 1.1//EN" "http://www.w3.org/Graphics/SVG/1.1/DTD/svg11.dtd"><svg t="1611224330614" class="icon" viewBox="0 0 1024 1024" version="1.1" xmlns="http://www.w3.org/2000/svg" p-id="4529" xmlns:xlink="http://www.w3.org/1999/xlink" width="200" height="200"><defs><style type="text/css"></style></defs><path d="M571.828148 912.687407c-15.739259 0-28.444444-12.705185-28.444444-28.444444V140.705185c0-10.42963-8.533333-18.962963-18.962963-18.962963h-331.851852c-10.42963 0-18.962963 8.533333-18.962963 18.962963v743.537778c0 15.739259-12.705185 28.444444-28.444445 28.444444s-28.444444-12.705185-28.444444-28.444444V140.705185c0-41.813333 34.038519-75.851852 75.851852-75.851852h331.851852c41.813333 0 75.851852 34.038519 75.851852 75.851852v743.537778c0 15.739259-12.705185 28.444444-28.444445 28.444444z" p-id="4530" fill="#ffb900"></path><path d="M421.546667 912.687407c-15.739259 0-28.444444-12.705185-28.444445-28.444444v-146.014815h-75.567407v146.014815c0 15.739259-12.705185 28.444444-28.444445 28.444444s-28.444444-12.705185-28.444444-28.444444v-174.459259c0-15.739259 12.705185-28.444444 28.444444-28.444445h132.456297c15.739259 0 28.444444 12.705185 28.444444 28.444445v174.459259c0 15.739259-12.705185 28.444444-28.444444 28.444444zM934.874074 516.551111c-3.508148 0-7.016296-0.663704-10.42963-1.991111L561.398519 370.631111c-14.601481-5.783704-21.712593-22.281481-15.928889-36.882963 5.783704-14.601481 22.281481-21.712593 36.882963-15.928889L945.303704 461.653333c14.601481 5.783704 21.712593 22.281481 15.928889 36.882963-4.361481 11.282963-15.075556 18.014815-26.358519 18.014815z" p-id="4531" fill="#ffb900"></path><path d="M872.391111 912.687407c-15.739259 0-28.444444-12.705185-28.444444-28.444444v-419.081482c0-15.739259 12.705185-28.444444 28.444444-28.444444s28.444444 12.705185 28.444445 28.444444v418.986667c0 15.834074-12.705185 28.539259-28.444445 28.539259z" p-id="4532" fill="#ffb900"></path><path d="M938.666667 914.962963H85.333333c-12.61037 0-22.755556-10.145185-22.755555-22.755556s10.145185-22.755556 22.755555-22.755555h853.333334c12.61037 0 22.755556 10.145185 22.755555 22.755555s-10.145185 22.755556-22.755555 22.755556zM685.226667 621.037037H573.155556c-15.739259 0-28.444444-12.705185-28.444445-28.444444s12.705185-28.444444 28.444445-28.444445h112.071111c15.739259 0 28.444444 12.705185 28.444444 28.444445s-12.705185 28.444444-28.444444 28.444444zM685.226667 738.228148H573.155556c-15.739259 0-28.444444-12.705185-28.444445-28.444444s12.705185-28.444444 28.444445-28.444445h112.071111c15.739259 0 28.444444 12.705185 28.444444 28.444445s-12.705185 28.444444-28.444444 28.444444zM289.09037 572.586667c-15.739259 0-28.444444-12.705185-28.444444-28.444445v-68.740741c0-15.739259 12.705185-28.444444 28.444444-28.444444s28.444444 12.705185 28.444445 28.444444v68.740741c0 15.739259-12.705185 28.444444-28.444445 28.444445zM421.546667 572.586667c-15.739259 0-28.444444-12.705185-28.444445-28.444445v-68.740741c0-15.739259 12.705185-28.444444 28.444445-28.444444s28.444444 12.705185 28.444444 28.444444v68.740741c0 15.739259-12.705185 28.444444-28.444444 28.444445zM289.09037 362.477037c-15.739259 0-28.444444-12.705185-28.444444-28.444444v-68.740741c0-15.739259 12.705185-28.444444 28.444444-28.444445s28.444444 12.705185 28.444445 28.444445v68.740741c0 15.739259-12.705185 28.444444-28.444445 28.444444zM421.546667 362.477037c-15.739259 0-28.444444-12.705185-28.444445-28.444444v-68.740741c0-15.739259 12.705185-28.444444 28.444445-28.444445s28.444444 12.705185 28.444444 28.444445v68.740741c0 15.739259-12.705185 28.444444-28.444444 28.444444z" p-id="4533" fill="#ffb900"></path></svg>