<?xml version="1.0" encoding="UTF-8"?>
<svg width="266px" height="120px" viewBox="0 0 266 120" version="1.1" xmlns="http://www.w3.org/2000/svg" xmlns:xlink="http://www.w3.org/1999/xlink">
    <!-- Generator: Sketch 64 (93537) - https://sketch.com -->
    <title>编组 28</title>
    <desc>Created with Sketch.</desc>
    <defs>
        <linearGradient x1="-9.2676121%" y1="36.7099311%" x2="130.232458%" y2="65.9099897%" id="linearGradient-1">
            <stop stop-color="#FF4800" offset="0%"></stop>
            <stop stop-color="#FFA2C7" offset="100%"></stop>
        </linearGradient>
        <rect id="path-2" x="0" y="0" width="265.714286" height="120" rx="10.2857143"></rect>
        <linearGradient x1="6.51518622%" y1="50%" x2="84.9291608%" y2="50%" id="linearGradient-4">
            <stop stop-color="#FFFFFF" stop-opacity="0.0803376311" offset="0%"></stop>
            <stop stop-color="#FFFFFF" stop-opacity="0.147344843" offset="100%"></stop>
        </linearGradient>
        <linearGradient x1="0%" y1="50%" x2="101.469759%" y2="49.0808369%" id="linearGradient-5">
            <stop stop-color="#FFFFFF" stop-opacity="0.203917177" offset="0%"></stop>
            <stop stop-color="#FFFFFF" stop-opacity="0.139149913" offset="100%"></stop>
        </linearGradient>
    </defs>
    <g id="页面" stroke="none" stroke-width="1" fill="none" fill-rule="evenodd">
        <g id="派安盈充值折扣" transform="translate(-913.000000, -1123.000000)">
            <g id="编组-31" transform="translate(0.000000, 512.000000)">
                <g id="编组-29" transform="translate(360.000000, 30.000000)">
                    <g id="编组-25" transform="translate(0.000000, 443.000000)">
                        <g id="编组-11" transform="translate(553.000000, 138.000000)">
                            <g id="编组-32">
                                <g id="编组-28">
                                    <g id="编组-3">
                                        <g id="编组-2">
                                            <g id="编组-6">
                                                <g id="编组-15">
                                                    <g id="路径-3-+-路径-4-蒙版">
                                                        <mask id="mask-3" fill="white">
                                                            <use xlink:href="#path-2"></use>
                                                        </mask>
                                                        <use id="蒙版" fill="url(#linearGradient-1)" xlink:href="#path-2"></use>
                                                        <path d="M-8.72494102,41.2813095 C24.7345569,86.2609691 60.2622888,99.3755562 97.8582545,80.6250706 C154.252203,52.4993423 222.873847,16.0341121 274.505922,51.5736617 C326.137997,87.1132114 281.721859,158.571429 274.505922,158.571429 C269.695298,158.571429 170.479038,158.571429 -23.1428571,158.571429 L-8.72494102,41.2813095 Z" id="路径-3" fill="url(#linearGradient-4)" mask="url(#mask-3)"></path>
                                                        <path d="M-12.7202424,36.8571429 C-2.69890311,85.6282733 32.9688327,105.598705 94.2829651,96.7684387 C155.597097,87.9381723 189.598014,106.824883 196.285714,153.428571 L-19.7142857,145.50391 L-12.7202424,36.8571429 Z" id="路径-4" fill="url(#linearGradient-5)" mask="url(#mask-3)"></path>
                                                    </g>
                                                </g>
                                            </g>
                                        </g>
                                    </g>
                                    <g id="download" transform="translate(12.000000, 12.000000)" fill="#FFFFFF" fill-rule="nonzero">
                                        <path d="M28.912545,4.37316566 C29.3326745,7.60052373 30.764934,14.4753693 31.414225,17.3780819 C31.5860961,18.199244 31.777064,18.9058254 31.9489352,19.1922773 C32.8464845,20.7391175 33.5721626,18.6766638 33.5721626,18.6766638 C36.3793912,10.2931716 31.9489352,4.88877908 30.5357725,3.43742279 C30.2875142,3.17006769 29.8482879,2.8454222 29.4472553,2.73084144 C28.8743515,2.5589703 28.7788675,2.88361579 28.7788675,3.15097089 C28.7979643,3.418326 28.8934482,4.16310094 28.912545,4.37316566 Z M68.0036809,1.75690498 C68.5574879,2.15793764 70.486264,4.18219773 68.0036809,4.48774642 C64.4516774,4.90787588 57.6914125,5.15613419 46.4815949,14.5326597 C42.2421068,18.0846632 32.7319037,27.6521567 27.6330599,39.5494589 C27.5757695,39.7022333 27.4038984,39.7786204 27.251124,39.7404268 C26.792801,39.6067493 25.9716389,39.1102327 26.3917683,37.2005533 C26.9646721,34.6224862 32.1208063,21.1974406 45.7559167,9.35742871 C50.2054696,5.49987647 60.8232866,-3.59019714 68.0036809,1.75690498 Z" id="形状"></path>
                                        <path d="M5.23252136,20.8536983 C5.78632837,20.968279 6.2637482,21.0255694 6.98942634,21.0255694 C9.79665496,21.0255694 11.7063343,19.2113741 11.7063343,16.9197589 C11.7063343,14.8573052 10.2358812,14.1125302 8.34529867,14.1125302 C7.50503976,14.1125302 6.87484558,14.1698206 6.47381293,14.2844014 L5.23252136,20.8536983 Z M3.64748752,11.8782054 C4.8314887,11.5917535 6.58839369,11.4198824 8.30710508,11.4198824 C10.1213004,11.4198824 12.011883,11.8018183 13.2722713,12.7948515 C14.3989821,13.6542072 15.0482731,14.9145956 15.0482731,16.6524037 C15.0482731,18.9440189 13.9597559,20.8155047 12.5847868,21.9040219 C11.0379465,23.1453135 8.8227185,23.7373141 6.51200651,23.7373141 C5.82452195,23.7373141 5.21342457,23.6418301 4.69781115,23.5845397 L3.30374524,30.9368051 L0.0190967933,30.9368051 L3.64748752,11.8782054 Z" id="形状"></path>
                                        <path d="M23.928282,19.3641484 C23.5845397,19.2686644 23.1453135,19.2113741 22.5533129,19.2113741 C19.4787292,19.2113741 17.0725332,22.6869904 17.0725332,25.8761549 C17.0725332,27.346608 17.6263402,28.549706 19.0776965,28.549706 C20.6627303,28.549706 22.5533129,26.6018331 23.2217006,23.0307327 L23.928282,19.3641484 Z M22.5915065,30.9368051 C22.5915065,30.0965462 22.7060872,28.9889322 22.820668,27.804931 L22.7633776,27.804931 C21.3884085,30.3639013 19.5169227,31.2614506 17.740921,31.2614506 C15.239241,31.2614506 13.5969168,29.3135777 13.5969168,26.4872523 C13.5969168,21.713054 16.9388556,16.633307 23.4508622,16.633307 C24.9786056,16.633307 26.6209298,16.9197589 27.7094471,17.2635011 L26.238994,24.5584762 C25.8379613,26.6209298 25.6087998,29.2753841 25.6660902,30.9368051 L22.5915065,30.9368051 Z" id="形状"></path>
                                        <path d="M46.7107564,25.3987351 C46.7107564,27.3275112 47.7228864,28.6833835 49.4415978,28.6833835 C51.9432777,28.6833835 53.6046988,25.2268639 53.6046988,22.4387321 C53.6046988,21.0064726 52.936311,19.2113741 50.9311477,19.2113741 C48.2766934,19.2113741 46.7107564,22.7824744 46.7107564,25.3987351 M57.0612184,22.4005385 C57.0612184,27.1747369 53.7574731,31.2423538 48.9832748,31.2423538 C45.450368,31.2423538 43.2733336,28.7979643 43.2733336,25.4560255 C43.2733336,20.7200207 46.5770788,16.6142102 51.3512772,16.6142102 C55.1133454,16.633307 57.0612184,19.3259548 57.0612184,22.4005385" id="形状"></path>
                                        <path d="M57.6914125,30.9368051 L59.5056079,21.2738277 C59.8493502,19.6124067 60.0594149,18.1419536 60.231286,16.9388556 L63.2103858,16.9388556 L62.8857403,19.4405356 L62.9430307,19.4405356 C64.2416126,17.5690498 66.0176144,16.633307 67.9654873,16.633307 C69.9706506,16.633307 71.5365877,17.8364049 71.5365877,20.4908592 C71.5365877,21.1210534 71.4220069,22.0949898 71.2883294,22.7824744 L69.7605859,30.9368051 L66.3995503,30.9368051 L67.8891001,23.0307327 C67.9845841,22.5151193 68.0609713,21.9040219 68.0609713,21.3693117 C68.0609713,20.1853105 67.621745,19.3641484 66.3040663,19.3641484 C64.7763228,19.3641484 62.8284499,21.1974406 62.2173525,24.482089 L61.0142546,30.9559019 L57.6914125,30.9559019 L57.6914125,30.9368051 Z" id="路径"></path>
                                        <path d="M80.4547901,19.1349869 C78.3541429,19.1349869 76.9791738,21.0064726 76.5781411,22.7060872 C80.0346607,22.725184 82.2498887,22.266861 82.2498887,20.5863432 C82.2307919,19.6696971 81.5242106,19.1349869 80.4547901,19.1349869 M83.6439546,30.1347398 C82.2689855,30.860418 80.3974998,31.2614506 78.6978851,31.2614506 C74.8212361,31.2614506 72.9497504,28.8743515 72.9497504,25.4560255 C72.9497504,21.2356341 76.0434309,16.633307 80.8749196,16.633307 C83.6248578,16.633307 85.3817628,18.2183408 85.3817628,20.5672464 C85.3817628,24.1574435 81.6196945,25.3032511 76.215302,25.1886703 C76.1580116,25.685187 76.2725924,26.6209298 76.5972379,27.1747369 C77.1510449,28.1295765 78.1440781,28.6069963 79.4617569,28.6069963 C81.0467907,28.6069963 82.3071791,28.2059637 83.3193091,27.6903503 L83.6439546,30.1347398 Z" id="形状"></path>
                                        <path d="M93.4597064,19.1349869 C91.3590591,19.1349869 89.98409,21.0064726 89.5830573,22.7060872 C93.0395769,22.725184 95.2548049,22.266861 95.2548049,20.5863432 C95.2548049,19.6696971 94.5291268,19.1349869 93.4597064,19.1349869 M96.6679676,30.1347398 C95.2929985,30.860418 93.4215128,31.2614506 91.7218982,31.2614506 C87.8452491,31.2614506 85.9737634,28.8743515 85.9737634,25.4560255 C85.9737634,21.2356341 89.0674439,16.633307 93.8989326,16.633307 C96.6488708,16.633307 98.4057758,18.2183408 98.4057758,20.5672464 C98.4057758,24.1574435 94.6437075,25.3032511 89.239315,25.1886703 C89.1820247,25.685187 89.2966054,26.6209298 89.6212509,27.1747369 C90.1750579,28.1295765 91.1680912,28.6069963 92.4857699,28.6069963 C94.0708037,28.6069963 95.3311921,28.2059637 96.3433221,27.6903503 L96.6679676,30.1347398 Z" id="形状"></path>
                                        <path d="M98.6158406,30.9368051 L100.258165,22.3050546 C100.640101,20.3189881 100.831069,18.1610504 100.964746,16.9388556 L103.867459,16.9388556 C103.791072,17.8936953 103.695588,18.8676318 103.542813,19.8797618 L103.6192,19.8797618 C104.57404,18.0082761 106.082687,16.633307 107.992366,16.633307 C108.259721,16.633307 108.507979,16.6715005 108.737141,16.6715005 L108.068753,19.956149 C107.896882,19.9179554 107.667721,19.9179554 107.438559,19.9179554 C105.05146,19.9179554 103.523716,22.3241514 102.989006,25.3223479 L101.919586,30.9559019 L98.6158406,30.9559019 L98.6158406,30.9368051 Z" id="路径"></path>
                                        <path d="M111.296111,18.2183408 L111.54437,18.2183408 C111.792628,18.2183408 111.964499,18.0846632 111.964499,17.8745985 C111.964499,17.645437 111.792628,17.5308562 111.54437,17.5308562 C111.429789,17.5308562 111.353402,17.5308562 111.315208,17.549953 L111.315208,18.2183408 L111.296111,18.2183408 Z M111.06695,17.3780819 C111.181531,17.3589851 111.353402,17.3398883 111.525273,17.3398883 C111.773531,17.3398883 111.945402,17.3971787 112.059983,17.4926627 C112.155467,17.5690498 112.212757,17.7027274 112.212757,17.8555017 C112.212757,18.10376 112.059983,18.2565344 111.869015,18.3329216 L111.869015,18.3329216 C112.002693,18.3902119 112.098177,18.5238895 112.13637,18.7148574 C112.193661,18.9631157 112.231854,19.1540837 112.270048,19.2304708 L112.021789,19.2304708 C111.983596,19.1731805 111.945402,19.0204061 111.907209,18.7912446 C111.849918,18.5429863 111.754434,18.4475023 111.525273,18.4284055 L111.296111,18.4284055 L111.296111,19.2304708 L111.047853,19.2304708 L111.047853,17.3780819 L111.06695,17.3780819 Z" id="形状"></path>
                                        <path d="M111.620757,16.633307 C110.704111,16.633307 109.959336,17.3780819 109.959336,18.294728 C109.959336,19.2113741 110.704111,19.956149 111.620757,19.956149 C112.537403,19.956149 113.282178,19.2113741 113.282178,18.294728 C113.263081,17.3589851 112.518306,16.633307 111.620757,16.633307 M111.620757,16.8815653 C112.384629,16.8815653 113.014823,17.5117594 113.014823,18.2756312 C113.014823,19.0585997 112.384629,19.6696971 111.620757,19.6696971 C110.837788,19.6696971 110.226691,19.0395029 110.226691,18.2756312 C110.207594,17.5117594 110.837788,16.8815653 111.620757,16.8815653" id="形状"></path>
                                    </g>
                                </g>
                            </g>
                        </g>
                    </g>
                </g>
            </g>
        </g>
    </g>
</svg>