<?xml version="1.0" encoding="UTF-8"?>
<svg width="24px" height="24px" viewBox="0 0 24 24" version="1.1" xmlns="http://www.w3.org/2000/svg" xmlns:xlink="http://www.w3.org/1999/xlink">
    <title>编组 6</title>
    <g id="web" stroke="none" stroke-width="1" fill="none" fill-rule="evenodd">
        <g id="商品详情爬评展示-图片交互" transform="translate(-712.000000, -679.000000)">
            <g id="编组-46" transform="translate(490.000000, 270.000000)">
                <g id="编组-44" transform="translate(212.000000, 1.000000)">
                    <g id="编组-43" transform="translate(0.000000, 128.000000)">
                        <g id="编组-2" transform="translate(0.000000, 80.000000)">
                            <g id="编组-3" transform="translate(10.000000, 34.000000)">
                                <g id="编组-6" transform="translate(0.000000, 166.000000)">
                                    <rect id="矩形" fill="#000000" fill-rule="nonzero" opacity="0" x="0" y="0" width="24" height="24"></rect>
                                    <circle id="椭圆形" stroke="#D9D9D9" fill="#666666" cx="12" cy="12" r="11"></circle>
                                    <path d="M9.94006667,11.9648 L15.1364667,6.71633333 C15.3355775,6.514208 15.3937292,6.21223403 15.2839217,5.95061966 C15.1741142,5.68900529 14.9178576,5.51899807 14.6341333,5.51953333 L14.6341333,5.5188 C14.4471333,5.5188 14.2674667,5.5958 14.1384,5.73146667 L8.44553333,11.4808 C8.3062593,11.6232411 8.23393096,11.8180673 8.24651434,12.0168847 C8.25909772,12.2157022 8.35541207,12.3998548 8.51153333,12.5236 L14.2088,18.1651333 C14.4850959,18.4356959 14.9280031,18.43242 15.2002667,18.1578 C15.4710301,17.8817049 15.4680818,17.4387993 15.1936667,17.1663333 L9.94006667,11.9648 L9.94006667,11.9648 Z M1,12 C1,5.92506667 5.92506667,1 12,1 C18.0749333,1 23,5.92506667 23,12 C23,18.0749333 18.0749333,23 12,23 C5.92506667,23 1,18.0749333 1,12 Z" id="形状" fill="#FFFFFF" fill-rule="nonzero"></path>
                                </g>
                            </g>
                        </g>
                    </g>
                </g>
            </g>
        </g>
    </g>
</svg>