<?xml version="1.0" encoding="UTF-8"?>
<svg width="20px" height="20px" viewBox="0 0 20 20" version="1.1" xmlns="http://www.w3.org/2000/svg" xmlns:xlink="http://www.w3.org/1999/xlink">
    <!-- Generator: Sketch 55.2 (78181) - https://sketchapp.com -->
    <title>icon_profile@2x</title>
    <desc>Created with Sketch.</desc>
    <g stroke="none" stroke-width="1" fill="none" fill-rule="evenodd">
        <g transform="translate(-1764.000000, -206.000000)" fill-rule="nonzero">
            <g transform="translate(1445.000000, 152.000000)">
                <g transform="translate(319.000000, 54.000000)">
                    <g transform="translate(2.000000, 2.000000)">
                        <rect fill="#333333" opacity="0" x="0" y="0" width="16" height="16"></rect>
                        <path d="M8.00705592,8.52354913 C5.68707003,8.52354913 3.8017287,6.63538542 3.8017287,4.31822191 C3.8017287,2.00105839 5.68707003,0.112894687 8.00705592,0.112894687 C10.3270418,0.112894687 12.2123831,2.00105839 12.2123831,4.31822191 C12.2123831,6.63538542 10.3270418,8.52354913 8.00705592,8.52354913 L8.00705592,8.52354913 Z M8.00705592,1.06121009 C6.21203034,1.06121009 4.75004409,2.52319633 4.75004409,4.31822191 C4.75004409,6.11324748 6.21203033,7.57523373 8.00705592,7.57523373 C9.80208152,7.57523373 11.2640677,6.11324748 11.2640677,4.31822191 C11.2640677,2.52319633 9.8020815,1.06121009 8.00705592,1.06121009 Z M14.0102311,15.8786382 L2.00388075,15.8786382 C1.26159816,15.8786382 0.660433937,15.2746516 0.660433937,14.5351914 L0.660433937,13.6263891 L0.688657609,13.5473628 C1.59181513,11.0439231 4.60045862,9.29405539 8.00705592,9.29405539 C11.4136532,9.29405539 14.4222967,11.0439231 15.3254542,13.5473628 L15.3536779,13.6263891 L15.3536779,14.5351914 C15.3536779,15.277474 14.7496913,15.8786382 14.0102311,15.8786382 Z M1.6115717,13.7957312 L1.6115717,14.5351914 C1.6115717,14.7525137 1.78938084,14.9303228 2.00670312,14.9303228 L14.0102311,14.9303228 C14.2275534,14.9303228 14.4053625,14.7525137 14.4053625,14.5351914 L14.4053625,13.7929088 C13.6009878,11.6987123 10.9846534,10.2451932 8.00705592,10.2451932 C5.02945847,10.2451932 2.413124,11.6987123 1.6115717,13.7957312 Z" fill="#FFFFFF"></path>
                    </g>
                </g>
            </g>
        </g>
    </g>
</svg>