<?xml version="1.0" encoding="UTF-8"?>
<svg width="50px" height="50px" viewBox="0 0 50 50" version="1.1" xmlns="http://www.w3.org/2000/svg" xmlns:xlink="http://www.w3.org/1999/xlink">
    <!-- Generator: Sketch 64 (93537) - https://sketch.com -->
    <title>编组</title>
    <desc>Created with Sketch.</desc>
    <g id="页面-1" stroke="none" stroke-width="1" fill="none" fill-rule="evenodd">
        <g id="店铺转移-" transform="translate(-656.000000, -1382.000000)">
            <g id="编组-4备份-7" transform="translate(184.000000, 1075.000000)">
                <g id="编组-7" transform="translate(61.000000, 307.000000)">
                    <g id="编组-2备份-2" transform="translate(386.000000, 0.000000)">
                        <g id="编组-18" transform="translate(25.000000, 0.000000)">
                            <g id="编组">
                                <circle id="椭圆形备份" fill="#FF7700" cx="25" cy="25" r="25"></circle>
                                <path d="M34.3854167,36.4375 C34.8168891,36.4375 35.1666667,36.7872775 35.1666667,37.21875 C35.1666667,37.6502225 34.8168891,38 34.3854167,38 L16.6145833,38 C16.1831109,38 15.8333333,37.6502225 15.8333333,37.21875 C15.8333333,36.7872775 16.1831109,36.4375 16.6145833,36.4375 L34.3854167,36.4375 Z M36.09375,13 C38.2511123,13 40,14.7488877 40,16.90625 L40,30.578125 C40,32.7354873 38.2511123,34.484375 36.09375,34.484375 L14.90625,34.484375 C12.7488877,34.484375 11,32.7354873 11,30.578125 L11,16.90625 C11,14.7488877 12.7488877,13 14.90625,13 L36.09375,13 Z M36.1296836,14.4762031 L14.9184379,14.4762031 C13.6779545,14.4762031 12.6625577,15.4399131 12.5800949,16.6594856 L12.5746879,16.8199531 L12.5746879,30.5870983 C12.5746879,31.8275816 13.5383978,32.8429784 14.7579703,32.9254412 L14.9184379,32.9308483 L36.1296836,32.9308483 C37.370167,32.9308483 38.3855638,31.9671383 38.4680266,30.7475658 L38.4734336,30.5870983 L38.4734336,16.8199531 C38.4734336,15.5255357 37.424101,14.4762031 36.1296836,14.4762031 Z M25.6464444,16.90625 C27.7529155,16.90625 29.4581175,18.7266676 29.4581175,20.9709005 C29.4581175,22.2252965 28.9140769,23.408596 27.9877138,24.1742219 C30.1300404,25.0553752 31.6836662,27.1854558 31.8697497,29.7291085 L31.870429,29.7297894 C31.8886572,29.7905445 31.8982267,29.8536128 31.8988491,29.9170943 C31.8988491,30.2433553 31.6734797,30.5136859 31.3798334,30.5601406 L31.2898484,30.5671927 C31.1590982,30.5671927 31.0330569,30.5232541 30.9307725,30.4438794 L30.8588112,30.377837 C30.743538,30.2527276 30.6796754,30.0880143 30.680171,29.9170943 L30.680171,29.9143599 L30.663931,29.9143599 C30.5055908,27.1922918 28.3910024,25.0348567 25.798692,25.0348567 C23.2050203,25.0348567 21.0911218,27.1922785 20.9314177,29.9143599 L20.9178844,29.9143599 L20.9178844,29.9170943 C20.9178844,30.2433554 20.6925149,30.5136859 20.3988687,30.5601406 L20.3088837,30.5671927 C20.1781335,30.5671927 20.0520922,30.5232541 19.9498077,30.4438794 L19.8778465,30.377837 C19.7205927,30.2065539 19.6624574,29.9651649 19.724243,29.7400433 C19.9015298,27.26953 21.3644875,25.1838857 23.4080232,24.2541971 C22.4586588,23.515915 21.8381547,22.3223616 21.8381547,20.9715814 C21.8368014,18.7266543 23.5420087,16.90625 25.6464444,16.90625 Z M25.6430399,18.2091651 C24.2105402,18.2091651 23.0500555,19.4464712 23.0500555,20.971568 C23.0500555,22.4959838 24.2112169,23.732609 25.6437272,23.732609 C27.0769141,23.732609 28.2373988,22.4966701 28.2373988,20.9708871 L28.2367116,20.9708871 C28.2367116,19.4457903 27.0755502,18.2091651 25.6430399,18.2091651 Z" id="形状结合" stroke="#FFFFFF" stroke-width="0.2" fill="#FFFFFF"></path>
                            </g>
                        </g>
                    </g>
                </g>
            </g>
        </g>
    </g>
</svg>