<?xml version="1.0" encoding="UTF-8"?>
<svg width="50px" height="50px" viewBox="0 0 50 50" version="1.1" xmlns="http://www.w3.org/2000/svg" xmlns:xlink="http://www.w3.org/1999/xlink">
    <!-- Generator: Sketch 64 (93537) - https://sketch.com -->
    <title>编组 5</title>
    <desc>Created with Sketch.</desc>
    <g id="页面-1" stroke="none" stroke-width="1" fill="none" fill-rule="evenodd">
        <g id="店铺转移-" transform="translate(-270.000000, -1382.000000)">
            <g id="编组-4备份-7" transform="translate(184.000000, 1075.000000)">
                <g id="编组-7" transform="translate(61.000000, 307.000000)">
                    <g id="编组-6">
                        <g id="编组-16" transform="translate(25.000000, 0.000000)">
                            <g id="编组-5">
                                <circle id="椭圆形备份" fill="#FF7700" cx="25" cy="25" r="25"></circle>
                                <path d="M37.4331007,34.8925758 C37.5292837,34.8925758 37.6254666,34.9098607 37.7129056,34.9444305 L37.7216495,34.9444305 L37.7566251,34.9617154 C37.9664788,35.0567824 38.123869,35.2296315 38.211308,35.4370504 C38.211308,35.4456929 38.211308,35.4456929 38.2200519,35.4543353 C38.2900031,35.6444693 38.2900031,35.8605307 38.2200519,36.0506647 L38.211308,36.0852345 C38.1675885,36.1889439 38.1063812,36.2840109 38.03643,36.3704355 L35.8156071,38.8388952 L35.7631437,38.8907499 C35.6057534,39.0290292 35.3958998,39.0981688 35.1860461,39.0895264 C34.9761925,39.0808839 34.7663388,38.9858169 34.6264364,38.8302527 C34.3116559,38.4845546 34.3116559,37.9573648 34.6264364,37.6116667 L35.448235,36.6383516 L30.0794791,36.6383516 C29.642284,36.6037818 29.2925279,36.2580836 29.2575523,35.8259609 L29.2575523,35.7654637 C29.2575523,35.3074136 29.6160523,34.9271456 30.0794791,34.8925758 L37.4331007,34.8925758 Z M13.0673828,28.7597656 C13.4375888,28.8583097 13.6988394,29.1771856 13.74328,29.5491084 L13.75,29.6621094 L13.75,35.4833984 C13.75,36.3687808 14.4336479,37.0990278 15.3027386,37.1734433 L15.4492188,37.1796875 L21.2441406,37.1796875 C21.7626953,37.1796875 22.1816406,37.5986328 22.1816406,38.1171875 C22.1816406,38.5987026 21.8204072,38.99433 21.3536185,39.046058 L21.2441406,39.0517731 L15.4492188,39.0517731 C13.5411416,39.0517731 11.9787737,37.5536855 11.8799613,35.6753842 L11.875,35.4863281 L11.875,29.6650391 C11.875,29.0673828 12.4404297,28.5957031 13.0673828,28.7597656 Z M32.3440215,28.6003333 C32.5538752,28.6089758 32.7637288,28.7040428 32.9036312,28.859607 C33.2184117,29.2053052 33.2184117,29.7324949 32.9036312,30.0781931 L32.0818327,31.0515081 L37.4505885,31.0515081 C37.8877837,31.086078 38.2375397,31.4317761 38.2725153,31.8638989 L38.2725153,31.924396 C38.2725153,32.3824461 37.9140154,32.7627141 37.4505885,32.7972839 L30.0969669,32.7972839 C30.000784,32.7972839 29.904601,32.779999 29.817162,32.7454292 L29.8084181,32.7454292 L29.7734425,32.7281443 C29.5635889,32.6330773 29.4061986,32.4602282 29.3187596,32.2528093 C29.3187596,32.2441669 29.3187596,32.2441669 29.3100157,32.2355244 C29.2400645,32.0453904 29.2400645,31.829329 29.3100157,31.639195 L29.3187596,31.6046252 C29.3624791,31.5009158 29.4236864,31.4058488 29.4936376,31.3194242 L31.7144606,28.8509645 L31.766924,28.7991098 C31.9243142,28.6608305 32.1341679,28.5916909 32.3440215,28.6003333 Z M36.296875,11 C36.6748047,11 37.0087891,11.2402344 37.1289062,11.5976562 L39.4814453,18.5527344 C39.625,18.8691406 39.7246094,19.1621094 39.7802734,19.4433594 C39.9267578,19.9472656 40,20.4716797 40,20.9990234 C40,24.0927734 37.4746094,26.6123047 34.3720703,26.6123047 C32.9335937,26.6123047 31.5654297,26.0703125 30.5195312,25.0888672 C30.2001953,24.7900391 29.921875,24.4619141 29.6845703,24.1044922 C29.4472656,24.4589844 29.1689453,24.7900391 28.8496094,25.0888672 C27.8037109,26.0703125 26.4326172,26.6123047 24.9970703,26.6123047 C23.5615234,26.6123047 22.1904297,26.0703125 21.1445312,25.0888672 C20.828125,24.7929688 20.5498047,24.4619141 20.3125,24.1103516 C20.0751953,24.4648438 19.796875,24.7929688 19.4804688,25.0888672 C18.4345703,26.0703125 17.0634766,26.6123047 15.6279297,26.6123047 C12.5253906,26.6123047 10,24.0927734 10,20.9990234 C10,20.4921875 10.0673828,19.9912109 10.2021484,19.5078125 C10.2548828,19.2089844 10.3574219,18.8955078 10.515625,18.5556641 L12.8652344,11.5976562 C12.9882812,11.2402344 13.3222656,11 13.7001953,11 L36.296875,11 Z M34.9492188,12.8720703 L15.0449219,12.8720703 C14.6669922,12.8720703 14.3330078,13.1123047 14.2128906,13.4697266 L12.2587891,19.25 L12.2353516,19.296875 C12.1064453,19.5693359 12.0595703,19.7539063 12.0449219,19.859375 L12.0361328,19.9150391 L12.0214844,19.9707031 C11.9248047,20.3046875 11.8779297,20.6503906 11.8779297,21.0019531 C11.8779297,23.0673828 13.5595703,24.7431641 15.6308594,24.7431641 C17.5996094,24.7431641 19.2460938,23.2080078 19.375,21.2480469 L19.383,21.127 L19.3837891,20.3105469 C19.3837891,19.7949219 19.8056641,19.3730469 20.3212891,19.3730469 C20.8369141,19.3730469 21.2587891,19.7949219 21.2587891,20.3105469 L21.2587891,21.2480469 C21.3876953,23.2080078 23.03125,24.7431641 25.0029297,24.7431641 C26.9746094,24.7431641 28.6181641,23.2080078 28.7470703,21.2480469 L28.752,21.159 L28.7529297,20.3105469 C28.7529297,19.7949219 29.1748047,19.3730469 29.6904297,19.3730469 C30.2060547,19.3730469 30.6279297,19.7949219 30.6279297,20.3105469 L30.6279297,21.2509766 C30.7568359,23.2109375 32.4003906,24.7460938 34.3720703,24.7460938 C36.4404297,24.7460938 38.125,23.0673828 38.125,21.0048828 C38.125,20.6416016 38.0722656,20.28125 37.9697266,19.9355469 L37.9550781,19.8886719 L37.9462891,19.8388672 C37.9199219,19.6894531 37.8554688,19.5107422 37.7587891,19.3027344 L37.7353516,19.2558594 L37.7177734,19.2060547 L35.78125,13.4697266 C35.6611328,13.1123047 35.3242188,12.8720703 34.9492188,12.8720703 Z" id="形状结合" stroke="#FFFFFF" stroke-width="0.2" fill="#FFFFFF" fill-rule="nonzero"></path>
                            </g>
                        </g>
                    </g>
                </g>
            </g>
        </g>
    </g>
</svg>