<?xml version="1.0" encoding="UTF-8"?>
<svg width="50px" height="50px" viewBox="0 0 50 50" version="1.1" xmlns="http://www.w3.org/2000/svg" xmlns:xlink="http://www.w3.org/1999/xlink">
    <!-- Generator: Sketch 64 (93537) - https://sketch.com -->
    <title>编组</title>
    <desc>Created with Sketch.</desc>
    <g id="页面-1" stroke="none" stroke-width="1" fill="none" fill-rule="evenodd">
        <g id="店铺转移-" transform="translate(-463.000000, -1382.000000)">
            <g id="编组-4备份-7" transform="translate(184.000000, 1075.000000)">
                <g id="编组-7" transform="translate(61.000000, 307.000000)">
                    <g id="编组-2备份" transform="translate(193.000000, 0.000000)">
                        <g id="编组-17" transform="translate(25.000000, 0.000000)">
                            <g id="编组">
                                <circle id="椭圆形备份" fill="#FF7700" cx="25" cy="25" r="25"></circle>
                                <g id="经纪人认证-验证成功-证件-线性备份" transform="translate(10.000000, 12.000000)" fill="#FFFFFF" fill-rule="nonzero">
                                    <path d="M23.2500288,24.5000213 L23.2500286,24.5000213 C25.7813313,24.5000213 27.8333601,22.4479925 27.8333601,19.9166898 C27.8333601,17.385387 25.7813313,15.3333582 23.2500286,15.3333582 L23.2500284,15.3333582 C20.7187256,15.3333582 18.6666969,17.385387 18.6666969,19.9166898 C18.6666969,22.4479925 20.7187256,24.5000213 23.2500284,24.5000213 L23.2500288,24.5000213 Z M23.2500288,26.3333925 L23.2500285,26.3333925 C19.7061982,26.3333925 16.833358,23.4605426 16.833358,19.9166898 C16.833358,16.3728595 19.7062079,13.5000192 23.2500607,13.5000192 L23.2500605,13.5000192 C26.7938908,13.5000192 29.666731,16.3728595 29.666731,19.9166898 C29.666731,23.46052 26.7938908,26.3333925 23.2500605,26.3333925 L23.2500288,26.3333925 Z M27.8333603,13.0563556 L27.8333603,4.33335619 L27.8333603,4.33332396 C27.8333603,3.32079964 27.0125456,2.49998492 26.0000213,2.49998492 C26.0000105,2.49998492 25.9999998,2.49998492 25.999989,2.49998492 L4.00001714,2.49998492 L4.00001718,2.49998492 C2.98749286,2.4999671 2.16666524,3.32076741 2.16664591,4.33329174 C2.16664591,4.33331322 2.16664591,4.33333471 2.16664591,4.33335619 L2.16664591,19.0000041 L2.16664591,19.0000361 C2.16664575,20.0125604 2.98746063,20.8333751 3.99998495,20.8333751 C4.00000644,20.8333751 4.00002792,20.8333751 4.00004941,20.8333751 L15.0504539,20.8333751 C15.1210301,21.4686259 15.2631494,22.0828004 15.4693997,22.6666784 L4.00001718,22.6666784 L4.00001702,22.6666784 C1.97497804,22.6666784 0.333338926,21.025075 0.333338926,19.0000361 L0.333338926,4.33335591 L0.333338926,4.33335647 C0.333338926,2.3083046 1.97496515,0.666678372 4.00001702,0.666678372 L26.0000211,0.666678372 L26.000021,0.666678372 C28.0250728,0.666678372 29.6666993,2.3083046 29.6666993,4.33335647 C29.6666993,4.33335647 29.6666993,4.33335647 29.6666993,4.33335647 L29.6666993,14.7310756 L29.6666993,14.7310759 C29.1430687,14.0840077 28.5250334,13.5194363 27.8333603,13.056324 L27.8333603,13.0563556 Z M13.3353542,8.76087208 L15.0000192,16.2499794 L9.95836099,19.1191459 L4.91667055,16.2500117 L6.56941173,8.81030769 L6.17892202,6.46823953 L6.1789219,6.4682388 C6.01236613,5.46950746 6.68697747,4.52485236 7.68571203,4.35829884 C7.78545142,4.3416656 7.88639577,4.33332482 7.98751285,4.33332482 L11.9090067,4.33332482 L11.9090067,4.33332482 C12.921531,4.33332482 13.7424456,5.15391398 13.7425713,6.1664383 C13.7425837,6.26755506 13.7342305,6.36849973 13.7175972,6.46823912 L13.3353575,8.75987265 L13.3353542,8.76087208 Z M7.00024915,15.3259784 L9.95832876,17.0108172 L12.9164084,15.3269129 L11.6963415,9.83330888 L8.22034823,9.83330888 L7.00024915,15.3260106 L7.00024915,15.3259784 Z M11.6037545,7.99996983 L11.9090049,6.16663078 L7.98751104,6.16663078 L8.29366374,8.00000206 L11.6037545,8.00000206 L11.6037545,7.99996983 Z M18.6666973,5.2500096 L24.1666822,5.2500096 L24.1666822,5.2500096 C24.6729459,5.2500096 25.0833517,5.66041535 25.0833517,6.16667912 C25.0833517,6.6729429 24.6729459,7.08334865 24.1666822,7.08334865 L18.6666973,7.08334865 L18.6666972,7.08334865 C18.1604334,7.08334865 17.7500277,6.6729429 17.7500277,6.16667912 C17.7500277,5.66041535 18.1604334,5.2500096 18.6666972,5.2500096 L18.6666973,5.2500096 Z M18.6666973,8.91668769 L22.3333754,8.91668769 L22.3333753,8.91668769 C22.8396391,8.91668767 23.2500449,9.32709345 23.2500449,9.83335722 C23.2500449,10.339621 22.8396391,10.7500267 22.3333753,10.7500267 L18.6666973,10.7500267 L18.6666972,10.7500267 C18.160427,10.7500267 17.7500116,10.3396113 17.7500116,9.83334111 C17.7500116,9.32707089 18.160427,8.91665547 18.6666972,8.91665547 L18.6666973,8.91668769 Z M22.8247021,20.5189405 L25.4170098,17.925666 L25.4170099,17.9256659 C25.7751989,17.5677347 26.3557321,17.5679442 26.7136633,17.9261333 C27.0715944,18.2843223 27.071385,18.8648555 26.7131959,19.2227867 L22.8247021,23.1112805 L20.2314276,20.5189728 L20.2314276,20.5189728 C19.8676345,20.1669101 19.8581276,19.5865961 20.2101894,19.2228029 C20.5622522,18.8590097 21.1425662,18.8495028 21.5063594,19.2015647 C21.5135488,19.2085223 21.5206238,19.2155971 21.5275816,19.2227863 L22.8247022,20.5189402 L22.8247021,20.5189405 Z" id="形状"></path>
                                </g>
                            </g>
                        </g>
                    </g>
                </g>
            </g>
        </g>
    </g>
</svg>