<?xml version="1.0" encoding="UTF-8"?>
<svg width="22px" height="22px" viewBox="0 0 22 22" version="1.1" xmlns="http://www.w3.org/2000/svg" xmlns:xlink="http://www.w3.org/1999/xlink">
    <!-- Generator: Sketch 63.1 (92452) - https://sketch.com -->
    <title>Close</title>
    <desc>Created with Sketch.</desc>
    <g id="页面-1" stroke="none" stroke-width="1" fill="none" fill-rule="evenodd">
        <g id="自定义上传" transform="translate(-1179.000000, -390.000000)">
            <g id="编组-9" transform="translate(229.000000, 134.000000)">
                <g id="编组-2备份-4" transform="translate(856.000000, 256.000000)">
                    <g id="Close" transform="translate(94.000000, 0.000000)">
                        <path d="M11,22 C4.92421875,22 0,17.0757812 0,11 C0,4.92421875 4.92421875,0 11,0 C17.0757812,0 22,4.92421875 22,11 C22,17.0757812 17.0757812,22 11,22 Z" id="Shape" fill="#CCCCCC"></path>
                        <path d="M16.0882725,6.65778233 C16.3603215,6.39005162 16.3646397,5.95390965 16.0990681,5.67970158 L16.0990681,5.67970158 C15.8313374,5.40765263 15.3951954,5.4033344 15.1209874,5.66890599 L10.8847966,9.82089116 L6.64860576,5.67106511 C6.37655681,5.4033344 5.93825572,5.40765263 5.67052501,5.6818607 L5.67052501,5.6818607 C5.4027943,5.95390965 5.40711254,6.39221074 5.6813206,6.65994145 L9.89807933,10.7881763 L5.6813206,14.9185703 C5.40927165,15.186301 5.40495342,15.622443 5.67052501,15.896651 L5.67052501,15.896651 C5.93825572,16.1687 6.37439769,16.1730182 6.64860576,15.9074466 L10.8847966,11.7554615 L15.1209874,15.9052875 C15.3930363,16.1730182 15.8313374,16.1687 16.0990681,15.8944919 L16.0990681,15.8944919 C16.3667988,15.622443 16.3624806,15.1841419 16.0882725,14.9164112 L11.8715138,10.7881763 L16.0882725,6.65778233 L16.0882725,6.65778233 Z" id="Path" fill="#FFFFFF"></path>
                    </g>
                </g>
            </g>
        </g>
    </g>
</svg>