<svg height="21" viewBox="0 0 24 21" width="24" xmlns="http://www.w3.org/2000/svg"><g fill="none" fill-rule="evenodd" transform="translate(1 1)"><path d="m19.608794 12.7998015c.536285 0 .9710299.4347449.9710299.9710299 0 .0095143-.0001398.019028-.0004194.0285381l-.158809 5.401261c-.0163692.5567354-.4724134.999568-1.0293895.999568-.536285 0-.9710299-.4347449-.9710299-.9710299 0-.0095143.0001398-.019028.0004194-.0285381l.158809-5.401261c.0163692-.5567354.4724134-.999568 1.0293895-.999568z" fill="#fcf4d9" transform="matrix(.64278761 -.76604444 .76604444 .64278761 -5.674092 20.831871)"/><g stroke="#fcf4d9" stroke-width="2"><circle cx="9" cy="9" r="9"/><path d="m6.0234375 4.7421875c-2.26057943 1.00553385-3.12483724 2.71223958-2.59277344 5.12011719" stroke-linecap="round" stroke-linejoin="round"/></g></g></svg>