<?xml version="1.0" encoding="UTF-8"?>
<svg width="1200px" height="360px" viewBox="0 0 1200 360" version="1.1" xmlns="http://www.w3.org/2000/svg" xmlns:xlink="http://www.w3.org/1999/xlink">
    <!-- Generator: Sketch 63.1 (92452) - https://sketch.com -->
    <title>形状结合</title>
    <desc>Created with Sketch.</desc>
    <g id="页面" stroke="none" stroke-width="1" fill="none" fill-rule="evenodd" fill-opacity="0.08">
        <g id="钱包页面" transform="translate(-360.000000, -895.000000)" fill="#FF7700">
            <g id="编组-7" transform="translate(0.000000, 512.000000)">
                <g id="编组-25" transform="translate(360.000000, 383.000000)">
                    <g id="编组-29" transform="translate(0.000000, -0.000000)">
                        <path d="M513.427857,-5.68434189e-14 C513.427857,4.418278 517.012566,8 521.434529,8 C525.856492,8 529.441201,4.418278 529.441201,-5.68434189e-14 L1190,-5.68434189e-14 C1195.52285,-5.78579495e-14 1200,4.4771525 1200,10 L1200,350 C1200,355.522847 1195.52285,360 1190,360 L529.379136,360.000955 C529.420099,359.673054 529.441201,359.338989 529.441201,359 C529.441201,354.581722 525.856492,351 521.434529,351 C517.012566,351 513.427857,354.581722 513.427857,359 C513.427857,359.338989 513.448958,359.673054 513.489921,360.000955 L10,360 C4.4771525,360 6.76353751e-16,355.522847 0,350 L0,10 C-6.76353751e-16,4.4771525 4.4771525,-5.58288882e-14 10,-5.68434189e-14 L513.427857,-5.68434189e-14 L513.427857,-5.68434189e-14 Z" id="形状结合"></path>
                    </g>
                </g>
            </g>
        </g>
    </g>
</svg>