<?xml version="1.0" encoding="UTF-8"?>
<svg width="22px" height="22px" viewBox="0 0 22 22" version="1.1" xmlns="http://www.w3.org/2000/svg" xmlns:xlink="http://www.w3.org/1999/xlink">
    <!-- Generator: Sketch 63.1 (92452) - https://sketch.com -->
    <title>选中</title>
    <desc>Created with Sketch.</desc>
    <g id="页面" stroke="none" stroke-width="1" fill="none" fill-rule="evenodd">
        <g id="钱包页面" transform="translate(-1145.000000, -1119.000000)" fill="#FFFFFF" fill-rule="nonzero">
            <g id="编组-7" transform="translate(0.000000, 512.000000)">
                <g id="编组-25" transform="translate(360.000000, 383.000000)">
                    <g id="编组-11" transform="translate(553.000000, 138.000000)">
                        <g id="编组-8" transform="translate(232.000000, 86.000000)">
                            <g id="选中">
                                <path d="M10.9529405,2.84217094e-14 C4.91384751,2.84217094e-14 0,4.91384751 0,10.9529405 C0,16.9927424 4.91298814,21.9060528 10.9529405,21.9060528 C16.9927639,21.9060528 21.9060313,16.9927424 21.9060313,10.9529405 C21.9060313,4.91384751 16.9927424,2.84217094e-14 10.9529405,2.84217094e-14 Z M16.2385111,9.1462958 L9.94626743,15.5067309 C9.94472848,15.5082699 9.94158461,15.5091933 9.9399577,15.5116556 C9.93767125,15.5131945 9.93767125,15.5162725 9.93527488,15.5177894 C9.88492898,15.5665964 9.82284293,15.5963643 9.76467026,15.6295178 C9.73567191,15.6461165 9.71210374,15.6712676 9.68141263,15.6829415 C9.58709654,15.720712 9.48732793,15.7403446 9.38755975,15.7403446 C9.28695582,15.7403446 9.18558254,15.7206899 9.0904971,15.6814026 C9.05903641,15.6679037 9.03395144,15.6411918 9.00400756,15.6249229 C8.9458349,15.5917693 8.88537586,15.5626171 8.83509592,15.5131946 C8.83349101,15.5116556 8.83272153,15.5085777 8.8311166,15.506731 C8.82957765,15.5045764 8.82643377,15.5045764 8.82480687,15.5021361 L5.73021538,12.3219507 C5.42769999,12.0106847 5.43475761,11.5134047 5.74593474,11.2107346 C6.05711264,10.9089883 6.55371166,10.9144196 6.85708427,11.226388 L9.39301691,13.8322094 L15.1217892,8.04065968 C15.4265905,7.73176772 15.9247966,7.72862455 16.2326981,8.03437192 C16.5402709,8.34005197 16.543326,8.83748887 16.2385022,9.1462906 L16.2385111,9.1462958 Z" id="形状"></path>
                            </g>
                        </g>
                    </g>
                </g>
            </g>
        </g>
    </g>
</svg>