<?xml version="1.0" encoding="UTF-8"?>
<svg width="266px" height="120px" viewBox="0 0 266 120" version="1.1" xmlns="http://www.w3.org/2000/svg" xmlns:xlink="http://www.w3.org/1999/xlink">
    <!-- Generator: Sketch 64 (93537) - https://sketch.com -->
    <title>编组 9</title>
    <desc>Created with Sketch.</desc>
    <defs>
        <linearGradient x1="0%" y1="39.7823231%" x2="90.9643353%" y2="58.3712068%" id="linearGradient-1">
            <stop stop-color="#663DD7" offset="0%"></stop>
            <stop stop-color="#4D91F6" offset="100%"></stop>
        </linearGradient>
        <rect id="path-2" x="0" y="0" width="265.348288" height="119.951966" rx="10.9047242"></rect>
        <linearGradient x1="6.10533896%" y1="50%" x2="84.9291608%" y2="50%" id="linearGradient-4">
            <stop stop-color="#FFFFFF" stop-opacity="0.080392264" offset="0%"></stop>
            <stop stop-color="#FFFFFF" stop-opacity="0.0953070367" offset="100%"></stop>
        </linearGradient>
        <linearGradient x1="0%" y1="50%" x2="101.469759%" y2="49.0790373%" id="linearGradient-5">
            <stop stop-color="#FFFFFF" stop-opacity="0.203917177" offset="0%"></stop>
            <stop stop-color="#FFFFFF" stop-opacity="0.139149913" offset="100%"></stop>
        </linearGradient>
    </defs>
    <g id="页面" stroke="none" stroke-width="1" fill="none" fill-rule="evenodd">
        <g id="派安盈充值折扣" transform="translate(-1123.000000, -1601.000000)">
            <g id="编组-24" transform="translate(0.000000, 1428.000000)">
                <g id="编组-23" transform="translate(360.000000, 30.000000)">
                    <g id="编组-18备份" transform="translate(763.000000, 143.000000)">
                        <g id="编组-9">
                            <g id="编组-27备份">
                                <g id="编组-10备份">
                                    <g id="编组-5">
                                        <g id="编组-4">
                                            <g id="编组-16">
                                                <g id="路径-3-+-路径-4-蒙版">
                                                    <mask id="mask-3" fill="white">
                                                        <use xlink:href="#path-2"></use>
                                                    </mask>
                                                    <use id="蒙版" fill="url(#linearGradient-1)" xlink:href="#path-2"></use>
                                                    <path d="M-8.7129232,41.2647852 C24.7004873,86.2264402 60.1792829,99.3357777 97.7234635,80.5927976 C154.039734,52.4783276 222.566858,16.0276939 274.127815,51.5530176 C325.688771,87.0783413 281.333812,158.507955 274.127815,158.507955 C269.323817,158.507955 170.244218,158.507955 -23.1109799,158.507955 L-8.7129232,41.2647852 Z" id="路径-3" fill="url(#linearGradient-4)" mask="url(#mask-3)"></path>
                                                    <path d="M-12.7027214,36.8423895 C-2.69518562,85.5939976 32.9234211,105.556436 94.1530987,96.7297038 C155.382776,87.902972 189.33686,106.782123 196.015348,153.367156 L-19.6871311,145.445667 L-12.7027214,36.8423895 Z" id="路径-4" fill="url(#linearGradient-5)" mask="url(#mask-3)"></path>
                                                </g>
                                            </g>
                                        </g>
                                    </g>
                                </g>
                            </g>
                            <g id="编组-8备份" transform="translate(12.000000, 16.000000)" fill="#FFFFFF" fill-rule="nonzero">
                                <path d="M23.3469776,22 L2.65305213,22 C1.18792048,22 0,20.7989768 0,19.3171106 L0,9.12192629 L26,9.12192629 L26,19.3171105 C26,20.7989768 24.8121092,22 23.3469776,22 Z M16.4489529,15.0243492 L15.387732,18.7804966 L21.7550868,18.7804966 L22.8163077,15.0243492 L16.4489529,15.0243492 Z M0,2.6829195 C0,1.20129378 1.18792048,0 2.65305213,0 L23.3469479,0 C24.8120795,0 26,1.20129378 26,2.6829195 L26,5.36589914 L0,5.36589914 L0,2.6829195 Z" id="形状"></path>
                                <path d="M44.5482353,20.74 C47.5129412,20.74 50.0329412,19.8752941 51.8611765,17.7505882 L49.4894118,15.3294118 C48.2047059,16.7129412 46.6482353,17.3305882 44.8941176,17.3305882 C41.7811765,17.3305882 40.0517647,15.6011765 40.0517647,12.9823529 C40.0517647,9.25176471 42.5717647,6.26235294 46.4752941,6.26235294 C48.3776471,6.26235294 49.7611765,6.97882353 50.6505882,8.28823529 L53.5411765,5.91647059 C52.3058824,3.94 49.8105882,2.85294118 46.7470588,2.85294118 C40.3235294,2.85294118 36,7.32470588 36,13.2294118 C36,17.6764706 39.2611765,20.74 44.5482353,20.74 Z M57.1729412,20.4435294 L58.4576471,14.02 C58.9517647,11.5247059 60.4094118,10.4623529 62.6823529,10.4623529 C63.0035294,10.4623529 63.2258824,10.4870588 63.5717647,10.5117647 L64.2635294,6.95411765 C62.1141176,6.95411765 60.4835294,7.44823529 59.2976471,8.73294118 L59.6188235,7.15176471 L55.9623529,7.15176471 L53.3188235,20.4435294 L57.1729412,20.4435294 Z M71.0329412,20.6411765 C73.0835294,20.6411765 75.06,20.0976471 76.5917647,18.8623529 L74.9858824,16.3176471 C74.0717647,17.1576471 72.7870588,17.5529412 71.4529412,17.5529412 C69.5505882,17.5529412 68.4635294,16.8858824 68.1176471,15.5764706 L78.3705882,13.6988235 C78.3952941,13.4517647 78.3952941,13.2047059 78.3952941,12.9576471 C78.3952941,9.00470588 75.7270588,6.95411765 72.0705882,6.95411765 C67.4258824,6.95411765 64.2388235,10.2647059 64.2388235,14.6870588 C64.2388235,18.2941176 66.8823529,20.6411765 71.0329412,20.6411765 Z M68.0929412,13.3035294 C68.4635294,11.2776471 69.7729412,9.84470588 71.8976471,9.84470588 C73.5035294,9.84470588 74.6152941,10.6352941 74.8129412,12.0682353 L68.0929412,13.3035294 Z M93.7129412,20.6411765 C94.4294118,20.6411765 95.1211765,20.5423529 95.8129412,20.32 L96.2082353,17.38 C95.9364706,17.5035294 95.5164706,17.5776471 95.0964706,17.5776471 C94.2564706,17.5776471 93.7376471,17.1823529 93.7376471,16.3423529 C93.7376471,16.1694118 93.7623529,15.9717647 93.8117647,15.7741176 L96.5294118,2.11176471 L92.6752941,2.11176471 L91.3658824,8.95529412 C90.5011765,7.59647059 88.9694118,6.95411765 87.0176471,6.95411765 C82.9164706,6.95411765 79.68,10.2152941 79.68,14.6870588 C79.68,18.4670588 82.3235294,20.6411765 85.4117647,20.6411765 C87.4129412,20.6411765 88.9941176,19.8258824 90.1058824,18.4423529 C90.5752941,19.8505882 91.8105882,20.6411765 93.7129412,20.6411765 Z M86.5976471,17.4541176 C84.6705882,17.4541176 83.5588235,16.3176471 83.5588235,14.5141176 C83.5588235,11.92 85.1894118,10.1411765 87.4623529,10.1411765 C89.3894118,10.1411765 90.5011765,11.2776471 90.5011765,13.0811765 C90.5011765,15.6752941 88.8705882,17.4541176 86.5976471,17.4541176 Z M102.928235,5.29882353 C104.46,5.29882353 105.497647,4.33529412 105.497647,2.92705882 C105.497647,1.84 104.583529,1 103.224706,1 C101.692941,1 100.68,2.01294118 100.68,3.29764706 C100.68,4.40941176 101.569412,5.29882353 102.928235,5.29882353 Z M101.544706,20.4435294 L104.188235,7.15176471 L100.358824,7.15176471 L97.7152941,20.4435294 L101.544706,20.4435294 Z M109.969412,20.6411765 C111.130588,20.6411765 112.341176,20.4435294 113.304706,19.8505882 L112.736471,17.1082353 C112.242353,17.4047059 111.674118,17.5776471 111.155294,17.5776471 C110.216471,17.5776471 109.771765,17.1082353 109.771765,16.2929412 C109.771765,16.12 109.771765,15.9470588 109.821176,15.7494118 L110.883529,10.4129412 L114.169412,10.4129412 L114.762353,7.44823529 L111.476471,7.44823529 L112.118824,4.21176471 L108.264706,4.21176471 L105.967059,15.7741176 C105.892941,16.1694118 105.843529,16.5647059 105.843529,16.9352941 C105.843529,19.2576471 107.498824,20.6411765 109.969412,20.6411765 Z M131.636471,20.74 C134.601176,20.74 137.121176,19.8752941 138.949412,17.7505882 L136.577647,15.3294118 C135.292941,16.7129412 133.736471,17.3305882 131.982353,17.3305882 C128.869412,17.3305882 127.14,15.6011765 127.14,12.9823529 C127.14,9.25176471 129.66,6.26235294 133.563529,6.26235294 C135.465882,6.26235294 136.849412,6.97882353 137.738824,8.28823529 L140.629412,5.91647059 C139.394118,3.94 136.898824,2.85294118 133.835294,2.85294118 C127.411765,2.85294118 123.088235,7.32470588 123.088235,13.2294118 C123.088235,17.6764706 126.349412,20.74 131.636471,20.74 Z M154.736471,20.6411765 C155.452941,20.6411765 156.144706,20.5423529 156.836471,20.32 L157.231765,17.38 C156.96,17.5035294 156.54,17.5776471 156.12,17.5776471 C155.28,17.5776471 154.761176,17.1823529 154.761176,16.3176471 C154.761176,16.1447059 154.761176,15.9717647 154.810588,15.7741176 L156.54,7.15176471 L152.685882,7.15176471 L152.34,8.95529412 C151.475294,7.57176471 149.943529,6.95411765 148.016471,6.95411765 C143.915294,6.95411765 140.678824,10.2152941 140.678824,14.6870588 C140.678824,18.4670588 143.322353,20.6411765 146.410588,20.6411765 C148.387059,20.6411765 149.968235,19.8752941 151.104706,18.4917647 C151.549412,19.8011765 152.784706,20.6411765 154.736471,20.6411765 Z M147.596471,17.4541176 C145.669412,17.4541176 144.557647,16.3176471 144.557647,14.5141176 C144.557647,11.92 146.188235,10.1411765 148.461176,10.1411765 C150.388235,10.1411765 151.5,11.2776471 151.5,13.0811765 C151.5,15.6752941 149.869412,17.4541176 147.596471,17.4541176 Z M162.592941,20.4435294 L163.877647,14.02 C164.371765,11.5247059 165.829412,10.4623529 168.102353,10.4623529 C168.423529,10.4623529 168.645882,10.4870588 168.991765,10.5117647 L169.683529,6.95411765 C167.534118,6.95411765 165.903529,7.44823529 164.717647,8.73294118 L165.038824,7.15176471 L161.382353,7.15176471 L158.738824,20.4435294 L162.592941,20.4435294 Z M183.741176,20.6411765 C184.457647,20.6411765 185.149412,20.5423529 185.841176,20.32 L186.236471,17.38 C185.964706,17.5035294 185.544706,17.5776471 185.124706,17.5776471 C184.284706,17.5776471 183.765882,17.1823529 183.765882,16.3423529 C183.765882,16.1694118 183.790588,15.9717647 183.84,15.7741176 L186.557647,2.11176471 L182.703529,2.11176471 L181.394118,8.95529412 C180.529412,7.59647059 178.997647,6.95411765 177.045882,6.95411765 C172.944706,6.95411765 169.708235,10.2152941 169.708235,14.6870588 C169.708235,18.4670588 172.351765,20.6411765 175.44,20.6411765 C177.441176,20.6411765 179.022353,19.8258824 180.134118,18.4423529 C180.603529,19.8505882 181.838824,20.6411765 183.741176,20.6411765 Z M176.625882,17.4541176 C174.698824,17.4541176 173.587059,16.3176471 173.587059,14.5141176 C173.587059,11.92 175.217647,10.1411765 177.490588,10.1411765 C179.417647,10.1411765 180.529412,11.2776471 180.529412,13.0811765 C180.529412,15.6752941 178.898824,17.4541176 176.625882,17.4541176 Z" id="CreditCard"></path>
                            </g>
                        </g>
                    </g>
                </g>
            </g>
        </g>
    </g>
</svg>