<?xml version="1.0" encoding="UTF-8"?>
<svg width="266px" height="120px" viewBox="0 0 266 120" version="1.1" xmlns="http://www.w3.org/2000/svg" xmlns:xlink="http://www.w3.org/1999/xlink">
    <!-- Generator: Sketch 64 (93537) - https://sketch.com -->
    <title>编组 14</title>
    <desc>Created with Sketch.</desc>
    <defs>
        <linearGradient x1="0%" y1="39.8022893%" x2="101.164431%" y2="60.1977107%" id="linearGradient-1">
            <stop stop-color="#0046C6" offset="0%"></stop>
            <stop stop-color="#04B4FF" offset="100%"></stop>
            <stop stop-color="#4DBEED" offset="100%"></stop>
        </linearGradient>
        <rect id="path-2" x="0" y="0" width="265.714286" height="120" rx="10.2857143"></rect>
        <linearGradient x1="6.10533896%" y1="50%" x2="84.9291608%" y2="50%" id="linearGradient-4">
            <stop stop-color="#FFFFFF" stop-opacity="0.080392264" offset="0%"></stop>
            <stop stop-color="#FFFFFF" stop-opacity="0.0953070367" offset="100%"></stop>
        </linearGradient>
        <linearGradient x1="0%" y1="50%" x2="101.469759%" y2="49.0808369%" id="linearGradient-5">
            <stop stop-color="#FFFFFF" stop-opacity="0.203917177" offset="0%"></stop>
            <stop stop-color="#FFFFFF" stop-opacity="0.139149913" offset="100%"></stop>
        </linearGradient>
    </defs>
    <g id="页面" stroke="none" stroke-width="1" fill="none" fill-rule="evenodd">
        <g id="派安盈充值折扣" transform="translate(-827.000000, -1601.000000)">
            <g id="编组-24" transform="translate(0.000000, 1428.000000)">
                <g id="编组-23" transform="translate(360.000000, 30.000000)">
                    <g id="编组-11" transform="translate(467.000000, 143.000000)">
                        <g id="编组-14">
                            <g id="编组-5">
                                <g id="编组-20">
                                    <g id="编组-17">
                                        <g id="路径-3-+-路径-4-蒙版">
                                            <mask id="mask-3" fill="white">
                                                <use xlink:href="#path-2"></use>
                                            </mask>
                                            <use id="蒙版" fill="url(#linearGradient-1)" xlink:href="#path-2"></use>
                                            <path d="M-8.72494102,41.2813095 C24.7345569,86.2609691 60.2622888,99.3755562 97.8582545,80.6250706 C154.252203,52.4993423 222.873847,16.0341121 274.505922,51.5736617 C326.137997,87.1132114 281.721859,158.571429 274.505922,158.571429 C269.695298,158.571429 170.479038,158.571429 -23.1428571,158.571429 L-8.72494102,41.2813095 Z" id="路径-3" fill="url(#linearGradient-4)" mask="url(#mask-3)"></path>
                                            <path d="M-12.7202424,36.8571429 C-2.69890311,85.6282733 32.9688327,105.598705 94.2829651,96.7684387 C155.597097,87.9381723 189.598014,106.824883 196.285714,153.428571 L-19.7142857,145.50391 L-12.7202424,36.8571429 Z" id="路径-4" fill="url(#linearGradient-5)" mask="url(#mask-3)"></path>
                                        </g>
                                    </g>
                                </g>
                            </g>
                            <g id="payply" transform="translate(12.000000, 12.000000)" fill="#FFFFFF" fill-rule="nonzero">
                                <g id="编组" transform="translate(35.122560, 6.250625)">
                                    <path d="M57.6331443,0.284254616 L51.0101605,0.284254616 C50.5574367,0.284254616 50.1719815,0.613751851 50.1014387,1.06111802 L47.4231947,18.0428757 C47.3705109,18.3780283 47.6291677,18.6810348 47.9684873,18.6810348 L51.3667438,18.6810348 C51.6834422,18.6810348 51.9537073,18.4506546 52.0028193,18.1372304 L52.7624191,13.3230585 C52.8329619,12.8756923 53.2184171,12.5461951 53.6714386,12.5461951 L55.7671839,12.5461951 C60.1292272,12.5461951 62.6467409,10.4349721 63.3048424,6.25092271 C63.601003,4.42097781 63.3167483,2.9830364 62.4598174,1.97638812 C61.5180566,0.869432181 59.848842,0.284254616 57.6331443,0.284254616 Z M58.3975064,6.48636292 C58.0355655,8.86368399 56.2202054,8.86368399 54.4637797,8.86368399 L53.4648703,8.86368399 L54.1655356,4.4251449 C54.2080994,4.15666567 54.4393725,3.95902686 54.7108282,3.95902686 L55.1689097,3.95902686 C56.3642674,3.95902686 57.493547,3.95902686 58.0754504,4.64004734 C58.4239972,5.04782621 58.5290672,5.65175565 58.3975064,6.48636292 Z" id="形状"></path>
                                    <path d="M10.3974683,0.284254616 L3.77478224,0.284254616 C3.3220584,0.284254616 2.93660318,0.613751851 2.86576277,1.06111802 L0.187518752,18.0428757 C0.134834912,18.3780283 0.393789379,18.6810348 0.733109025,18.6810348 L3.89533001,18.6810348 C4.34805385,18.6810348 4.73350907,18.3518352 4.80434948,17.904469 L5.5270408,13.3230585 C5.59758357,12.8756923 5.98303878,12.5461951 6.43576262,12.5461951 L8.53150791,12.5461951 C12.8938489,12.5461951 15.4113626,10.4349721 16.0694641,6.25092271 C16.3656247,4.42097781 16.08137,2.9830364 15.2247368,1.97638812 C14.2823806,0.869432181 12.6128684,0.284254616 10.3974683,0.284254616 Z M11.1618305,6.48636292 C10.7998895,8.86368399 8.98423176,8.86368399 7.22840141,8.86368399 L6.22919435,8.86368399 L6.92985965,4.4251449 C6.97242343,4.15666567 7.20339891,3.95902686 7.47515228,3.95902686 L7.9332338,3.95902686 C9.12859143,3.95902686 10.257871,3.95902686 10.8397745,4.64004734 C11.1880236,5.04782621 11.2933912,5.65175565 11.1618305,6.48636292 Z" id="形状"></path>
                                    <path d="M30.1920073,6.41046247 L27.0211545,6.41046247 C26.7494011,6.41046247 26.518128,6.60810129 26.4755642,6.87658052 L26.3362646,7.76327633 L26.1145162,7.44211326 C25.4275428,6.44528739 23.8970326,6.11221836 22.3686059,6.11221836 C18.8652794,6.11221836 15.8721229,8.76724577 15.2896242,12.4908324 C14.9863201,14.3484587 15.4167202,16.1239338 16.4700994,17.3630458 C17.4377557,18.5015525 18.8188462,18.9754094 20.4642488,18.9754094 C23.2880431,18.9754094 24.8545688,17.1609423 24.8545688,17.1609423 L24.712888,18.0425781 C24.6596088,18.3777306 24.9185633,18.6810348 25.2581806,18.6810348 L28.1141209,18.6810348 C28.5668448,18.6810348 28.9520023,18.3518352 29.0228428,17.9047667 L30.7372999,7.04862153 C30.7902814,6.71317132 30.5313269,6.41046247 30.1920073,6.41046247 Z M25.7725177,12.5831035 C25.4662371,14.3948919 24.0277004,15.6113826 22.1929931,15.6113826 C21.2732583,15.6113826 20.5368751,15.3155196 20.0636135,14.7553446 C19.594519,14.2002295 19.4180132,13.409079 19.5668376,12.5280385 C19.8522828,10.7323232 21.3140362,9.47654289 23.1207645,9.47654289 C24.0211521,9.47654289 24.7524752,9.77508465 25.234964,10.3406174 C25.7207268,10.9100196 25.9115197,11.7062301 25.7725177,12.5831035 Z" id="形状"></path>
                                    <path d="M77.4276832,6.41046247 L74.2568304,6.41046247 C73.9850771,6.41046247 73.753804,6.60810129 73.7115378,6.87658052 L73.5719405,7.76327633 L73.3501922,7.44211326 C72.6632187,6.44528739 71.1327085,6.11221836 69.6042819,6.11221836 C66.1006577,6.11221836 63.1077989,8.76724577 62.5255978,12.4908324 C62.2222937,14.3484587 62.6526938,16.1239338 63.706073,17.3630458 C64.6737293,18.5015525 66.0548198,18.9754094 67.7002224,18.9754094 C70.5240167,18.9754094 72.0905424,17.1609423 72.0905424,17.1609423 L71.9488616,18.0425781 C71.8955824,18.3777306 72.1545369,18.6810348 72.4941542,18.6810348 L75.3500945,18.6810348 C75.8028184,18.6810348 76.1879759,18.3518352 76.2588164,17.9047667 L77.9732735,7.04862153 C78.026255,6.71317132 77.7670029,6.41046247 77.4276832,6.41046247 Z M73.0084913,12.5831035 C72.7022107,14.3948919 71.2639716,15.6113826 69.4292644,15.6113826 C68.5092319,15.6113826 67.7731464,15.3155196 67.2995871,14.7553446 C66.8307902,14.2002295 66.6539868,13.409079 66.8028112,12.5280385 C67.0885541,10.7323232 68.5497121,9.47654289 70.3564404,9.47654289 C71.2568281,9.47654289 71.9881512,9.77508465 72.4709376,10.3406174 C72.9564028,10.9100196 73.1471957,11.7062301 73.0084913,12.5831035 Z" id="形状"></path>
                                    <path d="M47.0823868,6.41046247 L43.8948657,6.41046247 C43.5900733,6.41046247 43.3049257,6.56196572 43.13348,6.81407426 L38.7366118,13.2897218 L36.8730325,7.06677811 C36.7563542,6.67745346 36.397985,6.41016483 35.9916944,6.41016483 L32.8583454,6.41016483 C32.4800337,6.41016483 32.2139357,6.78222584 32.335674,7.14059501 L35.8455488,17.4428157 L32.5443259,22.1004243 C32.2850737,22.4662347 32.5467071,22.9719401 32.9949662,22.9719401 L36.1792132,22.9719401 C36.4810291,22.9719401 36.7634978,22.8240086 36.9355388,22.5757695 L47.5360036,7.27691817 C47.7896004,6.91110778 47.5276694,6.41046247 47.0823868,6.41046247 Z" id="路径"></path>
                                    <path d="M81.1658547,0.750670305 L78.4474281,18.0431734 C78.3947442,18.3780283 78.6536987,18.6810348 78.9927207,18.6810348 L81.726625,18.6810348 C82.1793489,18.6810348 82.5648041,18.3518352 82.6356445,17.904469 L85.3156744,0.922711319 C85.3686559,0.587558756 85.1097014,0.28455193 84.7703818,0.28455193 L81.711445,0.28455193 C81.4393939,0.284254616 81.2081208,0.482191076 81.1658547,0.750670305 Z" id="路径"></path>
                                </g>
                                <g id="编组">
                                    <path d="M22.3180056,7.42455198 C22.6745889,5.15111035 22.3156244,3.60452712 21.0860372,2.20319651 C19.7323304,0.660780364 17.2868477,0 14.1579634,0 L5.07550755,0 C4.4361579,0 3.89146057,0.465225094 3.79204587,1.09713352 L0.00982241081,25.0792936 C-0.0645897923,25.5525553 0.301220598,25.9802766 0.779839889,25.9802766 L6.38694822,25.9802766 L6.00000476,28.4343911 C5.93481967,28.8484206 6.2544945,29.2225651 6.67358403,29.2225651 L11.3999495,29.2225651 C11.9592316,29.2225651 12.4354697,28.8156792 12.5226808,28.2629453 L12.5691141,28.0224451 L13.4593817,22.3766424 L13.5168279,22.0647065 C13.604039,21.5122703 14.0802771,21.1047891 14.6395592,21.1047891 L15.3464751,21.1047891 C19.9252068,21.1047891 23.5103868,19.2447816 24.5578129,13.865077 C24.9956543,11.6172332 24.7691436,9.74085504 23.6115873,8.4216755 C23.26185,8.02342139 22.8260921,7.69362651 22.3180056,7.42455198 L22.3180056,7.42455198" id="路径" opacity="0.68"></path>
                                    <path d="M22.3180056,7.42455198 C22.6745889,5.15111035 22.3156244,3.60452712 21.0860372,2.20319651 C19.7323304,0.660780364 17.2868477,0 14.1579634,0 L5.07550755,0 C4.4361579,0 3.89146057,0.465225094 3.79204587,1.09713352 L0.00982241081,25.0792936 C-0.0645897923,25.5525553 0.301220598,25.9802766 0.779839889,25.9802766 L6.38694822,25.9802766 L7.7954224,17.0487287 L7.75166802,17.3288162 C7.85138038,16.6972054 8.39101767,16.2316827 9.03066497,16.2316827 L11.6958124,16.2316827 C16.9296692,16.2316827 21.0279957,14.1052796 22.2251392,7.95585511 C22.260857,7.77428933 22.2909196,7.59778359 22.3180056,7.42455198" id="路径" opacity="0.7"></path>
                                    <path d="M9.30866896,7.45461451 C9.36849637,7.07481462 9.6125684,6.76347397 9.94087504,6.60631539 C10.0899971,6.53487968 10.2569781,6.49499474 10.4316979,6.49499474 L17.5511599,6.49499474 C18.3946966,6.49499474 19.1810848,6.55035742 19.8999067,6.6661428 C20.1052843,6.69918182 20.3053043,6.73728087 20.499669,6.78043995 C20.693736,6.82359903 20.8824454,6.87152049 21.0649041,6.92509727 C21.1562823,6.95158802 21.2458746,6.97986465 21.3342763,7.00903424 C21.6872878,7.12630787 22.0161897,7.26441692 22.3186009,7.42484963 C22.6751842,5.151408 22.3162197,3.60482477 21.0866325,2.20349416 C19.7323304,0.660780364 17.2868477,0 14.1579634,0 L5.07550755,0 C4.4361579,0 3.89146057,0.465225094 3.79204587,1.09713352 L0.00982241081,25.0792936 C-0.0645897923,25.5525553 0.301220598,25.9802766 0.779839889,25.9802766 L6.38694822,25.9802766 L7.7954224,17.0487287 L9.30866896,7.45461451 Z" id="路径"></path>
                                </g>
                            </g>
                        </g>
                    </g>
                </g>
            </g>
        </g>
    </g>
</svg>