<svg t="1615256503407" class="icon" viewBox="0 0 1024 1024" version="1.1" xmlns="http://www.w3.org/2000/svg" p-id="17026" width="200" height="200"><path d="M46.545455 46.545455m93.090909 0l744.727272 0q93.090909 0 93.090909 93.090909l0 744.727272q0 93.090909-93.090909 93.090909l-744.727272 0q-93.090909 0-93.090909-93.090909l0-744.727272q0-93.090909 93.090909-93.090909Z" fill="#FF7700" fill-opacity=".1" p-id="17027"></path><path d="M312.226909 432.081455h387.909818c14.336 0 25.972364 11.636364 25.972364 26.018909v219.927272c0 14.336-11.636364 25.972364-25.972364 25.972364H312.226909v64.791273c0 6.981818 5.818182 12.8 12.8 12.8h439.482182c6.981818 0 12.8-5.818182 12.8-12.8v-381.672728l-6.190546-6.23709h-76.8a59.345455 59.345455 0 0 1-59.345454-59.345455V243.991273l-5.073455-5.445818H324.654545A12.893091 12.893091 0 0 0 311.854545 251.345455v180.736h0.372364z m-38.772364 271.546181H221.882182a25.972364 25.972364 0 0 1-26.018909-26.018909V457.681455c0-14.336 11.636364-25.972364 26.018909-25.972364h51.572363V250.973091c0-28.718545 23.272727-51.618909 51.572364-51.618909h321.163636l170.309819 171.054545V768c0 28.718545-23.272727 51.572364-51.618909 51.572364h-439.854546c-28.672 0-51.572364-23.272727-51.572364-51.572364v-64.372364z m-24.064-218.018909V651.636364h27.182546v-63.627637h41.472c40.354909 0 60.928-17.035636 60.928-51.572363 0-34.117818-20.200727-50.827636-60.136727-50.827637H249.390545z m27.182546 23.272728h39.563636c12.008727 0 20.526545 1.954909 26.344728 6.609454 5.445818 4.282182 8.564364 11.264 8.564363 21.317818 0 10.100364-2.746182 17.082182-8.564363 21.736728-5.399273 4.282182-14.336 6.609455-26.344728 6.609454h-39.563636V508.881455z m125.253818-23.272728V651.636364h60.928c27.136 0 47.290182-7.354182 61.253818-22.481455 13.218909-14.382545 20.200727-34.536727 20.200728-60.928 0-26.344727-6.609455-46.917818-20.200728-60.881454-13.963636-14.754909-34.117818-22.481455-61.253818-22.481455H401.826909v0.744727z m27.182546 23.272728h28.299636c20.573091 0 35.700364 4.654545 45.381818 14.382545 9.309091 9.309091 13.963636 24.808727 13.963636 45.754182 0 20.573091-4.654545 35.700364-13.963636 45.381818-9.309091 9.309091-24.436364 13.963636-45.009454 13.963636h-28.299637V508.881455h-0.372363z m140.38109-23.272728V651.636364h27.182546v-73.681455h81.035636v-23.272727h-81.035636v-46.173091h86.109091v-23.272727c0 0.372364-113.291636 0.372364-113.291637 0.372363z" fill="#FF7700" p-id="17028"></path><path d="M276.573091 11.636364A34.909091 34.909091 0 0 1 281.274182 81.128727L276.573091 81.454545H124.136727a42.635636 42.635636 0 0 0-42.356363 37.701819l-0.325819 4.980363V279.272727a34.909091 34.909091 0 0 1-69.492363 4.747637L11.636364 279.272727V124.136727c0-59.578182 46.312727-108.450909 105.099636-112.267636l7.400727-0.232727h152.436364zM46.545455 746.263273a34.909091 34.909091 0 0 1 34.583272 30.208l0.325818 4.701091v118.690909c0 21.922909 16.477091 39.936 37.701819 42.356363l4.980363 0.325819h152.436364a34.909091 34.909091 0 0 1 4.701091 69.492363l-4.701091 0.325818H124.136727c-59.578182 0-108.450909-46.312727-112.267636-105.099636l-0.232727-7.400727v-118.690909a34.909091 34.909091 0 0 1 34.909091-34.909091zM977.454545 748.590545a34.909091 34.909091 0 0 1 34.583273 30.208l0.325818 4.701091v116.363637c0 59.578182-46.312727 108.450909-105.099636 112.267636l-7.400727 0.232727H744.727273a34.909091 34.909091 0 0 1-4.747637-69.492363L744.727273 942.545455h155.136a42.635636 42.635636 0 0 0 42.356363-37.701819l0.325819-4.980363v-116.363637a34.909091 34.909091 0 0 1 34.90909-34.909091zM899.863273 11.636364c59.578182 0 108.450909 46.312727 112.267636 105.099636l0.232727 7.400727V279.272727a34.909091 34.909091 0 0 1-69.492363 4.747637L942.545455 279.272727V124.136727a42.635636 42.635636 0 0 0-37.701819-42.356363L899.863273 81.454545H744.727273a34.909091 34.909091 0 0 1-4.747637-69.492363L744.727273 11.636364h155.136z" fill="#333333" p-id="17029"></path></svg>