<?xml version="1.0" encoding="UTF-8"?>
<svg width="266px" height="120px" viewBox="0 0 266 120" version="1.1" xmlns="http://www.w3.org/2000/svg" xmlns:xlink="http://www.w3.org/1999/xlink">
    <!-- Generator: Sketch 64 (93537) - https://sketch.com -->
    <title>编组 10</title>
    <desc>Created with Sketch.</desc>
    <defs>
        <linearGradient x1="0%" y1="39.7823231%" x2="90.9643353%" y2="58.3712068%" id="linearGradient-1">
            <stop stop-color="#2C78FF" offset="0%"></stop>
            <stop stop-color="#63AFFE" offset="100%"></stop>
        </linearGradient>
        <rect id="path-2" x="0" y="0" width="265.348288" height="119.951966" rx="10.9047242"></rect>
        <linearGradient x1="6.10533896%" y1="50%" x2="84.9291608%" y2="50%" id="linearGradient-4">
            <stop stop-color="#FFFFFF" stop-opacity="0.080392264" offset="0%"></stop>
            <stop stop-color="#FFFFFF" stop-opacity="0.0953070367" offset="100%"></stop>
        </linearGradient>
        <linearGradient x1="0%" y1="50%" x2="101.469759%" y2="49.0790373%" id="linearGradient-5">
            <stop stop-color="#FFFFFF" stop-opacity="0.203917177" offset="0%"></stop>
            <stop stop-color="#FFFFFF" stop-opacity="0.139149913" offset="100%"></stop>
        </linearGradient>
    </defs>
    <g id="页面" stroke="none" stroke-width="1" fill="none" fill-rule="evenodd">
        <g id="派安盈充值折扣" transform="translate(-1209.000000, -1123.000000)">
            <g id="编组-31" transform="translate(0.000000, 512.000000)">
                <g id="编组-29" transform="translate(360.000000, 30.000000)">
                    <g id="编组-25" transform="translate(0.000000, 443.000000)">
                        <g id="编组-33" transform="translate(849.000000, 138.000000)">
                            <g id="编组-10">
                                <g id="编组-4">
                                    <g id="编组-16">
                                        <g id="路径-3-+-路径-4-蒙版">
                                            <mask id="mask-3" fill="white">
                                                <use xlink:href="#path-2"></use>
                                            </mask>
                                            <use id="蒙版" fill="url(#linearGradient-1)" xlink:href="#path-2"></use>
                                            <path d="M-8.7129232,41.2647852 C24.7004873,86.2264402 60.1792829,99.3357777 97.7234635,80.5927976 C154.039734,52.4783276 222.566858,16.0276939 274.127815,51.5530176 C325.688771,87.0783413 281.333812,158.507955 274.127815,158.507955 C269.323817,158.507955 170.244218,158.507955 -23.1109799,158.507955 L-8.7129232,41.2647852 Z" id="路径-3" fill="url(#linearGradient-4)" mask="url(#mask-3)"></path>
                                            <path d="M-12.7027214,36.8423895 C-2.69518562,85.5939976 32.9234211,105.556436 94.1530987,96.7297038 C155.382776,87.902972 189.33686,106.782123 196.015348,153.367156 L-19.6871311,145.445667 L-12.7027214,36.8423895 Z" id="路径-4" fill="url(#linearGradient-5)" mask="url(#mask-3)"></path>
                                        </g>
                                    </g>
                                </g>
                                <g id="编组-13" transform="translate(12.000000, 12.000000)" fill="#FFFFFF">
                                    <text id="Minimum:-2000" font-family="PingFangSC-Regular, PingFang SC" font-size="12" font-weight="normal">
                                        <tspan x="0.68" y="92">Minimum: 2000</tspan>
                                    </text>
                                    <g id="编组-2备份" transform="translate(0.000000, 0.000000)" fill-rule="nonzero">
                                        <path d="M11.802309,15.6380738 L15.308891,6.21688747 L19.1429359,6.21688747 L12.9347849,21.0333461 L9.71473296,21.0333461 L8.62318992,11.7627893 L4.31159496,21.0333461 L1.09154303,21.0333461 L-1.64546739e-13,6.21688747 L3.60209199,6.21688747 L3.83404489,15.5422187 L8.05012983,6.21688747 L10.8335646,6.21688747 L11.802309,15.6380738 Z M22.5949407,21.0333461 L18.719963,21.0333461 L21.2850891,6.21688747 L25.1600668,6.21688747 L22.5949407,21.0333461 Z M22.7040949,3.5055577 L26.2788984,3.5055577 L26.2788984,-2.93833462e-15 L22.7859607,-2.93833462e-15 L22.7040949,3.5055577 Z M35.9663428,9.92784894 C35.438761,9.83655797 35.0066962,9.79091309 34.6701354,9.79091309 C33.2966036,9.7543967 32.2096195,10.2701832 31.4091506,11.3382882 L29.7036146,21.0333461 L25.8559254,21.0333461 L28.4210515,6.21688747 L32.0367879,6.20319389 L31.6820364,8.01074708 C32.6098526,6.61399445 33.7559613,5.91562861 35.1203969,5.91562861 C35.5024389,5.91562861 35.9481479,5.97953137 36.4575371,6.1073388 L35.9663428,9.92784894 Z M42.8976409,21.3072179 C41.6059753,21.2980888 40.4621406,20.9808572 39.4661025,20.3555138 C38.4700646,19.7301703 37.7264584,18.8720475 37.2352615,17.7811198 C36.7440647,16.6901921 36.5530466,15.4874509 36.6622014,14.1728603 L36.7031343,13.6251168 C36.8395778,12.1827187 37.2579985,10.8590187 37.9584088,9.65397724 C38.658819,8.44893576 39.559333,7.52006355 40.6599778,6.86733275 C41.7606225,6.21460195 42.9795,5.90649937 44.3166469,5.94301578 C46.2177605,5.97953219 47.6572185,6.68018027 48.635064,8.04498104 C49.6129096,9.40978178 49.9835756,11.1374385 49.7470735,13.2280029 L49.5287649,14.9123138 L40.482602,14.9123138 C40.4462171,15.8708696 40.6781676,16.6377026 41.1784607,17.2128361 C41.6787538,17.7879694 42.3609613,18.0846609 43.2251039,18.102919 C44.6259244,18.1394354 45.853898,17.596262 46.9090616,16.4733825 L48.6691748,18.664356 C48.1143043,19.5042334 47.3138474,20.1592367 46.2677801,20.6293854 C45.2217128,21.0995342 44.0983443,21.325476 42.8976409,21.3072179 Z M44.1256269,9.13362103 C43.4161204,9.11536282 42.7862154,9.33902247 42.235893,9.80460666 C41.6855706,10.2701909 41.1921072,11.0781043 40.7554877,12.2283712 L46.0494714,12.2283712 L46.1313372,11.872338 C46.1859146,11.5071739 46.1904627,11.1602732 46.1449815,10.8316255 C46.0540191,10.3021376 45.8311647,9.88905197 45.4764113,9.59235614 C45.1216599,9.2956603 44.6714011,9.14275013 44.1256269,9.13362103 Z" id="wire"></path>
                                        <path d="M5.81117731,27.1154392 L5.28492426,30.3629706 L7.30036147,30.3629706 L6.88607716,32.9512288 L4.87063994,32.9512288 L3.84052759,39.5683792 C3.79573987,39.9834794 3.82559789,40.3009041 3.93010257,40.5206629 C4.03460725,40.7404217 4.28840051,40.8584386 4.69148997,40.8747171 C4.81092388,40.8828563 5.13189771,40.8625086 5.65442107,40.8136733 L5.43048361,43.5118103 C4.87063714,43.7152907 4.26601202,43.8088903 3.61659011,43.7926119 C2.57900799,43.7763335 1.80643145,43.4222828 1.29883732,42.7304493 C0.791243184,42.0386159 0.58223697,41.1026199 0.671812406,39.9224335 L1.71312163,32.9512288 L0,32.9512288 L0.414284317,30.3629706 L2.12740595,30.3629706 L2.64246212,27.1154392 L5.81117731,27.1154392 Z M15.3285198,33.6715459 C14.8955718,33.5901537 14.5410077,33.5494582 14.2648167,33.5494582 C13.1376592,33.5169014 12.2456505,33.9767602 11.588764,34.9290486 L10.1891548,43.5728541 L7.03163651,43.5728541 L9.13664872,30.3629706 L12.1038202,30.3507618 L11.8127015,31.9623188 C12.5740927,30.7170186 13.5146206,30.0943778 14.6343136,30.0943778 C14.9478276,30.0943778 15.3135885,30.1513515 15.7316071,30.2653005 L15.3285198,33.6715459 Z M22.2705812,43.5728541 C22.1735412,43.2391462 22.1324864,42.8403305 22.1474156,42.3763952 C21.2367321,43.3693796 20.20663,43.8495863 19.0570786,43.8170294 C17.9971026,43.800751 17.1181568,43.4243178 16.4202149,42.6877186 C15.7222729,41.9511195 15.3957007,41.0415756 15.4404885,39.9590597 C15.4927408,38.5184183 16.0469804,37.4135361 17.1032241,36.64438 C18.1594678,35.875224 19.5758581,35.4906518 21.3524377,35.4906518 L22.8304249,35.5150694 L22.9871811,34.7214997 C23.0319688,34.4529055 23.0431656,34.196524 23.0207718,33.9523475 C22.9834486,33.5698042 22.8509537,33.2706925 22.6232827,33.0550032 C22.3956119,32.839314 22.0951654,32.7274014 21.7219344,32.7192622 C21.2292695,32.7029837 20.8112571,32.8352441 20.4678846,33.1160471 C20.1245121,33.39685 19.9043092,33.80177 19.8072691,34.3308192 L16.6385539,34.3430279 C16.6908063,33.0814493 17.2226524,32.057958 18.2341084,31.2725236 C19.2455643,30.4870891 20.4940033,30.1025169 21.9794626,30.1187953 C23.3529525,30.1513522 24.4278417,30.5969677 25.2041621,31.455655 C25.9804825,32.3143424 26.3051886,33.4192246 26.1782901,34.7703347 L25.2489496,41.0944748 L25.1929652,41.8758358 C25.178036,42.4537203 25.2414842,42.9420659 25.383312,43.3408876 L25.3721151,43.5728541 L22.2705812,43.5728541 Z M19.8408597,41.1433099 C20.7515433,41.1758668 21.5465134,40.7444947 22.2257937,39.8491808 L22.6176843,37.5661418 L21.5203907,37.553933 C20.3559101,37.5864899 19.516153,37.9730969 19.0010942,38.7137657 C18.8144787,38.9823599 18.6987788,39.3119932 18.6539912,39.7026757 C18.5942742,40.1421934 18.6782499,40.4901397 18.9059208,40.7465251 C19.1335917,41.0029104 19.4452349,41.1351707 19.8408597,41.1433099 Z M32.291783,30.3507618 L32.023058,31.9134837 C32.9934586,30.6844619 34.1691185,30.0862385 35.5500731,30.1187953 C36.69216,30.143213 37.5356493,30.5990023 38.0805665,31.4861769 C38.6254837,32.3733516 38.8232932,33.602355 38.6740008,35.173224 L37.3975572,43.5728541 L34.240039,43.5728541 L35.5388762,35.1365976 C35.5761994,34.8191682 35.5836639,34.5302303 35.56127,34.2697753 C35.4642299,33.4395752 34.9865015,33.0122727 34.1280702,32.987855 C33.2994974,32.9552982 32.5567789,33.3744615 31.8998924,34.2453578 L30.3883145,43.5728541 L27.2307961,43.5728541 L29.3358083,30.3629706 L32.291783,30.3507618 Z M46.8925059,39.8491808 C47.0119398,39.1980434 46.5976597,38.725976 45.649653,38.4329641 L44.6307375,38.1521626 C42.2196653,37.4277722 41.0477377,36.1499342 41.1149192,34.3186104 C41.1522423,33.0733102 41.6579627,32.057958 42.6320956,31.2725236 C43.6062285,30.4870891 44.7800223,30.1025169 46.1535122,30.1187953 C47.5195377,30.1350737 48.6242848,30.5298198 49.4677868,31.3030455 C50.3112888,32.0762711 50.740498,33.1058666 50.7554273,34.391863 L47.6203027,34.3796542 C47.635232,33.248303 47.1201809,32.6744968 46.0751342,32.6582184 C45.5824693,32.6582184 45.1551262,32.7925135 44.7930921,33.0611076 C44.4310581,33.3297018 44.208989,33.6918915 44.1268782,34.1476877 C44.0149089,34.7988251 44.4665116,35.2586839 45.4816999,35.5272781 L45.9295748,35.637157 C46.9596923,35.9057511 47.7471979,36.213002 48.2921151,36.5589188 C48.8370323,36.9048355 49.2569109,37.3341727 49.5517634,37.8469434 C49.8466158,38.3597141 49.9828431,38.9742157 49.9604492,39.6904669 C49.9380554,40.5288062 49.6898604,41.2613248 49.2158571,41.8880445 C48.7418537,42.5147643 48.0924416,42.9990405 47.2676012,43.3408876 C46.4427607,43.6827347 45.5750117,43.841447 44.6643281,43.8170294 C43.3206965,43.800751 42.2010204,43.3795528 41.3052661,42.5534222 C40.4095117,41.7272917 39.9541768,40.6590355 39.9392475,39.3486214 L42.9176158,39.3730391 C42.9474743,40.6346177 43.5670285,41.2735367 44.7762968,41.2898151 C45.3585372,41.2898151 45.8381318,41.1595896 46.2150951,40.8991346 C46.5920583,40.6386797 46.8178597,40.2886985 46.8925059,39.8491808 Z M52.2670051,43.5728541 L53.9577331,32.9512288 L52.2110208,32.9512288 L52.6253051,30.3629706 L54.3720174,30.3507618 L54.5287736,29.0322152 C54.7228537,27.6241307 55.2491015,26.5192485 56.1075327,25.7175356 C56.965964,24.9158227 58.0595144,24.5231113 59.3882167,24.5393898 C59.8435585,24.5556682 60.4145933,24.6411287 61.1013382,24.7957739 L60.8214165,27.542746 C60.4631147,27.4450753 60.1533376,27.3962407 59.892076,27.3962407 C59.3322294,27.3881015 58.8526349,27.5427444 58.4532777,27.8601738 C58.0539206,28.1776033 57.8057257,28.6537404 57.7086857,29.2885993 L57.5407325,30.3629706 L59.8808791,30.3629706 L59.4665948,32.9512288 L57.1376451,32.9512288 L55.4469172,43.5728541 L52.2670051,43.5728541 Z M65.2553783,43.8170294 C64.1954023,43.8088902 63.2567405,43.5260566 62.4393647,42.9685203 C61.6219888,42.4109839 61.0117653,41.6459089 60.6086759,40.6732725 C60.2055864,39.700636 60.0488317,38.6283102 60.1384072,37.4562629 L60.1719977,36.9679124 C60.2839671,35.6819161 60.6273344,34.5017472 61.2021101,33.4273706 C61.7768859,32.3529939 62.5158721,31.5248409 63.4190911,30.9428869 C64.3223101,30.3609329 65.322554,30.0862385 66.4198532,30.1187953 C67.9799586,30.1513522 69.1612169,30.7760277 69.9636636,31.9928407 C70.7661102,33.2096537 71.0702889,34.7499774 70.8762088,36.6138582 L70.6970588,38.1155362 L63.2735317,38.1155362 C63.2436732,38.970154 63.4340182,39.653838 63.8445723,40.1666087 C64.2551264,40.6793794 64.8149644,40.9439 65.5241033,40.9601784 C66.6736547,40.9927353 67.6813632,40.5084592 68.5472591,39.5073354 L69.9916558,41.4607378 C69.536314,42.2095458 68.8794373,42.7935259 68.0210061,43.2126956 C67.1625748,43.6318652 66.2407081,43.8333078 65.2553783,43.8170294 Z M66.2630969,32.9634375 C65.6808566,32.9471591 65.1639394,33.1465669 64.71233,33.561667 C64.2607205,33.976767 63.8557709,34.697077 63.4974691,35.7226184 L67.8418561,35.7226184 L67.9090373,35.4051905 C67.9538251,35.0796218 67.9575573,34.7703362 67.9202342,34.4773243 C67.845588,34.0052498 67.6627075,33.6369556 67.3715874,33.3724311 C67.0804687,33.1079065 66.7109741,32.9715768 66.2630969,32.9634375 Z M79.9344794,33.6715459 C79.5015314,33.5901537 79.1469673,33.5494582 78.8707764,33.5494582 C77.7436188,33.5169014 76.8516102,33.9767602 76.1947237,34.9290486 L74.7951145,43.5728541 L71.6375962,43.5728541 L73.7426084,30.3629706 L76.7097799,30.3507618 L76.4186611,31.9623188 C77.1800523,30.7170186 78.1205803,30.0943778 79.2402732,30.0943778 C79.5537873,30.0943778 79.9195481,30.1513515 80.3375669,30.2653005 L79.9344794,33.6715459 Z" id="transfer"></path>
                                        <path d="M57.6334718,7.01111539 L68.1122849,13.1458413 L57.6334718,19.2805673 L57.6334718,7.01111539 Z M71.6052226,7.01111539 L82.0840357,13.1458413 L71.6052226,19.2805673 L71.6052226,7.01111539 Z" id="形状结合备份"></path>
                                    </g>
                                </g>
                            </g>
                        </g>
                    </g>
                </g>
            </g>
        </g>
    </g>
</svg>