<?xml version="1.0" encoding="UTF-8"?>
<svg width="50px" height="50px" viewBox="0 0 50 50" version="1.1" xmlns="http://www.w3.org/2000/svg" xmlns:xlink="http://www.w3.org/1999/xlink">
    <!-- Generator: Sketch 64 (93537) - https://sketch.com -->
    <title>编组 2</title>
    <desc>Created with Sketch.</desc>
    <g id="页面-1" stroke="none" stroke-width="1" fill="none" fill-rule="evenodd">
        <g id="店铺转移-" transform="translate(-849.000000, -1382.000000)">
            <g id="编组-4备份-7" transform="translate(184.000000, 1075.000000)">
                <g id="编组-7" transform="translate(61.000000, 307.000000)">
                    <g id="编组-3" transform="translate(579.000000, 0.000000)">
                        <g id="编组-19" transform="translate(25.000000, 0.000000)">
                            <g id="编组-2">
                                <circle id="椭圆形备份" fill="#FF7700" cx="25" cy="25" r="25"></circle>
                                <path d="M37.8320312,30.5800781 C38.1953125,30.9462891 38.1953125,31.5439453 37.8320312,31.9072266 L31.2451142,38.4941608 C31.2322988,38.5087973 31.2189535,38.5231222 31.2050781,38.5371094 C30.9932353,38.7455627 30.7039438,38.8334316 30.4273747,38.8001489 C30.2255049,38.7761878 30.0296224,38.6875651 29.875,38.5341797 L29.861,38.518 L26.5761719,35.2353516 C26.2128906,34.8720703 26.2128906,34.2744141 26.5761719,33.9082031 C26.9394531,33.5449219 27.5371094,33.5449219 27.9033203,33.9082031 L30.539,36.543 L36.5048828,30.5800781 C36.8681641,30.2167969 37.4658203,30.2167969 37.8320312,30.5800781 Z M11.875,29.4052734 C11.875,28.8076172 12.4404297,28.3359375 13.0673828,28.5 C13.4746094,28.6083984 13.75,28.9833984 13.75,29.4023438 L13.75,29.4023438 L13.75,35.2236328 C13.75,36.1582031 14.5117188,36.9199219 15.4492188,36.9199219 L15.4492188,36.9199219 L21.2441406,36.9199219 C21.7626953,36.9199219 22.1816406,37.3388672 22.1816406,37.8574219 C22.1816406,38.3759766 21.7626953,38.7949219 21.2441406,38.7920075 L21.2441406,38.7920075 L15.4492188,38.7920075 C13.4775391,38.7920075 11.875,37.1923828 11.875,35.2265625 L11.875,35.2265625 Z M36.296875,11 C36.6748047,11 37.0087891,11.2402344 37.1289062,11.5976562 L39.4814453,18.5527344 C39.625,18.8691406 39.7246094,19.1621094 39.7802734,19.4433594 C39.9267578,19.9472656 40,20.4716797 40,20.9990234 C40,24.0927734 37.4746094,26.6123047 34.3720703,26.6123047 C32.9335937,26.6123047 31.5654297,26.0703125 30.5195312,25.0888672 C30.2001953,24.7900391 29.921875,24.4619141 29.6845703,24.1044922 C29.4472656,24.4589844 29.1689453,24.7900391 28.8496094,25.0888672 C27.8037109,26.0703125 26.4326172,26.6123047 24.9970703,26.6123047 C23.5615234,26.6123047 22.1904297,26.0703125 21.1445312,25.0888672 C20.828125,24.7929688 20.5498047,24.4619141 20.3125,24.1103516 C20.0751953,24.4648438 19.796875,24.7929688 19.4804688,25.0888672 C18.4345703,26.0703125 17.0634766,26.6123047 15.6279297,26.6123047 C12.5253906,26.6123047 10,24.0927734 10,20.9990234 C10,20.4921875 10.0673828,19.9912109 10.2021484,19.5078125 C10.2548828,19.2089844 10.3574219,18.8955078 10.515625,18.5556641 L12.8652344,11.5976562 C12.9882812,11.2402344 13.3222656,11 13.7001953,11 L36.296875,11 Z M34.9492188,12.8720703 L15.0449219,12.8720703 C14.6669922,12.8720703 14.3330078,13.1123047 14.2128906,13.4697266 L12.2587891,19.25 L12.2353516,19.296875 C12.1064453,19.5693359 12.0595703,19.7539063 12.0449219,19.859375 L12.0361328,19.9150391 L12.0214844,19.9707031 C11.9248047,20.3046875 11.8779297,20.6503906 11.8779297,21.0019531 C11.8779297,23.0673828 13.5595703,24.7431641 15.6308594,24.7431641 C17.5996094,24.7431641 19.2460938,23.2080078 19.375,21.2480469 L19.383,21.127 L19.3837891,20.0507812 C19.3837891,19.5351562 19.8056641,19.1132812 20.3212891,19.1132812 C20.8369141,19.1132812 21.2587891,19.5351562 21.2587891,20.0507812 L21.2587891,21.2480469 C21.3876953,23.2080078 23.03125,24.7431641 25.0029297,24.7431641 C26.9746094,24.7431641 28.6181641,23.2080078 28.7470703,21.2480469 L28.752,21.159 L28.7529297,20.0507812 C28.7529297,19.5351562 29.1748047,19.1132812 29.6904297,19.1132812 C30.2060547,19.1132812 30.6279297,19.5351562 30.6279297,20.0507812 L30.6279297,21.2509766 C30.7568359,23.2109375 32.4003906,24.7460938 34.3720703,24.7460938 C36.4404297,24.7460938 38.125,23.0673828 38.125,21.0048828 C38.125,20.6416016 38.0722656,20.28125 37.9697266,19.9355469 L37.9550781,19.8886719 L37.9462891,19.8388672 C37.9199219,19.6894531 37.8554688,19.5107422 37.7587891,19.3027344 L37.7353516,19.2558594 L37.7177734,19.2060547 L35.78125,13.4697266 C35.6611328,13.1123047 35.3242188,12.8720703 34.9492188,12.8720703 Z" id="形状结合" stroke="#FFFFFF" stroke-width="0.2" fill="#FFFFFF" fill-rule="nonzero"></path>
                            </g>
                        </g>
                    </g>
                </g>
            </g>
        </g>
    </g>
</svg>