<?xml version="1.0" encoding="UTF-8"?>
<svg width="24px" height="40px" viewBox="0 0 24 40" version="1.1" xmlns="http://www.w3.org/2000/svg" xmlns:xlink="http://www.w3.org/1999/xlink">
    <!-- Generator: Sketch 55.2 (78181) - https://sketchapp.com -->
    <title>编组 41备份</title>
    <desc>Created with Sketch.</desc>
    <g stroke="none" stroke-width="1" fill="none" fill-rule="evenodd">
        <g transform="translate(-810.000000, -2131.000000)">
            <g transform="translate(822.000000, 2151.000000) rotate(-180.000000) translate(-822.000000, -2151.000000) translate(810.000000, 2131.000000)">
                <rect fill="#000000" opacity="0.3" x="0" y="0" width="24" height="40"></rect>
                <g transform="translate(8.000000, 13.000000)" fill="#FFFFFF" fill-rule="nonzero" opacity="0.5">
                    <path d="M7.36958151,13.9688567 C7.23419674,13.9688567 7.09730739,13.9190665 6.99351328,13.8195104 L0.254366018,7.36084079 C0.0467764739,7.16172884 0.0467764739,6.83817397 0.254366018,6.63906202 L6.99351328,0.180392397 C7.20110283,-0.018719553 7.53806151,-0.018719553 7.74565106,0.180392397 C7.9532406,0.379504348 7.9532406,0.703059217 7.74565106,0.902171167 L1.38256673,6.99995756 L7.74565106,13.097744 C7.9532406,13.2968559 7.9532406,13.6204108 7.74565106,13.8195227 C7.64185602,13.9190784 7.5049676,13.9688567 7.36958283,13.9688567 L7.36958151,13.9688567 Z"></path>
                </g>
            </g>
        </g>
    </g>
</svg>