<?xml version="1.0" encoding="UTF-8"?>
<svg width="135px" height="29px" viewBox="0 0 135 29" version="1.1" xmlns="http://www.w3.org/2000/svg" xmlns:xlink="http://www.w3.org/1999/xlink">
    <!-- Generator: Sketch 55.2 (78181) - https://sketchapp.com -->
    <title>编组 72</title>
    <desc>Created with Sketch.</desc>
    <g id="页面1" stroke="none" stroke-width="1" fill="none" fill-rule="evenodd">
        <g id="logo" transform="translate(-107.000000, -217.000000)" fill="#2D8BDB">
            <g id="编组-72" transform="translate(107.000000, 217.000000)">
                <g id="shopmaster_logo">
                    <path d="M46,26.8297057 L48,26.8297057 L48,28.8297057 L46,28.8297057 L46,26.8297057 Z M59,20.8297057 L59,21.8297057 C59,22.1750053 58.956247,22.5100858 58.8739825,22.8297057 L56.7324356,22.8297057 C56.9026057,22.5355323 57,22.1939928 57,21.8297057 L57,20.8297057 L59,20.8297057 Z M59,19.8297057 L57,19.8297057 L57,17.8297057 L59,17.8297057 L59,19.8297057 Z M46,20.8297057 L48,20.8297057 L48,22.8297057 L46,22.8297057 L46,20.8297057 Z M46,19.8297057 L46,17.8297057 L48,17.8297057 L48,19.8297057 L46,19.8297057 Z M49,25.8297057 L49,23.8297057 L55,23.8297057 L58.4648712,23.8297057 C57.7732524,25.0253084 56.4805647,25.8297057 55,25.8297057 L49,25.8297057 Z M48,25.8297057 L46,25.8297057 L46,23.8297057 L48,23.8297057 L48,25.8297057 Z M58.8739825,14.8297057 C58.956247,15.1493256 59,15.4844061 59,15.8297057 L59,16.8297057 L57,16.8297057 L57,15.8297057 C57,15.4654186 56.9026057,15.1238791 56.7324356,14.8297057 L58.8739825,14.8297057 Z M58.4648712,13.8297057 L55,13.8297057 L50,13.8297057 L46.5351288,13.8297057 C47.2267476,12.634103 48.5194353,11.8297057 50,11.8297057 L55,11.8297057 C56.4805647,11.8297057 57.7732524,12.634103 58.4648712,13.8297057 Z M46.1260175,14.8297057 L48.2675644,14.8297057 C48.0973943,15.1238791 48,15.4654186 48,15.8297057 L48,16.8297057 L46,16.8297057 L46,15.8297057 C46,15.4844061 46.043753,15.1493256 46.1260175,14.8297057 Z M44,20.8297057 L44,21.8297057 C44,22.1750053 43.956247,22.5100858 43.8739825,22.8297057 L41.7324356,22.8297057 C41.9026057,22.5355323 42,22.1939928 42,21.8297057 L42,20.8297057 L44,20.8297057 Z M44,19.8297057 L42,19.8297057 L42,17.8297057 L44,17.8297057 L44,19.8297057 Z M31,20.8297057 L33,20.8297057 L33,21.8297057 C33,22.1939928 33.0973943,22.5355323 33.2675644,22.8297057 L31.1260175,22.8297057 C31.043753,22.5100858 31,22.1750053 31,21.8297057 L31,20.8297057 Z M31,19.8297057 L31,17.8297057 L33,17.8297057 L33,19.8297057 L31,19.8297057 Z M43.4648712,23.8297057 C42.7732524,25.0253084 41.4805647,25.8297057 40,25.8297057 L35,25.8297057 C33.5194353,25.8297057 32.2267476,25.0253084 31.5351288,23.8297057 L35,23.8297057 L40,23.8297057 L43.4648712,23.8297057 Z M43.8739825,14.8297057 C43.956247,15.1493256 44,15.4844061 44,15.8297057 L44,16.8297057 L42,16.8297057 L42,15.8297057 C42,15.4654186 41.9026057,15.1238791 41.7324356,14.8297057 L43.8739825,14.8297057 Z M43.4648712,13.8297057 L40,13.8297057 L35,13.8297057 L31.5351288,13.8297057 C32.2267476,12.634103 33.5194353,11.8297057 35,11.8297057 L40,11.8297057 C41.4805647,11.8297057 42.7732524,12.634103 43.4648712,13.8297057 Z M31.1260175,14.8297057 L33.2675644,14.8297057 C33.0973943,15.1238791 33,15.4654186 33,15.8297057 L33,16.8297057 L31,16.8297057 L31,15.8297057 C31,15.4844061 31.043753,15.1493256 31.1260175,14.8297057 Z M29,20.8297057 L29,22.8297057 L27,22.8297057 L27,20.8297057 L29,20.8297057 Z M29,19.8297057 L27,19.8297057 L27,17.8297057 L29,17.8297057 L29,19.8297057 Z M16,20.8297057 L18,20.8297057 L18,22.8297057 L16,22.8297057 L16,20.8297057 Z M16,19.8297057 L16,17.8297057 L18,17.8297057 L18,19.8297057 L16,19.8297057 Z M27,25.8297057 L27,23.8297057 L29,23.8297057 L29,25.8297057 L27,25.8297057 Z M18,25.8297057 L16,25.8297057 L16,23.8297057 L18,23.8297057 L18,25.8297057 Z M28.8739825,14.8297057 C28.956247,15.1493256 29,15.4844061 29,15.8297057 L29,16.8297057 L27,16.8297057 L27,15.8297057 C27,15.4654186 26.9026057,15.1238791 26.7324356,14.8297057 L28.8739825,14.8297057 Z M28.4648712,13.8297057 L25,13.8297057 L18,13.8297057 L16,13.8297057 L16,11.8297057 L25,11.8297057 C26.4805647,11.8297057 27.7732524,12.634103 28.4648712,13.8297057 Z M16,14.8297057 L18,14.8297057 L18,16.8297057 L16,16.8297057 L16,14.8297057 Z M16,8.82970569 L18,8.82970569 L18,10.8297057 L16,10.8297057 L16,8.82970569 Z M16,5.82970569 L18,5.82970569 L18,7.82970569 L16,7.82970569 L16,5.82970569 Z M11,16.8297057 L3.5,16.8297057 C1.56700338,16.8297057 2.36723813e-16,15.2627023 0,13.3297057 L0,9.32970569 C-2.36723813e-16,7.39670907 1.56700338,5.82970569 3.5,5.82970569 L14,5.82970569 L14,7.82970569 L11,7.82970569 L4,7.82970569 C2.8954305,7.82970569 2,8.7251362 2,9.82970569 L2,12.8297057 C2,13.9342752 2.8954305,14.8297057 4,14.8297057 L11,14.8297057 L11.5,14.8297057 C13.4329966,14.8297057 15,16.3967091 15,18.3297057 L15,22.3297057 C15,24.2627023 13.4329966,25.8297057 11.5,25.8297057 L0,25.8297057 L0,23.4547057 L0,25.8297057 L1,25.8297057 L1,23.8297057 L3,23.8297057 L11,23.8297057 C12.1045695,23.8297057 13,22.9342752 13,21.8297057 L13,18.8297057 C13,17.7251362 12.1045695,16.8297057 11,16.8297057 Z M110,11.8297057 L113,11.8297057 L113,13.8297057 L110,13.8297057 L110,25.8297057 L108,25.8297057 L108,13.8297057 L107,13.8297057 L107,11.8297057 L108,11.8297057 L108,5.82970569 L110,5.82970569 L110,11.8297057 Z M134.239692,9.0187337 C129.055983,5.94836332 124.449562,4.18317628 120.42043,3.72317258 C114.376733,3.03316702 109.166002,3.63715021 106.729636,4.34557927 C105.657159,3.67237598 104.536921,3.06257341 103.368921,2.51617157 C109.167636,0.037344052 115.212553,-0.248365713 121.50367,1.65904228 C127.322755,3.45006694 131.568095,5.90329741 134.239692,9.0187337 Z M134,13.8297057 L132,13.8297057 C130.895431,13.8297057 130,14.7251362 130,15.8297057 L130,25.8297057 L128,25.8297057 L128,15.8297057 C128,13.6205667 129.790861,11.8297057 132,11.8297057 L134,11.8297057 L134,13.8297057 Z M116,19.2945769 L116,19.8297057 L114,19.8297057 L114,17.8297057 L114.535129,17.8297057 L118,17.8297057 L123,17.8297057 L126.464871,17.8297057 C125.773252,19.0253084 124.480565,19.8297057 123,19.8297057 L118,19.8297057 C117.271426,19.8297057 116.588347,19.6349171 116,19.2945769 Z M126.873983,14.8297057 C126.956247,15.1493256 127,15.4844061 127,15.8297057 C127,16.1750053 126.956247,16.5100858 126.873983,16.8297057 L124.732436,16.8297057 C124.902606,16.5355323 125,16.1939928 125,15.8297057 C125,15.4654186 124.902606,15.1238791 124.732436,14.8297057 L126.873983,14.8297057 Z M126.464871,13.8297057 L123,13.8297057 L118,13.8297057 L114.535129,13.8297057 C115.226748,12.634103 116.519435,11.8297057 118,11.8297057 L123,11.8297057 C124.480565,11.8297057 125.773252,12.634103 126.464871,13.8297057 Z M114.126017,14.8297057 L116.267564,14.8297057 C116.097394,15.1238791 116,15.4654186 116,15.8297057 C116,16.1939928 116.097394,16.5355323 116.267564,16.8297057 L114.126017,16.8297057 C114.043753,16.5100858 114,16.1750053 114,15.8297057 C114,15.4844061 114.043753,15.1493256 114.126017,14.8297057 Z M116.267564,22.8297057 L114.126017,22.8297057 C114.043753,22.5100858 114,22.1750053 114,21.8297057 L114,20.8297057 L116,20.8297057 L116,21.8297057 C116,22.1939928 116.097394,22.5355323 116.267564,22.8297057 Z M122,23.8297057 L126,23.8297057 L126,25.8297057 L118,25.8297057 C116.519435,25.8297057 115.226748,25.0253084 114.535129,23.8297057 L122,23.8297057 Z M98,19.8297057 C96.5194353,19.8297057 95.2267476,19.0253084 94.5351288,17.8297057 L98,17.8297057 L103,17.8297057 C104.480565,17.8297057 105.773252,18.634103 106.464871,19.8297057 L103,19.8297057 L98,19.8297057 Z M104.732436,14.8297057 L105,14.8297057 L104.732436,14.8297057 Z M105,13.8297057 L103,13.8297057 L98,13.8297057 L94.5351288,13.8297057 C95.2267476,12.634103 96.5194353,11.8297057 98,11.8297057 L105,11.8297057 L105,13.8297057 Z M94.1260175,14.8297057 L96.2675644,14.8297057 C96.0973943,15.1238791 96,15.4654186 96,15.8297057 C96,16.1939928 96.0973943,16.5355323 96.2675644,16.8297057 L94.1260175,16.8297057 C94.043753,16.5100858 94,16.1750053 94,15.8297057 C94,15.4844061 94.043753,15.1493256 94.1260175,14.8297057 Z M96,25.8297057 L96,23.8297057 L98,23.8297057 L103,23.8297057 L106.464871,23.8297057 C105.773252,25.0253084 104.480565,25.8297057 103,25.8297057 L96,25.8297057 Z M106.873983,20.8297057 C106.956247,21.1493256 107,21.4844061 107,21.8297057 C107,22.1750053 106.956247,22.5100858 106.873983,22.8297057 L104.732436,22.8297057 C104.902606,22.5355323 105,22.1939928 105,21.8297057 C105,21.4654186 104.902606,21.1238791 104.732436,20.8297057 L106.873983,20.8297057 Z M91,18.3648345 L91,19.2945769 L91,15.8297057 C91,14.7251362 90.1045695,13.8297057 89,13.8297057 L86.5,13.8297057 L82,13.8297057 L82,11.8297057 L89,11.8297057 C91.209139,11.8297057 93,13.6205667 93,15.8297057 L93,21.8297057 C93,24.0388447 91.209139,25.8297057 89,25.8297057 L84,25.8297057 C81.790861,25.8297057 80,24.0388447 80,21.8297057 C80,19.6205667 81.790861,17.8297057 84,17.8297057 L89,17.8297057 L89,19.8297057 L84,19.8297057 C82.8954305,19.8297057 82,20.7251362 82,21.8297057 C82,22.9342752 82.8954305,23.8297057 84,23.8297057 L89,23.8297057 C90.1045695,23.8297057 91,22.9342752 91,21.8297057 L91,18.3648345 Z M86.5,19.8297057 L89,19.8297057 L89,17.8297057 L89,19.8297057 L86.5,19.8297057 Z M78,8.83073955 L78,25.8297057 L76,25.8297057 L76,11.8297057 L70.1790487,25.5177988 L68.206999,25.5177988 L63,12.4834832 L63,25.8297057 L61,25.8297057 L61,5.82970569 L63,5.82970569 L69.1480943,22.3292591 L76,5.82970569 L78,5.82970569 L78,8.83073955 Z" id="形状结合"></path>
                </g>
            </g>
        </g>
    </g>
</svg>