<?xml version="1.0" encoding="UTF-8"?>
<svg width="18px" height="18px" viewBox="0 0 18 18" version="1.1" xmlns="http://www.w3.org/2000/svg" xmlns:xlink="http://www.w3.org/1999/xlink">
    <!-- Generator: Sketch 63.1 (92452) - https://sketch.com -->
    <title>编组 21</title>
    <desc>Created with Sketch.</desc>
    <g id="页面-1" stroke="none" stroke-width="1" fill="none" fill-rule="evenodd">
        <g id="媒体订单" transform="translate(-308.000000, -507.000000)" fill-rule="nonzero">
            <g id="编组-3备份-4" transform="translate(266.000000, 425.000000)">
                <g id="编组-2" transform="translate(11.000000, 51.000000)">
                    <g id="编组-21" transform="translate(31.000000, 31.000000)">
                        <path d="M8.59349674,1.89848137e-14 L9.40164683,1.89848137e-14 C9.43050934,0.00501957422 9.45853525,0.0112940156 9.48697945,0.0146403984 C9.87892388,0.0619079766 10.2754696,0.0857509102 10.6623945,0.159371209 C12.7170701,0.548387561 14.4467288,1.5292944 15.8007567,3.11840529 C17.662179,5.30484451 18.3327094,7.83805208 17.8345175,10.6644859 C17.5362716,12.3585894 16.7774806,13.8376882 15.6066668,15.0955077 C14.1083264,16.7055334 12.2623811,17.6521399 10.0767784,17.9252879 C8.8766839,18.0758749 7.69081147,17.9863593 6.53045518,17.646702 C4.34819892,17.0100538 2.63820016,15.7296462 1.40589673,13.8209563 C0.639994641,12.636757 0.195344771,11.334598 0.0501956543,9.93121103 C0.0309539883,9.74841518 0.0167318789,9.56561933 -2.99760217e-15,9.38240517 L-2.99760217e-15,8.60939202 C0.00501957422,8.57509165 0.012548918,8.54120958 0.0142221094,8.50690923 C0.044339502,7.90288813 0.131763604,7.30681469 0.290716523,6.72370845 C0.947443061,4.31599004 2.35501298,2.47464596 4.50129568,1.2055324 C5.59681592,0.558008402 6.78645302,0.181959258 8.05222021,0.05103225 C8.23208799,0.032208873 8.41279236,0.0171501855 8.59307843,1.89848137e-14 L8.59349674,1.89848137e-14 Z" id="路径" fill="#000000" opacity="0.501013765"></path>
                        <path d="M6.90357623,13.1901642 L12.8961013,8.9958986 C10.898378,7.69789935 8.90073017,6.39978384 6.90315794,5.10155209 L6.90315794,13.1901642 L6.90357623,13.1901642 Z" id="路径" fill="#FFFFFF"></path>
                    </g>
                </g>
            </g>
        </g>
    </g>
</svg>