<?xml version="1.0" encoding="utf-8"?>
<!-- Generator: Adobe Illustrator 21.0.0, SVG Export Plug-In . SVG Version: 6.00 Build 0)  -->
<svg version="1.1" id="图层_1" xmlns="http://www.w3.org/2000/svg" xmlns:xlink="http://www.w3.org/1999/xlink" x="0px" y="0px"
	 viewBox="0 0 130 110" style="enable-background:new 0 0 130 110;" xml:space="preserve">
<style type="text/css">
	.st0{fill:#FFFFFF;}
</style>
<path class="st0" d="M19,80.6c0,11.8,9.6,21.4,21.4,21.4s21.4-9.6,21.4-21.4l0-21.4H40.4C28.6,59.3,19,68.8,19,80.6z M54,80.6
	c0,7.5-6.1,13.6-13.6,13.6s-13.6-6.1-13.6-13.6c0-7.5,6.1-13.6,13.6-13.6H54V80.6z M111,31.4c0-11.8-9.6-21.4-21.4-21.4
	s-21.4,9.6-21.4,21.4v21.4h21.4C101.4,52.7,111,43.2,111,31.4z M76,31.4c0-7.5,6.1-13.6,13.6-13.6c7.5,0,13.6,6.1,13.6,13.6
	c0,7.5-6.1,13.6-13.6,13.6H76V31.4z M40.4,52.7h21.4V31.4c0-11.8-9.6-21.4-21.4-21.4S19,19.6,19,31.4C19,43.2,28.6,52.7,40.4,52.7z
	 M40.4,17.8c7.5,0,13.6,6.1,13.6,13.6V45H40.4c-7.5,0-13.6-6.1-13.6-13.6S32.9,17.8,40.4,17.8z M89.6,59.3H68.3v21.4
	c0,11.8,9.6,21.4,21.4,21.4S111,92.4,111,80.6S101.4,59.3,89.6,59.3z M89.6,94.2c-7.5,0-13.6-6.1-13.6-13.6V67h13.6
	c7.5,0,13.6,6.1,13.6,13.6C103.2,88.1,97.1,94.2,89.6,94.2z"/>
</svg>
