<?xml version="1.0" encoding="utf-8"?>
<!-- Generator: Adobe Illustrator 21.0.0, SVG Export Plug-In . SVG Version: 6.00 Build 0)  -->
<svg version="1.1" id="图层_1" xmlns="http://www.w3.org/2000/svg" xmlns:xlink="http://www.w3.org/1999/xlink" x="0px" y="0px"
	 viewBox="0 0 64 64" style="enable-background:new 0 0 64 64;" xml:space="preserve">
<path d="M32.1,48.1c-3.4,0-6.1,2.7-6.1,6c0,3.3,2.7,6,6.1,6c3.4,0,6.1-2.7,6.1-6C38.2,50.7,35.5,48.1,32.1,48.1z M45.4,10.3
	C42.1,7.4,37.8,6,32.3,6c-5.2,0-9.4,1.4-12.6,4.2c-3.2,2.8-5.1,6.7-5.2,10.3c-0.1,3.6,8.4,2.8,8.8,1.1c0.3-1.9,1.7-4.9,3.4-6.3
	c1.6-1.4,3.7-2.1,6.1-2.1c2.5,0,4.5,0.7,6,2c1.5,1.3,2.2,2.9,2.2,4.8c0,1.3-0.4,2.6-1.3,3.7c-0.5,0.7-2.2,2.2-5,4.4
	c-2.8,2.3-4.6,4.3-5.6,6.1c-0.9,1.8-1.4,4.1-1.4,6.9c0,0.3,0,1,0,2.3h8.7c0-2.6,0.2-4.4,0.7-5.5c0.5-1,1.7-2.4,3.7-4
	c3.9-3.2,6.4-5.8,7.6-7.7c1.2-1.9,1.8-3.9,1.8-6C50.2,16.5,48.6,13.2,45.4,10.3L45.4,10.3z"/>
</svg>
