<?xml version="1.0" encoding="utf-8"?>
<!-- Generator: Adobe Illustrator 21.0.0, SVG Export Plug-In . SVG Version: 6.00 Build 0)  -->
<svg version="1.1" id="图层_1" xmlns="http://www.w3.org/2000/svg" xmlns:xlink="http://www.w3.org/1999/xlink" x="0px" y="0px"
	 viewBox="0 0 64 64" style="enable-background:new 0 0 64 64;" xml:space="preserve">
<path d="M34.3,40.9h-2.5c-0.7,0-1.3,0.6-1.3,1.3v2.5c0,0.7,0.6,1.3,1.3,1.3h2.5c0.7,0,1.3-0.6,1.3-1.3v-2.5
	C35.5,41.4,35,40.9,34.3,40.9z M34.3,32h-2.5c-0.7,0-1.3,0.6-1.3,1.3v2.5c0,0.7,0.6,1.3,1.3,1.3h2.5c0.7,0,1.3-0.6,1.3-1.3v-2.5
	C35.5,32.6,35,32,34.3,32z M22.9,32h-2.5c-0.7,0-1.3,0.6-1.3,1.3v2.5c0,0.7,0.6,1.3,1.3,1.3h2.5c0.7,0,1.3-0.6,1.3-1.3v-2.5
	C24.2,32.6,23.6,32,22.9,32z M49.5,7.9H16.6c-2.8,0-5.1,2.3-5.1,5.1v38c0,2.8,2.3,5.1,5.1,5.1h32.9c2.8,0,5.1-2.3,5.1-5.1V13
	C54.5,10.2,52.3,7.9,49.5,7.9z M52,51c0,1.4-1.1,2.5-2.5,2.5H16.6c-1.4,0-2.5-1.1-2.5-2.5V13c0-1.4,1.1-2.5,2.5-2.5h32.9
	c1.4,0,2.5,1.1,2.5,2.5V51z M22.9,40.9h-2.5c-0.7,0-1.3,0.6-1.3,1.3v2.5c0,0.7,0.6,1.3,1.3,1.3h2.5c0.7,0,1.3-0.6,1.3-1.3v-2.5
	C24.2,41.4,23.6,40.9,22.9,40.9z M45.7,32h-2.5c-0.7,0-1.3,0.6-1.3,1.3v2.5c0,0.7,0.6,1.3,1.3,1.3h2.5c0.7,0,1.3-0.6,1.3-1.3v-2.5
	C46.9,32.6,46.4,32,45.7,32z M44.4,15.5H21.6c-1.4,0-2.5,1.1-2.5,2.5v5.1c0,1.4,1.1,2.5,2.5,2.5h22.8c1.4,0,2.5-1.1,2.5-2.5v-5.1
	C46.9,16.7,45.8,15.5,44.4,15.5z M44.4,23.1H21.6v-5.1h22.8C44.4,18.1,44.4,23.1,44.4,23.1z M45.7,40.9h-2.5c-0.7,0-1.3,0.6-1.3,1.3
	v2.5c0,0.7,0.6,1.3,1.3,1.3h2.5c0.7,0,1.3-0.6,1.3-1.3v-2.5C46.9,41.4,46.4,40.9,45.7,40.9z"/>
</svg>
