<?xml version="1.0" encoding="utf-8"?>
<!-- Generator: Adobe Illustrator 21.0.0, SVG Export Plug-In . SVG Version: 6.00 Build 0)  -->
<svg version="1.1" id="图层_1" xmlns="http://www.w3.org/2000/svg" xmlns:xlink="http://www.w3.org/1999/xlink" x="0px" y="0px"
	 viewBox="0 0 64 64" style="enable-background:new 0 0 64 64;" xml:space="preserve">
<path d="M36.8,52.3H11.2v-41h25.6v10.3h4.1l0-9.6c0-2.6-2.1-4.7-4.7-4.7l-24.4,0c-2.6,0-4.7,2.1-4.7,4.7v39.8c0,2.6,2.1,4.7,4.7,4.7
	h24.4c2.6,0,4.7-2.1,4.7-4.7l0-9.6h-4.1L36.8,52.3z"/>
<path d="M58.5,29.5l-8.9-8.9l-2.5,2.5l6.7,6.7h-20v4.1h20.4l-7,7l2.5,2.5l9.5-9.5L61,32L58.5,29.5z"/>
</svg>
