<?xml version="1.0" encoding="UTF-8"?>
<svg width="16px" height="14px" viewBox="0 0 16 14" version="1.1" xmlns="http://www.w3.org/2000/svg" xmlns:xlink="http://www.w3.org/1999/xlink">
    <!-- Generator: Sketch 50.2 (55047) - http://www.bohemiancoding.com/sketch -->
    <title>提示@1x</title>
    <desc>Created with Sketch.</desc>
    <defs></defs>
    <g stroke="none" stroke-width="1" fill="none" fill-rule="evenodd">
        <g transform="translate(-406.000000, -205.000000)" fill="#000000" fill-rule="nonzero">
            <g transform="translate(406.000000, 204.000000)">
                <rect opacity="0" x="0" y="0" width="16" height="16"></rect>
                <path d="M10.7448889,1.53955556 C10.3216592,1.20557532 9.76828344,1.08493416 9.24444444,1.21244444 L4.54044444,4.08888889 C4.42521783,4.12301358 4.30435692,4.13389106 4.18488889,4.12088889 L2.82666667,4.12088889 C1.91288889,4.12088889 0.743111109,5.31555556 0.743111109,6.25422222 L0.743111109,9.70666667 C0.743111109,10.6773333 1.91644444,11.5911111 2.82666667,11.5911111 L4.30222222,11.5911111 C4.38356583,11.5791938 4.46621195,11.5791938 4.54755556,11.5911111 L9.14488889,14.7555556 L9.24444444,14.7875556 C9.76993173,14.9163426 10.325435,14.7942107 10.7484444,14.4568889 C11.1701035,14.1309569 11.4169593,13.6280539 11.4168889,13.0951111 L11.4168889,2.89777778 C11.415009,2.36547127 11.1668976,1.86399728 10.7448889,1.53955556 Z M10.3431111,13.0986667 C10.3422945,13.303705 10.2464198,13.4967677 10.0835556,13.6213333 C9.93912255,13.7334938 9.75703216,13.7857016 9.57511111,13.7671111 L5.15555556,10.7235556 C4.89100933,10.5566853 4.57740041,10.4851824 4.26666667,10.5208889 L2.82666667,10.5208889 C2.41777778,10.5208889 1.80977778,9.984 1.80977778,9.70311111 L1.80977778,6.25066667 C1.80977778,5.89511111 2.49244445,5.184 2.82666667,5.184 L4.22755556,5.184 C4.54282513,5.21248084 4.85900779,5.14028165 5.13066667,4.97777778 L9.56444444,2.23288889 C9.75129548,2.20761138 9.94031539,2.26033122 10.0871111,2.37866667 C10.2494181,2.5021163 10.3452912,2.69386243 10.3466667,2.89777778 L10.3466667,13.0986667 L10.3431111,13.0986667 Z M13.5502222,4.14933333 C13.3381898,3.96860728 13.0227777,3.9815314 12.8262419,4.17899865 C12.6297061,4.37646591 12.6182735,4.69193558 12.8,4.90311111 C14.6666667,6.76977778 14.6666667,9.16977778 12.8,11.0542222 C12.6573134,11.1871791 12.5985785,11.3874172 12.6468371,11.5763831 C12.6950957,11.765349 12.842651,11.9129043 13.0316169,11.9611629 C13.2205828,12.0094215 13.4208209,11.9506866 13.5537778,11.808 C15.84,9.51822222 15.84,6.43911111 13.5502222,4.14933333 Z"></path>
            </g>
        </g>
    </g>
</svg>