<?xml version="1.0" encoding="utf-8"?>
<!-- Generator: Adobe Illustrator 21.0.0, SVG Export Plug-In . SVG Version: 6.00 Build 0)  -->
<svg version="1.1" id="图层_1" xmlns="http://www.w3.org/2000/svg" xmlns:xlink="http://www.w3.org/1999/xlink" x="0px" y="0px"
	 viewBox="0 0 130 110" style="enable-background:new 0 0 130 110;" xml:space="preserve">
<style type="text/css">
	.st0{fill:#FFFFFF;}
</style>
<path class="st0" d="M98.3,101H32.5c-7,0-12.7-5.7-12.7-12.7V22.5c0-7,5.7-12.7,12.7-12.7h65.8c7,0,12.7,5.7,12.7,12.7v65.8
	C111,95.3,105.3,101,98.3,101z M32.5,14.9c-4.2,0-7.6,3.4-7.6,7.6v65.8c0,4.2,3.4,7.6,7.6,7.6h65.8c4.2,0,7.6-3.4,7.6-7.6l0-65.8
	c0-4.2-3.4-7.6-7.6-7.6L32.5,14.9z M95.8,32.6c0-1.4-1.1-2.5-2.5-2.5H37.6c-1.4,0-2.5,1.1-2.5,2.5l0,0c0,1.4,1.1,2.5,2.5,2.5h55.7
	C94.7,35.2,95.8,34,95.8,32.6L95.8,32.6z M95.8,52.9c0-1.4-1.1-2.5-2.5-2.5H37.6c-1.4,0-2.5,1.1-2.5,2.5l0,0c0,1.4,1.1,2.5,2.5,2.5
	h55.7C94.7,55.4,95.8,54.3,95.8,52.9L95.8,52.9z M80.6,73.1c0-1.4-1.1-2.5-2.5-2.5l-40.5,0c-1.4,0-2.5,1.1-2.5,2.5l0,0
	c0,1.4,1.1,2.5,2.5,2.5h40.5C79.5,75.7,80.6,74.5,80.6,73.1L80.6,73.1z"/>
</svg>
