<?xml version="1.0" standalone="no"?><!DOCTYPE svg PUBLIC "-//W3C//DTD SVG 1.1//EN" "http://www.w3.org/Graphics/SVG/1.1/DTD/svg11.dtd"><svg t="1512031736468" class="icon" style="" viewBox="0 0 1024 1024" version="1.1" xmlns="http://www.w3.org/2000/svg" p-id="16793" xmlns:xlink="http://www.w3.org/1999/xlink" width="64" height="64"><defs><style type="text/css"></style></defs><path d="M596.7 554.4H427.5c-158.4 0-287.2 126.9-287.2 282.9v16.6c0 83.2 126.8 83.2 287.2 83.2h169.2c154.1 0 287.2 0 287.2-83.2v-16.6c0-156.1-128.9-282.9-287.2-282.9z m237.6 301c0 4-6.1 17.5-84.1 24.2-49.6 4.2-108.8 4.2-152 4.2H426c-52.1 0-111.1 0-158.5-4.2-70-6.2-77.5-19-77.5-24.2v-16.9c0-127.7 105.9-231.7 236.1-231.7h172.3c130.2 0 236.1 103.9 236.1 231.7l-0.2 16.9zM503.6 88.3c-125.7 0-228 100.8-228 224.6 0 123.9 102.2 224.7 228 224.7 125.7 0 228-100.8 228-224.7 0-123.8-102.2-224.6-228-224.6z m0.1 396.1c-96.8 0-175.5-77.2-175.5-172.1 0-94.9 78.7-172.1 175.5-172.1s175.5 77.2 175.5 172.1c-0.1 94.9-78.8 172.1-175.5 172.1z" fill="" p-id="16794"></path></svg>