<?xml version="1.0" standalone="no"?><!DOCTYPE svg PUBLIC "-//W3C//DTD SVG 1.1//EN" "http://www.w3.org/Graphics/SVG/1.1/DTD/svg11.dtd"><svg t="1596459081146" class="icon" viewBox="0 0 1024 1024" version="1.1" xmlns="http://www.w3.org/2000/svg" p-id="19730" xmlns:xlink="http://www.w3.org/1999/xlink" width="200" height="200"><defs><style type="text/css"></style></defs><path d="M928.312889 756.906667L859.591111 512 361.415111 20.195556c-27.363556-27.079111-62.577778-26.794667-89.713778 0L137.159111 153.031111c-27.136 26.737778-27.420444 61.553778 0 88.576l498.176 491.804445 248.092445 67.811555c34.474667 7.224889 52.224-10.353778 44.885333-44.316444zM204.458667 219.420444c-22.926222-21.162667-22.755556-23.267556 0-44.259555L294.115556 86.584889c22.186667-21.560889 21.788444-22.983111 44.885333 0L428.714667 175.217778 294.115556 307.996444 204.458667 219.420444z m426.097777 420.693334L339.057778 352.256l134.599111-132.835556 291.555555 287.857778-134.599111 132.835556z m44.885334 44.316444l134.542222-132.892444 50.631111 182.840889-185.173333-49.948445z m196.835555 303.616a56.888889 56.888889 0 0 1-57.571555-56.092444 56.888889 56.888889 0 0 1 57.571555-56.149334 56.888889 56.888889 0 0 1 57.457778 56.149334 56.888889 56.888889 0 0 1-57.457778 56.092444z m-231.537777 0a56.888889 56.888889 0 0 1-57.571556-56.092444 56.888889 56.888889 0 0 1 57.514667-56.149334 56.888889 56.888889 0 0 1 57.571555 56.149334 56.888889 56.888889 0 0 1-57.571555 56.092444z m-230.172445 0a56.888889 56.888889 0 0 1-57.571555-56.092444 56.888889 56.888889 0 0 1 57.571555-56.149334 56.888889 56.888889 0 0 1 57.514667 56.149334 56.888889 56.888889 0 0 1-57.514667 56.092444z m-231.537778 0a56.888889 56.888889 0 0 1-57.571555-56.092444 56.888889 56.888889 0 0 1 57.514666-56.149334 56.888889 56.888889 0 0 1 57.571556 56.149334 56.888889 56.888889 0 0 1-57.571556 56.092444z" p-id="19731"></path></svg>