<?xml version="1.0" standalone="no"?><!DOCTYPE svg PUBLIC "-//W3C//DTD SVG 1.1//EN" "http://www.w3.org/Graphics/SVG/1.1/DTD/svg11.dtd"><svg t="1605943433047" class="icon" viewBox="0 0 1024 1024" version="1.1" xmlns="http://www.w3.org/2000/svg" p-id="32079" xmlns:xlink="http://www.w3.org/1999/xlink" width="200" height="200"><defs><style type="text/css">@font-face { font-family: element-icons; src: url("chrome-extension://moombeodfomdpjnpocobemoiaemednkg/fonts/element-icons.woff") format("woff"), url("chrome-extension://moombeodfomdpjnpocobemoiaemednkg/fonts/element-icons.ttf ") format("truetype"); }
</style></defs><path d="M392.6784 485.9392c0-13.2864 2.2528-26.0096 6.272-37.9392l-70.3232-52.5824A200.7552 200.7552 0 0 0 307.2 485.9392c0 32.512 7.68 63.2064 21.376 90.4448l70.2976-52.6848a118.6048 118.6048 0 0 1-6.1952-37.76" fill="#FBBC05" p-id="32080"></path><path d="M516.1728 365.184c29.44 0 56.0384 10.2144 76.928 26.9312l60.8-59.4432A210.7392 210.7392 0 0 0 516.1728 281.6c-82.5856 0-153.5488 46.2336-187.5456 113.8176l70.3488 52.5824c16.2048-48.1792 62.3872-82.816 117.1968-82.816" fill="#EA4335" p-id="32081"></path><path d="M516.1728 606.6688c-54.8352 0-101.0176-34.6368-117.248-82.816l-70.2976 52.608c33.9712 67.584 104.96 113.792 187.5456 113.792 50.944 0 99.6096-17.7152 136.1664-50.9184L585.5488 588.8c-18.816 11.6224-42.5216 17.8688-69.376 17.8688" fill="#34A853" p-id="32082"></path><path d="M715.648 485.9392c0-12.0832-1.92-25.088-4.7616-37.1456h-194.7136v78.9248h112.0768A91.9552 91.9552 0 0 1 585.5744 588.8l66.7648 50.5344c38.3488-34.8672 63.3088-86.784 63.3088-153.3952" fill="#4285F4" p-id="32083"></path></svg>